<?xml version="1.0" encoding="utf-8"?>
<!-- Generator: Adobe Illustrator 18.1.1, SVG Export Plug-In . SVG Version: 6.00 Build 0)  -->
<svg version="1.1" id="Layer_1" xmlns="http://www.w3.org/2000/svg" xmlns:xlink="http://www.w3.org/1999/xlink" x="0px" y="0px"
	 viewBox="0 0 200 200" enable-background="new 0 0 200 200" xml:space="preserve">
<g>
	<g>
		<polygon fill="#0072CE" points="153.3,72.6 138.7,72.6 138.7,83.6 127.6,83.6 127.6,98.3 138.7,98.3 138.7,109.3 153.3,109.3 
			153.3,98.3 164.2,98.3 164.2,83.6 153.3,83.6 		"/>
		<path fill="#0072CE" d="M36.3,159.5c-10.8,0-19.5-8.7-19.5-19.5s8.7-19.5,19.5-19.5s19.5,8.7,19.5,19.5
			C55.8,150.7,47.1,159.5,36.3,159.5z"/>
		<path fill="#0072CE" d="M138.9,159.8c-10.8,0-19.7-8.9-19.7-19.7c0-10.8,8.9-19.7,19.7-19.7c10.8,0,19.7,8.9,19.7,19.7
			C158.6,150.9,149.9,159.8,138.9,159.8z"/>
		<path fill="#0072CE" d="M64.9,46.4h-2.4c-0.2,0-0.2-0.2-0.2-0.2v-6.3c0-0.2,0.2-0.2,0.2-0.2h2.4c0.2,0,0.2,0.2,0.2,0.2v6.3
			C65,46.2,65,46.4,64.9,46.4z"/>
		<path fill="#0072CE" d="M59.9,47.1l-2.1,1.2c-0.2,0-0.2,0-0.3-0.2l-3.1-5.5c0-0.2,0-0.3,0.2-0.3l2.1-1.2c0.2,0,0.3,0,0.3,0.2
			l3.1,5.5C60.1,46.9,60.1,46.9,59.9,47.1z"/>
		<path fill="#0072CE" d="M56,50.2l-1.2,2.1c0,0.2-0.2,0.2-0.3,0.2l-5.5-3.1c-0.2,0-0.2-0.2-0.2-0.3l1.2-2.1c0-0.2,0.2-0.2,0.3-0.2
			l5.5,3.1C56,49.8,56.1,50,56,50.2z"/>
		<path fill="#0072CE" d="M54.1,54.8v2.4c0,0.2-0.2,0.2-0.2,0.2h-6.3c-0.2,0-0.2-0.2-0.2-0.2v-2.4c0-0.2,0.2-0.2,0.2-0.2h6.3
			C54.1,54.4,54.1,54.6,54.1,54.8z"/>
		<path fill="#0072CE" d="M67.4,47.1l2.1,1.2c0.2,0,0.3,0,0.3-0.2l3.1-5.5c0-0.2,0-0.3-0.2-0.3l-2.1-1.2c-0.2,0-0.3,0-0.3,0.2
			l-3.1,5.5C67.3,46.9,67.3,46.9,67.4,47.1z"/>
		<path fill="#0072CE" d="M71.4,50.2l1.2,2.1c0,0.2,0.2,0.2,0.3,0.2l5.5-3.1c0.2,0,0.2-0.2,0.2-0.3l-1.2-2.1c0-0.2-0.2-0.2-0.3-0.2
			l-5.5,3.1C71.4,49.8,71.4,50,71.4,50.2z"/>
		<path fill="#0072CE" d="M73.3,54.8v2.4c0,0.2,0.2,0.2,0.2,0.2h6.3c0.2,0,0.2-0.2,0.2-0.2v-2.4c0-0.2-0.2-0.2-0.2-0.2h-6.3
			C73.4,54.4,73.3,54.6,73.3,54.8z"/>
		<path fill="#0072CE" d="M199.9,60.1c0-3.9-3.3-7-7-7H90.1c-3.9,0-7,3.3-7,7v2.6H58.4c-2.1,0-4.1,0.9-5.8,2.2l-42.3,45.6
			c-3.4,2.9-5.3,7.4-5.1,11.8v2.7c-2.7,0-5,2.2-5,5v4.8c0,2.9,2.4,5.1,5.1,5l12.7-0.3c0.2-8.7,7.2-15.6,15.9-15.6
			c8.4,0,15.4,6.7,15.9,14.9l33.1-0.7h44c0.9-8.1,7.5-14.2,15.8-14.2c8.2,0,15.1,6.3,15.8,14.2h34.3c3.9,0,7-3.3,7-7V93h-26.9
			c-1,13.9-12.5,24.7-26.7,24.7c-14,0-25.7-11-26.7-24.7H82.9v-5.1h36.8c1.5-13.4,12.8-23.6,26.6-23.6s25,10.3,26.6,23.6h27.1V60.1z
			 M76.5,100.9c0,1.2-1,2.2-2.2,2.2l-45.1,0.9c-1.4,0-2.1-1.7-1.2-2.7l24.8-27.9c1.7-1.5,3.9-2.6,6.2-2.6h15.1c1.2,0,2.2,1,2.2,2.2
			v27.9H76.5z"/>
	</g>
</g>
</svg>
