<svg enable-background="new 0 0 173 200" viewBox="0 0 173 200" xmlns="http://www.w3.org/2000/svg"><path d="m86.5 0-86.5 49.9 86.5 50 86.5-50z" fill="#0072ce"/><path d="m0 49.9 86.5 50v99.8l-86.5-49.9z" fill="#003087"/><path d="m86.5 99.9v99.8l86.5-49.9v-99.9z" fill="#005eb8"/><g fill="#fff"><path d="m124.1 74.9h-75.2c-5.1 0-9.3 4.2-9.3 9.3v47.5c0 5.1 4.2 9.3 9.3 9.3h75.2c5.1 0 9.3-4.2 9.3-9.3v-47.6c0-5.1-4.2-9.2-9.3-9.2zm-37.6 56.1c-12.8 0-23.1-10.3-23.1-23.1s10.3-23.1 23.1-23.1 23.1 10.3 23.1 23.1-10.4 23.1-23.1 23.1z"/><path d="m101.9 102.9h-10.5v-10.4h-9.9v10.4h-10.4v9.9h10.4v10.5h9.9v-10.5h10.5z"/><path d="m93.3 84.7h-14.1c-7.1 0-12.8-5.7-12.8-12.8s5.7-12.8 12.8-12.8h14.1c7.1 0 12.8 5.7 12.8 12.8 0 7-5.7 12.8-12.8 12.8zm-14.1-18.6c-3.2 0-5.7 2.6-5.7 5.7 0 3.2 2.6 5.7 5.7 5.7h14.1c3.2 0 5.7-2.6 5.7-5.7 0-3.2-2.6-5.7-5.7-5.7z"/></g></svg>