<svg enable-background="new 0 0 200 200" viewBox="0 0 200 200" xmlns="http://www.w3.org/2000/svg"><path d="m100 0-86.6 50 86.6 50 86.6-50z" fill="#eeff2d"/><path d="m13.4 50 86.6 50v100l-86.6-50z" fill="#ddc805"/><path d="m100 100v100l86.6-50v-100z" fill="#ebf85b"/><g fill="#0072ce"><path d="m97.5 136.9c-4.2 0-7.5-.2-9.9-2.6s-2.7-6.1-2.7-9c0-6.1-3.7-12.3-6.5-16.9-1-1.7-1.9-3.2-2.4-4.4-1.8-4.1-3.6-9.2-3.6-15.7 0-15 12.2-27.3 27.3-27.3s27.3 12.2 27.3 27.3c0 5.5-1.1 10.4-3.5 15.8-.6 1.4-1.6 2.9-2.7 4.6-2.8 4.4-6.5 10.4-6.5 16.7 0 3.9-.5 7.9-3.9 10-2.5 1.5-5.5 1.5-10.1 1.5h-1.8c-.3 0-.6 0-1 0zm2.1-68.7c-11.1 0-20.1 9-20.1 20.1 0 4.2.9 7.9 3 12.8.4.8 1.1 2.1 2 3.6 3 5 7.5 12.5 7.5 20.6 0 3.3.6 3.9.6 3.9.5.5 3.6.5 5.8.5h1.9c2.5 0 5.6 0 6.2-.4 0 0 .5-.7.5-3.9 0-8.4 4.6-15.7 7.6-20.6 1-1.5 1.8-2.8 2.2-3.7 2-4.5 2.8-8.3 2.8-12.8.1-11.1-8.9-20.1-20-20.1z"/><path d="m107.9 158.5-6.6 3.3c-1 .5-2.3.5-3.3 0l-6.5-3.3c-.8-.4-1.4-1.2-1.6-2l-2.6-12.1c-.4-1.8 1.2-3.5 3.3-3.5h18.4c2.1 0 3.7 1.7 3.3 3.5l-2.6 12.1c-.4.8-1 1.6-1.8 2z"/><path d="m101.4 57h-3.1c-1.1 0-1.9-.9-1.9-1.9v-15.4c0-1.1.9-1.9 1.9-1.9h3.1c1.1 0 1.9.9 1.9 1.9v15.4c0 1.1-.9 1.9-1.9 1.9z"/><path d="m77.3 63.6-2.2 2.2c-.7.7-2 .7-2.7 0l-10.9-10.9c-.7-.7-.7-2 0-2.7l2.2-2.2c.7-.7 2-.7 2.7 0l10.9 10.9c.8.7.8 2 0 2.7z"/><path d="m68.8 86.8v3.1c0 1.1-.9 1.9-1.9 1.9h-15.4c-1.1 0-1.9-.9-1.9-1.9v-3.1c0-1.1.9-1.9 1.9-1.9h15.4c1 0 1.9.9 1.9 1.9z"/><path d="m73.2 108.9 2.2 2.2c.7.7.7 2 0 2.7l-10.9 10.9c-.7.7-2 .7-2.7 0l-2.2-2.2c-.7-.7-.7-2 0-2.7l10.9-10.9c.8-.7 2-.7 2.7 0z"/><path d="m124.5 111 2.2-2.2c.7-.7 2-.7 2.7 0l10.9 10.9c.7.7.7 2 0 2.7l-2.2 2.2c-.7.7-2 .7-2.7 0l-10.9-10.9c-.8-.7-.8-1.9 0-2.7z"/><path d="m131.2 89.6v-3.1c0-1.1.9-1.9 1.9-1.9h15.4c1.1 0 1.9.9 1.9 1.9v3.1c0 1.1-.9 1.9-1.9 1.9h-15.4c-1 0-1.9-.9-1.9-1.9z"/><path d="m124.6 65.5-2.2-2.2c-.7-.7-.7-2 0-2.7l10.9-10.9c.7-.7 2-.7 2.7 0l2.2 2.2c.7.7.7 2 0 2.7l-10.9 10.9c-.7.8-1.9.8-2.7 0z"/></g></svg>