<svg enable-background="new 0 0 200 200" viewBox="0 0 200 200" xmlns="http://www.w3.org/2000/svg"><path d="m100 0-86.6 50 86.6 50 86.6-50z" fill="#0072ce"/><path d="m13.4 50 86.6 50v100l-86.6-50z" fill="#003087"/><path d="m100 100v100l86.6-50v-100z" fill="#005eb8"/><path d="m161.6 117.6c1.5-.3 2.7-.6 3.2-1.1 1.6-1.5 1.1-6 1.1-8.3 0-.6-1.4-.6-1.5-1.2-.2-3.6-1.8-10.2-2.1-13.8-.1-1.3-.7-3.1-3-4.6-2.8-1.7-10.7-6.4-13.7-7.6-2-.8-1.5-1-3.6-1.3-10.6-1.5-33.6-3.3-44 0-8.5 2.7-15.9 6.6-23.6 11.4-13.6 2.3-24.7 4.3-31.3 6.1-3.2.9-4.5 2.4-5.5 4.3-1.1 2.1-1.6 3.3-2.1 4.5-1.2.1-1.5 1.2-1.4 2.6 0 2.3-.2 3.9.5 6.2.5 1.7 2 2.7 3.8 2.7l3.3.1c1.6-.3 2.1-.2 2-2.4 0-.7-.1-1.5-.1-2.3 0-7.6 6.2-13.8 13.8-13.8s13.8 6.2 13.8 13.8c0 1.1 0 2.1-.1 3.1-.2 3.4-1.3 3.1 2 3.2l55.6-.1c2.4-.3 3 0 2.7-3.2-.1-1-.1-2-.1-3 0-7.6 6.2-13.8 13.8-13.8s13.8 6.2 13.8 13.8v2c-.1 2.7-.6 3.3 2.7 2.7zm-44.3-25.3c.9-7 1-9 1.6-10.7.1-.3.7-.8 1.2-.8 5 .2 10.6.2 15.5 1.3 1.7.5 5.3 4.5 6.2 5.7.3.5 2.9 3.4 2.5 4-.3.4-.6.7-1.3.7-7.6.3-16 1.1-23.6 1.1-2.2.1-2.3.6-2.1-1.3zm-28.7 2.4c.1-.3.4-1.3.5-2.4.1-1.8-3.9-2-6-1.8 4.1-3 10.8-6.2 16.2-8.1 4.4-1.5 10.4-1.5 15.2-1.6.8 0 .8.3.7 1-.3 2.2-1.1 6.9-1.6 10.1-.2 1.5-.6 1.9-2.2 1.9-6.3 0-22.9 1.2-22.8.9zm-31.3 9.2c5 0 9.1 4.1 9.1 9.1s-4.1 9.1-9.1 9.1-9.1-4.1-9.1-9.1 4.1-9.1 9.1-9.1z" fill="#fff"/></svg>