<svg width="44" height="44" viewBox="0 0 44 44" xmlns="http://www.w3.org/2000/svg"><title>Close</title><path d="M24.45 22c1.558-1.56 3.13-3.13 4.712-4.713.346-.495.334-.946-.037-1.354-.37-.41-.742-.786-1.113-1.132-.42-.47-.854-.568-1.3-.296-.444.272-.828.618-1.15 1.04l-3.785 3.784-4.713-4.713c-.52-.346-.977-.334-1.373.037-.394.37-.766.743-1.112 1.114-.495.42-.6.853-.315 1.298.284.446.624.83 1.02 1.15L19.068 22l-4.675 4.713c-.372.495-.365.946.018 1.354.385.41.75.786 1.096 1.132.42.47.86.568 1.317.296.458-.272.848-.606 1.17-1.002l3.784-3.822 4.676 4.713c.52.346.977.334 1.373-.037.396-.37.767-.743 1.113-1.114.494-.42.6-.853.315-1.298-.285-.446-.625-.83-1.02-1.15L24.448 22zm10.76 13.434c2.698-2.697 4.423-5.913 5.178-9.65.754-3.735.414-7.365-1.02-10.89-1.436-3.526-3.706-6.365-6.81-8.517C29.453 4.225 26.02 3.105 22.26 3.02c-3.76-.088-7.23.846-10.41 2.8-3.178 1.955-5.584 4.614-7.217 7.98-1.658 3.462-2.214 7.1-1.67 10.91.544 3.81 2.103 7.15 4.676 10.02 2.522 2.77 5.59 4.637 9.202 5.602 3.612.965 7.2.878 10.762-.26 1.434-.445 2.795-1.064 4.082-1.855 1.286-.792 2.46-1.72 3.525-2.783zM10.868 11.127c2.524-2.5 5.53-3.97 9.018-4.416 3.488-.444 6.766.224 9.834 2.005 2.918 1.756 5.04 4.206 6.363 7.348 1.324 3.14 1.59 6.37.798 9.685-.865 3.464-2.696 6.296-5.49 8.498-2.797 2.202-5.982 3.303-9.557 3.303s-6.76-1.102-9.556-3.304c-2.795-2.202-4.626-5.034-5.492-8.498-.643-2.622-.6-5.24.13-7.85.73-2.61 2.047-4.866 3.952-6.77z" fill="#000" stroke-width="1px" fill-rule="evenodd"></path></svg>