<svg enable-background="new 0 0 200 200" viewBox="0 0 200 200" xmlns="http://www.w3.org/2000/svg"><path d="m100 0-86.6 50 86.6 50 86.6-50z" fill="#0072ce"/><path d="m13.4 50 86.6 50v100l-86.6-50z" fill="#003087"/><path d="m100 100v100l86.6-50v-100z" fill="#005eb8"/><g fill="#fff"><path d="m63.6 93.4v48.8c0 2.1 1.7 3.9 3.9 3.9h21.3c2.1 0 3.9-1.7 3.9-3.9v-37.6c0-2.1 1.7-3.9 3.9-3.9h7.7c2.1 0 3.9 1.7 3.9 3.9v37.6c0 2.1 1.7 3.9 3.9 3.9h21.3c2.1 0 3.9-1.7 3.9-3.9v-48.8c0-2.1-1.7-3.9-3.9-3.9h-66c-2.1 0-3.8 1.7-3.8 3.9z"/><path d="m139.5 69.8 9.9-9.9c1.4-1.4 1.4-3.6 0-4.9-1.4-1.4-3.6-1.4-4.9 0l-9.9 9.9-9.9-9.9c-1.4-1.4-3.6-1.4-4.9 0-1.4 1.4-1.4 3.6 0 4.9l9.9 9.9-9.9 9.9c-1.4 1.4-1.4 3.6 0 4.9.7.7 1.6 1 2.5 1s1.8-.3 2.5-1l9.9-9.9 9.9 9.9c.7.7 1.6 1 2.5 1s1.8-.3 2.5-1c1.4-1.4 1.4-3.6 0-4.9z"/><path d="m114.8 55c-1.4-1.4-3.6-1.4-4.9 0l-9.9 9.9-9.9-9.9c-1.4-1.4-3.6-1.4-4.9 0-1.4 1.4-1.4 3.6 0 4.9l9.9 9.9-9.9 9.9c-1.4 1.4-1.4 3.6 0 4.9.7.7 1.6 1 2.5 1s1.8-.3 2.5-1l9.9-9.9 9.9 9.9c.7.7 1.6 1 2.5 1s1.8-.3 2.5-1c1.4-1.4 1.4-3.6 0-4.9l-9.9-9.9 9.9-9.9c1.2-1.3 1.2-3.5-.2-4.9z"/><path d="m80.2 55c-1.4-1.4-3.6-1.4-4.9 0l-9.9 9.9-9.8-9.9c-1.4-1.4-3.6-1.4-4.9 0-1.4 1.4-1.4 3.6 0 4.9l9.9 9.9-9.9 9.9c-1.4 1.4-1.4 3.6 0 4.9.7.7 1.6 1 2.5 1s1.8-.3 2.5-1l9.9-9.9 9.9 9.9c.7.7 1.6 1 2.5 1s1.8-.3 2.5-1c1.4-1.4 1.4-3.6 0-4.9l-9.9-9.9 9.9-9.9c1.1-1.3 1.1-3.5-.3-4.9z"/></g></svg>