<svg enable-background="new 0 0 173 200" viewBox="0 0 173 200" xmlns="http://www.w3.org/2000/svg"><path d="m86.5 0-86.5 49.9 86.5 50 86.5-50z" fill="#0072ce"/><path d="m0 49.9 86.5 50v99.8l-86.5-49.9z" fill="#003087"/><path d="m86.5 99.9v99.8l86.5-49.9v-99.9z" fill="#005eb8"/><g fill="#fff"><path d="m78.5 111-6.9-19.8-3.6 8.6c-.5 1-1.5 1.6-2.6 1.6h-24.4c-1.2 0-2.3-1-2.3-2.3 0-1.2 1-2.3 2.3-2.3h23.4l5.1-11.7c1.1-2.3 4.5-2 5.2.5l6.7 19.3 3.4-6.9c.5-1 1.5-1.6 2.6-1.6h9.3c1.2 0 2.3 1 2.3 2.3 0 1.2-1 2.3-2.3 2.3h-8.3l-4.8 10.1c-1 2.3-4.3 2.2-5.1-.1z"/><path d="m119.1 69.4c-4.6-4.6-11.6-6.7-18.7-5.5-5.8 1-10.7 4-14 8.4-3.2-4.4-8.2-7.4-14-8.4-7.1-1.2-14.1.8-18.7 5.5-6.5 6.5-8.5 15.7-6.1 24h14.5l4.2-9.6c1.1-2.3 3.3-3.6 5.7-3.6 2.8 0 5.2 1.8 6 4.4l4 11.4c1.2-1.9 3.2-3 5.4-3h9.3c3.2 0 5.8 2.6 5.8 5.8s-2.6 5.8-5.8 5.8h-6l-3.8 8.1c-1 2.2-3.2 3.6-5.7 3.6-2.7 0-5-1.6-5.9-4.1l-3.9-11.2-.1.3-.1.1c-1.1 2.2-3.3 3.5-5.7 3.5h-10.6l31.5 31.5 32.7-32.7c9.5-9.5 9.5-24.8 0-34.3z"/></g></svg>