<svg enable-background="new 0 0 173 200" viewBox="0 0 173 200" xmlns="http://www.w3.org/2000/svg"><path d="m86.5 0-86.5 49.9 86.5 50 86.5-50z" fill="#0072ce"/><path d="m0 49.9 86.5 50v99.8l-86.5-49.9z" fill="#003087"/><path d="m86.5 99.9v99.8l86.5-49.9v-99.9z" fill="#005eb8"/><path d="m146.8 71.5h-6.2c-.6 0-1.1.4-1.3.9l-4.9 12.8c-.2.5-.6.8-1.1.9l-32.6 3.7c-.5-1.2-1.1-2.4-1.9-3.5l-2.8-3.9c-3.1-4.3-8.1-6.9-13.5-6.9h-7v-6h41.3c1.7 0 3.1-1.4 3.1-3.1s-1.4-3.1-3.1-3.1h-41.4c-.1-1.7-1.4-3-3.1-3s-3 1.3-3.1 3h-41.3c-1.7 0-3.1 1.4-3.1 3.1s1.4 3.1 3.1 3.1h41.3v6h-7.3c-4.2 0-8.2 1.6-11.3 4.4l-17.3 16.1c-6.6 6.1-7.2 12.8-1.4 19.6l1.5 1.8c3.2 3.7 7.8 5.8 12.6 5.8h2.7l4.7 10h-16.3l-5.4-5.7c-1.2-1.3-3.2-1.3-4.4-.1s-1.3 3.2-.1 4.4l6.3 6.6c.6.6 1.4 1 2.3 1h22.7 15 26.2c1.7 0 3.1-1.4 3.1-3.1s-1.4-3.1-3.1-3.1h-21.6l4.1-10c6.4-.1 12.2-3.8 14.9-9.7l5.2-7.9 41-9.2c.6-.1 1-.6 1.1-1.1l3.7-22.1c.3-.9-.4-1.7-1.3-1.7zm-111.8 28.5 19.7-17h14.5v17zm36.3 33.2h-10.9l-4.6-9.9 1.1-.1h18.5z" fill="#fff"/></svg>