<svg enable-background="new 0 0 173 200" viewBox="0 0 173 200" xmlns="http://www.w3.org/2000/svg"><path d="m86.5 0-86.5 49.9 86.5 50 86.5-50z" fill="#0072ce"/><path d="m0 49.9 86.5 50v99.8l-86.5-49.9z" fill="#003087"/><path d="m86.5 99.9v99.8l86.5-49.9v-99.9z" fill="#005eb8"/><g fill="#fff"><path d="m127.8 91.7h-44.8v-25.5c0-1.6-1.3-2.9-2.9-2.9h-34.9c-1.6 0-2.9 1.3-2.9 2.9v83.4h8.5v-31.4h23.1v31.4h9.1 24.8v-19.5h12.9v19.5h10v-55c0-1.6-1.3-2.9-2.9-2.9zm-77-16.3h23.5v4.8h-23.5zm0 8.1h23.5v4.8h-23.5zm0 8.1h23.5v4.8h-23.5zm70.6 21.6h-70.6v-4.8h70.6zm0-8.4h-70.6v-4.8h70.6z"/><path d="m121.2 59.4h-9v-9h-8.1v9h-9v8.1h9v9h8.1v-9h9z"/></g></svg>