<svg enable-background="new 0 0 200 200" viewBox="0 0 200 200" xmlns="http://www.w3.org/2000/svg"><g fill="#0072ce"><path d="m183.4 83.3h-90.5v-51.5c0-3.2-2.6-5.8-5.8-5.8h-70.5c-3.2 0-5.8 2.6-5.8 5.8v168.2h17.1v-63.3h46.7v63.3h18.3 50.1v-39.3h26v39.3h20.2v-110.9c-.1-3.2-2.6-5.8-5.8-5.8zm-155.5-32.8h47.4v9.7h-47.4zm0 16.2h47.4v9.7h-47.4zm0 16.3h47.4v9.7h-47.4zm142.5 43.7h-142.5v-9.7h142.5zm0-17h-142.5v-9.7h142.5z"/><path d="m170 18.1h-18.1v-18.1h-16.4v18.1h-18.1v16.4h18.1v18.1h16.4v-18.1h18.1z"/></g></svg>