<svg enable-background="new 0 0 200 200" viewBox="0 0 200 200" xmlns="http://www.w3.org/2000/svg"><path d="m51.4 199.9 14.4-78.2 4.1-48.9c.7-.1 1.5-.2 2.2-.2h21.2 13.7 21.2c.8 0 1.5.1 2.3.2l4.3 48.9 14.8 78.2m-49.4-199.8c16.7 0 30.3 14.7 30.3 32.8 0 1.5-.1 3-.3 4.5.8 1.8 2.1 2.6 3.1 3 .8.3 1.7.5 2.8.5-1.7 4.4-5.7 7.7-10.5 9.8-5.4 9-14.8 15-25.5 15-10.4-.1-19.7-5.9-25.1-14.7-5.3-2-9.7-5.5-11.6-10.3 1.1 0 2-.2 2.8-.5 1.2-.5 2.7-1.5 3.4-4 .1-.4.2-.8.3-1.2 0-.8-.1-1.5-.1-2.3.1-18 13.7-32.6 30.4-32.6z" fill="#0072ce"/><path d="m137.2 76.8c-4.4-5.2-12.2-5.8-17.4-1.5-5.2 4.4-5.8 12.2-1.4 17.4l24.3 28.7-36.2 11.9c-6.5 2.1-10 9.1-7.9 15.5 2.1 6.5 9.1 10 15.5 7.9l53.6-17.6c1.5-.5 2.9-1.2 4.2-2.3 5.2-4.4 5.8-12.2 1.4-17.4z" fill="#0072ce"/><path d="m70.4 142.6c4.9-20.5 32.2-48.7 55.2-50.4 19.3-1.4 31.8 18.1 23.6 35.3-9.9 20.8-45.2 36.5-65.6 34.1-10.1-2.6-14.2-8.8-13.2-19z" fill="#fff"/><g fill="#0072ce"><path d="m138.5 108.8c5.7 8 4.2 18.8-3.2 24-7.5 5.2-18.1 3-23.7-5-5.7-8-4.2-18.8 3.2-24 7.4-5.3 18.1-3 23.7 5z"/><path d="m132.4 113.2c3.8 5.4 2.9 12.7-2.2 16.3-5 3.5-12.2 2-16.1-3.4-3.8-5.4-2.9-12.7 2.2-16.3 5-3.6 12.2-2 16.1 3.4z"/><path d="m62.8 76.8c4.4-5.2 12.2-5.8 17.4-1.4s5.8 12.2 1.4 17.4l-24.3 28.7 36.2 11.9c6.5 2.1 10 9.1 7.9 15.5-2.1 6.5-9.1 10-15.5 7.9l-53.6-17.6c-1.5-.5-2.9-1.2-4.2-2.3-5.2-4.4-5.8-12.2-1.4-17.4z"/></g></svg>