<svg enable-background="new 0 0 200 200" viewBox="0 0 200 200" xmlns="http://www.w3.org/2000/svg"><g fill="#0072ce"><circle cx="83.5" cy="125.9" r="9.3"/><circle cx="114" cy="125.9" r="9.3"/><path d="m175.9 90.5c0-13.5-3.2-22.8-6.9-29.1l10.6-18.4s-30.3-33.5-79.8-33.5-79.4 33.5-79.4 33.5l10.9 18.1c-3.9 6.3-7.2 15.7-7.2 29.4 0 33.1 12.5 74.5-23.5 74.5 0 0 7.8 37.2 77 20.9 6.9 3 14.4 4.6 22.1 4.6 8.5 0 16.7-2 24.2-5.5-1 .6-1.5.9-1.5.9 69.4 16.4 77.2-20.9 77.2-20.9-36.1 0-23.7-41.4-23.7-74.5zm-76.3 90.7c-30 0-54.7-28.9-56.5-65.3 4.2-3.3 17.5-12.8 32.2-14.7 10.1-1.3 19-4.5 24.7-9.8 5.7 5.3 14.6 8.5 24.7 9.8 13.9 1.8 26.6 10.5 31.4 14.2-1.6 36.6-26.3 65.8-56.5 65.8zm48.6-104.1s-20.8-15.6-48.4-15.6-47.2 15.6-47.2 15.6l-20.2-31.6s25.4-26.7 67.5-26.7 67.7 26.7 67.7 26.7z"/><path d="m116.3 35.3h-11.1v-11.2h-10.4v11.2h-11.1v10.3h11.1v11.1h10.4v-11.1h11.1z"/></g></svg>