<svg enable-background="new 0 0 173 200" viewBox="0 0 173 200" xmlns="http://www.w3.org/2000/svg"><path d="m86.5 0-86.5 49.9 86.5 50 86.5-50z" fill="#0072ce"/><path d="m0 49.9 86.5 50v99.8l-86.5-49.9z" fill="#003087"/><path d="m86.5 99.9v99.8l86.5-49.9v-99.9z" fill="#005eb8"/><g fill="#fff"><circle cx="78.5" cy="112.5" r="4.5"/><circle cx="93.3" cy="112.5" r="4.5"/><path d="m123.2 95.4c0-6.5-1.5-11-3.4-14.1l5.1-8.9s-14.7-16.2-38.6-16.2c-24 0-38.5 16.2-38.5 16.2l5.3 8.8c-1.9 3-3.5 7.6-3.5 14.2 0 16 6 36.1-11.4 36.1 0 0 3.8 18 37.3 10.1 3.4 1.4 7 2.2 10.7 2.2 4.1 0 8.1-1 11.7-2.7-.5.3-.7.4-.7.4 33.6 7.9 37.4-10.1 37.4-10.1-17.4.1-11.4-20-11.4-36zm-36.9 43.9c-14.5 0-26.5-14-27.3-31.6 2-1.6 8.5-6.2 15.6-7.1 4.9-.6 9.2-2.2 11.9-4.8 2.8 2.6 7.1 4.1 11.9 4.8 6.7.9 12.9 5.1 15.2 6.9-.7 17.7-12.7 31.8-27.3 31.8zm23.5-50.4s-10.1-7.5-23.4-7.5-22.9 7.5-22.9 7.5l-9.8-15.3s12.3-12.9 32.7-12.9 32.8 12.9 32.8 12.9z"/><path d="m94.4 68.7h-5.4v-5.4h-5v5.4h-5.4v5h5.4v5.4h5v-5.4h5.4z"/></g></svg>