<svg enable-background="new 0 0 200 200" viewBox="0 0 200 200" xmlns="http://www.w3.org/2000/svg"><g fill="#0072ce"><path d="m191.1 124.8h-18c-.2 0-.2 0-.4 0-6.4 0-11.7 0-11.7 0l-9.7-11.2c-.7-.9-1.1-1.8-1.3-2.9l-11.5-55.7c-2.6-11.2-11.4-13.9-16.1-13.9h-35.3c-4.2 0-7.9 3.3-8.4 7.3-.2.7-.4 1.3-.7 2-2.2 10.1-6.6 31.9-7.7 37-1.3-7.9-4.6-26-5.5-29.5-1.1-4.4-4.4-8.6-9-8.6h-3.1c-.4 0-.9 0-1.3 0-12.5 0-16.9 0-16.9 0h-18.2s0 0-.2 0h-7.1c-4.6 0-8.6 3.7-8.6 8.6v18 .4 27.5.4 18c0 4.6 3.7 8.6 8.6 8.6h4.4v42.9 1.3 10.8c0 7.5 6.2 13.6 13.6 13.6h14.3c7.5 0 13.6-6.2 13.6-13.6v-1.8-9.2-56.7c0 7.5 6.2 13.6 13.6 13.6h5.1c5.9 0 11.2-4 13-9.5v63.6c0 7.5 6.2 13.6 13.6 13.6h14.1c7.5 0 13.6-6.2 13.6-13.6v-82.5c0-.4 0-.9 0-1.3l5.7 17.8c.4 1.1.9 2 1.8 2.9l24.2 23.8v27.1 1.3 10.8c0 7.5 6.2 13.6 13.6 13.6h5.5c7.5 0 13.6-6.2 13.6-13.6v-10.8c0-.7 0-1.3-.2-2 4-.7 7.3-4.2 7.3-8.4v-5.1c0-2.6 0-5.5 0-8.4 0-1.5 0-2.9 0-4.4 0-4.8 0-8.4 0-8.4v-5.3c.1-4.4-3.7-8.1-8.3-8.1zm-103.8-24.9c0-.2 0-.4 0-.7z"/><circle cx="33.4" cy="27.3" r="17.8"/><circle cx="106.9" cy="18.1" r="17.8"/><circle cx="177.5" cy="105.6" r="14.5"/></g></svg>