<svg enable-background="new 0 0 173 200" viewBox="0 0 173 200" xmlns="http://www.w3.org/2000/svg"><path d="m86.5 0-86.5 49.9 86.5 50 86.5-50z" fill="#0072ce"/><path d="m0 49.9 86.5 50v99.8l-86.5-49.9z" fill="#003087"/><path d="m86.5 99.9v99.8l86.5-49.9v-99.9z" fill="#005eb8"/><g fill="#fff"><path d="m127.9 111.2h-8.2c-.1 0-.1 0-.2 0-2.9 0-5.3 0-5.3 0l-4.4-5.1c-.3-.4-.5-.8-.6-1.3l-5.2-25.3c-1.2-5.1-5.2-6.3-7.3-6.3h-16.1c-1.9 0-3.6 1.5-3.8 3.3-.1.3-.2.6-.3.9-1 4.6-3 14.5-3.5 16.8-.6-3.6-2.1-11.8-2.5-13.4-.5-2-2-3.9-4.1-3.9h-1.4c-.2 0-.4 0-.6 0-5.7 0-7.7 0-7.7 0h-8.3s0 0-.1 0h-3.2c-2.1 0-3.9 1.7-3.9 3.9v8.2.2 12.5.2 8.2c0 2.1 1.7 3.9 3.9 3.9h2v19.5.6 4.9c0 3.4 2.8 6.2 6.2 6.2h6.5c3.4 0 6.2-2.8 6.2-6.2v-.8-4.2-25.8c0 3.4 2.8 6.2 6.2 6.2h2.3c2.7 0 5.1-1.8 5.9-4.3v28.9c0 3.4 2.8 6.2 6.2 6.2h6.4c3.4 0 6.2-2.8 6.2-6.2v-37.5c0-.2 0-.4 0-.6l2.6 8.1c.2.5.4.9.8 1.3l11 10.8v12.3.6 4.9c0 3.4 2.8 6.2 6.2 6.2h2.5c3.4 0 6.2-2.8 6.2-6.2v-4.9c0-.3 0-.6-.1-.9 1.8-.3 3.3-1.9 3.3-3.8v-2.3c0-1.2 0-2.5 0-3.8 0-.7 0-1.3 0-2 0-2.2 0-3.8 0-3.8v-2.4c0-2.1-1.7-3.8-3.8-3.8zm-47.2-11.3c0-.1 0-.2 0-.3z"/><circle cx="56.2" cy="66.9" r="8.1"/><circle cx="89.6" cy="62.7" r="8.1"/><circle cx="121.7" cy="102.5" r="6.6"/></g></svg>