<svg enable-background="new 0 0 173 200" viewBox="0 0 173 200" xmlns="http://www.w3.org/2000/svg"><path d="m86.5 0-86.5 49.9 86.5 50 86.5-50z" fill="#0072ce"/><path d="m0 49.9 86.5 50v99.8l-86.5-49.9z" fill="#003087"/><path d="m86.5 99.9v99.8l86.5-49.9v-99.9z" fill="#005eb8"/><g fill="#fff"><circle cx="97.8" cy="83.1" r="13.1"/><path d="m91.2 78.4c19.3 0 35.1 15.7 35.1 35.1 0 19.3-15.7 35.1-35.1 35.1s-35.1-15.7-35.1-35.1h7.9c0 15 12.2 27.2 27.2 27.2s27.2-12.2 27.2-27.2-12.2-27.2-27.2-27.2z"/><path d="m46.2 113.5h29.4v9.8h-29.4z"/><path d="m47.5 143.4h79.3v14.3h-79.3z"/><path d="m72.4 49.4h18v47.6h-18z" transform="matrix(.8678 .497 -.497 .8678 47.1716 -30.7591)"/><path d="m53.3 88.7h32.6v10.3h-32.6z" transform="matrix(.8678 .497 -.497 .8678 55.8371 -22.1834)"/><path d="m87.7 43.4h9.8v20.6h-9.8z" transform="matrix(.8678 .497 -.497 .8678 38.9416 -38.9037)"/></g></svg>