<svg enable-background="new 0 0 200 200" viewBox="0 0 200 200" xmlns="http://www.w3.org/2000/svg"><g fill="#0072ce"><circle cx="119.6" cy="70.6" r="22.8"/><path d="m108.3 62.5c33.6 0 60.9 27.3 60.9 60.9s-27.3 60.9-60.9 60.9-60.9-27.3-60.9-60.9h13.7c0 26 21.1 47.1 47.1 47.1s47.1-21.1 47.1-47.1-21.1-47.1-47.1-47.1v-13.8z"/><path d="m30.1 123.3h51.1v16.9h-51.1z"/><path d="m32.3 175.2h137.6v24.8h-137.6z"/><path d="m75.5 12.3h31.2v82.7h-31.2z" transform="matrix(.8678 .497 -.497 .8678 38.6931 -38.2076)"/><path d="m42.4 80.4h56.6v17.8h-56.6z" transform="matrix(.8678 .497 -.497 .8678 53.7284 -23.3283)"/><path d="m102.1 1.9h17v35.7h-17z" transform="matrix(.8678 .497 -.497 .8678 24.4137 -52.339)"/></g></svg>