<svg enable-background="new 0 0 200 200" viewBox="0 0 200 200" xmlns="http://www.w3.org/2000/svg"><g fill="#0072ce"><path d="m125.6 125.7c-30.3 24.8-75.1 20.3-99.8-10-24.8-30.2-20.3-75 9.9-99.8 30.3-24.8 75.1-20.3 99.8 10 24.9 30.3 20.4 75.1-9.9 99.8zm-76.3-93.2c-21.1 17.3-24.3 48.6-7 69.7s48.6 24.3 69.7 7 24.3-48.6 7-69.7-48.6-24.3-69.7-7z"/><path d="m177 176.4-11.9 9.7c-1.2 1-3 .8-4-.4l-50.8-62c-1-1.2-.8-3 .4-4l11.9-9.7c1.2-1 3-.8 4 .4l50.8 62c1 1.2.8 3-.4 4z"/><path d="m188.4 182-20.2 16.5c-2.1 1.7-5.2 1.4-6.9-.7l-41.1-50.2c-1.7-2.1-1.4-5.2.7-6.9l20.2-16.5c2.1-1.7 5.2-1.4 6.9.7l41.1 50.2c1.7 2.1 1.4 5.2-.7 6.9z"/></g></svg>