<svg enable-background="new 0 0 173 200" viewBox="0 0 173 200" xmlns="http://www.w3.org/2000/svg"><path d="m86.5 0-86.5 49.9 86.5 50 86.5-50z" fill="#0072ce"/><path d="m0 49.9 86.5 50v99.8l-86.5-49.9z" fill="#003087"/><path d="m86.5 99.9v99.8l86.5-49.9v-99.9z" fill="#005eb8"/><g fill="#fff"><path d="m107.5 76.9h.2c1.1-2.7 1.8-5.7 1.8-8.9 0-12.8-10.4-23.2-23.2-23.2s-23.3 10.4-23.3 23.2 10.4 23.2 23.2 23.2c2.1 0 4.2-.3 6.2-.8.8-7.6 7.3-13.5 15.1-13.5z"/><path d="m120.1 80.3s17.9 12.4 19.6 4-19.6-4-19.6-4z"/><path d="m121.9 86.5s7.3 20.5 13.6 14.7c6.3-5.9-13.6-14.7-13.6-14.7z"/><path d="m117.7 74.2s21.7 1.8 19-6.4c-2.8-8.1-19 6.4-19 6.4z"/><path d="m109.3 83.5c-6-.2-11.1 4.5-11.3 10.5l-.8 18.7-5.6-4.5c-.9-1-2-1.8-3-2.4l-12.5-10c-3.7-3-8.9-3.2-12.8-.6-.9.6-8.7 6-16.6 18.9-6.1 9.9-10.5 28-13.5 40.9l54.6.1c.5-4.9 2.3-16.1 3.2-19.6l9.5 7.6c3.2 2.6 7.6 3.1 11.3 1.4s6.2-5.4 6.4-9.5l1.6-40.2c.3-5.9-4.4-11-10.5-11.3z"/></g></svg>