<?xml version="1.0" encoding="UTF-8" standalone="no"?>
<svg width="118px" height="16px" viewBox="0 0 118 16" version="1.1" xmlns="http://www.w3.org/2000/svg" xmlns:xlink="http://www.w3.org/1999/xlink">
    <!-- Generator: Sketch 39.1 (31720) - http://www.bohemiancoding.com/sketch -->
    <title>Price Boost</title>
    <desc>Created with Sketch.</desc>
    <defs>
        <polygon id="path-1" points="13.0049314 14.6112665 13.0049314 0.0112077773 0.203929418 0.0112077773 0.203929418 14.6112665 13.0049314 14.6112665"></polygon>
    </defs>
    <g id="Symbols" stroke="none" stroke-width="1" fill="none" fill-rule="evenodd">
        <g id="LrgStrapline---Promo---2liner" transform="translate(-36.000000, -8.000000)">
            <g id="Price-Boost" transform="translate(36.000000, 8.000000)">
                <path d="M2.56736294,14.5625778 C2.78135329,14.3191345 2.88821814,14.0248652 2.88821814,13.6800305 L2.88821814,11.5940807 L4.36816604,11.5940807 C5.05731402,11.5940807 5.68130051,11.490083 6.24012549,11.2820875 C6.79868984,11.0743526 7.28010297,10.7829504 7.68436489,10.4084021 C8.08810552,10.0341145 8.40009876,9.58840987 8.62034462,9.07128823 C8.84006918,8.5541666 8.95006179,7.9867403 8.95006179,7.36848802 C8.95006179,6.80992368 8.85779311,6.28107298 8.67377704,5.78193592 C8.48923969,5.28253822 8.20122588,4.84569555 7.80895367,4.47140791 C7.41694211,4.09685964 6.90868244,3.80285097 6.28469596,3.58886061 C5.66070947,3.37487026 4.91474067,3.26800541 4.04705019,3.26800541 L1.58681275,3.26800541 C1.25396783,3.26800541 0.983417296,3.30371391 0.775421801,3.37487026 C0.567426306,3.44628726 0.40686838,3.54429015 0.294269316,3.66913958 C0.181148959,3.793989 0.103997747,3.94542432 0.0622943901,4.12370617 C0.0205910327,4.30198802 0,4.49225959 0,4.69426023 L0,14.8031541 C0.166292138,14.8388626 0.371420527,14.8685762 0.615124521,14.892295 C0.85856787,14.9160138 1.10539962,14.9280035 1.35509847,14.9280035 C1.94911067,14.9280035 2.35337259,14.8062818 2.56736294,14.5625778 L2.56736294,14.5625778 Z M2.88821814,5.74622742 L4.15417569,5.74622742 C4.76043825,5.74622742 5.22960102,5.89192853 5.56270658,6.18307009 C5.89529086,6.4744723 6.06184364,6.87560647 6.06184364,7.3864726 C6.06184364,7.88560965 5.90128572,8.30186129 5.58043051,8.63444557 C5.2595753,8.96729049 4.69475546,9.13358262 3.88675291,9.13358262 L2.88821814,9.13358262 L2.88821814,5.74622742 Z M18.5866651,14.8568471 C18.9252442,14.7737011 19.2252478,14.6668362 19.4869363,14.5357313 L16.4024518,10.4709572 C17.2941217,10.2689565 17.9744077,9.87355657 18.4440917,9.28527859 C18.9132545,8.69673996 19.1480965,7.93904208 19.1480965,7.01192432 C19.1480965,6.39419334 19.0349762,5.85022517 18.8095174,5.38054111 C18.5835373,4.91137833 18.2655492,4.52197324 17.8555531,4.2128471 C17.445557,3.90398161 16.9521541,3.66913958 16.3758659,3.50858165 C15.7990563,3.34828437 15.1544788,3.26800541 14.4413514,3.26800541 L11.6957066,3.26800541 C11.3628617,3.26800541 11.0923111,3.30371391 10.8845763,3.37487026 C10.6763201,3.44628726 10.5160229,3.54429015 10.4031631,3.66913958 C10.2900428,3.793989 10.2128916,3.94542432 10.1714489,4.12370617 C10.1294849,4.30198802 10.1088938,4.49225959 10.1088938,4.69426023 L10.1088938,14.8031541 C10.275186,14.8388626 10.4803144,14.8685762 10.7240184,14.892295 C10.9674617,14.9160138 11.2142934,14.9280035 11.4639923,14.9280035 C12.0580045,14.9280035 12.4622664,14.8062818 12.6762568,14.5625778 C12.8902471,14.3191345 12.997112,14.0248652 12.997112,13.6800305 L12.997112,10.7738278 L13.4370824,10.7738278 L15.7250328,14.0545788 C15.962742,14.3994134 16.2121802,14.6399897 16.4738688,14.7765682 C16.7352967,14.9131467 17.0681416,14.9814359 17.4724035,14.9814359 C17.8761441,14.9814359 18.2478253,14.9397326 18.5866651,14.8568471 L18.5866651,14.8568471 Z M12.997112,5.62137799 L14.4947838,5.62137799 C15.0770669,5.62137799 15.5199045,5.75508938 15.8230357,6.02251216 C16.126167,6.28993494 16.277863,6.6496264 16.277863,7.10106524 C16.277863,7.52904595 16.135029,7.89186516 15.8498823,8.18874093 C15.5644749,8.48587735 15.0653379,8.63444557 14.3522104,8.63444557 L12.997112,8.63444557 L12.997112,5.62137799 Z M23.1951467,14.5625778 C23.4091371,14.3191345 23.5160019,14.0248652 23.5160019,13.6800305 L23.5160019,3.35714633 C23.3494492,3.32143783 23.1445814,3.29198484 22.9011381,3.26800541 C22.6571734,3.24428662 22.410863,3.23229691 22.1611641,3.23229691 C21.5666306,3.23229691 21.1626294,3.35427923 20.948639,3.59772258 C20.7349093,3.84142657 20.6277838,4.13569589 20.6277838,4.48026988 L20.6277838,14.8031541 C20.7940759,14.8388626 20.9992043,14.8685762 21.2429083,14.892295 C21.4863517,14.9160138 21.7331834,14.9280035 21.9828823,14.9280035 C22.5771551,14.9280035 22.9811564,14.8062818 23.1951467,14.5625778 L23.1951467,14.5625778 Z M32.5108948,14.8745711 C33.1109019,14.7439874 33.6546094,14.5776953 34.142278,14.375434 C34.2371532,12.7946161 33.8508758,12.0040768 32.9831854,12.0040768 C32.8286223,12.0040768 32.6803147,12.0220614 32.5374807,12.0575093 C32.3949074,12.0932178 32.2434721,12.1289263 32.0829141,12.1646348 C31.9223562,12.2003433 31.7412072,12.2357911 31.5392066,12.2714996 C31.3369453,12.3072081 31.105231,12.324932 30.8438031,12.324932 C30.4275515,12.324932 30.0352793,12.2509086 29.6669865,12.1020797 C29.2984331,11.9537722 28.9807056,11.7397818 28.7132829,11.4603693 C28.4458601,11.1812175 28.2347368,10.8395106 28.0804344,10.4352487 C27.9256107,10.0312474 27.8484595,9.57355304 27.8484595,9.06242627 C27.8484595,8.57501828 27.9256107,8.13530851 28.0804344,7.7430363 C28.2347368,7.3507641 28.4458601,7.01505207 28.7132829,6.73563957 C28.9807056,6.45648773 29.2984331,6.24249737 29.6669865,6.09392916 C30.0352793,5.94536095 30.4275515,5.87107685 30.8438031,5.87107685 C31.105231,5.87107685 31.3309505,5.88880077 31.521222,5.92450927 C31.711233,5.96021777 31.8837806,5.99566563 32.0383437,6.03137413 C32.1926461,6.06708263 32.3352194,6.10279113 32.4663244,6.13849963 C32.596908,6.17394748 32.7394814,6.19193205 32.8940444,6.19193205 C33.7737246,6.19193205 34.160002,5.40165343 34.0531371,3.82057489 C33.5654685,3.61857426 33.0368784,3.45228212 32.4663244,3.32143783 C31.8957703,3.1908542 31.3074923,3.12543205 30.7012298,3.12543205 C29.8569974,3.12543205 29.0787085,3.27686737 28.3655811,3.57999865 C27.6524537,3.88312993 27.0342014,4.30198802 26.5113456,4.83683358 C25.9882291,5.37167914 25.578233,6.00192113 25.2810965,6.72677761 C24.9839601,7.45189474 24.8353919,8.23044429 24.8353919,9.06242627 C24.8353919,9.91812703 24.9839601,10.7146612 25.2810965,11.4515074 C25.578233,12.1886142 25.9882291,12.8243298 26.5113456,13.3591753 C27.0342014,13.8940209 27.6524537,14.312879 28.3655811,14.6160102 C29.0787085,14.9191415 29.8569974,15.0705768 30.7012298,15.0705768 C31.3074923,15.0705768 31.9103665,15.0051547 32.5108948,14.8745711 L32.5108948,14.8745711 Z M42.111529,14.8568471 C42.4203945,14.8568471 42.6758276,14.7559771 42.8780888,14.5537159 C43.0800895,14.3517152 43.1812201,13.9951515 43.1812201,13.4840247 C43.1812201,13.2583053 43.1692304,13.0291975 43.1455116,12.7974832 C43.1215322,12.5657689 43.0978134,12.38462 43.0740946,12.2537757 L38.2959324,12.2537757 L38.2959324,10.2389822 L41.5944074,10.2389822 C41.8795541,10.2389822 42.1172632,10.1529691 42.3075348,9.98042142 C42.4975457,9.80839508 42.5929421,9.48441212 42.5929421,9.0087332 C42.5929421,8.78327442 42.5809524,8.57215118 42.5572336,8.37588475 C42.5332542,8.17987897 42.5095354,8.0224488 42.4858166,7.90333358 L38.2959324,7.90333358 L38.2959324,5.87107685 L41.9332471,5.87107685 C42.2421126,5.87107685 42.4975457,5.7670791 42.699807,5.55882296 C42.9018076,5.35108811 43.0029383,4.99739151 43.0029383,4.49825445 C43.0029383,4.26054531 42.9909485,4.02883103 42.9672298,3.80285097 C42.9432503,3.57713154 42.9195315,3.39884969 42.8958128,3.26800541 L36.994527,3.26800541 C36.6616821,3.26800541 36.3911316,3.30371391 36.1833967,3.37487026 C35.9751406,3.44628726 35.8148433,3.54429015 35.7019836,3.66913958 C35.5888633,3.793989 35.511712,3.94542432 35.4702693,4.12370617 C35.4283053,4.30198802 35.4077143,4.49225959 35.4077143,4.69426023 L35.4077143,13.4303317 C35.4077143,13.6325929 35.4283053,13.8226039 35.4702693,14.0008857 C35.511712,14.1791676 35.5888633,14.3308635 35.7019836,14.455713 C35.8148433,14.5803017 35.9751406,14.6785653 36.1833967,14.7497216 C36.3911316,14.8211386 36.6616821,14.8568471 36.994527,14.8568471 L42.111529,14.8568471 Z M52.4521371,14.8568471 C54.0209653,14.8568471 55.1946541,14.5657056 55.9732037,13.9831618 C56.7514926,13.4008787 57.1411584,12.5629018 57.1411584,11.4692313 C57.1411584,10.8869482 56.9717385,10.3609646 56.6328987,9.8912805 C56.2943196,9.42185708 55.7206377,9.06242627 54.9123745,8.81272742 C55.4829286,8.587008 55.9286332,8.25729083 56.2494884,7.82331526 C56.5706043,7.38960035 56.7309016,6.88134068 56.7309016,6.29879691 C56.7309016,5.87107685 56.6534897,5.47280978 56.4991873,5.10425636 C56.3446242,4.73596359 56.0949254,4.41510838 55.7503514,4.1414301 C55.4055167,3.86827311 54.956945,3.65428276 54.4043755,3.49971969 C53.8515454,3.34541726 53.1709987,3.26800541 52.3629962,3.26800541 L49.5993668,3.26800541 C49.2665219,3.26800541 48.9959714,3.30371391 48.7882365,3.37487026 C48.5799804,3.44628726 48.4196831,3.54429015 48.3068234,3.66913958 C48.193703,3.793989 48.1165518,3.94542432 48.0751091,4.12370617 C48.0331451,4.30198802 48.0125541,4.49225959 48.0125541,4.69426023 L48.0125541,13.4303317 C48.0125541,13.6325929 48.0331451,13.8226039 48.0751091,14.0008857 C48.1165518,14.1791676 48.193703,14.3308635 48.3068234,14.455713 C48.4196831,14.5803017 48.5799804,14.6785653 48.7882365,14.7497216 C48.9959714,14.8211386 49.2665219,14.8568471 49.5993668,14.8568471 L52.4521371,14.8568471 Z M50.7761834,9.93585096 L52.2558707,9.93585096 C52.659872,9.93585096 52.9869827,9.97468721 53.2364209,10.0518384 C53.4861197,10.1292503 53.6792584,10.2272532 53.8158369,10.3461077 C53.9524154,10.4649623 54.0446841,10.6018014 54.0923823,10.7561039 C54.1395592,10.9106669 54.1635386,11.0592352 54.1635386,11.2018085 C54.1635386,11.7009456 54.0089756,12.0517751 53.7001101,12.2537757 C53.3909839,12.456037 52.885852,12.556907 52.1847143,12.556907 L50.7761834,12.556907 L50.7761834,9.93585096 Z M50.7761834,5.47880464 L52.1310213,5.47880464 C52.7729923,5.47880464 53.230426,5.57394043 53.5038436,5.76395135 C53.7772613,5.95422292 53.9141004,6.25735419 53.9141004,6.67334518 C53.9141004,6.82790825 53.8872539,6.97934357 53.8338215,7.12791178 C53.780389,7.27674064 53.6881204,7.41045203 53.5575367,7.52904595 C53.4264318,7.64790052 53.2512777,7.7430363 53.0315531,7.81419265 C52.8113073,7.88560965 52.5292883,7.92131815 52.1847143,7.92131815 L50.7761834,7.92131815 L50.7761834,5.47880464 Z M66.0909595,14.6248722 C66.815816,14.304017 67.437196,13.8703021 67.954057,13.3234668 C68.4711786,12.7768922 68.869185,12.1349211 69.1485975,11.3978143 C69.4277494,10.6609681 69.5677163,9.87068947 69.5677163,9.02671777 C69.5677163,8.19473579 69.4277494,7.41305849 69.1485975,6.68220715 C68.869185,5.95109516 68.4711786,5.31537961 67.954057,4.77453919 C67.437196,4.23369878 66.815816,3.80884582 66.0909595,3.49971969 C65.3658424,3.1908542 64.5575792,3.03603048 63.6661699,3.03603048 C62.7747606,3.03603048 61.9664974,3.1908542 61.241641,3.49971969 C60.5162632,3.80884582 59.8954045,4.23369878 59.3782828,4.77453919 C58.8614218,5.31537961 58.4628941,5.95109516 58.1837423,6.68220715 C57.9043298,7.41305849 57.7648842,8.19473579 57.7648842,9.02671777 C57.7648842,9.87068947 57.9043298,10.6609681 58.1837423,11.3978143 C58.4628941,12.1349211 58.8614218,12.7768922 59.3782828,13.3234668 C59.8954045,13.8703021 60.5162632,14.304017 61.241641,14.6248722 C61.9664974,14.9459881 62.7747606,15.1062853 63.6661699,15.1062853 C64.5575792,15.1062853 65.3658424,14.9459881 66.0909595,14.6248722 L66.0909595,14.6248722 Z M62.4984759,12.2803616 C62.1476464,12.1083352 61.8445151,11.8646312 61.5890821,11.5495102 C61.3333884,11.2346499 61.1313877,10.8629687 60.9830802,10.4352487 C60.8342513,10.007268 60.7602278,9.5438394 60.7602278,9.0444417 C60.7602278,8.55729435 60.8342513,8.10272776 60.9830802,7.68048127 C61.1313877,7.25875606 61.3365161,6.89333039 61.5982047,6.58420426 C61.8593719,6.27507812 62.165631,6.03450188 62.5161998,5.86195424 C62.8667687,5.68992789 63.2501789,5.60365407 63.6661699,5.60365407 C64.0941506,5.60365407 64.4864228,5.69279499 64.8429865,5.87107685 C65.1995502,6.0493587 65.505288,6.29306269 65.7612423,6.60192818 C66.0166754,6.91105432 66.2158089,7.27674064 66.3583823,7.69846584 C66.5009556,8.12045169 66.5723726,8.57501828 66.5723726,9.06242627 C66.5723726,9.54983426 66.4980885,10.0044009 66.3495203,10.4261261 C66.2006915,10.8483726 65.9929566,11.216926 65.7255338,11.5315257 C65.458111,11.8466467 65.1461178,12.0932178 64.7895541,12.2714996 C64.4329904,12.4497815 64.0524473,12.5389224 63.648446,12.5389224 C63.2321943,12.5389224 62.8487841,12.4529092 62.4984759,12.2803616 L62.4984759,12.2803616 Z M78.7135232,14.6248722 C79.4383797,14.304017 80.0597597,13.8703021 80.5768813,13.3234668 C81.0937423,12.7768922 81.4920094,12.1349211 81.7714219,11.3978143 C82.0505737,10.6609681 82.19028,9.87068947 82.19028,9.02671777 C82.19028,8.19473579 82.0505737,7.41305849 81.7714219,6.68220715 C81.4920094,5.95109516 81.0937423,5.31537961 80.5768813,4.77453919 C80.0597597,4.23369878 79.4383797,3.80884582 78.7135232,3.49971969 C77.9884061,3.1908542 77.1804035,3.03603048 76.2889942,3.03603048 C75.397585,3.03603048 74.5890611,3.1908542 73.8642047,3.49971969 C73.1390875,3.80884582 72.5179682,4.23369878 72.0011072,4.77453919 C71.4839855,5.31537961 71.0857185,5.95109516 70.8065666,6.68220715 C70.5271541,7.41305849 70.3874479,8.19473579 70.3874479,9.02671777 C70.3874479,9.87068947 70.5271541,10.6609681 70.8065666,11.3978143 C71.0857185,12.1349211 71.4839855,12.7768922 72.0011072,13.3234668 C72.5179682,13.8703021 73.1390875,14.304017 73.8642047,14.6248722 C74.5890611,14.9459881 75.397585,15.1062853 76.2889942,15.1062853 C77.1804035,15.1062853 77.9884061,14.9459881 78.7135232,14.6248722 L78.7135232,14.6248722 Z M75.1210396,12.2803616 C74.7704707,12.1083352 74.4673395,11.8646312 74.2119064,11.5495102 C73.9562127,11.2346499 73.7542121,10.8629687 73.6056438,10.4352487 C73.456815,10.007268 73.3827915,9.5438394 73.3827915,9.0444417 C73.3827915,8.55729435 73.456815,8.10272776 73.6056438,7.68048127 C73.7542121,7.25875606 73.9590798,6.89333039 74.2207684,6.58420426 C74.4819356,6.27507812 74.7881947,6.03450188 75.1390242,5.86195424 C75.4893324,5.68992789 75.8727426,5.60365407 76.2889942,5.60365407 C76.7167143,5.60365407 77.1089865,5.69279499 77.4655502,5.87107685 C77.8221139,6.0493587 78.1281123,6.29306269 78.383806,6.60192818 C78.6392391,6.91105432 78.8383726,7.27674064 78.9812066,7.69846584 C79.12378,8.12045169 79.1949363,8.57501828 79.1949363,9.06242627 C79.1949363,9.54983426 79.1206522,10.0044009 78.972084,10.4261261 C78.8235158,10.8483726 78.6155203,11.216926 78.3480975,11.5315257 C78.0806747,11.8466467 77.7686815,12.0932178 77.4121178,12.2714996 C77.0555541,12.4497815 76.675011,12.5389224 76.2710097,12.5389224 C75.854758,12.5389224 75.4716084,12.4529092 75.1210396,12.2803616 L75.1210396,12.2803616 Z M89.4555261,14.7854301 C90.0555332,14.6071483 90.548936,14.354843 90.9352134,14.0277323 C91.3212301,13.7008822 91.6037703,13.3117377 91.7820522,12.8597776 C91.960334,12.4083388 92.0494749,11.9092017 92.0494749,11.3623664 C92.0494749,9.62698547 90.9200959,8.46215857 88.6621197,7.86788573 L87.1644479,7.47561352 C86.6296024,7.34502988 86.2610489,7.20819074 86.0590483,7.06561739 C85.856787,6.92278339 85.755917,6.73876733 85.755917,6.51278726 C85.755917,6.29879691 85.8719045,6.09679627 86.1036188,5.9065247 C86.335333,5.71651378 86.7721757,5.62137799 87.4138861,5.62137799 C87.7587208,5.62137799 88.0647191,5.63910192 88.3321419,5.67481042 C88.5995647,5.71051892 88.8430081,5.74622742 89.0632539,5.78193592 C89.2829785,5.81738377 89.4881069,5.85309227 89.6783784,5.88880077 C89.8683894,5.92450927 90.0586609,5.9422332 90.2489325,5.9422332 C90.7360798,5.9422332 91.0689248,5.74023256 91.2472066,5.33597064 C91.4254885,4.93223001 91.4969055,4.40311867 91.461197,3.74941854 C90.7597986,3.5117094 90.0883746,3.33916176 89.4464035,3.23229691 C88.8046931,3.12543205 88.1744511,3.07173898 87.5567201,3.07173898 C86.6533211,3.07173898 85.9102194,3.18173159 85.3279363,3.4017168 C84.7453925,3.62170201 84.281964,3.90085386 83.93739,4.23969363 C83.5925554,4.57827277 83.3517185,4.9559488 83.2154006,5.37167914 C83.0785615,5.78793078 83.0102722,6.19193205 83.0102722,6.58420426 C83.0102722,6.96474739 83.0665718,7.33017306 83.1796921,7.68048127 C83.2925518,8.03131076 83.4765679,8.36128857 83.7322616,8.67015407 C83.9876947,8.9792802 84.3265344,9.25843205 84.7485203,9.5081309 C85.1702455,9.75756911 85.6904949,9.96582525 86.3087472,10.1321174 L87.663585,10.4886811 C88.1032948,10.6195254 88.4538636,10.7561039 88.7155522,10.8986772 C88.9767194,11.0412506 89.1078244,11.2495067 89.1078244,11.5226637 C89.1078244,11.8200608 88.974113,12.060637 88.7066902,12.2449137 C88.4392674,12.4291904 88.0141538,12.5211985 87.4318707,12.5211985 C87.0870361,12.5211985 86.7659202,12.5006074 86.4690444,12.4586434 C86.171908,12.4172007 85.8924955,12.3726303 85.6310676,12.324932 C85.3696397,12.2777551 85.1288028,12.2331847 84.9090782,12.1912207 C84.689093,12.1497779 84.4839646,12.1289263 84.2939537,12.1289263 C83.7948166,12.1289263 83.4559769,12.3400495 83.277695,12.7617747 C83.0994132,13.1840212 83.0220013,13.7217339 83.0459807,14.375434 C83.7591081,14.6134038 84.4899595,14.7854301 85.2387954,14.892295 C85.9876313,14.9994205 86.6710451,15.0528529 87.2892973,15.0528529 C88.1330084,15.0528529 88.8549978,14.963712 89.4555261,14.7854301 L89.4555261,14.7854301 Z M98.3610174,14.5625778 C98.5750078,14.3191345 98.6818726,14.0248652 98.6818726,13.6800305 L98.6818726,5.87107685 L100.946104,5.87107685 C101.718659,5.87107685 102.104936,5.38966371 102.104936,4.42683745 C102.104936,4.1771386 102.093207,3.95741403 102.069488,3.76714247 C102.045509,3.57713154 102.02179,3.41057876 101.998071,3.26800541 L93.4580058,3.26800541 C93.1251609,3.26800541 92.8488762,3.37200316 92.628891,3.57999865 C92.4089058,3.78799415 92.2991738,4.16540953 92.2991738,4.71198416 C92.2991738,4.96168301 92.31377,5.18166822 92.3437443,5.37167914 C92.3731973,5.56195071 92.4000438,5.72824285 92.4240232,5.87107685 L95.7936545,5.87107685 L95.7936545,14.8031541 C95.9599466,14.8388626 96.165075,14.8685762 96.408779,14.892295 C96.6522224,14.9160138 96.8990541,14.9280035 97.1484923,14.9280035 C97.7427652,14.9280035 98.1470271,14.8062818 98.3610174,14.5625778 L98.3610174,14.5625778 Z" id="Fill-1" fill="#243269"></path>
                <g id="Group-5" transform="translate(105.040331, 0.249464)">
                    <mask id="mask-2" fill="white">
                        <use xlink:href="#path-1"></use>
                    </mask>
                    <g id="Clip-4"></g>
                    <path d="M1.72636261,13.7696406 L1.44017332,14.6112665 L6.93380872,14.6112665 L7.2205193,13.7696406 L1.72636261,13.7696406 Z M2.20933962,12.3522477 L1.93983167,13.1433083 L7.434249,13.1433083 L7.7040176,12.3522477 L2.20933962,12.3522477 Z M0.203929418,7.52430219 L3.85714352,7.52430219 L2.40378152,11.7806511 L7.89950209,11.7806511 L9.35182151,7.52430219 L13.0050356,7.52430219 L9.16936932,0.0111817127 L0.203929418,7.52430219 Z" id="Fill-3" fill="#243269" mask="url(#mask-2)"></path>
                </g>
            </g>
        </g>
    </g>
</svg>