<?xml version="1.0" encoding="utf-8"?>
<svg version="1.0" id="Layer_1" xmlns="http://www.w3.org/2000/svg" xmlns:xlink="http://www.w3.org/1999/xlink" x="0px" y="0px"
	 viewBox="0 0 36 36" style="enable-background:new 0 0 36 36;" xml:space="preserve">
<path fill="#fff" d="M26.1,18.4l2.7-2.7c0.4-0.4,0.4-1,0-1.4s-1-0.4-1.4,0L24.6,17L22,14.3c-0.4-0.4-1-0.4-1.4,0s-0.4,1,0,1.4
	l2.7,2.7l-2.7,2.7c-0.4,0.4-0.4,1,0,1.4c0.2,0.2,0.5,0.3,0.7,0.3s0.5-0.1,0.7-0.3l2.7-2.7l2.7,2.7c0.2,0.2,0.5,0.3,0.7,0.3
	s0.5-0.1,0.7-0.3c0.4-0.4,0.4-1,0-1.4L26.1,18.4z"/>
<path  fill="#fff" d="M19,8.5v19.4c0,0.3-0.1,0.6-0.3,0.8c-0.2,0.2-0.5,0.3-0.8,0.3c-0.3,0-0.6-0.1-0.8-0.3l-5.9-5.9H6.4
	c-0.3,0-0.6-0.1-0.8-0.3c-0.2-0.2-0.3-0.5-0.3-0.8v-6.9c0-0.3,0.1-0.6,0.3-0.8c0.2-0.2,0.5-0.3,0.8-0.3h4.7L17,7.7
	c0.2-0.2,0.5-0.3,0.8-0.3c0.3,0,0.6,0.1,0.8,0.3C18.9,7.9,19,8.2,19,8.5z"/>
</svg>
