<svg viewBox="0 0 34 34" xmlns="http://www.w3.org/2000/svg"><path d="m24.509 17.04 2.759-2.759-.102-.167a1.809 1.809 0 0 0 -.147-.201 3.313 3.313 0 0 0 -.206-.226c-.181-.181-.355-.27-.553-.27h-.001a.676.676 0 0 0 -.456.206l-2.354 2.354-2.755-2.755-.166.096a1.594 1.594 0 0 0 -.204.149 2.911 2.911 0 0 0 -.227.206c-.188.188-.275.368-.269.553.007.172.079.33.206.457l2.354 2.355-2.759 2.759.102.167c.03.05.079.116.148.2.064.078.133.154.205.226.181.181.355.27.55.27a.676.676 0 0 0 .459-.206l2.355-2.354 2.759 2.759.167-.102c.049-.029.116-.078.2-.147.078-.064.154-.133.226-.206.188-.188.276-.369.269-.551a.672.672 0 0 0 -.206-.459zm-9.197-6.255-2.264 2.255h-4.069c-.828 0-1.5.172-1.5 1v5.501a1.5 1.5 0 0 0 1.5 1.5h4.068l2.264 2.255c.587.585 1.361 1.245 2.138 1.245.348 0 .697-.133 1.03-.465v-14.071c-.333-.332-.682-.465-1.03-.465-.776 0-1.55.66-2.137 1.245zm1.667 11.989a6.047 6.047 0 0 1 -.609-.543l-2.264-2.255-.439-.437h-4.688v-4.999h4.687l.439-.437 2.265-2.255c.251-.25.451-.423.609-.542z"/></svg>