<svg width="41" height="41" viewBox="0 0 41 41" fill="none" xmlns="http://www.w3.org/2000/svg">
<g id="Forward / Rewind">
<path id="Vector" d="M3.26957 23.0989C4.49504 32.6004 13.1836 39.3148 22.6973 38.0877C32.211 36.8607 38.9116 28.1614 37.6861 18.66C37.0726 13.9031 34.574 9.83927 31.0493 7.11987L34.0363 3.2482C33.8171 2.2268 32.9159 1.34335 31.7046 1.34963L23.6743 1.38567C22.6997 1.38641 21.9915 2.29 22.2396 3.24519L22.3395 3.63218L22.9984 6.22136L24.2301 11.0235C24.5313 12.1967 25.6145 12.8443 26.6581 12.7971L29.5274 9.07811C32.5649 11.4105 34.7014 14.8962 35.2278 18.9771C36.2789 27.1264 30.5173 34.5799 22.3802 35.6294C14.2432 36.6789 6.77897 30.9312 5.72789 22.7819C5.19998 18.6888 6.39286 14.7611 8.74071 11.7466L7.33092 10.6669C7.02161 10.43 6.57777 10.4866 6.35172 10.8039C3.89976 14.246 2.68684 18.5808 3.26957 23.0989Z" fill="white"/>
<g id="10">
<path d="M17.6979 17.3762V26.9362H16.216C15.8249 26.9362 15.5078 26.6191 15.5078 26.228V19.4348H15.4518L14.3753 20.1009C13.9035 20.3929 13.2944 20.0535 13.2944 19.4987V18.8559L15.6573 17.3762H17.6979Z" fill="#F1F1F1"/>
<path d="M23.4891 27.1602C22.6673 27.1571 21.959 26.9595 21.3644 26.5674C20.7729 26.1722 20.3169 25.6027 19.9962 24.8589C19.6787 24.1121 19.5199 23.2158 19.5199 22.1702C19.523 21.1246 19.6834 20.2345 20.0009 19.5001C20.3215 18.7657 20.7776 18.2071 21.3691 17.8243C21.9637 17.4384 22.6704 17.2455 23.4891 17.2455C24.311 17.2455 25.0176 17.4384 25.6091 17.8243C26.2037 18.2102 26.6614 18.7704 26.982 19.5048C27.3027 20.2361 27.4614 21.1246 27.4583 22.1702C27.4583 23.2189 27.298 24.1167 26.9773 24.8636C26.6598 25.6074 26.2037 26.1768 25.6091 26.5721C25.0176 26.9642 24.311 27.1602 23.4891 27.1602ZM23.4891 25.3584C24.009 25.3584 24.4262 25.0954 24.7406 24.5695C25.0581 24.0436 25.2153 23.2438 25.2122 22.1702C25.2122 21.4638 25.1406 20.8787 24.9974 20.415C24.8542 19.9513 24.6534 19.6059 24.395 19.3787C24.1366 19.1485 23.8347 19.0333 23.4891 19.0333C22.9723 19.0333 22.5567 19.2916 22.2423 19.8082C21.931 20.3248 21.7738 21.1121 21.7707 22.1702C21.7676 22.8828 21.8376 23.4757 21.9808 23.9487C22.124 24.4217 22.3248 24.7749 22.5832 25.0083C22.8416 25.2417 23.1436 25.3584 23.4891 25.3584Z" fill="#F1F1F1"/>
</g>
</g>
</svg>
