<svg xmlns="http://www.w3.org/2000/svg" width="68" height="22" viewBox="0 0 68 22">
    <g fill="none" fill-rule="nonzero">
        <path fill="#FFF" d="M7.574.33H2.488C1.272.33.22 1.32.22 2.585V19.69a2.27 2.27 0 0 0 2.267 2.255h5.086c1.216 0 2.267-.99 2.267-2.255V2.585A2.236 2.236 0 0 0 7.574.33"/>
        <path fill="#00438C" d="M7.353 19.305c-.277-.22-.11-.33-.11-.44-.167-.77-.775-1.21-.443-1.43a3.505 3.505 0 0 0-.221-.55c-.94-.55-1.714-1.375-1.88-1.54-.166-.165-.442-.33-.497-.495-.222-.22-1.327-1.76-1.548-2.31l-.443-.055c-.22-.825-.884-1.485-.884-2.31 0-.33.166-.99.221-1.1.055-.11.332-.33.332-.33v-.22c-.995 0-.664-.055-.885-.44-.11-.275-.055-.33 0-.495.11-.55.553-1.375.719-1.705l.221-.66c.719-1.485.995-1.375 1.824-1.43l.056-.055c.884-.055.718-.11.829-.935-.11.055-.166-.275-.166-.275-.055-.495.11-.385.221-.385 0-.77.11-.99.664-1.21H2.488c-.94 0-1.714.77-1.714 1.705v17.105c0 .935.774 1.705 1.714 1.705h5.086c-.553-.44-.221-1.045-.221-2.145z"/>
        <path fill="#DA1A32" d="M6.358 4.235v.055c.166.11.22.165.387.275.387.275.94.715.884 2.31.11.33.166 1.045.277 1.265.22.44.331.715.442 1.1 0 0 .055.605.166.66.442.11.332.165.387.22.055.11.332.055.332.33.11.11.165.22.22.33V2.53c0-.935-.773-1.705-1.713-1.705H6.08c.277.11.387.22.498.385.221 0 .442.495.055 1.21.166.11.055.275-.11.495-.056.055-.056.165-.166.165-.166.33-.332.605-.443.605a.167.167 0 0 0 0 .22c.056.11.277.22.443.33M9.288 11.935c-.221.55-.774.935-1.438.935-.829 0-1.548-.66-1.548-1.54 0-.715.498-1.32 1.161-1.485-.165-.44-.552-1.155-.663-1.375-.11-.22-.332-1.65-.387-1.98 0-.055-.663.385-.663.385-.056.055-.498 1.21-.498 1.265v.22s.221 0 .332.385c.11.385.497 1.76.497 1.76l-.11.11c.497 1.595.331 2.31.553 2.75.276.66.331.55.552 1.155.166.385.332 1.98.443 2.09.276.33.387.605.387.77 0 .165-.221.715-.166 1.045.055.165.055.605.166.715 0 0 .055.165.055.22 0 0-.055.055 0 .11.166.495.608 1.375-.166 1.815.83-.11 1.438-.825 1.438-1.705v-7.645h.055z"/>
        <path fill="#FFF" d="M14.872 21.34h-2.433V.88h3.76l2.487 16.885C18.3 13.75 17.802 7.26 17.802 3.85V.88h2.432v20.46h-3.427L14.485 4.95c.22 3.685.331 8.085.331 10.505v5.885h.056zM24.38 12.485v6.325h.443c.884 0 1.105-.495 1.105-1.485V13.86c0-.99-.331-1.375-1.216-1.375h-.332zm0-9.02v6.765h.332c.995 0 1.216-.385 1.216-1.485V4.84c0-.935-.276-1.375-1.105-1.375h-.443zM21.616 21.34V.88h3.428c2.267 0 3.704 1.21 3.704 4.125V8.03c0 1.87-.553 2.805-1.382 3.3.83.495 1.382 1.43 1.382 3.025v2.97c0 2.805-1.493 4.07-3.704 4.07h-3.428v-.055zM32.341 15.18h1.493l-.221-3.74c-.11-1.485-.332-6.215-.498-8.8h-.11l-.387 8.8-.277 3.74zm1.604 2.365H32.23l-.221 3.85h-2.82L31.236.935h3.925l1.935 20.46h-2.93l-.221-3.85zM45.886 17.765c0 2.805-.995 3.795-2.709 3.795-1.824 0-2.764-.99-2.764-3.795v-3.08h1.493v3.41c0 1.485.276 2.09 1.271 2.09.885 0 1.216-.605 1.216-2.09V16.94c0-1.595-.165-2.53-1.824-4.895-1.382-1.87-2.1-3.025-2.1-5.665V4.565c0-2.805 1.05-3.795 2.764-3.795 1.824 0 2.708.99 2.708 3.795v3.08H44.45v-3.41c0-1.485-.221-2.09-1.216-2.09-.885 0-1.272.605-1.272 2.09v1.87c0 2.145.387 2.86 1.659 4.73 1.824 2.585 2.266 3.41 2.266 5.775v1.155zM50.088 21.395c-1.438 0-2.212-.495-2.212-2.31V6.49h-.884V5.225h.884v-2.97l1.383-.33v3.3h1.326V6.49H49.26v12.54c0 .77.331 1.045 1.05 1.045h.387v1.21c-.166.11-.387.11-.608.11zM56.943 18.15c0 2.695-.995 3.41-2.598 3.41-1.604 0-2.599-.715-2.599-3.41V8.58c0-2.64.995-3.465 2.599-3.465 1.603 0 2.598.715 2.598 3.41v9.625zM53.128 8.14v10.34c0 1.155.222 1.815 1.217 1.815.995 0 1.216-.66 1.216-1.815V8.14c0-1.155-.221-1.815-1.216-1.815s-1.217.66-1.217 1.815zM59.928 21.34h-1.382V5.28h.94c.221.385.332.77.387 1.1.332-.88 1.272-1.265 2.322-1.265h.055v1.43h-.11c-1.106 0-2.156.44-2.156 1.265v13.53h-.056zM65.346 21.56c-1.603 0-2.598-.715-2.598-3.41V8.58c0-2.64.995-3.465 2.598-3.465 1.604 0 2.599.715 2.599 3.41v5.72H64.13v4.235c0 1.155.221 1.815 1.216 1.815s1.217-.66 1.217-1.815v-2.145h1.382v1.76c0 2.75-1.05 3.465-2.599 3.465zm-1.216-8.525h2.433V8.14c0-1.155-.222-1.815-1.217-1.815-.995 0-1.216.66-1.216 1.815v4.895z"/>
    </g>
</svg>
