<svg width="128" height="128" viewBox="0 0 128 128" fill="none" xmlns="http://www.w3.org/2000/svg">
<rect width="128" height="128" fill="url(#paint0_linear_1248_8590)"/>
<path opacity="0.2" d="M128 57.8855V0H0V66V69.8771C0 69.5696 0.2 67.2767 3.24 66.9484C3.44667 66.9276 124.64 60.736 124.64 60.736C126.353 60.5432 128 59.6156 128 57.8855Z" fill="url(#paint1_linear_1248_8590)"/>
<path d="M51.4805 86H46.5525V41.2H51.7365C52.4618 41.2 52.9525 41.328 53.2085 41.584C53.5072 41.7973 53.7845 42.2667 54.0405 42.992L62.8085 69.104H63.0005C62.8298 65.9467 62.6805 63.2587 62.5525 61.04C62.4672 58.8213 62.4245 56.5387 62.4245 54.192V43.056C62.4245 42.3733 62.5525 41.904 62.8085 41.648C63.1072 41.3493 63.6618 41.2 64.4725 41.2H69.4005V86H64.2165C63.4912 86 62.9792 85.872 62.6805 85.616C62.4245 85.36 62.1685 84.8907 61.9125 84.208L53.1445 58.096H52.9525C53.1658 61.2107 53.3152 63.8773 53.4005 66.096C53.4858 68.3147 53.5285 70.6187 53.5285 73.008V84.144C53.5285 84.8267 53.3792 85.3173 53.0805 85.616C52.8245 85.872 52.2912 86 51.4805 86ZM74.865 86V43.056C74.865 42.3733 74.993 41.904 75.249 41.648C75.5477 41.3493 76.1023 41.2 76.913 41.2H82.417V84.144C82.417 84.8267 82.2677 85.3173 81.969 85.616C81.713 85.872 81.1797 86 80.369 86H74.865Z" fill="white"/>
<defs>
<linearGradient id="paint0_linear_1248_8590" x1="64" y1="0" x2="64" y2="128" gradientUnits="userSpaceOnUse">
<stop stop-color="#252525"/>
<stop offset="1" stop-color="#453F3F"/>
</linearGradient>
<linearGradient id="paint1_linear_1248_8590" x1="64" y1="63.5" x2="60.5" y2="-1.5" gradientUnits="userSpaceOnUse">
<stop stop-color="white"/>
<stop offset="1" stop-color="white" stop-opacity="0.25"/>
</linearGradient>
</defs>
</svg>
