<svg xmlns="http://www.w3.org/2000/svg" viewBox="-565 390.9 60 60"><path d="M-535 390.9c-16.5 0-30 13.5-30 30s13.5 30 30 30 30-13.5 30-30-13.5-30-30-30zm0 56.4c-14.5 0-26.4-11.9-26.4-26.4s11.9-26.4 26.4-26.4 26.4 11.8 26.4 26.4c0 14.5-11.9 26.4-26.4 26.4z"/><path d="M-544.9 419.6c2 0 3.6-1.6 3.6-3.6s-1.6-3.6-3.6-3.6-3.6 1.6-3.6 3.6c.1 2 1.7 3.6 3.6 3.6zm19.8 0c2 0 3.6-1.6 3.6-3.6s-1.6-3.6-3.6-3.6-3.6 1.6-3.6 3.6 1.6 3.6 3.6 3.6zm1 11.2c0-1-.8-1.9-1.9-1.9-.4 0-.7.1-1 .3-3.4 1.9-7.4 2-7.4 2s-4 .3-7.6-2c-.3-.2-.7-.3-1.1-.3-1 0-1.9.8-1.9 1.9 0 .8.5 1.4 1.1 1.7 4.4 2.8 9.4 2.5 9.4 2.5s5.1-.1 9.3-2.5c.6-.3 1.1-1 1.1-1.7z"/></svg>