<svg xmlns="http://www.w3.org/2000/svg" viewBox="-565 390.9 60 60"><path d="M-535 390.9c-16.5 0-30 13.5-30 30s13.5 30 30 30 30-13.5 30-30-13.5-30-30-30zm0 56.4c-14.5 0-26.4-11.9-26.4-26.4s11.9-26.4 26.4-26.4 26.4 11.9 26.4 26.4-11.9 26.4-26.4 26.4z"/><path d="M-544.9 419.6c2 0 3.6-1.6 3.6-3.6s-1.6-3.6-3.6-3.6-3.6 1.6-3.6 3.6c.1 2 1.7 3.6 3.6 3.6zm19.8 0c2 0 3.6-1.6 3.6-3.6s-1.6-3.6-3.6-3.6-3.6 1.6-3.6 3.6 1.6 3.6 3.6 3.6zm5.4 5.1c-.1 0-8.9 1.2-15.3 1.2-6.5 0-15.2-1.2-15.3-1.2-.7-.1-1.3.2-1.7.7s-.5 1.2-.2 1.8c3.5 7.4 10.1 12 17.2 12s13.7-4.6 17.2-12c.3-.6.2-1.3-.2-1.8s-1-.8-1.7-.7zm-15.3 10.9c-4.7 0-9.1-2.6-12.2-7 3.2.4 8.1.8 12.2.8s8.9-.4 12.2-.8c-3.1 4.4-7.5 7-12.2 7z"/></svg>