<svg xmlns="http://www.w3.org/2000/svg" viewBox="-565 390.9 60 60"><path d="M-544.9 418.4c2 0 3.6-1.6 3.6-3.6s-1.6-3.6-3.6-3.6-3.6 1.6-3.6 3.6 1.7 3.6 3.6 3.6zm19.8 0c2 0 3.6-1.6 3.6-3.6s-1.6-3.6-3.6-3.6-3.6 1.6-3.6 3.6 1.6 3.6 3.6 3.6zm-9.9 4.3c-6.6 0-12.7 4.3-15.9 11.1-.3.6-.2 1.3.2 1.8s1.1.8 1.7.7c.1 0 8.1-1.2 14-1.2s14 1.2 14 1.2h.3c.6 0 1.1-.3 1.5-.7.4-.5.5-1.2.2-1.8-3.3-6.8-9.4-11.1-16-11.1zm0 8.9c-3.6 0-7.9.4-10.9.7 2.8-3.8 6.7-6 10.9-6 4.1 0 8.1 2.2 10.9 6-3-.3-7.3-.7-10.9-.7z"/><path d="M-535 390.9c-16.5 0-30 13.5-30 30s13.5 30 30 30 30-13.5 30-30-13.5-30-30-30zm0 56.4c-14.5 0-26.4-11.9-26.4-26.4s11.9-26.4 26.4-26.4 26.4 11.8 26.4 26.4-11.9 26.4-26.4 26.4z"/></svg>