<svg enable-background="new 0 0 226.8 226.8" viewBox="0 0 226.8 226.8" xmlns="http://www.w3.org/2000/svg"><path d="m111.8 123.4-.4.6.4.2.2-.2v-.2h.2l.2-.2.6.2.2.4.4-.2h.4v.4l.4-.4h-.2l2.4-1.8h-.2.2v-.4l.6-.2.4-.4v-.8l.4-.4v-.2l.6-.8v-.2h.2l.2-.2-1-1 .4-2-5 4.8-1.2 3.4z" fill="#e8e8e8"/><path d="m111 124v.4l.2-.4z" fill="#e8e8e8"/><path d="m99.4 112.8-.4.2.2.2z" fill="#2160ad"/><path d="m99.2 114.4.2-.2h-.2z" fill="#2160ad"/><path d="m99 113 .2-.4h-.2-.2z" fill="#2160ad"/><path d="m99.2 115.2v-.4z" fill="#2160ad"/><path d="m99 113.8v-.2z" fill="#2160ad"/><path d="m99.8 112.2v.4z" fill="#2160ad"/><path d="m100.6 108.4-.2.2h.4z" fill="#2160ad"/><path d="m102 113.2-.8-2.2h-.2l-.4-1.6h-.2l-.4-.8-1.2.2-1-.2-1.8 1h-.2l-.2.2v.4l-.2-.2h-.2v-.4l-.4 1.4.2-1 .2-.4-.4.2.6-.6h-.4l.2-.2h-.2l1.2-1.6h.4.2l.6-.2h.2l.8-1-.4-2-.6-.2v.2l-.4-.2-.2.4 1 1.4h.2v.4l-.4-1h.2l-.2-.2h-.2l-.4-.2-.2-.6h.2v.2-.2l-.6-1.2-.4-.2-1.4-2h-.2-.4l.4-1.6-1.2-.2-.2-.2v-3.4l-1-.6-1.4.6-1.6-1h-.2l-.2-.2-.6.4-.8-.2v-.2h-.2l-2.6 1.2v.2l-1 .2-.2.2-3.2-.4-.4 2.2h-.2l.2.2h-.6v.6l-.4.6-1.4.2v-.2h-1.2v.4-.2l-1 1v.4l-1.2 1.2h-.4l-.6 2.2.2-.4-1.8 2.6.2.2v.2l-1.8.2-.2.2h-.4l-.2-.4-1.6.2-.2-.2-.8 1v1.2l2.2 1.2.4-.2.2.2-1.8 2-2.6-.2-.4 1.4-1.6.4-.6.4.6.4-.4.2h.4l-.2.2h-.2l.2.2h.4l.2.2v.4l.4.6v.2l1 .2v.2l.8.6v.2l.6.4h.4l.4.2v1.4l.2.2-.2.2.4.6h.8l.2-.2 1.2.2.2.4.6.2.8 1h.2v.6h.4l.2-.2h.2v-.2l.4.2.6-.6v-.2h-.4v-.2l.2-.2h-.6v.2-.2-.2h-.2v-.2h-.2l-.2-.2h-.2v-.2h-.2l.2-.2h-.2l-.2-.2v.2l-.8-.6.2-.2h.2v-.2l.2.2.2-.4v.4l.2-.4v.2l-.2.2.4-.2.2.2h-.2v.2l.2.2h.2v.2h.2v.2h.2v.2h-.2v.2l-.2.2.2-.2v.4l.2-.2-.2.2.2.2-.2.4v.2h.2v.2h-.4.4v.2h1.2l.4-.8.6.2v.6l.2.2.6-1-.2-.2v-.2h.2l-.2-.2 1-.4h.2l.4-.2.2-.6-.8-1.6h-.2l-.2-.4.6-.6.6.2 1.6-1.6h.2l.2.2h.2v.2h.2l.2.2h.2v.2h.2v.2h.2v.2l.2.2h.2v.2h.2v.2l.2.2h.2l-.2 1.2h-.2l-.2.2v.2l.8.4.2.8 1 .6v.2l.2.2.4-.6h.2l.2.2h.4l.6 1v.2h-.2l-.2.6-.2.2v.2l.2.2v.8.2l-.6.2.6 1 .8.2-.4-.4.2-.2v-.2l.2-.2.2.2 1.6-.8.8.6.2-1.4h.2l.2.2v.2h.2v.2h.2.2l.2-.4h.2l.2-.2-.2-.2-.4-.8 1 1.2h1l.2.4.6.4h.6l.2.4h-.2l-.2.2.6.4 2.6-3.2-.2-1.4.8-.8-.2-.2.8-.8v.2l.6-1.2v.4l-.2.2.2.4 2-.2v.2.2l.2.2.2-.6h-.2l.2-.2h-.2.2v.2-.2.2l.2-.4v-.2l.2.2.8-1.2h.2l-.2-.2v-.6-.4l-.2-.4-.2.4.2-.2v-.2l-1 .2h-.2l-.4-.2v-.2-.2l.4-.2.2-.8h-.2l.2-.4h.2v-.2.2-.4-.2-.4.2h-.2v.2h-.2.2.2v-.2h-.2l.2-.4-.2-.2h.2v-.2l-.2-.2-.2.2-.2-.2.2-.2.2-.2h-1.2-.2l.2.2.4-.2v-.6l.8.2 1.2.8v.2.2.4l.2.2v.2h.2-.2v.4l.2.2v.4h-.2l.2.2v.2h-.2-.4v.2l1.2 2.2v-.4l.2-.4h-.2l.2-.4.4-.2-.2-.8.6-.8zm-32.4 3.2-.4.4-.2-.4v-.2-.2.2l-.6-.8h-.4l-.2-.2.2-.2-.8-.2h-.2l.2-.2-.6-.2v-.2l-2.8-.2.6-.2.2.2.6-.4v-.2l-.6.4v-.2l.4-.2h-.2l-.2.2h-.2l.2-.4h.2.2l.2.2.2-.2.2.2h.2v-.2l1-.4v.2l.2-.2.2.2.4-.2-.2.2h.4l-.2.2h.2l.2.2-.2.6h.2l.2-.2.4.2-.4.2v.2l-.2-.4.4.2h-.2v.2h.2v.2l.2.2.4-.2-.2.6h.2l.2-.2.2.2v.4h.2v.2l.2-.2zm20.8-8.6-.2.2-1.2 2.2h.6l.2.2v.8h-.2l-.4.2v.2h-.2l-.2.2v.2h.2v.2h-.2l-.2.2h-.2l.2.2v.4h.2v.2h-.2v.2h-.2l-.2-.2.2.4-.2-.2v.2h-.2l-.2.2-.2-.8-.4.2-1-.2-.2-.2h-.2-.2l-.4-.2h.2l-.6-.6v-.2l.2-.2v-.6l.4-.2h.2v-.4h.2v.2-.2l.2.2.2-.4v-.2l.2-.2v-.4-.2l-.4-1.8.2-.2v-.2l.4-.4h.2l.2-.2.2.4-.2.2v.2l.2.4v.2h.2v.2h.2.8l.2-.2h.2l.2-.2h.2l.2-.2h.2l.6-.2.2.2z" fill="#2160ad"/><path d="m37.2 124.8v.2zm56.6 25.8-.4-.2-1-5.4v-1.4l.2-.2-.4-.4h-.2v-.4.2l-.2-.2h-.2l-.6-.2-.4-.8.8-.2h-1.2v.2l-.2-.2h.4v-.2h.2.2l-.2-.2-.4-.2 1.2-.4-.4.2.2.2.8-.8-.6.2.4-.4h.4v.4l.2.2h.2.2v-.6l-.2-.2v-.2h-.6v.2.2l.4.4-.4-1-.4-.2v-.2.2l-.6-.4h.6v.2-.2l.2.2-.2.2h.2l.2-1.4h-.2l.2.2h-.8v-.2h.2v-.2l1-.2-.2-.2.2-.4v-.2l-.2-1h-.8l-1.4-2.2.2-.2v-.8h-.2v.2l-.8.2.4-.2.2-.2.2-.2.2.2.2-1.6.4-.2-.8-.2.2-1.4-1.2-.4-.6-1.6.2-1.6-.8-.2h.6v-.4l.2.4 3 .8.4-.6v-.4h-.2l-.6-.4-1.4-1.8-.2.2h-.2l-.2.4h-.2-.2v-.2h-.2v-.2l-.2-.2h-.2v1.2l-.2.2-.8-.6-1.2 1-.2-.2-.2.2v.2l-.2.2.4.4-.8-.2-.6-1 .6-.2v-.2-.8l-.2-.2v-.2l.2-.2.2-.6h.2l-.2-.8-1.2-.2h-.4l-.2-.2-.6.6-.2-.2v-.2l-.8-.6-.4-1-.6-.2v-.2l.2-.2h.2l.2-1.2h-.2l-.2-.2v-.2h-.2v-.2h-.2l-.2-.2v-.2h-.2v-.2h-.2v-.2h-.2v.2h-.2v-.2h-.2l-.2-.2h-.2l-1.6 1.6-.6-.2-.6.6.2.4h.2l.8 2-.4.4h-.2l-1 .4.2.2h-.2v.2l.2.2-.6 1-.2-.4v-.2l-.6-.2-.4.4-1.2.2-.2-.2h-.2v-.2h-.4l.2.2.2.2h-.2l-.4.4-.4-.2v.2h-.2l-.2.2h-.4v-.6h-.2l-.8-1-.6-.2-.2-.4-1.2-.2-.6.4h-.4l-.4-.6.2-.2-.2-.2v-1.4l-.4-.4h-.4l-.6-.4v-.2l-.8-.6v-.2h-.8l-.2-.2v-.2l-.4-.6v-.4l-.2-.2h-.4l-.2-.2h.2l.2-.2h-.4l.4-.2-.4-.2 1.8-1 .4-1.4 2.6.2 1.8-2h-.2l-.4.2-2-1.2-.2-.8 1-1.4h1.4l.2-.2h.2l.2.4h.4l.2-.2 1.8-.2v-.2l-.2-.2 1.8-4.2.4-.4h.4l2.2-3h-.2l4.8-4.4-3.4-1.6-.2.2.2-.4-.4-.4v-.4l-2.6-1-.4.2h.2l.6.2v.8l.2.2v.4l1 .4.2.4h-.4l-.2.2-1-.4h.6v-.4l-.8-.2-.2.6-1 .2v-.2l-.2-.2v.4h-.6l-.2.4v.2l-.4.6.2.2-.2.2v.6h-.2v.2h.2l1 1.8-.2.6v.2l.4.2.2.6v.2l-.8.2v.4l-.4.2v-.2l-1.6 1.6h.2l-.2-.2-.8.6 2-2.4-.2-.2-.4.2h-.2l-.2.2v.2h-.2l.2-.2v-.2l.2-.2.4-.2.2-.4 1-.6.2-1-.8-.8v-.2l-.6-.2-.2-.4.2-.4v-.4l-.2-.2-.2-.8-.4-.2-.6.4h-.2v.2l-.2.2h-.4v-.2l-.2.2-.2-.2v.4l-.6.6h.2v.2l.6.2h-.2l.6.6v-.2l-.2-.6.2-.2v-.4-.2-.2l.2.2v.2l.2.4-.2-.2v.2h.2v.4h.2v.4l.2.2-.2.6-.2.4v.2.8-.2l-.2.2.4-1.2h-.2v-.2l-.4-.6v.2l-.2-.2-.4-.4v.2h-.2l-.2-.2-.2.4v-.2l-.2-.2.6-1.6-.2.2v-.2h-.2v.2.2h-.2l.2.2-.2.2-.4-.2-.2.2.2.2h-.2v.2l.2.2h.2v.2h.2v.8l-.4.2.2.2-.2.4h.2v.2h-.2l.2-.2h-.2v-.2l-.2-.2-.2.2v.2h-.2l.4-.4.4-.4h-.2l-.2.2v.2l-.8-.4.6-.4h-.2-.2v-.2h-.2l-.6.2h-.2l-.2-.2h-.4l.6-.4v-.2l-.4-.4-.4.4v.2h.2-.2v.2h.2l-.2.4h-.2l-.2.2-1 .2v.6l-.2-.2v.6l-.2-.2-.2.2h-.2v-.2l-.2-.2h.4v-.2h.2l-.2-.2v.4h-.8l-.2-.2-1-.2-.2.2v.2l-.2.8h-.2v.6h.2-.4l.2.8v.2l.2.2.4.2h-.4v.2-.2l.2.4-.2-.2.2-1.2-.4.2-.2.6h-.2l-.2.2-.2-.2-.2.2v.6.2l-.2-.2h-.4v.2.2h-.2.2-.2.2l.2.2h-.2l.6.6h-.2l.2.2h.2l.6.4-.2.2-.2-.2v.2h-.4-.4l.2-.2h-.4l.2.2-.2.2v.2l.6.4.4.2v-.4h.2v.2l.2-.2v.4l.6.2-.2-.2v.2h-.2-.8l.2.8.2-.2h.4v.2h.2l1.2-1-1.2 1.2h-.4-.2v-.2h.2l-.2-.2h-.4v-.2l-.2.2-.2-.2-.4.4-.6-.2h-.2l-.2.2h-.2l.2.2h-.2l-.6-.2h-.2l.6.2v.2.2h.2l.4.2v.2h.4l.4.2h-.2.2v.2l.2.2h.2l-.2.4-.6-.4v-.2l.2.2-.2-.4-.2.2h-.8l.6.4h.2l.4.2v.2h.2l-.6-.2h-.4l.2-.2h-2-.4l-.2.2-.4.2v.2l-.4.4v.4h.2v.2h-.4l-.4.2h-.4l.4.2v.4h-.2v.2-.2.2l.2-.2v.2h.4.4v.2h.4l.4.2-.2.2.8.2-.2-.6.2.4h.2v.6h.6v.2l.6-.4h.2l.8-.4.2.2v.6l.8-1.2-.6 1h.2l.6-.4v.4.2l-.2.2v.2l-.8.4h.2l-.4.4 2.6-2 .2.2-.4.6v.2l1.6-1 .2.2-.2-.2.2-.2h.2l-.2.2v.2l.4-.2v-.2l.2-.2-.2.2v.2l-.2.2h.2.2l-.2.2.2.2h.2.2v.2h-.2-.2l-.2.2-.2-.2.2-.2h-.2v-.2h.2-.2v.6l-.4.6v.2h-.2v.6l-.8.6.8.4h.2l.2.2h-1l.2-.2v.4h-.2l-.2.2-1.2.2-1 .4-.2-.4h-.2v.2l-.4.2.4.4-1.2 1.2v.2l-.2-.2v-.2l-.2-.2v.2.2l-1 .4-.2.2-.8.2-.2.2h.2l-.2.2.4.4-.2.2.2.2v-.4h.2 1.2l-.2.2v.2h.6l.2.2h-1v.4l1.2.6v-.2l.2.2-1.6.2v-.2h-.4l-.2.8v-.2l1 1 .2-.2.4.2h-1v.2l-.8-.8.2-.2-.4-.2h.4l-.4-.6h-1.4v-.2l-.4.2v.2l-3.8-.8-.4 1.8-.6.4.4.2h-.2l-.2 1.8v-1-.6l-.2-.2v-.2l-.8-.2.2-.2h-.2l.4-.4v.2l.2-.4-.2-.2h-.2v.2l-.4.2h.2l.4-1-.2-.2-.2.2h-.2v-.4l-1.4-.8-.6.8v-.2l-.8-.2-.4-.2-.2-.2-.2.2h-.4v-.2l-.2.2h-.2v-.2h-.2v.2l-.2-.2h-.2-.2l-.2.2v-.2l-.4.4-.2-.2-.2.2h-.2v-.2h-.2v-.2-.2h-.2l-.2-.2v-.2l-.2.2v-.2l-.2.2v-.2l-.2.2h-.2-.2v.2l-1 .2h-.2l-.2.2v.2h-.2.2v.2l.4.2.2-.2.4.2.2.2h-.2l-.2-.2-.2.2.8.8v.2l-1-.8-.8.4-.2.8.4.4h-.2v-.2h-.4l.2.2-1-.2h.4l-.4-.8.4.8v-.2h.4v-.2l.2-.2v-.4-.2l.2-.2-.4.2-.2-.4v.4.2l-.2.2v-.4h-.2v-.2h-.2l-.2-.4-.2-.2h.4l-.2-.2v.2.2l-.4.2h-.2v.2l-.4.2.2.2h-.2l.2.2h-.2v.2l.2.2-.6-.2v.2l.6.2v.4l-.2.2h-.2l-.8 2.6.2.4.6.2.4-.4-.2-.4h-.2v-.2h.2.2l.2.2v-.2l.2-.2-.4-.2v-.2l.4-.2.2.2v-.6h-.2l.6.2v-.2l.2-.2-.4-.4h.2v-.4h.2l.4.6.2.2h.2l.2.2h.2v.2-.2l-.4.4v.2h-.2v-.2l-.8-.8.4.2.2.4h-.2v.4l.4.4h.2l.2.2h-.6v.2l-.8.2h.2l.2.8 1-.2v-.2l.2-.2-.2-.2v-.2h.2l.2.2v-.2h.2v-.2l.6-.2.2.2h-.6l.4.4-.4.2-.2.4h.4l-.6.4-.2-.2h.2-.2v1.2l.4.2-.2.2v.2l.4.2v-.4l.2.6-.2-.2v.8l.2.2h.2l.2.4v-.2l-.2-.2h.2l.2-.2v.2l-.2.2h.2l.2 1.2-.4-.4h.2v-.4l-.8-1v.2h-1v.4h-.2v.2h.2l-.4.6v.6.2h-.2v.2h-.2l1 .2 1.6-.8-.2-.2.8.2v-.2h.4.2.2.4l.2.2v-.2l.2-.2v.2h-.2l.2.2h-.2.4l-.2.2.4-.2.2.2h.2.2l-.2.2.4-.4-.2-.2h.2-.2l.4.2h-.2l-.2.2v.2h.2l-.6.2h.6.2-.2.2-.6-.2.2.2v.2h-.2l-.2.2h.4-.4.4l-.4-.2v.2h.2-.2.6-.2l.4.2h-.6.4-.2.2-.4-.2v.2h.6-.6-.2v.2l-.2.2h.4-.4l.2.2h-.2l-.2-.2.2.2.2.2h.2v.2h.4-.2.4.2-.2.2-.2-.2.2l-.2.2h-.2l-.4.2.2-.2-.4-.2v.2l-.2-.2-1.6.2-.2-.2-1.8.4-.2.4.2.2-.4 2.4 3.6 1v.2l-1.6.4-1.2-.8.2.2.2.2-.4-.2h-.2-.2l-.2.4-2-.4v.2l.2.4 1.2.4h-.2v.2h-.2v.2h-.2l.6.2h-.6l.2.2h-.4v.2l-.4-1h-.4l-.2.2h-.2-.2v-.2h-.4l.4.4-1-.4h.2v.2h-.2-.2l-.4.2v.2.2l.2.2h.2l.4.2.2.4 1.2.2v.2h-.4.2l-1-.2.4.2h-.4l.2.2.2.2h-.2v.2l1.4.4-.4.2h.4v.2l-.8-1.4-.2.2.2.2-.2.2.6.2h.2-.4v.4l-.2.2-.2-.2-.6-.4v.2.2h-.2-.2.2v.2l-.4.6v.2l.4-.4.4.4h.2v-.2l.2-.2h.2.2l.2-.4.6.8h.2l.2.2h.8-.2l.4.2h-.2l.2-.2h.2l.2-.2.2-.8h.2v.4.4l.2-.2v-.2h.2l-.2-.2.2-.4h-.2l.2-.2.2.2.4-.4-.2-.2h.2.2l.4.2h-.2l-.2-.2v.2h.2-.2v.2l-1.6 1v.2l.2.2v-.4h.2v.2l.2-.2.2-.2h.2l.2.2h-.4.6l-.2.4.2.2h-.2l-.4.2v.2h-.2l-.8.2v.2.2l.2-.2-.2.4h-.2v.2l.4.2v.2l.4-.2v.2h.2v.2h-.2v.2l.2-.2h.2v-.2.4l.4.2.6-.2.2-.4.4-.2.4-.8h.2v-.4l.2-.2v.2l-.2.4.2-.2v.2h-.2l.2.2-.2.2v.2h.2l-.6.2 1 .2v-.2.2-.2h-.2v.2-.2h-.2.2.2l-.2-.2v-.4l-.2-.2v-.2.2h.2l.2-.2h.2v.2l-.2-.2-.6.2v.4l.2.2v.2h.2v.2h.2l1-.6v-.2.4h-.2v.2h-.4v.2l.2.2v.4h.2l-.2.2h.2l-.4.6.2.6h.4l.4-1.2h.2l-.6-.2.4.2-.2.2v.6l.2-.2v.4.2l.4.4 5.8-.8v-.2h.2v.2.2l.8-.4v.2-.4h-.2.6v.2l.4-.2v.2h.4l.2-.2h.4l-.2.2h.2-.4l-.6.2h.4v.2l-.6.2 1-.2-1 .4h.2l-.8.2.4.2h.4.4l-.2.2h.2-.6l1.8-.4-.4.4h.2l-1 .4.4-.2-.2.2v.2.2l.4.6h-.2l-.2-.2h-.2-.4l.2-.2h.2v-.2h-1.2l.6.4.2-.2-.2.2-.4-.2h.2-.2-.2l-.2-.2-1.2.2.2.2.2-.2-.2.2.2-.2v-.2.2l.4.2v.4l-.2-.4h-.2l.2-.2h-.2l-.6.8-.6-.4h.4l-1.4-.6-2.2 3.2v.2l.2.2-.4.6v.4l-.6.4h-.2v.2l.6-.2.2.2 1-.2v.6l-1.2 1h-.2l.2.4-.4.2.6.8h-.2v.2l-.6.4v.6l.2.4-.4.2.2.2h-.4-.2v.2h-.2l-.2-.2v-.2l-1 .2v.2h-.4l.2.2h-.2l.2.2-.6.4h-.2v.4h-.4l-1 .8-.8.6-.2.2v.2l-1 .4.2.2-.8.6h.6l.8-.4.4.2 1-.4v-.2h.2l.2.2.2-.2v-.4h-.2v-.2l2.2-.6-.4-.4h-.2v-.2h.6l-.2.2.2.2.2.6h.6l.6.4h.2l.2.2 1.4-.4.8-.4h.4l-.8 1h.8l.2-.2v-.2h.2.4.8l1-1.2h.2.4l.8-1.4-.4-.6-.2.2.2-.2v.2l1.2-.8-.2-.2.2-.2v.2h.2l-.2.6-.4.4h.2l.2.2-.2.2.2.2.2.2-.2.4.2-.2v-.2l-.2.2v.4l-.2.2h.6v-.2l1-.4v.2l.4.2.2-.2.2.2 1.2.2.2.4h.2l.8-.2-1 .2-.2-.4-1.2.2h.2l-.2.2h.2l-.6-.6-2.2.4-.2.2v.2h-.2l.2.4v.2l-.2-.2h-.2v.2l-.2-.4h-.2v.2h-.2v.2-.2l-.2.2.2-.4-.2-.2-.4.4.4.4h-.2v.2-.2l-.2-.4h-.2v.2l-.2-.2-1.2.6v-.2h-.2l-.6.2-1.8.2.2-.4-1.8.4.2.2-.2.2v.2-.2h.2l-.6-.2h.2l.2.2-.4.4-1.2-.4-.8.8.2.2v.2h-.2.2-.2l.2.2-.2.8h.2l.4-.2v.2h.2l.2.8.4.2.2.4-.6-1.2h-1.4l-1.4.8-1 .4v-.2l-.8.2-.2.2v.2l1.4.4v2l.2-.4.2.2h-.2v.2h-.2l-.2.2h.6l-.4.4h-.2l.2-.2-.2-.2-.2.2.2.6 1.8.2v.2h.4-.6v.2h-1l-.4-.2.4-.2h-.4l-.6.6-1.6-.2-.4-.6.2-.2v-.8l-.2.2-.2-.2-.4.2h.2l.2.2-.8 1.2h-.8v.2h.2-.2v-.2l-.4.2.4-.6-.2-.4v-.2h-.4l-.6.4-.2-.2-1.2.8-.6.2h-.2l-.2.4.2.2-.4.4.2.4-.2.2.2-.2h-.2l-.2-.4v-.4l-1 .6h.2v.2h.2l-.2.4h-.2l.2.8-.2.2h.2v.2l1.6-.2-.2-.2v-.4l.4.4h1l-.8-.2.4-.4.2.2.4.6h.4l.2-.2.2.4h.2l.6-.2h.2l-.2.2 2.4-.6.4.6h.4l-.6-.8 2.2-.4.2.2.2-.2.2.2.4-.2.2.2-.6.2.2.4.2.2-.2.2v.2l.2-.4-.4-.2-1.4.4v-.6l-.2.8-.4.2v.4h.2v.2h.2-.2l-.4-.2-.6.6v-.6l.2-.2h-.2v.4l-2.2 1v-.2l-1.2 1-.2-.2-.4.2v.6h-.2v-.2l-.6.4h.6v.2l.2.2 1.4-.6-.2.4v-.2l-.6.2v.2l-.4.2.4.2v.6l-.4-.2-.2.4h-.2l-.2.2h-.2l-.2.2h-.6v.2.2l-.6-.2h.2l-.2.4h.6.4v.4.2.4l-.4.2.2.2v.2l.8-.6.6-1h.6l.4.4v.8l-.4.4h-.4l.2.2h.2l.2.2h.2v.2h.2-.2v.2l.2-.2h.2l-.2.4.2.2.8-.4h.4v-.2h-.2l.4-.2v.2l2-.8.2-.2v-.6.2l.2.4h.2v.2l.4-.2v.2l-.2.4.6-.6-.4-.6.4-.2-.2.4.4-.4h-.2l.8-.6v.2l1-.4.4-.2h.2.2l.8-.2h.2l-3.2 1.8h-.2l-.6.4.2.2v.2h.2.2l.2.2v.2l-.4.2.2-.2h-.4l.2-.2h-.6l.2-.2v-.2l-.2.4v.2l-.6.4.2-.4-.2-.2-.4.4h-.2.2l-1.2.6h.4.6l-.6.6v.2h-.2v.2h-.2l-.2-.2-.4.2-.2-.2-.4.4h.2.2.2v.2h.2v.6l-1 .4v-.2l-.2.2.2.2-.4.6.6-.6h1.2l-.2.2.2-.2-.2.2 1.2-.6.4.2.2-.2v-.2-.2-.2h.2l.2-.4 1.6-.2 1-.2-.2-.2.2-.2v.2l.8-.2-.2.4.4-.2 1-.6v-.2h.4l.2-.2v-.4h-.2.2.2v-.2h.2l.2.2v.2l.6.2v.2l.6-.4-.2.2h.2l-.2.6.2.2-.2.2v.2l-2.6.8-3.2 1.8v.2l-.8.6 1.4-.4.4-.2 1-.6v.2l.6-.4 1.2-.6-.2.2h.2v.2h-.2-.2l-.4.2v.2l-.6.2-.6.8h.2l-1.8.8-.8.8h.2.2v.4.2h.4l.4-.4v.2.2.2l.4-.2.6-.2-.8.2.6-.4v.2-.4-.2l.6-.2v.2l.2-.2-.2-.2h.4l.2.2v.2.2h.2l-.2.2.6-.2v-.2h-.2l.2-.2v-.2.2h.4l.2-.4.2-.2v.4l.8-.2v-.2h.4l.2-.4h-.2v-.2h-.2v-.2-.2l.4.4v-.2.2.2l.4-.2-.4 1v.2l.2-.2v.4l.6-.4v-.2l.8-.2v-.2h.2l-.2.4h-.2v.2l-.4.2h.2v.2l-.2.2-.2.2h.2v.2.2l.4-.4h-.2l.2-.2-.2.2v.2.2h-.2l-.4-.6h-.2.2v.2l.4-.2h.2l.8-.6v-.2h.2l.2.2.2-.2v.2.2l.6-.2v.2l-.6.4.4-.2v-.2l.4-.2.2-1 .2.4-.2.4.2-.2v-.2h.2v-.2l.2-.2h.2l-.2-.4h-.4v-.2h.2l.6.4.2.2h.6l-.2-.2.2.2.2-.2v.2l.4-.4.8.6v.2l.2-.4.2.2.4-.2v-.2h.2v-.2l.4-.8h-.4v-.2l.6.2-.4-.4.4.2v.4l1 .2.2-.4v.6h.2v-.2h.6l.2-.2v-.2l.4-.4h-.2.2l-.2-.2.2-.4-1.2-.2h.4l.4.2.2-.2.2.2.2-.2v-.4l.2.6h1.4v.4h.2l.2.4v-.2h-.2l.2-.4-.4-.4.4-.8-.2-.2.4.2v-.6l-.4.2-.4-.2v-.2l-.4.2-.2.2h-.2l-.2-.4-.2-.2.2-.2.4.4h.2-.2l.2.4h.6l-.2-.2 1 .4.2.4v.2h.2l.4-.4.2-.2-.8-.6h.2v-.2l.2-.2-.2.2.2.2h.2l.2.2v.2l.2.2.2-.4v.6h.2l.2-.4 1.2-.2v-.2h.2l.2-.2v-.2h.2v-.6h-.6l1-.8-.2-.2-.2.2-1.4-.2h.4l.4.4.6-.2-1.2-.6h.4v-.4h-.4v.2l-.6-.2.4-.2v-.4l-.2-.2h-.6-.8.4.2v-.4l-.8-.2 1.8.4.2-.2.4.2.2-.2v.2-.2l.2.2h-.2.2-.2.4-.2.4v-.2h.2l.2-.2v.2h.4l.2.2-.4.2-.2.4h.6-.2v.2h.2l-1 .2.2.2h-.2v-.2l-.2-.2.2.2-.2.2.2.2v.4h1l.2.2 1.8-.8h.2v-.2l.4-.2-.4-.4 2.2-1v-.2l-.2-.2h-.2v-.4l-.2 1-.2-.2.2.2.2-.4v.2h.2l.8-1-.2-.6h-.4l.4-.2-.6-.2.4-.2-.2-1.8.2.2.2-1-.2 1.2.4.4-.2 1.2h-.4l1 .4.2.2-.2-.2v.2h-.2l.2.4h1.8l-.2-.2.4-.6 1.6-.4.2-1.2.6-.4h-.8l-.2-.2h-.4-.2.2v-.4h.2v-.2h-.8.2v.2h.4l.2-.2-.2-.2v.2h.2l.2.6.2.2.2-.4 3.2-1 .2.2 2-.2.2-.2h1l-.4-.6h-.2l-.2-.2h.2v.2-.2h.4l.2.2.2-.2v.2h.2l-.6.6 1.8-.4v-.2l.6-.6h-.4v-1.2l.2-.2.8 1-.2.2.2.8-.6.8v.2l.4-.2v-.2l1.2-1v-.4h-.2l.2-.6-.4.2.2-.4v-.4l.2.2.8-.8v.4l-.6.8v-.2l-.2.2.2.2 2-.2v-.2.4h.2l-1.2-.2 1.6 1.2.6-.2h3l.6-1.6-.8-.4-.2-1.2.2.6h-.2v-.2l-.2-.2v.4-.4l-.2-.2-.4-1h-.6l-.8-.8h.2l-.2-1v-.2-1.4 1.6l.2.2v.6l-.2.2.4.8h.4l.6-.6.2.8.2-.4 1 .2 3.4-10.4zm-52.2-21.4h.2zm12 29.8v-.4.2zm1.8 20.6.2.2zm5-3.6-.4.2v-.2h-.2.6.4zm5.4-4.4-.2-.2h.4zm.4.2h-.2z" fill="#e8e8e8"/><path d="m30 176.4 1.4-.6v-.2h-.4v-.2l-.2.2-.2-.2v.4l-.8.2-.4.8z" fill="#e8e8e8"/><path d="m33.4 183-.6.2-.4.4z" fill="#e8e8e8"/><path d="m32.2 180-.4.2z" fill="#e8e8e8"/><path d="m31.2 175.4h.4z" fill="#e8e8e8"/><path d="m29.6 177.8.2-.2v-.2z" fill="#e8e8e8"/><path d="m28.4 171.4-1.2.6z" fill="#e8e8e8"/><path d="m27.4 170.8v-.2l-.2.2z" fill="#e8e8e8"/><path d="m26.8 172.6.2.2z" fill="#e8e8e8"/><path d="m27 172.4h-.2z" fill="#e8e8e8"/><path d="m33.4 136.8-.4.2.2.2h-.2.2.2z" fill="#e8e8e8"/><path d="m33.4 137.8h.4z" fill="#e8e8e8"/><path d="m31.8 136.6h.2z" fill="#e8e8e8"/><path d="m32.6 137.2h-.2z" fill="#e8e8e8"/><path d="m33.8 140.2v.2z" fill="#e8e8e8"/><path d="m32.2 126.2.6.4 1-.4.2.4.8-.2.4.2v.2h-.2v.2h-.2v.2h.2l.2-.2.4.4v.6l.6.6h.4l-.2-.8.4-.4h-.2l.2-.4h-.2v-.2.2l.2-.4.2-.2h-.4v.2l-.2.2h-.2v-.6-.2l-.2-.2h.4v-.2l-.4-.8-.2.4h-.6l-.2-.2-.4.4-.2.2v.2h-.4-.2l-.2-.2h-.4l-.2-.2v.6l-.4.2h-.4v-.2l-.2.2z" fill="#e8e8e8"/><path d="m32.4 135h.4-.2l.4.2.2-.4-.2-.2.2-.2-.4-.2v.2l-.2-.2-.2.2-.4.2v.2z" fill="#e8e8e8"/><path d="m34.4 132.4-.8.4h-.2.2l.6-.2z" fill="#e8e8e8"/><path d="m31.4 135.4h.4v-.2h-.4z" fill="#e8e8e8"/><path d="m33.2 135h.2z" fill="#e8e8e8"/><path d="m33.6 134.6h.2z" fill="#e8e8e8"/><path d="m33.6 123.6h-.2z" fill="#e8e8e8"/><path d="m34 120.4h-.2z" fill="#e8e8e8"/><path d="m38 182.8.6-.4.4-.2-.6.4-.4-.4h-.8-.2v.4h.4v.2z" fill="#e8e8e8"/><path d="m43.2 186.6-.4.4v-.2l-.4.4.4-.2.2.2.2-.2z" fill="#e8e8e8"/><path d="m44.4 186h-.2.2v.2h-.2-.4l.2.2-.2.2v.2l.4-.4z" fill="#e8e8e8"/><path d="m42.6 181.4h.6l.2-.6-.2.2h-.2z" fill="#e8e8e8"/><path d="m43.8 185.8.2-.4h-.2l-.2.2z" fill="#e8e8e8"/><path d="m41.8 185.8.8-.2z" fill="#e8e8e8"/><path d="m43.2 185.4.4-.2z" fill="#e8e8e8"/><path d="m44.6 185.6v.2z" fill="#e8e8e8"/><path d="m37 178.8.4-.2z" fill="#e8e8e8"/><path d="m35.4 180.6h-.2z" fill="#e8e8e8"/><path d="m41 177h-.2z" fill="#e8e8e8"/><path d="m43 148.4-.4-.2-.4.4h.4z" fill="#e8e8e8"/><path d="m42.8 159v.4z" fill="#e8e8e8"/><path d="m42.8 154.4h-.2v.2z" fill="#e8e8e8"/><path d="m38.2 146.6 1 .2.6.2 1 .6.2-.6-.2.2h.2-.2l-.2-.2.2-.4-.2-.2h-.4v-.2l-1 .2-.2-.4h-.8z" fill="#e8e8e8"/><path d="m39 144h.4-.2v.2h.4v-.4l.2.2.2.2h.4.6l.2-.8-.2-.4h.2v-.2h-.4v.2l-.6.2v.2h.2l-.6.6h-.2v-.2h-.2v-.2.2l.2.4z" fill="#e8e8e8"/><path d="m39.8 142.6.4.2h-.2v.2h.6.2.2z" fill="#e8e8e8"/><path d="m41.4 148.4.8-.4v-.4l-.2-.2-.8.6z" fill="#e8e8e8"/><path d="m37.8 142.4-.2.2h.4l.2.2-.4-.4h.2z" fill="#e8e8e8"/><path d="m40.8 142.4h.2v-.2z" fill="#e8e8e8"/><path d="m39.8 143.2h.2v-.2l-.2-.2z" fill="#e8e8e8"/><path d="m40.4 141.4.4-.2-.4.2v-.2z" fill="#e8e8e8"/><path d="m40.4 142.2h.4v-.2l-.4.2.2-.2-.2.2v-.2z" fill="#e8e8e8"/><path d="m36.8 141 .2-.2z" fill="#e8e8e8"/><path d="m36.6 130.2h-.4l-.2-.4-.4.2-.6.2v.2l-.2.2 1.4-.2z" fill="#e8e8e8"/><path d="m37.2 125.8v-.4-.2l-.6.2v.2z" fill="#e8e8e8"/><path d="m37.6 126.2.2-.4-.4-.2.2.2z" fill="#e8e8e8"/><path d="m36.2 128.6.2.2h-.2.2z" fill="#e8e8e8"/><path d="m41 129.6-.2.2h.2v-.2h-.2z" fill="#e8e8e8"/><path d="m35.2 132.6-.2-.2z" fill="#e8e8e8"/><path d="m40.6 129.4.2-.2z" fill="#e8e8e8"/><path d="m41.6 130.8h-.2z" fill="#e8e8e8"/><path d="m41.6 129h-.2z" fill="#e8e8e8"/><path d="m40.8 128.4h.2z" fill="#e8e8e8"/><path d="m61 177.2h.6l.2-.4h-.8l-.2-.2h-.4v-.2h-.2l-.2.2v-.2 1z" fill="#e8e8e8"/><path d="m60.2 177.6h.2z" fill="#e8e8e8"/><path d="m49.6 156.8h.2l.2-.2h-.2z" fill="#e8e8e8"/><path d="m48.8 159.2v-.2l-.2.2z" fill="#e8e8e8"/><path d="m50.4 156.8-.4.2z" fill="#e8e8e8"/><path d="m49.4 158 .4-.4h-.2z" fill="#e8e8e8"/><path d="m49.6 157.4-.2.4z" fill="#e8e8e8"/><path d="m50.6 157.2.2-.2z" fill="#e8e8e8"/><path d="m49 145.8v.2h.4z" fill="#e8e8e8"/><path d="m50.2 145.2h.4z" fill="#e8e8e8"/><path d="m47.4 120 .8.6-.2-.6z" fill="#e8e8e8"/><path d="m56.2 118.4.2-.4h-.2-.2z" fill="#e8e8e8"/><path d="m56.6 115.4.6-.4.2-.2z" fill="#e8e8e8"/><path d="m55.4 114.6h-.4z" fill="#e8e8e8"/><path d="m57.6 115-.2-.2z" fill="#e8e8e8"/><path d="m56.4 118h.2z" fill="#e8e8e8"/><path d="m56.6 100 .2.2-.4.6h.2.4v.2l.4-.2h.2l-.2-.8h-.2l-.4-.4v.2z" fill="#e8e8e8"/><path d="m58.4 99.6.2.2-.2-.2.2.2.2.2v-.4l-.2-.6v.2.2z" fill="#e8e8e8"/><path d="m58.2 101.4.4.2z" fill="#e8e8e8"/><path d="m59.2 98.2h.4v-.2z" fill="#e8e8e8"/><path d="m58 100.8v.2l.2.2z" fill="#e8e8e8"/><path d="m58 99h.2v-.2l-.2.2.2-.2z" fill="#e8e8e8"/><path d="m58 100.8-.2-.2.2.2-.2-.2z" fill="#e8e8e8"/><path d="m59.8 97.6-.2-.2z" fill="#e8e8e8"/><path d="m52.8 109v-.2z" fill="#e8e8e8"/><path d="m57 103.8h.2z" fill="#e8e8e8"/><path d="m72.4 98.6-.6-.2-.2.2v.4l.4.4.6-.2z" fill="#e8e8e8"/><path d="m70.6 99.2v-.2z" fill="#e8e8e8"/><path d="m61.4 93.8.4.2.2-.2v.2l-.6-.2.2-.2-.4-.2-.2.2z" fill="#e8e8e8"/><path d="m67.8 95.6.2-.2z" fill="#e8e8e8"/><path d="m62.4 95.6v-.2z" fill="#e8e8e8"/><path d="m84.8 171.2.2-.2h-.2z" fill="#e8e8e8"/><path d="m85.4 170.6v-.2z" fill="#e8e8e8"/><path d="m75.8 89.2h.2z" fill="#e8e8e8"/><path d="m94 138-.4-.2v.2l.2.2h.2z" fill="#e8e8e8"/><path d="m104.4 180-.4-.2v.2h.4l-.4.2z" fill="#1f2a5d"/><path d="m103.4 176.8v.4l.2.2h.2v-.6z" fill="#1f2a5d"/><path d="m104.2 181 .4-.2z" fill="#1f2a5d"/><path d="m113 182.2h-.4v.2h.2z" fill="#1f2a5d"/><path d="m125.8 183.6v-.2z" fill="#1f2a5d"/><path d="m106.8 180.2.2-.2h-.2z" fill="#1f2a5d"/><path d="m106.8 180.2.2-.2h-.2z" fill="#1f2a5d"/><path d="m118.2 178.2v-.2zm7.8-33.6-.8-1.6-2.4 1v.2l-1.2.6-.4-.2v.2h-.2l-2.6 2.6v.6l-.2.2-.2-1 .2-.2h-.2l-1 3h-.4l-2 1.4v-.2l-3 3.6.2.2.2.2h.2l.2-.4.4.2 1.2-.8 1 .6v.4l.6-.2v-.4l-.2-.2v-.2-.2l1.6-1.4h-.2l.2-.2v.2h.2l1.2-.2.2-.4 2.6-.2.2-.2h.4v.2l1-.6-.6.8-1 .2.2 1.6h.2l-.4.4v-.2l-.2.4 1.2 2 .2.2 1.8-.8-.4.2h-.2l-1 .8v-.2l-.6.4.2-.2-1 2.2v.4l.4.2-.6-.2 1 1.6 1.8-.4h-.2l-1.4.8-.2-.4-3.6 7.4-.8.2-.2-.2-2.6 2-.2-.2-1.8.6.2.8-.8-.8-.2.6v.2l-1.4 1.2v.6h.2-.6-.4l-.2-.2v.2l.2.2-.2.2h-.2l-.6.2v.2l-.2-.2v-.2l.2-.2h-.2v-.2l-1.2-.2-.2.4.2.2h.2l-.6.2v.2h.2l-.2.2v.2l-1 .2v.2h-.2v.2h-.2-.2-.2-.2.2l-1.6.8h.2v.2.2h-.2v.2l-.2.2h.4v.2l.6-.2h.4l.2.2.2-.2v.2h.2v.2h.4.2l.4 2.2-.2.2h-.6l-.4.4h-.2.2-.6l.2.2.8.4.2.6v-.2h.2v-.4h.2-.2v-.2l.6.2h.2l.2.2.2-.4.4.6h.8v-.2.2h1v-.2.2h.6l.2-.4-.4-.8h.2l-.2-.2-.4.2-.2-.2.2-.2-.2-.2.2.2v.4l.2-.2h.2l.2.2 1-.4-.6.2-.2.4h-.2-.2l.4.2-.2.2.8-.2-.4.2.6.4h-.2v.2l-.2-.2-.4-.4-.6.4.4.2h-.4l-.2-.2-.2.2h-.2l-.2.2.8.2-.2.2h-.6l-.2-.4-.6-.2-.2.2v.2l-.6-.2h.2-.6v.2h-.2v.2l.8.2.2.6h-.2v.2l1 .4.8.4v-.2l.4-.2v-.2l.8-.6h.2l.2.2h.4l.8-.2v-.2h.6l.4-1-.2-.2 4.2-1h-.4l-.4-.4.2-.4-.4-.2.4.2v.4l.6.2.8-1h.2v-.2l-.6.4-.2 1 .8.2h-.2l.2.2h-.6l1.2 1.4h.6l-.2-.2h.4v-.2h.4l.2-.2.6.2.2.4v-.2l.4.4 1-.2.2-.6-.2.8-.6.4h-.2v.2l-.8.4-.8-.2v-.4l.2-.2h-.2l-.4.8h-.4l.2 1-.2.2 1.4.6.2-.2h1l-.2-.2v-.2l.6-.2.8.2v-.2h.4v.2h.2.6l-.4-.2.2-.4.8-.2v-.2l.2.4 1.2-.4.2-.4v.2l-.4.2.6.8.2-.2h.2-.2.2-.6.2l1.2 2.2.6.2.2-.2 1.6 1.8 3.8.4v-.2l.2.2h.2-.8.2l.2-.2-.2.2v.2l1.2-.4v-.8l-.4-.2.2.2-.2-.6v.2h.2v.2l.6-.8.6-.2 1.2-.6.2-.4.2.2.2-.2-.4-1.2h.4-.2v.4l.2.2.2-.2h.2v.2h-.2l.2.2 4.4-1.6v-1.2h-.4l.4-.2-.4-.6h.2l.2-2.8.2-.2-1.6-.4-.2-.4v-.4l-1-.6v-.2h-.2l.2-.2-.6-.2-1.4.6-.2-.6h-.4l-1.2-4.2-.4-.2v-.4l.8-.6h-.6l.6-1.8h.4l.2-.4.6-.2h.4l.4-.2-.8-.4.8-1.4-4-2.2v-.4l-.2-.2.2.2 3-1.2v-.6h.4l.2-1-1.2.4v.4h-.6l.2-.4-1-.6 1-1h.2v-.2l-.4-.2.4-.2.4-1.8h.6v.2l.2-.2-.8-.8v-.4h-.2l-.2-.2h-.2l-.4-.2v-.4l-.4.2-.6-.4v-.2-.2l.6-1.4-.2-.6h.4l.4-.8h.8l.8-.8v.2l1.8.4.6 1 1.2-1v-1l-1-.2-1-1.2v-.2h.2-.2-.2.2l-.6-.8.2-.8-.4.2-1-.4h.2l-.2-.4v.2l-.2-.2 1-.8-2.4-2 .2.4h.2v.2h-.2l.6.4-1.4-1-2-1.6-.6-.4-.2-.2h-.8l-.8.4-1.2.8.2.4-.2-.4-3.2.4-.2-.4-.2-.4h-.8v-.2h-.6l1.2 2.8v.2l.2.4-.2-.4zm-11.4-2.6.2.6.4-.2-.2.2h-.2l-.4.4.2.2.2-.2v.2l-.2.2.8 1.2h.2l-.2.4.4.4.2-.2.2.6.2.2.8-.8v.4l-.2.4v.8l.2-.2 1.2.4-.4-.2.2-.2v-.2l4.4-4h-1.4l-.4.2h-.8l-.2-.8v-.2-.2-.2h-.4l-.2-.4.2-.6-.2-.4h-.8l-.2-.2h-.4v.2-.2h-.2-.2l-.4.2h-.2v.2h-.2v-.2h-.2v.2h-.2l-.2-.2-1 .4.2.8-.2.4zm-3.2 13.8.2-.2-.2-.2v.6zm1.4-13.2v.4l.2.2.2-.2h.2.2l.4 1 .2.2v-.2.2l.4-.2-.2-.2-.2-.2h.2-.4v-.2h-.2v-.2h-.2.2v-.2l.2-.4-.2-.2h-.2v-.2l-.2-.2v.2l.2-.2v.2h-.4l.4-.4-.4.2h-.4z" fill="#1f2a5d"/><g fill="#253b80"><path d="m136 2.2-.2-.2-.2.8.2-.2h.2z"/><path d="m83.4 60.8-.4-.8-.2.2v.2l-.2.2h-.2l-.2.2-.2-.2-1 .6v-.2h-.4l-.2-.2-.6.4v.2l-.2.2h.2v.2.2h.2v1l.2-.2.6.4.4-.2v-.8l.2-.4h.8v-.4-.2h-.2l.2-.2h.4l.2.2.4-.2z"/><path d="m86.2 58.6v-.4.4l1-1.6v-.2-.2h-.6l-.2.2v.2h-.2v.2h-.2l-.8.6v.2h-.2v.4l-.2.2-.4.6h-.2l-.2.4h-.2v.2h.2v.2h.2v-.4l.4.2v-.2-.4l.2.4v-.2.2l.2-.4v.2l.2-.2.2.2v-.2h.2l.2-.2z"/><path d="m83.4 60v-.2l-.2.2z"/><path d="m86.2 38.8v-.2z"/><path d="m85 47 .2.2 1.6-.4v-.2l-1.6.2z"/><path d="m86.4 39.4h.2l.2-.4z"/><path d="m84.4 34.4.2.2z"/><path d="m86.6 38.8v-.2z"/><path d="m86.4 32.6-.2.2z"/><path d="m84.6 34.2v.2z"/><path d="m83.2 21v.6l.2-.2z"/><path d="m77.4 19.2h.2v-.4h-.2z"/><path d="m71.2 49.6.8.2v-.2h.2v.2h.6v-.4h.2v-.4h.2v-.2l.4.2v-.2-.2h-.2l-.2-.2h-.2-.2.4l-.4-.2.6.2v-.2.2h-.2v-.2-.2l-.4-.2.4-.2v-.4l-.2-.2h-.2v.6l-.8.4h-.4l.2.2-.2.2.2.2-.2.2.2.2v.2h-.2z"/><path d="m71 50.2.4.2v.2h-.2l.2.2h.4v-.2l.4-.2-.4-.2.2-.2h.6-1.2l.2-.2h-.2-.2z"/><path d="m69.6 53.8.6-.4v-.2-.2l-.4.2h-.2v.2h.2z"/><path d="m72 51.2-.2-.2-.4.2.4.4v-.2h.2z"/><path d="m73.8 47-.2-.4-.2.4z"/><path d="m71 52.2.2.2-.2-.2-.4-.2v.2l-.2.2z"/><path d="m69.8 54.2.2.2.2-.2z"/><path d="m72.8 50.4v.2z"/><path d="m72.8 46.6h.2z"/><path d="m73.2 47.6h.2z"/><path d="m71 51.2v-.2h-.2z"/><path d="m71.6 32.2.2.4.2.2h.2v-.2.2l-.2.2.2.4h.2l.6-.4-.2-.2.2.2h.2l.2.4.8.2h-.2l.4.8v.2-.2l.4.2-.2-.2.4.2h.2l.2.2v-.2h.2l1 .2h-.2.2-.2l.8.2-.2-.2h.2l.2-.6h-.2v-.4h-.4v.2h-.2-.4-1.4-.2v.2h.2l-.2-.2h.2v.2-.2h.2l-.2-.2h.6v-.2l.2.2v.2.2-.2h-.2v.2h.2l.8-.2h.2l.2-.2.4.2.6-1h-.2l-.6.2v-.2h-.2.2-.2.2v-.2l.2-.4-.2-.2h-.4l.2-.2-.2.2h-.2l.2-.2-.4-.2h.2.2v-.2h.2-.2.2l-.2.2.2.2h-.4l.4.4v-.2l-.2-.2.2.2.4-.2-.2.2.4.4.6-1-.2-.2h-.2-.2v-.2l-.2-.2v.2l.2.2h-.2-.2v.2l-.2.2v-.2h.2v-.2l-.2.2h-.2l-.2.2h-.2.2l-.2-.2h.4v-.2h-.2v-.2l.2.2h.2-.2v-.2l.2-1.2-.4-.2-.2.2-.2-.2-1 .8.4.2h-.2v.2h-.2-.2l.2.2v.2l-.2-.2-.6-.2v-.4h.2l.2-.6.2-.2h-.4v.2h-.2v.4l-.4.2v.8l-.4-.2h-.2v-.2h-.2-.2l-.4-.2h-.6l.2.2h-.2v.6h-.2v.2h-.2l.2.2v.2l-.2-.2z"/><path d="m73.4 33.6.8 1.4v-.8l.2-.2-.4-.2h-.2l-.2.2z"/><path d="m73 33v.4h.4z"/><path d="m73 30.6h.2l.2-.2.2.2.2-.4v-.2h-.2l-.2.2h-.2z"/><path d="m75.2 46h-.4v.4l.2.2v.2l.2.4.2-.2-.4-.2h.4z"/><path d="m74.6 48.2v-.2.2l-.2-.2h-.4z"/><path d="m74.6 48v-.4l-.2.2z"/><path d="m74 48.6-.2-.2z"/><path d="m74.4 48.4-.2.2z"/><path d="m74.4 35.4v-.2h-.4l-.2.4h-.4v.4l.2.2h-.2l.2.8.6.2h.2v.2h-.2l.2.2.6.2h-.2l.6.2h.2l-.2-.4.6.2v-.2h-.2l.6-.2h-.4.2l-.2-.2h.2l-.2-.6h-.4v.2l-.2-.2h-.2.2l-.2-.2h.2v-.2.2.2.2-.2-.2l.4.2h-.2-.2-.2v-.2.2h.2.2.2l.2-.8-.2.2v-.2l-.2-.2v.4.2l-.2-.2h-.2l-.2-.2-.2-.2v.2h-.2-.2v-.4h.2z"/><path d="m76.4 40.2-.4.2v-.4h.2l-.2-.2v.2-.2-.2h-.2-.4v-.2h.2v-.2h.2l.2-.2h.2v-.2-.2h-.2v.2-.2l-.4.2-.2-.2h.2.4l-.4-.2-.4-.2h.4l-.6-.2v.2-.2h-.2v-.2h-.2v-.4.2h-.6l.2-.6-.2.6h-.2l-.4.2.4 2.4-.4.2v1l-.6.6h.2l.4 2.6-.2.2.4.2v.2l1 .2v.2l.2-.2 1 .4.2-.4.2-.2-.2-.2-.2.2-.2-.2v-.2l-.8-.2h-.4l-.2-.2h-.2l.2-.2.2.2v-.2l.2.2h.4-.2.2v-.2l.4.4h.4l.2-.6-.2-.6v-.4h-.2v-.2h-.2v-.2h-.2v-.2l-.4.2v-.2l-.8-.6.2.4v-.2l.2.2h.4l.2.2-.2-.2v.2h.6l.4-.8h-.2l.2-.2.2-.2h.4l.2-.2z"/><path d="m75.4 39.6-.4-.2z"/><path d="m75.4 35.2.2.2.2-.2.2.2h.4.2v-.2l-.2-.2h.2l-.6-.2v.2l-.2-.2v.2h-.6z"/><path d="m77 35.2-.2-.2h-.4l.2.4-.4-.2v.4h.2v.4l.2.2.4-1-.2.2z"/><path d="m76.6 37.6v-.4l-.4.4v.2l.4.2v-.2h-.2.2z"/><path d="m75.8 37.6h-.4v.2h.2z"/><path d="m75.4 35.8v-.2h-.4z"/><path d="m78.6 30.8-.2-.4.2.4-.2-.2z"/><path d="m77.2 35h-.2z"/><path d="m75.6 43.2h.2z"/><path d="m77.6 32v-.2z"/><path d="m75.8 34.8h-.2z"/><path d="m75.2 35-.2.2.4-.2z"/><path d="m77.2 31.6.2.2z"/><path d="m75.2 34.6h.2-.2l.4.2z"/><path d="m75 35h.2z"/><path d="m76.2 36.2-.2-.2z"/><path d="m76.2 39.2v-.2z"/><path d="m78 24.2v.4h.2l.4-.4.4.4.4-.4-.2-.6h-.4l-.4.6z"/><path d="m76.2 29-.2.4h.4v-.2.2h.2l.2-.2v-.2h.2l.2-.4-.6-.2z"/><path d="m77 21h.4l.2.2h.2v-.8h-.2v-.2l-.6.2z"/><path d="m76 27.8h.2l.2-.6-.2-.2h-.4v.2h-.2l-.2.2z"/><path d="m83.6 24.8v.4-.4l.2.4-.2.2h.4v.2l.4-.2-.2-.4z"/><path d="m75 29.4.4.2v-.2-.2h-.2z"/><path d="m78.2 27.8v-.2l-.2.2.4.4z"/><path d="m78.4 28.6-.4-.4v.2z"/><path d="m75.2 30.6v-.2l-.2.2z"/><path d="m82 26.6-.2-.2z"/><path d="m78 30.6v-.2z"/><path d="m82.8 24.6h.2z"/><path d="m79.8 23.2-.2-.2z"/><path d="m75.8 26.8h-.2z"/><path d="m78.2 30.8v-.2z"/><path d="m79 29.6-.2-.2z"/><path d="m80.8 14.4.2.4v.2l.2.4v.2h-.2l.2.4h1l.2.2h.2v-.4l-.4-.4-.2-.6v.2h-.2v-.2.2l-.2-.8h-.4.2l-.4-.2v.2l.2.2h-.2z"/><path d="m80.4 15-.4-.4z"/><path d="m81 15.6v-.2l-.2-.2z"/><path d="m93.6 83-1.6-6.6-2.6 1.6-.2 1.2-.2-.2.4-1.2-1.4.8-.2-.2-.4.2v.2l-.6 1.2.4.4-.2.4v.2l-.4 1 .2.4-.4.4.6.6 2.2-3 1.2.2-1.2 1.6h.4l.6 1.6h-.6l-.4 1v.4h.2v.2h.6l1-1.4h.2.2l-.2.2h.2l.2-.2h.2v.2l1-.6v.2l-.2.2h.2l.2-.2v-.4l.2.2h.2l.2-.2.2-.2z"/><path d="m98 81.8-.4.2.2-.2-.6 1.4h.2v.6l.4-.4v-.2l.2-.6h-.2l.2-.4v-.2z"/><path d="m97.4 84.2v.2h.2z"/><path d="m91.8 84.6-.2.2h.2z"/><path d="m93.2 83.8.2-.2z"/><path d="m98.4 71.6-.2-.6-.2.2h-.4v.2h-.2l-.2.4-.2.2h-.2v.2l-.2.2v.2l-1 .6-1.8 2.4h.2l.4.2h.2.2l.2-.2.2-.4h.2v-.2.2h.2v.2-.2h.2l.2-.4-.4.6v-.2l-2.2.8-.4 3.4 1.4.4.4-.8v-.2l-.2-.2.4-.8h.2l.2-.2v-.4h.2v.4l.6-1.6 1-2z"/><path d="m98.6 70.4v-.6l-.2-.2-.6.4v.8h.6z"/><path d="m89.8 74.8h.6l.2-.4h.2l.2-.2-.2-.2.4-.4v-.2l-.2-.2.8-1.6-.2-.2-.4.4v.2h-.4l-.2.4-.4.6h.2v.2h-.2l-.4.4h.2l-.2.2h.4v.2h-.2.4l.4-.2v.4l-1 .2h.2-.4.2.2z"/><path d="m88.8 77.4.2-.2z"/><path d="m99.2 71 .2-.2z"/><path d="m98.8 74.2.2-.2z"/><path d="m87 62.6-.2.2z"/><path d="m90.6 58.2.2.8h-.2l.2.2v.2l-.2-.2v-.2l-.2-.2h-.4l-.6.2-.2-.2.2.8h.4v.2l-.6.6v.4l1.8.4.4.4.6.6h-.4.2l.4.2v.2l1.8-.4.2.2-1 1h-.8l-.4.8-.8.8.2.8 1.6-.4.2-.2.2.2.6-.4h.2v.4l-1 .4-.4.4h-.2-.4v.2l-1-.4h.2-.4l-.6-.2v.4l.2.2-.8-.2h.4l-.2-.4v.2-.2h-.8l-.2.8h.2l.2.2h-.4l-.2.2v.2h.2v.2l.2-.2v.2.2h.4l.2.4.2-.2h.4v.2l.2-.2.2-.4h.4l.2-.2h.2v.2-.2h.2v.2.2l.2-.2h.2v.2l.2-.2.8-.4.4.2.8-.8h.8l.6-.8h.2v.2h.2l-.6.8.8.2 2-1.6-.2-.2-1.2.4.6-.8h.2v-.2l-.2-.4h.2v-.2h.2v.2.4l.6.2.2-.6-.2-.4v-.4h.2v.2-.2l.2.2v-1 .2l-.2-.2h-.2v-.2l-.6-.2h-.4l-.8-.8h-.4l-.2.2-.2-.2-1.8-.2-1.4-2.4.2-.4-.4-.2-.6-.2v-.2h-.2l-1 .6.2.2z"/><path d="m91.6 62.2-.2-.2v.2l-.8-.4v.2h-.2v.2-.2h-.2-.4l-.2-.2-.2.2-.2-.2v.4-.2h.2l.2-.2v.2h.4v.2l.8.2v-.2h.2v.2h.2l.2-.2h.2l.4-.2z"/><path d="m99.8 62.6 2.4-2.6-.4.2-.2-.2v.2l-1.4 1.4-.4.4.4-.2z"/><path d="m99.4 68.2.2-.4-.2.4-.4-.6-.2.8.2 1.2.2.2v-.4-.4z"/><path d="m99.4 66.4-.4.6.2.2v.4l.2.2.2-.4v-.2l-.2-.2.4-1-.2.2.2-.2-.2.4v-.2z"/><path d="m88.2 65.6-.6.4h.2-.2l.2.2-.2.2.2.2z"/><path d="m99.4 69.6.4-.4-.2-.4z"/><path d="m98.2 69v.2h.2l.2.2v-.8z"/><path d="m95.6 57.2-.2.2v.2h.2l.2-.2z"/><path d="m97.4 68.4-.4.2z"/><path d="m92.8 62.6h-.4.2z"/><path d="m93 58.4.4.2z"/><path d="m90 62.8.2.2z"/><path d="m91.6 63-.2.4z"/><path d="m87.6 62.2v-.4z"/><path d="m96.6 69 .2-.4-.4.4z"/><path d="m97.8 68.8.2-.2z"/><path d="m98.6 66.6v.2z"/><path d="m90.4 62.8v-.2z"/><path d="m86.8 47-.2-.2-.2.2z"/><path d="m90.2 47.8-1.4-1-1.8 1.4 1.6 1.6.2.4 1-.6.2-1.2h-.6z"/><path d="m92.2 50h-.6l-.2.2v.6l-.6.2v.6l1 .4h.2v-.2h.2z"/><path d="m90.8 44.6v-.4h.4v-.4h-.4v.4h-.4l-.2.4.4.2z"/><path d="m95.4 54 .6.2.2-.2h.4l-.6-.4h-.2l-.2-.2z"/><path d="m90.8 52.8-.2-.2h-.2l-.4-.2v.2l-.2.2.2.2.2-.2.2.2h.2z"/><path d="m95.6 50.4-.2.2z"/><path d="m91.8 37.6h-.6l-.2.4v-.6l.6-.6-.6-5.4-.6-.2-.4-1.2-.6-.2.2-.2v-.2h-.2l-.2.2-.4-.2v.2l-.2.2.2.4h-.2v.4l-.8.2v.2l-.2.2.4.8v.6h.4v-.2h.2l-.4.6-.2-.2.2.8 1.2 1.6h-.2l.2.8-.4-1v.2l-1-1-.4 1.6-.2-.2.2-1-.4.6v-.2l-2.6-3-.2 1.4h-.2v.2-.2l1.2 1v.4l-.6-.4-.2.2h-.2l.4 1.2h-.2l.2.2h-.2.2l.4.8v.2-.2l-.2-.6-.2.4-.4-.6h-.2v-.4h-.2l-.2-.4h-.2v-.4h-.4l-.2 1 .4.6h-.2v-.2h-.4l-.2.2v.2l-.2.2v.6l.4-.2.6.8h-.2l.8.8 1.4.6v.2l.2-1.4h.4l.2-.4v.2l.2-.4.2.2v.8l.6-1 .2.8-.2.2.4.2-.2.4v.2l-.2.2.2-.2v-.2l.8-.4-.2.2.2.2h-.2l1.2 1h-.4l-1.2-1v.4l-.2.2h-.2l-.4.2 1.2 2.2h.6l.4-.4v.4l-.4.2v.2l.6 1 .6-.6-.4 1.2 2.2-.6v-.4h.2v.2h.2v-.2l.2 1.6.4.2.8-2.8.2.6h.2l.2.8h1.4v-.2h.2l.6-.4-.6.6h-.4l-.2.2-.6.6v.2l-.4.4h.2l-.4 1v.4h-.2l-.2.4h-.2l.2 1 .2-.2.2.2.4-.2h.2l2.4-2.8-.2-.2h.2v-.4l-.2.2v-1l.4.2 1.6-1.2.4-1.4-.2-.2-.8.2.2-.2h-.2l-1.4.4-.6.4.2-.2v-.2l-1 .8v-.4l-.4-.2v.2l-1.4-.8-.2.2h-.2l-.4.4v-.2h-.2l.6-.6v-.6l-1.4.4.8-.6-.2-.2.2-.2-.2-.2h-.2l-.4-.6.4-.6z"/><path d="m92.6 39 .2.2v.4l.2.2.6-.6.4-4-.2-.4-.4 1 .2.2v.2l-.6-.2-.4 1.6z"/><path d="m94.4 39.8h-.2l-.6.2.6 1.2.8-.2v-.6z"/><path d="m94 34v.4h-.2l.2.2.4-1.6-.2-.2v.2h-.2v.2.2.2.4h-.2z"/><path d="m96.2 39.4.2-.2-.4-.4z"/><path d="m95.8 41 .2.2.2-.2-.2-.2z"/><path d="m93.6 35.2-.2-.2-.2.2.2.4z"/><path d="m96 39 .2.4z"/><path d="m105 22.8.4.2v-.2z"/><path d="m99 25.6v.4l.6.2-.2-.4z"/><path d="m87.4 21.4h.2.2l-.2-.2z"/><path d="m96.8 28.8.2-.2-.2.2-.2-.2z"/><path d="m88.4 24h.2z"/><path d="m88.8 24.6v-.4z"/><path d="m87.4 28.2.2.2z"/><path d="m89 24v-.2z"/><path d="m107.2 86.8.4.6v-.4z"/><path d="m102.8 83.6.4 3.8 2 1.8 1.8-.2.4-1.8-.8-.6.6-.6-1-.8v-2l-1.4-1.2h-.4l-.2.2.2.2h-.2z"/><path d="m107.4 78-1.6-1.2-.4.6 1 1.4h.2l.2.2-.2.2v.8l.2-.2.2.8 1.2 1.4h.4v-.2l-.6-.8.2-.2-.2-2h-.6l-.2-.6-.2-.2z"/><path d="m109.8 80.2-.6 1 .2.4.2-.2.2.2z"/><path d="m108.8 82 .4.2.2-.6z"/><path d="m106 79.8.2.6z"/><path d="m100.4 71 .4-.6z"/><path d="m100.2 71.4.2-.4z"/><path d="m100.4 70.4.2-.4z"/><path d="m101.2 64 .2-.4h-.2v.2l-.4.2h-.2-.4l-.4.8h.2.2.2v.2l.6-.8z"/><path d="m102.6 59.6.2-.4z"/><path d="m102.6 20.8h-.4v-.2.4h.2v.2h.4l-.2-.4v.2z"/><path d="m101.6 24.6v-.4l-.2-.2z"/><path d="m102 20-.2.2h.2z"/><path d="m100.8 22.6h.2-.2l.2-.4z"/><path d="m101.8 21v.2h.2z"/><path d="m103.4 21.8v-.2l-.2-.2z"/><path d="m102 20.8v.2z"/><path d="m104.2 18.6h-.2z"/><path d="m105.8 11 .2-.4h-.4l-.2.4z"/><path d="m106.6 8-.4.2z"/><path d="m112.6 8.2.2-.4z"/><path d="m103.6 17.4h.4z"/><path d="m118 6h.2-.2l.2-.2-.2.2-.2-.2.2.2-.2-.2z"/><path d="m117.2 6.6.2-.2z"/><path d="m135.6 74-.2-.2z"/><path d="m143.8 69.8.2.2z"/><path d="m82.8 26h.2l-.2-.4-.2.2-.2-.4v-.2l-.4-.4v.2-.4h.2l.2.2v-.2h.2l-.2-.4h.4l.2.2 1.4.4v-.6l-.4-.2-.4-.2h.2.4v-.2l-.4-.8h-.6.2l-.2-1h-.2v-.2l-1-.2-.2-.2h-.2l-.2-.2v-.6l-.8-.4-2.2 1-.4-.2-.4.8.2.2v-.2l.2.2v.6l.2-.2.6.4h.2.2l-.2-.2.4.4h.4l.4.2.2-.2-.2.4h.4v.2h.2l.2.2.2-.2.2.2h-.4l1 .4h-2v.4l.8.4-.2.2-.6-.2-.4.4h-.2l-1.2 1.8v-1l-.6-.2h-.2l.2.2v.2l.4.4h.2l1.2 1.4v.2l.6.8-.2-.4h.2l.2.2h.2l.2-.6v-.2.2l.4-.2-.2-.2v-.2l.4.2h-.2v.2h.4l-.2-.6h.2-.2l.4.2v-.6-.2l.2.4v-.4l-.4-.8.2.2v-.2l.4.6v-.2l.2.2v-.2l-.2-.2h.2v-.2h.2l.2.2.2-.2v.2z"/><path d="m91.8 14h-.2l-1 1.2h-.2l-.6.4h-.2v-.2h-.2l-.4-.4-.2.4v-.2h-.2l.2-.4.2.2.4-.6-.2-.2.4-.2.2-.8h.4v-.4l1.2-.8-.8-.8.6-1.8h-.2l-.2-.4.2-.6-.2-.2h-.2-.2v-.4l-.4-.8-.2.2h.2l-4 4h-.2l-.2.2h-.4l-.2.4h-.4l-.2-.2-.2.2h-.2v.2.2l-.4.2v.2h-.2v.2l-.4.2v-.2l-.2.2h-.2-.2l.2.2h-.2l-.4.4.6.2-.2.2h-.2l.4 1v.2-.2l.4.8h-.2v.2h.2v.2-.2.2-.2l.2.2-.2.2.2.2-.2-.2v.2-.6l-.2.2h-.4v-.2l-.6-.2-.2.2h-.2v.2.2l-.4-.4v.6.4l.2 1.2-.4-2-.6-.2v-.2l.2.2v-.2h.4v-.4h-.2l-.6-.6h-.2v.2h-.2l-.2-.2h-.4v-.4l-.4.6v.2l-.2.6.2.2v.4l-.2-.2v.2h-.2v-.2l-.2.2v.2.2.2l-.2.2h-.2l.2.2-.4.2v.2h.2l.4.2.2 1 .4.2h-.2l.4.2.4-.6v.2l-.6.4h.6-.4l-.2.2h.2v.2l1.6-.4 1.2.4v.6l.2.2h.2l.2.2 2-1.4v-.2h-.2l1.4.2-.6.6-.4-.2-1 1.4.2 1.2.8 1.2v-.2h.2v-.2l.4.2-.6-1.2.4.4.2.8.4.2v.2-.4h.2l.2.2v-.2l.2.2v-1.2l.2.4.2.2.2.2.2-.4h.2.2v-.6l.2-.2v-.6l-.2-.2h-1.6.8v-.2l.2.2.6-.2.2.2v-.2l.2.4.2-.2v-.2l.8.4v-.2l.4-.2.2-.6h-.4l-1.2-.4h.8l.2-.2-.2-1-.2.2.2-.2v-.2h-.2v-.2h.2v-.2.2-.2l-.2.2h-.2v-.2l-.4.2h.2v.2h.2v.2l-2.4.2h-.2l-.6.2 1.6-.4v-.2h.2l.2-.2h.2.2v-.2h.4l.2-.2h-.2l-.2-.2-.6-.4h.2l1.4.2.2-.2-.4-.2-.4.2.8-.4-.2-.8.2-.2v-.2.2l-.2-.6.2-.2.2.2h-.2.4v.2h.2v-.2.6h-.2l.6-.2.6.8.6-.6v-.2l.6-.4v-.2-.2h.2l-.2-.2z"/><path d="m104.4 56 .4-.2-.2-.4 2-2.8-3-.6-1.2-.4-3.2 2.8h.2-.6l-.2.2h-.2-1-.4l-.4-.2v-.8h-.2v.4l-.2-.2h-.2v.2l-.4-.4v.4l.6.2v.2h.2l-.4.8v.2h-.2v-.2.2h-.2l-.2-.4-.2.2-1-.8-.6.4h-.2v.2h-.4v.2l-.2-.2-1.8.2v.2h.2v.2l-.4.2-.2.2v.2l.6.8.6.2.6-.4h.8l.2.4h.6l.2.2v-.2l.2-.2v.2-.2l.2.2v.2h.2v-.2.2l.6-.2.2.2h.2l1-.8v-.2l.2.2h.8l.4.4.4.2 1.8-.2-3-.4-1.8 1.2v.4l.6.6-.8-.8-.2-.4-.4-.4v.2-.2l-.2.2h.6v.2h-.2-.2-.8v.2l1.6 2.6h.4l1.2.4.6-.8-.4.6.2.6.2-.2.8.6 2.8-2.8-.4-.4.4.2.6-.6h.4l1.6-2 .2.4z"/><path d="m125.4 71.8v.2z"/><path d="m102.4 45.4h.2z"/><path d="m100.8 49.4-4.2-.2v.4h4.2z"/><path d="m102.4 45.4h.2z"/><path d="m100.8 49.4-4.2-.2v.4h4.2z"/><path d="m132.6 65.6v.2z"/><path d="m155.2 34.8h.2v.2-.2l-2.2-4.6-1-.2-.2-.2v-.2h-1.6l-1 .8-1.6-.4v-.2l-.6.2v.2l-.2.2-2.6.2-.2-.2h-.2l-.4-.4h-1v-.2h-.2v-.2l-.4.4v-.2h-.2l-.2-.2-.4.4-.2-.2h-.4l-.2-.2h-.6-.2v-.2l-1.4.6h-.2.2l-2 .2v.2-.2h.2l-2.6-1.2.2.2-.2-.4-3.2.6v.2l-.2.6-1.8.4.6.4-.2.4-.4-.2v-.2l-.2.2h-.2v-.2-.2h-.2l.4-.2v-.4l-1.6.2.4-.2v.2l-.6.4.4-.4-1.6 1.2.8-.4-1.2 1v-.2l-2.2-.2.6.4-.4-.2h-.2l-.8.4.4.2-1.2 1.4h.2-.6l-.2.8-.4.2h-.2-.4v.2.2.2.4-1l-.4.2-1.6.2-.4-.4-.6.4.6-.4h2.6l.2-1v-.2l-.6-.2v-.2h1l.6-.8h.8l-.4-.4 1.6-2.4-2.2.6-.2-.4-3.6 2.6h-.2l.2-.4-.2-.4 1.8-1.6v-.4l.2-.2h.4l.6-.4.6.2.4-.2.2.2-.2-.2 2-1.2-.4 1.2.8.2 3.2-4.8-.6.2-.2.6-1.6.6h-.2l.4-.4h.4l-.8-.6h.2l-.2-.2h-.4.4v.2l-1.2.8-1.2.2v-.2h-.2l-.2-.2.2.4h-.4l-.6-.8-.2.2v-.4l-1.2.4-.2-.2h-.2v-.2l-.8-.4.2-.4.4.4.8.4v-.2h1.4v.2h.4l.2-.2v.2h.2-.4l.6.4 1-.6.4.2h.2v-.8l.2-.4-.2-.6-1-.2-.2-.4v-.2h.4v.2l.6-.2v.2l-.2.2h.4l6.4-5.8 3.6-3.8 3-2.2v-.6l.2-.4.2-.2.2-.4h-.2v-.2h-.2.4l.2-1h-1l-.2-1.2 1-1.6.4-.8v-1l-1.8.2-.2-.4v.2l-.2-.2-2 .4h-.4l-.2-.4-.2-.6-.4.8.4.4v.2l.4.2-.2.6-1-.2v-.2h-.8l-.4.4v-.2l-.6-.2.2-.6-3.6 1.8-.2-.2-.4.2h-1l-.2.2-.2-.6h-.2v.2-.2l-.8.2-.2-.8v.4h-.2l-.8.8-.2-.2v.2-.2.2l-.2-.2h-.2v.2l-.2-.2v.2l-.2.4v.2h-.2l-.6-.6h-.2v.2h-.2l.2.2h-.2l-.4.2-.4-.4h-.2-.2v.2l-.2-.2v.2l-.6.2-.2.2-1 .8.4.4-.8 1 .8-2v.2l.2-.4h-.2v-.8h-.2v-.2l-.2.2-.6-.6v-.2h-1.2l-.2.2-.2.4v.8h-.2v.4l-.2-.2-.2.2-.2.6v.2h.2v.4h-.2l-1.4.6v-.2l1-1.6.2-.2v-.2h.2l.2-.2-.2-.4-1-.4-.2.2-.2-.8v-.4h-.2-.2l.4.6h-.4l-.2.4.4.6-.4.6v-.2h-.2v-.2l.4-.6-.4-.4v-.4-.2l-.4-.4v.2l-.4-.4h-.2l-.6-.2-.2.2-.4-.2h-.6l-.2.4v.2.2h.2v.2h-.2v.2l-.2.4v.2l-.6.8h-.4l-.4.6-.2.8v.4h.2l.6.4-.4.2h.4v-.2l.6.2h-.2l.4.4v.4l-.8-.6h-.2v-.2h-.4l.2.2h-.2l-.2.2h-.2-.2l-.2.2h.2v.2h.2.2.2v.2h-.6 1.2-.2.2v-.4h.2l.6.4v.2h-.2l-.2.2h.4l-.2.2.2-.2v.2h.2l-.2.2-.4-.2h-.2v-.2h-.2l-.2.2v-.2h-.4v-.2l-.2-.2h-.2v.2h.2-.2v.2h.2l-.4.6h.2l.2.2h-.4l.2.2-.2.4h-.2l.2.2v.2.2h.2.2v-.2h-.2l.2-.2v.2l-.2.2v.2l.2.4v.2l.4-.2-.2.2v.2h-.2v.2h.4.2-.2l.8.6h.6-.2v-.2h.2l2 .4h-.6v-.2l-.4.2h-.2l.2-.2-.2.2.2-.2h-.4v.2l.8.8-.2-.4h-.4l-.6-.6v-.2l-.4.4.2.2h-.4v.2l-1-.6h-.2v.2h.2l-.4.2-.4-.4-.2.4.2.2-.4-.4h-.4v-.2h-.2v.2-.2h-.2v.2-.2l-.2-.2-.2.2.2.2h.2l-.2.2-.8.6-.2-.4-.4-.2v-.2h-.4v-.2-.2l-.4.8.6.4v.4h.2l.2.6h.2l.4.2-.2.2h.2.2v.2l-.4.2.6.2.4-.2-.2.2v.2h-.2v.2h-.6l.8.4h-.6l.4.2v.2.4h.2-.2v.2.2h-.2l-.2.4-.4-.4h-.4v.4l-.2-.4v-.4h-.2l-.6-.4-.2.2h-.2l-.2.8.6.4v.2.4h.8l.2.2v.4h.4l.2.8 1 .2v.2h.2.4v.4l.2-.2v.4l-.2.2v.2l-.4.2.8.8h.2l1.2 1.8v.2l-2.6-2.6h-1l-.4-.4v-.2h-.2v.2h-.4l2.6 2.4-2.8-1.8-.2.4v.2l.2.2-.4.2-.2.2.2.2-1.2-.4-.4-.8h-.2l.2-.4-.2-.2-.2.2v-.2l-.4-.2-.6 1h.2v.8h.2l.6.6v1l.2.2v.2l-.4.2v-.2l-.2.2.2.6h-.2l-.8-1v-.8h-.2v-.4h-.2l.2-.6h-1.4v.2l-.4.2.2 3 1.6.4.2.4-.2.2h.2l.2.2h-.2v.2l-.2-.2h-.2v-.2l-.8-.2-.2.2h-.4l-.2 1.4h-.2v.4h.4l1.4 1.8-.2-.2.4.8.4-.2v-.2l1.8.2h.2v.4h-.2l-.4.2v.2l-.4-.2v.2-.2h-.4l-.2.2v.2h-.2l-.2-.4h-.2l.2.8v-.2h-.2l-.6-.8-.2-.4v.2.2l-.4-.2h-.2l-.2-.2h.2l-.2-.2v-.2h-.2l-.2-.2v-.2l-.4-.4v.2h-.2l-.6 3v.6l.8.2-.2.8.2.4v.2l-.2-.2v.4.2l.2.8h.2v-.4.4l.2.2 2.6-1.6v-.2.4h.2l-.4.4h-.2v.4h.6l-.2.2h.8l.8-.8h-.2l.6-.8h.2v.2l-3.2 2.2.2-.4-.6.2v.2.2.4h-.2v.2.2.2h-.2l.2.2 1-.2.4.4.4-.2.2.2h1-.2.2l.6-1h.2.2.2l-.6.2-.4.8 1.4 1.2h.2l-.4.2-.2.2-1.6-1.4-.2.2-.2.2h-.2l-.6.4-.2.4.4.4-1 1.4h.2v.2l2 .8.2.4.4.4 1.4-.4.2.2-1.6.4-.2.4-.6-.4-.4-.8-.8-.6-1.2.4-1.2 1.4.2.4h.2v.2l.2-.2.2.6.8-.2.4.4-.2.2.8.8.2.2 1.6-.4-1.2.4h-.2l-.2.2h-.2v.2l-1.4-.8-.2-.6h-1.4v.2-.2l-.4 1h.2l.2.4-.4-.2v.4l.2.2-.2.2h.2-.2.2-.2v.2h-.2l-.2.2.2.2h.2v.4.2-.2l-.6-.2-.4.2v.2.2h.2v.2h.2v-.2l.2-.2h.6v.2l.4-.4v.2h.2.8-.2.2l-1 .8h.4.6v-.2l.4-.4v.2h-.2l.2.8-1.6.4-.2-.2h-.4v.6l1.6.6v.2h-.4-.2l-.2.2v.8l.4.2.4-.2v-.2l.2-.2.2.2h.2.2l.4-.2h.2l3-2.8v.2l.2-.2 2.4.6 1.2.2.2.2h.6v.4l.2-.2-2.2 3.4 1.2.2v.2l2.6-.8-1.8.6v.2h-.4l-.8-.2h-.2-.4l-.4.6-.4-.2-.8.6h.2l.2.4-1.2 1.4v-.2.2l.6.6v-.2l-.4.2-.2.2v.2l.4-.2.2.6.6-.2.2-.4 1.2-.4v.2l-2 1-.2-.2v-.2h-.2l.2-.2-.4.4h.2l-.4.6-.2.2-.2.4.4-.2-.2.4.6-.6v.2l.4.6-.2.4h.8v-.2l2 .6 2-2.8h.2l-1.2 1.6v.2l-.4.4v.2l-1.2.6-.4-.6v.2l-.6-.2-.2.2v-.2h-1.2v-.2l-.4.4.2-.2-.4.6h-.2l.2.6-.8.8-.2.6.2.4.4-.4h.4l.2-.2-1 .6-.4-.2v.2l-.6.2-.2 1.4v-.2l-.2.8.2.2.4-.4h.6l.2-.2.2.4h-.4v.2h-.2l-.6.4.2.2v.4.2l-.6 1.4h.2v.4l.2-.2-.4.6h.2l.4-.6v-.2l1-.8-1 2 .2-.2v.2h.2l.2.2-.2.4h.2l.2.2v-.2l-.2-.2v-.2h-.4l-.6.8v-.2l-1 2-.8 1.2.4-.4-.2.2-.2.6h.2l.2-.6h-.2l.4-.8.2-.2.6-.8-.2-.2.6-.8-.4.6.4-.2v.2l.4-.2-.4.6v.2l.4-.4-1.8 3v.2.4l.2.2.4-.4v.2l1-1 .2.2-.8 1.2-.6 2v.4l.4.2h.2l-.2.2.2.2-.2.2v.2l.6-.4.2-.2v.2l1.6-1.6.4-.6-4.6 11.2-.4 3.2 3.2-.6.8-1.2-.4-1.4-.8-.2.8-.2 1-3.8h.2v.2l1.8-5h.4l-.8-2.6h-.4l.2-.2h.2l-.2-.6h.2l-.2-.2-1-3.4v.6l.2.2.2-.2h.2v.2l.4-.8h.2l.4-1.2.2.2.8-1.2v-.2l3-3.4.2.2 1.6-1-2.2 2.4v.2l-1 .8h-.2l-2.6 6.6v.2l.2.2h.2v.2.4h.2.2v.2l.2-.2 1 .6-.6-1.8.6-1.2.2-1 .4 1.4 1.2.8-.8-2.8 1.2 3.6v.2l.8.2 1-3-.2-.2h-.2l-.4-.4h.2v-.2l.8.2-.2-1.6.6-1-.6-2 .2-.2.4 1.8.2.2.4-.6h.2l1.4-2.4-2 4 .4 1.8h1.2v-.2-.2h-.4l-.6-2 .2.4.4 1.4.8.2.8.6h-.2v.2h.2l.2.2 1.6.6-.2-.2.2.2.8.2 1.6 1 .6.4.2.2h-.2v.2l-.8-.6-.2.2v-.4l-1.2-.8-3.4-.6h.2l-.4.6-.6-.4-1.2.6v.4l-.2.2v.2.2.4l.4 2.8-.2 1h-.2l.2.2-.4.2v.6l1.2 1.2v.2h.2l.2.2h.4l1 .6-.4-.6.4.6.2-.4v.2l-.2.2.6 1.4h-.4v-.2.2h.2l.6 1.2-.4.6h.2v.2h-.2l-.2.8-1 .4-2 4.6h.2-.2v.4l-1.2 1.6h-.2l-.6 6.4-.2.2h-.2v.2h-.2l-.6-1.4.2-.2-.2-1.2-.8.2-.4.8.6 2.8 1.4 1.4v.2l.4.2.4 1.2.4.2-.2.2.2.4-.4.2.2.6 1.6.6h-.4l.2-1-.2.2-1-2.8 1.6-1.6h-.2l5.6 4.2 1 .4.4-.2.2-.4h.2l.2-.6-.2-.2.2-1.2-.2-.2h.2v-.2h-.2v-.2l.2.2h.2l-.2-.6-.8-.4-.2-.6v-.2h-.2l.2-.2h-.2v-.2.2h.2v-.4l.4-.2h-.2.2l-.2-.2v-.2l-.4-.2v-.4h-.4v-.2.2l.4.2v.2l.2.2.2.6 2 1.6.4-.8.4-.2-.4.6h.2l-.2.2 1.2 1.4.2-.2.4.6.2-.2h-.2.2l.6-1.8v.2.2h-.2l-.2.6.2-.4.2.2-.2 1 .4.2 3-1.4-.2-.6.2.2-.2-.4v-.2l.2.2.2.2v-.2l-.2-.6h.2v-.4l.2-.2.4 1 1.2-.8v.2l1.6.2v-.2l.4-.6-.8-4.2.2.2-.2.2.2.6.6 1.4 1.2.2.4-.4h-.2l-.2.2.2-.2.4.2 1.2.2.2-.2 1 .2-.2-.2.2.2 3-.4.4-1.2-.4-.2h1.4l1-1v-.2l.6-.6v-.2h.2v-.2l2.8-2.2v-.6h.2l-.6-.4 2.4-2.4h1.6l.8-1.6h.2l1.8-1 .2-.6-2-4v-.2l-.4-.2.2-.2h1.4l-.2-.2 3.2-4.2-.6-1.6h-.2v-.2h-.2l-.4.2v-.6l-2.8-.4h-.2v-.2h-.2-.2l-1.4-1.2h-.4l-.2-.2h-.2l-.2-.2h-.4v.2l-.4-.4v.2l-.2.2.2-.4.2.2v-.4l-.6-.8h-.2-2.4l-1 .4.4.2h-.4l-.4.8-1.8 1h-.4l-.4.2-1.6-1.2.2.2h-.2l.2.2h-.2-.2-.2v-.2l-.6.2v-.2l-1.2.2-.8-.6.2.2-.4-.2v-.2l-2.8-.6-.2.2h-.2-.2v.2h-.6l-.2-.2v-.2-.2l-.6.4h.2l-1.2-2-.6-.2v-.2l-.2-.2v.4h-.2l.2-.2-.4-.4-.2.2.2-.2.4.4v.2h.2v-.2h.4v.2.2l.2-.2 2 1.6 1-.2v.2h.2l.2-.4.8.6.2-.2 1.2.6h.2l.6.4h.2v-.4l-.2-.2 1.4-.2.2-.4h.2l4.2-3.6v-.2l1-.4.8.6h.6v.2l3.4-2.4-2.4-1.4h-.4l-1.2-1-.2.4-.4-.4-.6.2 1.2-.6.4-1.6-7.8 2.4h.4l.2-.2-1.2-.6-.2.2-.4-.2 2.6.4.4-.2 10.4-5.8.2-.8h-.2v-.8l1-1h-1.2l-.4-.6v.2l.2-.4h.4l.2.2v.2l.2.2.6-1.4h-.4.2l.2-.4-.2.2.6-.6h.2l2.6-4.4v-.2h-.2v-.4h-.2v-.4l.4-.2v-.4l.2-.2v-.2l1-1.4.8-1.6v-.2l.2-.2-.2-.2-.4.2h.2-.2.2-.2.4l-.2-.8 3.4-6.4h.2l1-1.6-.2-.2-.2-.4h.2v-.2.4h-.2zm-34.6-21.8v-.6l.2.8h.4v-.2l.2.2v.4h.2l.4.2-1-.4-.4.4zm-19.8 36.6-3.2.2-.2-.2h-.2-.2l-.2.2-.4-.2v-.4zm7.6 14.6-.4.2.2.2-3.4 3.6v.2l-2 1.8h-.4l2.6-2.6.2-.2v-.6l.2-.2v-.2l.4-.4h.2v-.2l.2-.2h.2l1-.6v-.2l-.2-.2v-.2l.4.2h.2.2v-.2h.2l-.2-.4.4.2-.2-.2zm-7.4-37.2.2-.2v.4l.2.2v-.4h.2v.4l.2.2-.2.2.8.8h.2l.2.2h-.2l-.4.2-.4-.6h-.2v.2h-.2l.2-.2v-.2h-.2v-.2l-.2-.2.2-.2h-.2v-.2l-.2-.2zm1.6 4-1-.6.2-.2h-.2v-.2l-.4.4-1-.4.2-.2-.2-.6h-.2v-.2l-.4-.6h.4l3.2 2.8v.4l-.2-.2h-.2v-.2zm1 15.8-.8.4h-.4l1.6-.8-.2-.2v-.2h.4l.2-.8v.6l.6.4h.2.2l.2-.2.2.2-.2.2v.2zm4 2.6-3.2-.6-.6.4.4-.6 4 .6zm1-32.4-1-.2v-.2h-.2l-.4.2.4-.4h.6v.2h.2l.2.2h.2l.4.4h-.2zm2.2 30.8-2 2.8v-.8l2.4-2.2zm5.8-9 1.8-2.4-.6 1 .2.2-4.8 7 .2-.6h-.4l3.4-4.6-.2-.2h-.2v-.2zm.8-29.6.2-.4v.2l-.2.6h.2l.2 1 .2.2-.2.4h-.4zm-.4 4.4 1.6-1 .4.2-2 .8-.4-.2zm-4.6 3-.4-.4h.4v-.6l.2.4v.2l2.6 1.8v-.2l.8 1.2-.2-.6 1 1.2h.4v.6l.4.2-.2.2v.4l-.4-.6-.2.2zm3 56.4-.8.4-.2 1-.6-1 .2-.4h-.2l-1.2-6.2.2-.2.6 2.6-.2.2.8 2 .6.4v.4h.2l.2.2v.2l.6.6zm1.4-4.4-2.2-.8-.6-.8 1 .8h.8l.6.4.2.4zm0-13.6-.2-.4.2-.6v-.2h.2v-.2l2.8-4.2v.2l-1.8 3h.2-.2l-1 1.6.2.6zm2 1.4h-1.8l3.8-.6v.2zm4.8 2.6-4.2 3h-.4l4.6-3.2zm9 6.6v.4z"/></g><path d="m190.2 185-1.2-.4v.2h-.2v.4l.6.2z" fill="#2c71b9"/><path d="m190.4 184.6-.4.2z" fill="#2c71b9"/><path d="m191.4 180.4h.2z" fill="#2c71b9"/><path d="m191.6 182.2-.2.2.8-.2z" fill="#2c71b9"/><path d="m194.8 182.8h-1v.6h-.4v.4h.2l-.2-.2v.2l.2.2h.2l1.2-1.2z" fill="#2c71b9"/><path d="m193.8 183.2-.2-.4h-1l.8.6z" fill="#2c71b9"/><path d="m192.8 183.6.2.4.2-.6z" fill="#2c71b9"/><path d="m193.6 184.2.2-.2-.6-.2.2.2z" fill="#2c71b9"/><path d="m199.2 177 .2-.4h-.2l-.2.2z" fill="#2c71b9"/><path d="m192.2 180.4h.4l-.4-.2z" fill="#2c71b9"/><path d="m199.4 176.8v.2h.2z" fill="#2c71b9"/><path d="m193.4 184.2-.2-.4z" fill="#2c71b9"/><path d="m198.8 176.8.2-.2z" fill="#2c71b9"/><path d="m199 176.2.2.2z" fill="#2c71b9"/><path d="m199.4 176.8v-.2z" fill="#2c71b9"/><path d="m198.6 176.8.2-.2z" fill="#2c71b9"/><path d="m206.8 162.2-1.4-6.2-10-5.6-.4.2.2-.2.2.2.2-.2.8.2-.4.2v.2l-.2-.2-.4-.2h.2l-.8-.2h-.2l-.2-.2h-.2l-.2-.2v-.2l-.2.2-.2-.2v.6-.2l-.2-.2h-1.4.2l-.4.4v-.2l-1.4.2.6-.2h-.2-.8v.2h-.2.2-.4.2-.2l-.6-.2h.2-.4l-1.4 3.2-1 .8v.2l-.2.2.4 1.4-.4.4-.2.2.4-.6-.6-1.4-.6-.2h-.8-.4l-.2.6-.8-1.6-1-.4v-.2l-.6-.2-1.2.6.8-.8v-.2l.4-.4-.6-.8h-.2l1.4.8 3.6-4h.2l-5.8-11.8v-.2l-3.2-3.4-4.2.2-.4-.4-1.4.4v-.4l6.8-.6v.2h.2v.2l2.6 2.4 1-.4.2.2h.2l1.4.8.2.6-.8.4.6-.6-5.2-10.4.6-1.8 1.4-.6-3-2.2v-.4h.4l-2-1.6.2-.2-2.2-3.8.2-.4-1.4-1.2v.4-.6l-.8-.2-.2-.4h-.2l-.2-.2h-.4l-.2.2h-.2l-.2-.2-5.4-2.4v.2.2h-.2v.4l.2.2h-.2v.2l.2.2-.2-.2-.8.6.8-1-.2-.2v-.2.2h-.4l.2-.4h.4v-.2-.4l-.6-.8v-.2-.2h-.2.2l.2.2h.2l.2.2-2.2-3.6-.4-2.2v.2-.2h.2l-.2-.2v-1l-.8-.8v-.2l-.8.6v-.2h-.4.2l.6-.6h.2l-.4-.4v-.2l-1-2-.4-.4h-.6.4l-.2-.2h.2.2l.4.4-.6-1h-.4-.2l.6.2.6-.6v-.2l-.2-.2h-.2l-.2-.2h.2l-.8-1.6.2-.8-.4-.6-.4-.2.2.2v-.2l.4.2-.6-1.2v.2-.2l.6-.8v-2.4l-.4-.2v-.4l-.4-.4v-.2h.2l-1.8-1.6-.4.4-.2-.4.4-.2-.2-.8-.6.2-.6-.8v-.4l-.2-.2-1.6-1.6-.2-.4h-.2v-.2h-.4l-.2.4.2-.4.4.2v-.4l-.6-.8-3.2 4.2.2.2h-1.4l-.2.2.4.2v.2l2 4-.8 1h-.6l-.2.4h-.2l-.8 1.6h-1.6l-2.4 2.4.6.4h-.2v.6l-2.8 2v.2h-.2v.2l-.6.6v.2l-1.2 1h-1.4l.4.2-.4 1.2.2.4v.2l.6-.2.2-.6-.4.6-.4.2v-.2l-.2-.2-.4.6v.2l.4-.2.2.2h.4l-2 .4-.6-.6-1.6.8.2.4h1l-.4-.2-.2.4h-.4v.8-.4l-.8-.4.2-.2-.8.8h-.2l-.4 1-1.2 2.8v-.2l-.8 1.6-.2-.2.2 1-.4 1.6v-.2l-.4.8-.2.2.2.6h.2l2.6 3.6v-.2l-.2-.2v-.2.2.2h.4v-.2h.2l-.2.2v.4l.4-.2-.4.4v-.4l-.2 1.4 1.8 2.6h.6l.2-.4-.4-.2.2-.4h.2l.2-.4-.2-.2v-.4.4l.4.8.2-.2-.4 1.4-.4.2v.4l.2 1.6h.2v.2l.2-.2.2.2.2.6v-.2l.4.4-.2-.6 1.8-2.8h.2l-.2-.8.4-.2-.2.4.4.2.2.4-.2.2.6.6v.2l.4.2.4-.2.2.2v-.4l1.8-1.4.2-.4h-.2l.4.4-1.2 1 .4.4.2.4v.2l.2.4.2-.2v.4l.2-.2-.4 1-1 .4-.6 1h.2l-.2.2.6 1 .2-.6.2.2.4-1 .2 1.2-.4-.2-.4.8.4.2-2.4 1 .8 1.8h.2l.2-.2-.4.2-.6-.2v-.2h.2l-.6-1.4-.4.2.2 4.2.8.4.6-.2h1.2v-.2l2-.2h-1.2l-.6.6v-.2l-.6.2.2.2.2.4-.4-.6-.6.2h-.2v.2h-.4l-2.4 4.2 4 5.4.2-.2.2.2.8-.6h.2l.4-.2h.4l.2-.2.6-.2-2 1.2v.4l-.4.6-.4-.2-.6.4v-.2l-2.2-2-.4-1.4-.2-.2-2.2 1.4 1.4 1.8-.2-.2.2.4v.2h.2.2v.4l-.2.2 2.6 2-1 .8.2.2v-.2l1 1 .4-.2-.2.8.6.8h-.2.2.2-.2v.2l1 1.2 1 .2v1l-1.2 1-.6-1-2-.4v-.2l-.8.8h-.8l-.4.8h-.4l.2.6-.6 1.4v.2.2l.6.4.4-.2v.4l.4.2h.2l.2.2h.2v.4l.8.8-.2.2v-.2h-.6l-.4 1.8-.4.2.4.2v.2h-.2l-1.2.6.2.8-.2.4h.6v-.4l1.2-.4-.2 1h-.4v.6l-2.6.6v.8l4 2.2-.8 1.4.8.4-.4.2h-.4l-.4.4v.2h-.4l-.6 1.8h.6l-.8.6v.4l.4.2 1.4 4.4h.4l.2.6 1.2-.6.6.2-.2.2h.2v.2l1 .6v.4l.2.4h.4l.2.2h.2l.2.2h.2l.4.2-.2 2.8h-.2l.4.8-.6-.2h.4v1.2h.2l1.2-2h.2l.4.4-1.4 2-1.2 2v.2h.2-.2-.2l-.4.2h-.2l-1.6 1.4-.6 1 .2.2-.6-.2v-.2l-.6.2h.2v.4l-.4.4.2.2-.2 1v-.2l-.8-.4.4.2v2.4l-12.6-.4v.2l-2.4.4h-.2l-.2-.2h-.2l-.2.2h-.2-.2l-1.8.6.4.2-.2.8h-.4l.4.2v.2l.2.2.2 1h.2l.2-.2v.2-.2.2h.2.2l.4-.2.8.4.2.4v-.2l-.8-.4-.6.4h-.2l-.4 1.2.2.2h.2l-.4-.2.2-1h-.2v-.2h-.2l-1.8 1.6-2.6-.8-1.6 6.4h-.2l-.4 1h-.4l-1 .4-.4 1.6-.4.2h-.2-.4v.2l-.6.2-.2-.2-.2.2.2.2-.2.2.2.6.4.4h.8l.2.4-1.4-.2-.2.2v-.6h-.2v-.4l-.6.4-.2.2-.2-.2h-.4v.2h.2v.4l-.4.2.2.4v.2.2l-.2.8-.2.2h.2-.4l-.2-.2-.4.2h.2-.4v.2h-.2v.2l-.2.2v1l-.6.6h-.2l-2.2 2-.2-.2h-.2v.4l-.6.8.2.2h-.2v.2l.2-.2-.8-.6v-.2l-1.4.4v.2h-.2l-.4.6h-.6l-.6.8.2.8-.4.6.4.8 2.2-1v-.2l-.2-.4.2-.4.6-.2.2.2h.2l.2.2.2.4.4-.2h.2l2 1.6.2 1.4h.2l.4.4h.2l.2-.6h.2v-.2h.8l.2-.2v-.2l.6-.6-.4-.4v-.4h-.6l.4-.2h-.6-.2v.2l-.2-.4-.2.2-.2.2v-.2l-.2-.2h.6l-.2-.2v-.2l.2.4.2-.2-.2.2h.6l.2-.2-.2-.2v-.2l.2-.2v-.2h.4l-.2-.2v.2l-.4-.2-.2-.2.2.2h.4v-.2l-.4-.2h.4l-.2-.4.2-.2v-.2h.2v-.2l-.2-.2h.2-.2.4v-.4l-.6-.2h.2v-.2l.2.4.4-.8-.2.6-.2.2.2.4.4-.2-.2.2h-.2l-.4.6 1 .2.2-.2-.2.8h.2l.2-.4h.2l-.2.2h.2v.2l-.4.2v.2h.2l.4-.2.4-1h.6l.8-1h.2.2.2l.2.2.4-.4v-.2l.2-.4-.2-.2v-.2-.2-.2l.4-.2-.2-.4.2-.4.8-.2h.2l.2.2v.4l.2.2v-.2l.4-.2.2-.2h.2v.4h.2l-.4.2h.6l.2-.2h1 .2v-.2h.4l.4-.4-.2-.2v-.4l.2.6 3.4.6v.2l.2.2h.4l-.2-.4.4-.6.2-.2h.4l.2.2h-.2l.2.2v.2l.2.2v.2l1 .2v-.6l.2-.2h.2l-.4.4-.2.2h.4l-.6.2.8.2.2-.2 1-.2v.4l1 .4-.2.2.2.2v.4h-.2l1.2.6.2-.6h.2v-.2h-.2.2l-1.2-.2h.2l-.2-.2v-.2l.2.2v-.2.4h.2v.2l.6-.4-.2.2h-.2l-.2.4.4-.2-.2.2.2.2-.6.2.8.4v.2l.2-.2h.2l.4-.4h.4.2l-.2-.6.6-1.6.6-.2-.2-.8h-.4l.2-.2v-.2l-.2-.4-.2.2v-.2l-.8-.2.4-.2-.6-.4v-.2.2l.4.4v.2l.4.2.2-.2.2.2h.6l-.2.2.2.8h.6v.2-.4l.2-.2v-.2l.2-.2h-.4l-.2-.2v.2.2l-.6-.2-.2-1 .4-.4.8-.2-.2-.2-.2-.2.2-1.2h-1.4l1.4-.2 1-1.6v-.2l-.2.2-.8-2.2.6.4v-.2-.2l.6 1.4-.2-.2 1 .4v-.2l.8-.4v-.2.2l.6-1 2.4-.4.2-.4 2.2-.4.2-.2 6.8 4.2v1l.6-1v-.4h-.2l-.4-.4-2-1.8 1 .6.6.4.4.6.2-.4h.2.2-.2v-.2h-.2v-.4l.4-.4 2.6.4h1.2l.2.2h.2l1.4.8 1.2-.2.2-.4h-.2l.4-.8h-.2l-.2-.2.2-.4v-.2l-.2.2-.2.2v.2h-.2v-.2-.2l-.2.2v-.2h-.2v-.2l-.2.2h-.2l.2-.4-.4.2.4-.2-.2-.4h.2l-.2-.2-.4.4h-.2v-.4h.2-.2l.4-.2v-.2-.2h.2.2-.2v.2l.6.2h.2l-.2-.2-.2-.2h.2l.2.4v.2h.2l.2-.2.2.2v.2l.2.2-.2.2.6-.6 2.4-.4h-.4l-.2-.2h.2l.2-.2h.2l2.4.2.2-.2.2-.2.2-.4.2-.2-.2-.4.2.2 2.2-.6h-.4v-.4h-.2l-.4-.4.4.4v.4h1l.4-.8v.2l-.4-.4v-.2l-.2-.2h-.2v-.2l-1.8-1.4v-.2l1 .6v.2.2-.2l.2-.6h-.2l.2-.4-.2.4.2.2-.2.2v.4l1 1v-.6l.8-.6-.8 1v.4l2.6 1.6.2-.4-.4.2.2-.2h.2.2v-.4h-.2.2l-.4-.8h-.2-.2v-.2h.2l-.2.2.8.2v-.2l.4.4.2-.2-.2.2h-.2v.2-.2.2h.2-.2v.2.2l.2.4.8-.2v-.2l.4 1.8v-.6l-.2-.4h.4l.2.2.4-.4v-.2l.4.4.6-.2v.2h.4v-.2l.2.2v.4h.2v-.6h.2v.2h.2l-.2.2.2.2h-.2.2l.4-.2.2-.4-.2.6h-.8l-.6.6v-.2.2l1.8 1.4.4-.4v-.2l.2-.2h-.2v.2l-.4-.2v-.2h.2v-.2h.2v.2l-.2.2 3-1-.2-.2.4.2 4.2-.6-.2-.2h-.4l-.2-.6.2.4 1.2.2h-.2l1.4.4v.2h.2-.2l2.4.8v-.4.4l1.2.6h.2l1.2.6 1.8-1.4 6.4-3.2-.6-.6 3.4 1v-1.2l1.2-2 2-.4h-.2l2-.8-.2-.2.2.2v-.2h.2.2v.2-.2l.8-.6-.4-3.8-.4.4.2-.4.8-.2v.2l.2-1.4-.2-.2-5.6.2-1.8.6.2.2h-.2v-.2l-1.2-.2v.2-.2h-.8v-.6l-.4-.6-.2-.6h-.4.2-.4v.4l.2.2-.4.2.2-.2-.4.4v-.4l-.4.6.2-.4h-.2v.2l-1-.6-.4.6v-.4l.2-.2h1l.2-.2-.2-.2.4-.6h.2.2.2l.2-.2v.4h.6l.2-.4-.4-.4h-.4v.2l-.2-.2-2.4-.2v-.4l.6-.2-.4-.4 5-.6-.2-.2h-.4v-.2h-.2l.2.2h-.4.2v-.2l.2-.2-.6.2h-.6l.6-.2h-.2.8l.2-.2-.2-.4h-.4v-.6h-1.6v.2h-.2v-.2h-.8.2l-.2-.2v-.2.2l.2.2.4-.2-.2-.2h.4l-.2-.2 3.8.6.4-.4v-2.4h-.6l-.6.6-.8-.2v.4h-.4v.2.2l-.2-.4-.4.4v-.2l.4-.4h-.2l-1.2-.4.2.2.2-.4.4.2h.2v-.2l.4-.2.2.2v-.2h.8v-.2l.4-.2-.2-.2-.2.2-.2-.4h.8l-.2-.4h-.4.4v-.2l.2.2.4.4v-.4.2l.4-.4-.4.4.6.2 1-.6-.8-.2-.2.2.2-.2h-.2.2 1-1.2.2v-.2l.2.4-.8-1.6 1 1.2-.2.2.4.6h.4l.2-.4h.2v-.2l-.2.4h-.6l.2.2v-.2l.2.6 3.6-2.2v-.4l-.4-.2.4.2h-.2v.6.2-.2h-.2v.2-.2h-.2v.2-.4h-.8l.8-.4-.2-.2.6-.2v.4l.6-1.2h.2v-.2h-.2v.2l-.4-.2-.2.2-2.6-.2.2.2.2-.2h.2l.8-.4.4.4h1.4l-.2-.6-2-1.2v-.2l1.2.8v-.2l1 1.6 1-1.2-1-2v.2-.2h-.4.2l.4-.6-.4.4.4.4v.2l.2.2-.2.4.8 1 1.6-2h-.2.2l.2-.2h.2l.8-1.4-1.2-.2-.2-.4.2.2.6-.2.2.2h.2v.2l.4.2-.4 1-.4.2v.2l-.4.2.4-.2-.6.2h.2l-.8.6 1.6-1 1.2-5.4-.2-.2.4.2 1.2-3.6h-.6l.8-.2zm-35.4 7-.8.4zm-14.4 24.6-.2.4zm.4 1.2-.2.2zm0 1v.4l.2-.6zm.6 1.2h-.2zm-1.2-4v-.4zm-.2-.6v-.2zm-2 5.6-.4-.8-.4.6.4-.6zm-.6-61.4.4.4h.4v.2h.2-.2v-.2h-.4l-.4-.4-.2.2zm5.4 51.8v.2zm-1.2 0 .2-.2zm-1.6-5.6.2-.2v-.2.2zm0-1.2v.2zm-.2-.6.2-.2h.2-.2zm-.2-2.4.6-.8zm-10.6-3.4-.2-.4zm0-.2-.2-.2zm-.2-.4-.2-.4zm13.8 12.8-.4.2zm-.4.4v.2l-.4-.2v.2-.2l.4.4zm-1.2-12.8-.4.2v.2zm-.2.6v.2zm0 .2h-.4l-.4.8.4-.8zm-.2 5.2h-.4zm-.2-7v.2zm0 0v-.2zm.2-.6-.2.2zm-.6 4 .2-.4zm0 2.6.2-.2zm1-5.4.2-.2zm-4.8-36.4v.4zm1.6 34.6-.4-.6zm-8.6 3.2v-.2zm8.2 26.4-.6 1.4zm0-1.2-.2.4zm.2-1.2-.2.2zm.4-.4h-.2l-.2.2.2-.2zm.2-1.6-.2-.2zm.4-.6h-.4l-.2.2.2-.2.8.2zm.4.4h.4zm1.6.6h-.2l-1-.6h.2l.8.8.2-.2.2-.2zm.6.6-.2-.6h-.2.2zm.2-1-.2.8zm.6-6.6-.8-.2v.2h-.2v.2h-1 1v-.2h.2v-.2zm.4-1.2-.2.2zm.2-1h-.2v.4-.4l.4.2zm.2.2.2-.4zm2.4-20 .2.8zm27.8 13-.2.2zm13.2-10.6v-.2z" fill="#2c71b9"/><path d="m200.4 194.6.2-.2z" fill="#2c71b9"/><path d="m201.8 189.6h-.2z" fill="#2c71b9"/><path d="m167.8 201.2-.4-.2v.4l.4.4z" fill="#2c71b9"/><path d="m191.2 187.6h-.2v.2l-.2-.2v.2l-.2.2h.2.4z" fill="#2c71b9"/><path d="m189.8 187.8v.2h.2.2z" fill="#2c71b9"/><path d="m190.8 188 .2.2v-.2z" fill="#2c71b9"/><path d="m191.2 187.6-.2-.2h-.2v.2l.2-.2z" fill="#2c71b9"/><path d="m189.6 187.8h-.4z" fill="#2c71b9"/><path d="m190 187.8h.2z" fill="#2c71b9"/><path d="m193.6 188.6.6.4.6-.4-.4-.8-2.4-1v.8h-.4l.8.8-.2.2h.2.2l.8.2v-.2z" fill="#2c71b9"/><path d="m167.4 202.2h-.2v-.2h-.2.2v-.2l-.2-.2h.2v-.4-.2h-.2l-.2.2-.2.6-.2.2h-.2v-.2.4l1.2.2z" fill="#2c71b9"/><path d="m165.4 204.2h-.2v.2l-.2-.2h.2l-.2-.6-.6-.2-1.2.2.2-.4-1-.6v1.4-1.2l-.4-.2-1.4 1 .2-.2.2.2h-.2.4l-.2.2-.4-.2.2.2h-.2v.2-.2l-.4.2.2-.2v-.2h.2l-1.2.4-.2.4v-.4h-.4l-.6.8-.2.2 4.2 2 1.8-.8.2-1 1-.4z" fill="#2c71b9"/><path d="m136.2 122.8h.2z" fill="#2c71b9"/><path d="m133.8 121.8h-.2l1 2.6h.4v-.2h-.2-.2l-.2-.4h-.2l-.2-.4.2-.2-.4-.2h.2l-.4-1z" fill="#2c71b9"/><path d="m135 124v-.2z" fill="#2c71b9"/><path d="m161.8 104.4.2.2z" fill="#2c71b9"/><path d="m154.2 83h.6l.2.4h.2v-.6h-1z" fill="#2c71b9"/><path d="m155.2 83.8-.2-.2z" fill="#2c71b9"/><path d="m158.8 92-.2-.2z" fill="#2c71b9"/><path d="m157 84.6v.2z" fill="#2c71b9"/><path d="m157.6 84.2h-.2v.2z" fill="#2c71b9"/><path d="m154.2 82.6h-.2z" fill="#2c71b9"/><path d="m160.6 100.2h.2z" fill="#2c71b9"/><path d="m135.2 186.6-.2.2z" fill="#2c71b9"/><path d="m151.8 204.4v-.2z" fill="#2c71b9"/><path d="m152.2 204.6.2-.2h-.2z" fill="#2c71b9"/><path d="m152 204.6h.2z" fill="#2c71b9"/><path d="m152 203.4v.2z" fill="#2c71b9"/><path d="m152.6 204.2v.2-.2h-.2v.2z" fill="#2c71b9"/><path d="m135.8 188.4h-.2z" fill="#2c71b9"/><path d="m136 189.4v-.2h-.2z" fill="#2c71b9"/><path d="m137.2 192v-.2z" fill="#2c71b9"/><path d="m145.6 207h.2z" fill="#2c71b9"/><path d="m120.6 212h.2z" fill="#2c71b9"/><path d="m124.4 213.8v-.2z" fill="#2c71b9"/></svg>