<svg width="24" height="24" viewBox="0 0 24 24" fill="none" xmlns="http://www.w3.org/2000/svg">
<g id="Size=24px, Cut=Sharp, Type=Outline">
<g id="Icon">
<path d="M13 9.81909L15.1809 12L16.5916 10.5893L12.0012 5.99882L7.41321 10.587L8.82597 11.9998L11 9.8256V17H13V9.81909Z" fill="#F1F1F1"/>
<path fill-rule="evenodd" clip-rule="evenodd" d="M12 1C18.0751 1 23 5.92487 23 12C23 18.0751 18.0751 23 12 23C5.92487 23 1 18.0751 1 12C1 5.92487 5.92487 1 12 1ZM12 3C16.9706 3 21 7.02944 21 12C21 16.9706 16.9706 21 12 21C7.02944 21 3 16.9706 3 12C3 7.02944 7.02944 3 12 3Z" fill="#F1F1F1"/>
</g>
</g>
</svg>
