<svg xmlns="http://www.w3.org/2000/svg" width="233" height="26" viewBox="0 0 233 26">
    <defs>
        <linearGradient id="a" x1="50%" x2="50%" y1="115.562%" y2="-22.58%">
            <stop offset="0%" stop-color="#00043B"/>
            <stop offset="100%" stop-color="#002672"/>
        </linearGradient>
        <linearGradient id="b" x1="50.002%" x2="50.002%" y1="115.562%" y2="-22.58%">
            <stop offset="0%" stop-color="#A80002"/>
            <stop offset="100%" stop-color="#EA021A"/>
        </linearGradient>
    </defs>
    <g fill="none" fill-rule="nonzero">
        <path fill="url(#a)" d="M43.374 26H1.738A1.74 1.74 0 0 1 0 24.267V1.712C0 .802.76 0 1.716 0h41.658v26z"/>
        <path fill="url(#b)" d="M43.157 0h79.656v26H43.157z"/>
        <path fill="#FFF" d="M230.943 25.458h.022c.65 0 1.193-.541 1.193-1.191V1.733c0-.65-.542-1.191-1.193-1.191h-.022c.651 0 1.193.541 1.193 1.191v22.534c0 .65-.542 1.191-1.193 1.191zm-108 0V0h108a1.9 1.9 0 0 1 .347.043c.065.022.109.022.174.044.108.021.195.086.303.13.066.021.109.065.152.086.13.087.26.195.369.325.239.304.39.694.39 1.105h.022v22.534c0 .411-.152.801-.39 1.105-.109.108-.239.238-.369.325-.065.021-.108.065-.152.086a4.253 4.253 0 0 1-.303.13c-.066.022-.109.022-.174.044a1.687 1.687 0 0 1-.347.043H122.943v-.542zM29.277 23.118c.282.152.846.325 1.583.325 1.237.022 1.909-.455 2.408-1.56l6.636-14.776c-.282-.152-.89-.304-1.366-.325-.846-.022-1.996.151-2.733 1.906l-2.147 5.07-4.229-6.825a5.996 5.996 0 0 0-1.431-.195c-1.475 0-2.32.542-3.188 1.474l-4.077 4.463 3.296 5.178c.607.954 1.41 1.43 2.71 1.43.847 0 1.562-.195 1.888-.346l-3.969-5.98 2.82-2.969 4.619 7.237-2.82 5.893zm-8.696-5.59c0 1.084-.434 1.712-2.56 1.712a4.13 4.13 0 0 1-.758-.065V4.745c0-1.105.368-2.232 2.515-2.232.26 0 .543.022.803.087v14.928zm-4.403-2.166c0 2.036-1.323 3.51-4.033 3.813-1.952.217-4.793-.043-6.138-.195a4.024 4.024 0 0 1-.086-.715c0-1.777.954-2.188 1.865-2.188.932 0 2.407.151 3.513.151 1.214 0 1.561-.411 1.561-.801 0-.52-.477-.715-1.431-.91l-2.537-.455c-2.126-.412-3.253-1.885-3.253-3.445 0-1.907 1.344-3.489 3.99-3.792 1.995-.217 4.446.022 5.769.195.043.238.065.455.065.693 0 1.777-.933 2.145-1.844 2.145-.694 0-1.756-.13-2.992-.13-1.258 0-1.757.347-1.757.759 0 .433.499.628 1.28.758l2.45.455c2.516.477 3.578 1.907 3.578 3.662zM48.644 18.482c-.13-1.019.195-1.56.737-1.56.586 0 1.995.65 3.99.65 2.126 0 2.928-.78 2.928-1.777 0-.693-.304-1.257-2.255-1.798l-2.169-.607c-2.32-.628-3.275-1.798-3.275-3.272 0-1.776 1.41-3.423 4.685-3.423 1.474 0 3.296.347 4.38.78.13.997-.195 1.517-.694 1.517-.542 0-1.865-.607-3.686-.607-1.952 0-2.69.715-2.69 1.647 0 .606.282 1.17 2.06 1.668l2.213.65c2.45.693 3.448 1.842 3.448 3.38 0 1.907-1.496 3.597-4.988 3.597-1.605 0-3.535-.39-4.684-.845zM72.629 13c0 3.922-2.754 6.305-5.855 6.305-1.865 0-3.362-.867-4.25-2.123v5.308c0 .455-.261.758-1.042.758-.347 0-.737-.043-.91-.108V6.998c.173-.043.563-.13.91-.13.781 0 1.041.304 1.041.759V8.84c.89-1.257 2.386-2.123 4.25-2.123C69.876 6.738 72.63 9.1 72.63 13zm-1.995 0c0-2.687-1.8-4.528-4.207-4.528-1.67 0-3.21.953-3.904 2.361v4.399c.694 1.386 2.234 2.361 3.904 2.361 2.407-.021 4.207-1.863 4.207-4.593zm3.925 0c0-3.597 2.668-6.262 6.225-6.262 3.578 0 6.224 2.687 6.224 6.262 0 3.618-2.668 6.305-6.224 6.305-3.557 0-6.225-2.687-6.225-6.305zm10.453 0c0-2.773-1.908-4.528-4.228-4.528s-4.23 1.755-4.23 4.528c0 2.817 1.91 4.572 4.23 4.572 2.32 0 4.228-1.755 4.228-4.572zm11.755-5.178c0 .736-.326.91-1.041.91-1.388 0-3.362.455-4.36 2.686v6.977c0 .477-.26.758-1.04.758-.347 0-.738-.043-.911-.108V6.998c.173-.043.564-.13.91-.13.781 0 1.042.304 1.042.759V9.1c1.106-1.603 3.036-2.47 5.313-2.102.022.152.087.52.087.824zm11.277 10.66c-.13-1.019.195-1.56.737-1.56.586 0 1.995.65 3.99.65 2.126 0 2.928-.78 2.928-1.777 0-.693-.303-1.257-2.255-1.798l-2.169-.607c-2.32-.628-3.274-1.798-3.274-3.272 0-1.776 1.41-3.423 4.684-3.423 1.475 0 3.296.347 4.38.78.13.997-.195 1.517-.693 1.517-.52 0-1.865-.607-3.687-.607-1.952 0-2.69.715-2.69 1.647 0 .606.283 1.17 2.061 1.668l2.212.607c2.45.693 3.448 1.841 3.448 3.38 0 1.906-1.496 3.596-4.988 3.596-1.583.044-3.513-.346-4.684-.801zm-1.995 0a8.178 8.178 0 0 1-3.492.801c-2.385 0-3.817-1.365-3.817-3.726V4.723c0-.455.26-.758 1.041-.758.347 0 .738.087.911.152v2.86h4.836c.022.151.065.476.065.78 0 .715-.303.931-.737.931h-4.186v6.695c0 1.474.716 2.102 2.082 2.102 1.236 0 1.974-.477 2.56-.477.563.044.845.542.737 1.474z"/>
        <path fill="#121780" d="M137.538 9.425a5.013 5.013 0 0 0-1.713-1.127 5.36 5.36 0 0 0-1.995-.39c-.955 0-1.8.195-2.473.564-.455.26-.845.541-1.17.845V3.77l-.13-.043a1.318 1.318 0 0 0-.37-.087c-.13-.022-.282-.022-.433-.022-.369 0-.63.087-.781.239a.85.85 0 0 0-.239.606v10.66c0 .867-.021 1.669-.043 2.384a33.213 33.213 0 0 1-.087 1.82v.151l.152.065c.195.065.434.109.716.109.412 0 .694-.109.846-.325.13-.174.216-.434.238-.759.022-.13.022-.26.022-.411.347.411.759.758 1.258 1.04.715.411 1.518.606 2.407.606.824 0 1.561-.151 2.212-.476a4.926 4.926 0 0 0 1.691-1.279 5.335 5.335 0 0 0 1.085-1.906c.26-.737.39-1.539.39-2.384 0-.931-.152-1.776-.434-2.491a4.84 4.84 0 0 0-1.149-1.842zm-.39 4.377c0 .693-.087 1.321-.282 1.841-.195.52-.456.975-.781 1.322a3.458 3.458 0 0 1-1.128.802 3.69 3.69 0 0 1-1.388.281c-.477 0-.932-.086-1.323-.26a3.223 3.223 0 0 1-1.062-.693 3.428 3.428 0 0 1-.716-1.04 3.134 3.134 0 0 1-.26-1.278v-3.12a3.392 3.392 0 0 1 1.301-1.409c.586-.368 1.28-.541 2.017-.541.499 0 .976.086 1.41.281.433.174.824.455 1.149.802.325.347.586.78.78 1.278.174.477.283 1.062.283 1.734zm68.335.043c0-3.337 2.494-5.807 5.725-5.807 1.432 0 2.646.369 3.644.845.108 1.062-.26 1.43-.76 1.43-.585 0-1.344-.585-2.884-.585-2.017 0-3.773 1.582-3.773 4.139 0 2.556 1.756 4.16 3.773 4.16 1.54 0 2.3-.585 2.885-.585.498 0 .867.368.759 1.43a8.286 8.286 0 0 1-3.644.866c-3.231-.021-5.725-2.556-5.725-5.893zm21.6.78h-8.718c.304 2.145 1.778 3.38 4.012 3.38.933 0 1.692-.238 2.429-.477.477-.173.737-.238.91-.238.5 0 .847.477.738 1.473-.976.455-2.537.932-4.164.932-3.47 0-5.899-2.405-5.899-5.915 0-3.337 2.43-5.763 5.596-5.763 3.47 0 5.183 2.73 5.183 5.416 0 .369-.022.759-.087 1.192zm-8.718-1.582h6.896c-.065-1.906-1.3-3.38-3.296-3.38-1.778.022-3.318 1.192-3.6 3.38zm-28.258-7.93c0 .759-.304 1.062-.672 1.062-.347 0-1.15-.347-2.212-.347-1.171 0-1.865.564-1.865 1.994v1.126h3.816c.022.174.066.499.066.802 0 .672-.282.91-.694.91h-3.188v8.147c0 .476-.239.736-1.041.736a4.73 4.73 0 0 1-.89-.086V10.66h-1.691c-.043-.173-.065-.498-.065-.802 0-.671.282-.91.694-.91h1.062v-.996c0-2.622 1.562-3.835 3.709-3.835.976 0 2.299.26 2.928.541.043.152.043.347.043.455zm9.065 0c0 .759-.303 1.062-.672 1.062-.347 0-1.15-.347-2.212-.347-1.171 0-1.865.564-1.865 1.994v1.126h3.817c.021.174.065.499.065.802 0 .672-.282.91-.694.91h-3.188v8.147c0 .476-.239.736-1.041.736a4.73 4.73 0 0 1-.89-.086V10.66h-1.691c-.043-.173-.065-.498-.065-.802 0-.671.282-.91.694-.91h1.063v-.996c0-2.622 1.561-3.835 3.708-3.835.976 0 2.299.26 2.928.541.043.152.043.347.043.455zm1.605.087c0-.693.564-1.213 1.236-1.213s1.215.52 1.215 1.213c0 .628-.543 1.213-1.215 1.213s-1.236-.585-1.236-1.213zm.26 14.257V8.905c0-.455.26-.737 1.041-.737.325 0 .694.044.89.087v10.552c0 .476-.26.736-1.042.736a4.73 4.73 0 0 1-.889-.086zm-32.313-5.634c0-3.336 2.472-5.806 5.768-5.806 3.34 0 5.79 2.491 5.79 5.806 0 3.337-2.471 5.85-5.79 5.85-3.296.022-5.768-2.513-5.768-5.85zm9.607 0c0-2.556-1.735-4.116-3.839-4.116-2.081 0-3.816 1.56-3.816 4.116 0 2.557 1.735 4.139 3.816 4.139 2.104.021 3.839-1.582 3.839-4.139zm-19.345-.108l3.99 5.677-.26.108c-.13.043-.281.087-.477.13a2.462 2.462 0 0 1-.542.065c-.542 0-.91-.173-1.127-.498l-2.82-4.074-2.754 4.074c-.217.325-.586.498-1.106.498a2.14 2.14 0 0 1-.52-.065 10.964 10.964 0 0 1-.434-.13l-.26-.108 4.098-5.612-3.795-5.373.26-.109c.13-.043.282-.086.477-.13.196-.043.37-.065.543-.065.52 0 .889.174 1.106.499l2.559 3.596 2.602-3.596c.26-.434.803-.585 1.583-.455.174.043.347.086.477.13l.26.108-3.86 5.33zm-18.282.108c0-3.336 2.473-5.806 5.769-5.806 3.34 0 5.79 2.491 5.79 5.806 0 3.337-2.472 5.85-5.79 5.85-3.318.022-5.769-2.513-5.769-5.85zm9.608 0c0-2.556-1.735-4.116-3.839-4.116-2.082 0-3.817 1.56-3.817 4.116 0 2.557 1.735 4.139 3.817 4.139 2.104.021 3.839-1.582 3.839-4.139z"/>
        <path fill="#FFF" d="M1.735 0h121.23v10.032L2.493 14.842A2.583 2.583 0 0 0 0 17.42V1.733C0 .78.78 0 1.735 0z" opacity=".2"/>
    </g>
</svg>
