<svg id="Layer_1" xmlns="http://www.w3.org/2000/svg" viewBox="0 0 412.2 120"><style>.st0{fill:url(#SVGID_1_)}.st1{fill:url(#SVGID_2_)}.st2{opacity:.2}.st2,.st3{fill:#fff}</style><linearGradient id="SVGID_1_" gradientUnits="userSpaceOnUse" x1="-8249.276" y1="-4278.853" x2="-8249.276" y2="-4113.083" gradientTransform="rotate(180 -3971.83 -2070.09)"><stop offset="0" stop-color="#a70002"/><stop offset="1" stop-color="#e9021a"/></linearGradient><path class="st0" d="M200 0h203.2c4.4 0 8 3.6 8 8v104c0 4.4-3.6 8-8 8H200V0z"/><linearGradient id="SVGID_2_" gradientUnits="userSpaceOnUse" x1="100" y1="138.674" x2="100" y2="-27.096"><stop offset="0" stop-color="#00043b"/><stop offset="1" stop-color="#002672"/></linearGradient><path class="st1" d="M200 120H8c-4.4 0-8-3.6-8-8V7.9C0 3.7 3.5 0 8 0h192v120z"/><path class="st2" d="M8 0h395.3c4.4 0 8 3.6 8 8v38.2L11.5 68.4C5.1 68.6 0 73.9 0 80.3V8c0-4.4 3.6-8 8-8z"/><path class="st3" d="M135.4 106.6c1.3.7 3.9 1.5 7.2 1.5 5.7.1 8.8-2.1 11.1-7.2l30.5-68.1c-1.3-.7-4-1.4-6.3-1.5-3.9-.1-9.2.7-12.6 8.8l-9.9 23.3L136 31.8c-1.3-.4-4.3-.9-6.5-.9-6.8 0-10.7 2.5-14.6 6.8L96.1 58.4l15.2 23.9c2.8 4.3 6.5 6.6 12.5 6.6 3.9 0 7.2-.9 8.7-1.6l-18.3-27.5L127.1 46l21.2 33.3-12.9 27.3zM95.3 80.9c0 5-2 7.9-11.8 7.9-1.3 0-2.4-.1-3.5-.3V21.8c0-5.1 1.7-10.4 11.6-10.4 1.2 0 2.5.1 3.7.4v69.1zM75.1 70.8c0 9.4-6.1 16.2-18.5 17.6-9 1-22-.2-28.2-.9-.2-1-.4-2.3-.4-3.3 0-8.2 4.4-10.1 8.6-10.1 4.3 0 11.1.7 16.1.7 5.5 0 7.2-1.9 7.2-3.7 0-2.3-2.2-3.3-6.6-4.2l-11.8-2.3c-9.8-1.9-15-8.7-15-15.9 0-8.8 6.2-16.1 18.4-17.4 9.2-1 20.4.1 26.6.9.2 1.1.3 2.1.3 3.2 0 8.2-4.3 9.9-8.5 9.9-3.2 0-8.1-.6-13.8-.6-5.7 0-8.1 1.6-8.1 3.5 0 2 2.3 2.9 5.9 3.5L58.6 54c11.6 2.1 16.5 8.7 16.5 16.8"/><g><path class="st3" d="M339.5 49c-1-3.1-2.6-6-4.6-8.5-2.1-2.6-4.7-4.7-7.9-6.4-3.2-1.7-7-2.5-11.3-2.5-3.7 0-7.3.7-10.5 2.2-3.2 1.5-6.1 3.5-8.5 6.1-2.4 2.6-4.3 5.6-5.7 9.2-1.3 3.5-2 7.4-2 11.5s.6 7.9 1.9 11.4c1.3 3.5 3.2 6.6 5.6 9.2 2.5 2.6 5.5 4.7 9.1 6.2 3.6 1.5 7.6 2.2 12.1 2.2 4.2 0 8.1-.5 11.6-1.6s6.3-2.2 8.3-3.2l.4-.2.1-.4c.3-1.9.1-3.4-.7-4.6-.8-1.2-2-1.9-3.3-1.9-.9 0-1.9.2-3 .6-.9.4-2.1.8-3.4 1.2-1.3.4-2.8.9-4.4 1.2-1.6.4-3.6.5-5.8.5-2.6 0-5.1-.4-7.4-1.2-2.3-.8-4.3-2-6-3.5-1.7-1.5-3.1-3.4-4.2-5.7-.9-2-1.5-4.3-1.7-7h42.2l.2-.6c.2-1 .4-2.7.4-5.2 0-2.9-.5-5.9-1.5-9zm-23.8-9.9c2.4 0 4.7.5 6.6 1.4 2 .9 3.7 2.2 5 3.8 1.4 1.6 2.5 3.5 3.4 5.7.7 1.9 1.2 4 1.4 6.1h-33.7c.3-2.2.8-4.3 1.6-6.2.9-2.2 2.1-4.1 3.6-5.7 1.5-1.6 3.3-2.9 5.3-3.8 2.1-.8 4.3-1.3 6.8-1.3zM386.5 84.9c-4.8 2.3-10.4 3.8-16.2 3.8-11 0-17.7-6.3-18.1-17.2V21.2c.4-2.1 1.6-3.5 5.2-3.5 1.6 0 3.4.4 4.1.7v13.1H384c.1.9.4 2.4.4 3.8 0 3.3-1.4 4.3-3.4 3.8h-19.5v31.6c.1 6.8 3.4 9.7 9.7 9.7 5.7 0 9.1-2.2 11.8-2.2 2.7.1 4 2.4 3.5 6.7zM253.2 31.7c-8.4 0-15.3 3.9-19.3 9.6v-28c-.9-.2-2.5-.5-4.2-.5-3.9 0-5.2 1.4-5.2 3.6v71.3c.9.3 2.8.7 4.4.7 3.7 0 5-1.5 5-4.4v-4.5c4 5.7 10.9 9.6 19.3 9.6 14 0 26.7-10.7 26.7-28.8 0-17.9-12.7-28.6-26.7-28.6zM251.5 81C244 81 237 76.6 234 70.2V50.8c3-6.4 10-10.8 17.6-10.8 10.9 0 19 8.4 19 20.5-.1 12.1-8.2 20.5-19.1 20.5z"/></g></svg>