<svg enable-background="new 0 0 34 34" fill="#fff" viewBox="0 0 34 34" xmlns="http://www.w3.org/2000/svg"><path d="m24.866 23.835c-.008-.202-.088-.372-.252-.536l-5.827-5.827-.354-.354.354-.354 6.324-6.324c-.033-.042-.07-.088-.112-.138-.166-.202-.346-.4-.536-.591-.384-.384-.614-.441-.716-.441-.212.008-.383.088-.547.252l-5.827 5.827-.354.354-.354-.354-6.324-6.324c-.042.033-.089.07-.14.112-.202.169-.4.35-.588.537-.287.287-.448.552-.441.726.008.202.088.373.252.537l5.827 5.827.354.354-.354.354-6.324 6.324c.033.042.07.089.112.14.168.203.348.401.536.588.384.385.613.442.716.442.212-.008.383-.088.547-.252l5.828-5.828.354-.354.354.354 6.324 6.324c.042-.033.088-.07.138-.112.203-.166.401-.346.59-.536.285-.287.446-.552.44-.727z"/><path d="m16.864 3.022c7.72 0 14 6.28 14 14s-6.28 14-14 14-14-6.28-14-14 6.28-14 14-14m0-2c-8.837 0-16 7.163-16 16s7.163 16 16 16 16-7.163 16-16-7.164-16-16-16z"/></svg>