<svg enable-background="new 0 0 88 100" height="300" viewBox="0 0 88 100" width="300" xmlns="http://www.w3.org/2000/svg" style="fill:#2a2766"><path d="m21.1 56.6c3.8-1.6 8.2.2 9.8 4l2.1 5v-18.2-.9-37.7c0-4.1 3.4-7.5 7.5-7.5s7.5 3.4 7.5 7.5v29c1.4-1.4 3.2-2.2 5.3-2.2 3.9 0 7.2 3.1 7.5 7 1.3-2.1 3.7-3.5 6.3-3.5 4.1 0 7.5 3.4 7.5 7.5v.1c1.4-1.9 3.6-3.2 6.1-3.2 4.1 0 7.5 3.4 7.5 7.5v36.5 2 .2c0 .3 0 .6-.1.9-.5 5.3-5.1 9.5-10.5 9.5h-39.4c-4.2 0-7.8-2.4-9.5-5.9-.2-.3-.3-.6-.4-.9l-11.2-26.9c-1.6-3.8.2-8.2 4-9.8z"/><path d="m69.3 16.2h-17.9v-8.4h17.9v-7.6l11.8 11.8-11.8 11.8z"/><path d="m0 11.8 11.8-11.8v7.6h17.8v8.4h-17.8v7.6z"/></svg>