<svg enable-background="new 0 0 34 34" viewBox="0 0 34 34" xmlns="http://www.w3.org/2000/svg" style="fill: white"><path d="m6.999 18.456 5.65 5.649c.189.189.44.293.707.293s.518-.104.707-.293l12.07-12.07.127-.13c.161-.163.239-.332.247-.53.006-.173-.155-.438-.442-.725-.187-.187-.386-.368-.59-.537-.05-.041-.096-.078-.138-.111l-.496.498-11.132 11.131-.354.354-.354-.354-4.784-4.784-.484-.484c-.042.033-.089.07-.14.112-.202.167-.401.348-.589.536-.287.287-.448.552-.442.726.008.195.086.363.246.526z"/><path d="m16.866 3.022c7.72 0 14 6.28 14 14s-6.28 14-14 14-14-6.28-14-14 6.281-14 14-14m0-2c-8.837 0-16 7.163-16 16s7.163 16 16 16 16-7.163 16-16-7.163-16-16-16z"/></svg>