<svg xmlns="http://www.w3.org/2000/svg" viewBox="0 0 60 60" style="fill: #b90303"><path class="cls-1" d="M20.4 34.872a12.58 12.58 0 0 0 8.61 3.36 12.72 12.72 0 0 0 6-1.52 16.61 16.61 0 0 0 2.43-1.73c7.67 2.43 11.67 1.12 11.67 1.12-5.62-5-4.58-19.08-4.58-19.08a14.93 14.93 0 0 0 .06-1.61 15.81 15.81 0 0 0-31.61 0c0 .56 0 1.11.08 1.65 0 0 1 14-4.59 19.08-.02-.04 4.13 1.27 11.93-1.27zm37.16 22.65c-.19-5.16-1.33-9.9-7.29-12.18 0 0-7.16-3-11.89-5.5l-4.94 17.68h-8.87l-5-17.89c-4.71 2.56-12.29 5.71-12.29 5.71-5.94 2.28-7.09 7-7.28 12.18z" id="path2"/></svg>