<svg xmlns="http://www.w3.org/2000/svg" viewBox="0 0 60 60" style="fill: #b90303"><path class="cls-1" d="M43.78 15.012c.14-16-13.78-15-13.78-15s-13.91-1-13.78 15a35.2 35.2 0 0 0 1.91 11.93s3.28 9.39 11.87 9c8.59.43 11.08-6.68 11.87-9a42 42 0 0 0 1.91-11.93zm-4.16 13.35c-1.24 2.72-2.78 6.82-9.62 6.46-6.84.36-8.28-3.58-9.52-6.31-2.21-4.84-1.66-7.9-1.48-11.7.07-12.05 5.44-12.3 11-12.3s11.22.69 11 12.3c-.16 2.86.83 6.7-1.38 11.55z" id="path3777"/><path class="cls-1" d="M54.47 39.922c-5-2.51-14.31-4.75-14.31-4.75l-5.56 2.93-3.17 2.58 4.36 1.93 1.3 11.11-7.09 2.35-7.68-2.32 1.79-11 4.48-1.78-3.13-3-5.62-2.8S10 38.872 5 42.152c-5 3.28-5 15.51-5 15.51h60s-.54-15.23-5.53-17.74z" id="path3779"/></svg>