<?xml version="1.0" encoding="UTF-8" standalone="no"?>
<svg
   xmlns:dc="http://purl.org/dc/elements/1.1/"
   xmlns:cc="http://creativecommons.org/ns#"
   xmlns:rdf="http://www.w3.org/1999/02/22-rdf-syntax-ns#"
   xmlns:svg="http://www.w3.org/2000/svg"
   xmlns="http://www.w3.org/2000/svg"
   height="572.43939"
   width="913.38208"
   id="svg4"
   version="1.1"
   style="fill:#313131"
   viewBox="0 0 913.38208 572.43939">
  <metadata
     id="metadata10">
    <rdf:RDF>
      <cc:Work
         rdf:about="">
        <dc:format>image/svg+xml</dc:format>
        <dc:type
           rdf:resource="http://purl.org/dc/dcmitype/StillImage" />
        <dc:title></dc:title>
      </cc:Work>
    </rdf:RDF>
  </metadata>
  <defs
     id="defs8" />
  <path
     style="fill:#b3b3b3"
     id="path71"
     d="m 793.27295,261.79295 0.202,-0.658 4.311,-0.062 3.072,0.97 2.101,0.323 0.97,-2.101 -1.455,-2.102 v -1.778 l -2.425,-2.102 -2.101,-5.496 1.293,-5.335 -0.162,-2.102 -1.293,-1.293 c 0,0 1.455,-1.617 1.455,-2.263 0,-0.647 0.485,-2.102 0.485,-2.102 l 1.94,-1.293 1.94,-1.617 0.485,0.97 -1.455,1.617 -1.293,3.718 0.323,1.132 1.778,0.323 0.485,5.496 -2.101,0.97 0.323,3.557 0.485,-0.162 1.132,-1.94 1.616,1.779 -1.616,1.293 -0.324,3.395 2.587,3.395 3.88,0.485 1.616,-0.809 3.237,4.183 1.358,0.537 0.698,0.309 0.144,1.947 -0.767,3.097 -1.587,4.183 -0.446,5.45 1.47,4.64 2.164,-1.916 1.828,-4.978 -0.461,-3.39 0.418,-4.586 2.92,-3.78 0.77,-3.217 -0.497,-0.556 2.007,-4.024 0.227,-4.864 -0.226,-0.714 -2.264,-7.355 -0.97,0.485 -3.556,-2.425 -1.779,-4.688 -1.94,-3.557 -2.263,-0.97 -2.101,-3.556 0.499,-2.102 0.51,0.504 1.092,2.244 3.233,2.91 4.85,2.264 4.042,0.646 0.161,1.455 -0.808,0.97 0.323,2.748 h 0.809 l 2.101,-2.425 0.809,-4.85 2.748,-4.04 3.071,-6.467 1.132,-5.497 -0.647,-1.131 -0.161,-9.377 -1.617,-3.395 -1.131,0.809 -2.749,0.323 -0.485,-0.485 1.132,-0.97 2.102,-1.94 0.063,-1.094 0.54,-0.085 1.175,0.533 4.041,-1.132 5.82,-1.94 2.587,-0.97 7.113,-5.335 3.88,-2.91 3.394,-3.556 -4.203,-1.617 -1.293,1.455 -2.91,2.748 -7.921,3.88 -2.264,-0.161 -1.616,-0.647 -1.132,0.647 -2.263,2.586 -1.455,1.293 -1.293,0.324 -0.324,-1.294 1.94,-1.778 -0.796,-1.678 1.014,0.23 4.956,-3.402 3.556,-3.233 1.94,-2.101 0.808,0.646 2.748,-1.455 5.174,-1.131 7.044,-3.492 0.877,-0.227 2.91,-0.97 2.425,-1.94 1.131,-1.778 1.294,0.162 2.91,-1.536 0.52,-0.374 2.066,-1 -0.485,-2.263 0.808,-1.455 2.91,-1.455 0.809,3.071 -0.485,1.779 -2.425,1.455 v 0.97 l 1.94,-1.455 3.88,-4.527 3.88,-1.94 4.203,-1.455 -0.324,-2.425 -0.97,-2.91 -1.94,-2.424 -1.778,-0.809 -2.102,0.162 -0.484,0.485 0.97,1.293 1.454,-0.808 2.102,1.617 0.808,2.748 -1.778,1.778 -2.263,0.97 -3.557,-0.485 -3.88,-5.981 -2.263,-2.587 h -1.778 l -1.132,0.808 -1.94,-2.586 0.324,-1.455 2.425,-5.173 -2.89,-4.413 -0.566,-0.492 0.869,-1.077 1.09,-3.29 0.373,-1.12 1.124,-6.26 0.161,-4.364 1.455,-1.293 -0.97,-3.234 3.072,-3.556 1.616,1.455 1.294,-0.485 5.334,-3.072 0.324,-2.91 2.91,-0.485 1.616,-2.586 -0.161,-1.617 -0.324,-3.071 0.809,-1.294001 -0.324,-1.131 -1.293,-1.455 2.102,-1.293 1.778,3.233 1.455,-0.324 0.323,1.294001 v 1.616 l 1.94,0.162 0.485,-2.748001 0.485,-0.647 -1.617,-1.455 0.97,-1.455 2.425,-1.455 0.97,-1.455 1.778,-0.161 c 0,0 0.324,2.101 0.97,2.101 h 1.294 l 4.85,-5.496 3.394,-3.072 1.94,-0.646 2.102,-4.689 v -1.94 l -2.263,-3.718 -1.94,-2.101 -2.748,0.161 0.485,1.132 -0.162,0.485 h -0.808 l -2.91,-2.263 -0.162,-4.85 -0.808,-1.94 h -5.982 l -9.053,-29.90701 -1.94,-0.97 -5.981,-2.425 -1.455,-0.162 -1.778,1.779 -4.042,2.91 v 0.97 l -0.808,0.808 -2.748,-0.647 -1.294,-2.263 v -1.132 l -1.293,-0.161 h -1.293 l -2.102,4.203 -2.91,8.89101 -1.778,4.85 0.162,4.85 0.161,1.455 -0.808,2.748 -0.808,0.97 v 5.981 l 1.94,2.425 -1.455,4.042 -2.587,4.688 -0.808,5.496 v 2.587 l -1.514,-0.41 -1.42,0.118 -0.857,0.459 -0.897,-0.006 -0.647,1.617 -0.647,-0.485 -0.97,-0.97 -1.454,1.94 -0.049,5.032 -0.92,0.302 -26.248,6.748001 -0.622,0.396 -7.565,2.072 -4.527,1.454 -3.233,-0.161 -5.496,1.293 -3.082,1.246 -2.415,1.826 -2.101,2.425 -2.749,3.718 -2.91,4.526 -1.454,2.91 -0.647,0.808 -5.82,5.497 0.162,2.586 0.808,1.132 1.778,0.808 h 1.779 v 1.455 l -1.132,2.102 0.323,1.455 1.455,2.101 -0.161,2.264 -1.94,1.131 h -2.102 l -1.616,1.94 -1.779,3.233 -2.101,1.779 -5.173,0.485 -2.587,1.131 -2.102,1.294 -1.616,-0.162 -1.94,-1.293 -6.305,0.161 -3.233,0.485 -4.042,1.294 -4.364,1.454 -2.91,1.779 1.94,6.143 1.778,0.162 1.293,3.071 0.162,0.97 -1.132,0.97 -2.101,2.748 -0.485,1.617 -1.94,1.778 -1.779,1.132 -0.97,1.616 -1.293,1.132 -1.428,1.125 -1.006,0.52 -5.487,5.63 -1.293,0.485 -4.203,3.009 -1.02,-0.111 -6.094,4.053 -3.88,2.263 -3.394,3.718 -4.042,3.88 -3.233,0.809 -2.91,0.485 -5.496,2.586 -2.102,0.162 -3.395,-3.072 -5.173,0.647 -2.587,-1.455 -2.38,-1.35 -1.153,-0.326 0.139,-0.587 0.161,-1.455 2.102,-3.718 2,-1.738 -0.222,-5.052 1.597,-1.597 1.09,-0.343 0.223,-3.557 1.536,-3.03 1.05,0.606 0.162,0.646 0.808,0.162 1.94,-0.97 -0.323,-9.538 -3.233,-8.245 -2.263,-9.053 -2.425,-3.233 -2.587,-1.778 -1.616,1.131 -3.88,1.779 -1.94,5.011 -2.748,3.718 -1.132,0.647 -1.455,-0.647 c 0,0 -2.587,-1.455 -2.425,-2.101 0.162,-0.647 0.485,-5.012 0.485,-5.012 l 3.395,-1.293 0.808,-3.395 0.647,-2.586 2.425,-1.617 -0.324,-10.023 -1.616,-2.263 -1.293,-0.809 -0.809,-2.101 0.809,-0.808 1.616,0.323 0.162,-1.617 -2.425,-2.263 -1.293,-2.587 h -2.587 l -4.526,-1.455 -5.497,-3.394 h -2.748 l -0.647,0.646 -0.97,-0.485 -3.071,-2.263 -2.91,1.778 -2.91,2.264 0.323,3.556 0.97,0.323 2.102,0.485 0.485,0.809 -2.587,0.808 -2.586,0.323 -1.455,1.779 -0.324,2.101 0.324,1.617 0.323,5.496 -3.556,2.102 -0.647,-0.162 v -4.203 l 1.293,-2.425 0.647,-2.425 -0.809,-0.808 -1.94,0.808 -0.97,4.203 -2.748,1.132 -1.778,1.94 -0.162,0.97 0.647,0.808 -0.647,2.587 -2.263,0.485 v 1.131 l 0.809,2.425 -1.132,6.143 -1.617,4.042 0.647,4.688 0.485,1.132 -0.808,2.425 -0.324,0.808 -0.323,2.748 3.556,5.981 2.91,6.467 1.455,4.85 -0.808,4.688 -0.97,5.981 -2.425,5.173 -0.323,2.749 -3.259,3.085 -1.025,0.794 -2.83,1.617 -2.1,1.94 -1.132,0.323 -1.455,-0.97 -3.071,-0.89 -0.86,0.195 -0.273,-0.921 -0.808,-2.587 -1.293,-3.718 -1.617,-1.778 -1.455,-2.587 -0.233,-5.489 -0.3,-1.079 0.372,-2.97 -1.617,-4.526 -0.647,-6.143 -1.131,-2.425 0.97,-3.072 0.808,-2.91 1.455,-2.586 -0.647,-3.395 -0.646,-3.557 0.485,-1.778 1.94,-2.425 0.161,-2.748 -0.808,-1.293 0.647,-2.587 0.485,-3.233 2.748,-5.658 2.91,-6.79 0.161,-2.263 -0.323,-0.97 -0.808,0.485 -4.203,6.305 -2.749,4.041 -1.94,1.778 -0.808,2.264 -1.455,0.808 -1.131,1.94 -1.455,-0.324 -0.162,-1.778 1.293,-2.425 2.102,-4.688 1.778,-1.616 1.101,-2.292 0.568,-0.892 3.18,-7.001 0.97,-4.042 1.94,-4.364 0.81,-0.162 1.13,1.617 h 0.647 l 4.527,-2.425 1.455,1.616 0.485,0.162 1.293,-1.132 1.132,-3.071 2.425,-0.809 6.951,-0.646 1.94,-2.587 5.173,-0.161 5.82,1.293 h 1.778 l 3.233,-1.455 2.264,0.162 2.101,-0.647 3.718,0.485 0.809,0.323 1.293,-0.323 -1.293,-0.97 -1.294,-0.647 -3.233,-3.071 v -6.952 l -1.455,-0.485001 -1.131,1.132001 -6.144,1.617 -1.94,0.485 -2.91,-0.809 -0.484,-0.323 v -5.658001 l -1.455,-0.162 -2.587,1.293 -4.526,1.94 -6.628,0.324 -3.395,1.131001 -4.042,3.557 -1.616,0.97 h -1.132 l -1.293,0.808 -1.617,-0.485 -1.617,-1.293 -1.454,0.97 -3.88,0.161 -2.749,-2.748 -1.454,-3.071001 -1.455,-1.132 -3.234,-0.97 h -2.263 l -1.293,-1.293 -3.557,2.91 -0.97,1.131001 -0.808,-0.485001 0.323,-2.586 2.425,-3.233 0.485,-2.425 2.263,-0.809 1.455,-3.071 3.719,-0.97 0.323,-0.97 -1.132,-1.132 -4.688,0.485 -4.365,2.425 -2.263,2.263 -1.293,1.779 -1.778,0.808 -1.94,2.91 -0.162,1.293 -4.365,2.102 -2.425,1.940001 -5.981,0.97 -0.647,0.646 v 0.97 l -3.556,2.263 -2.749,0.809 -0.716,0.58 -1.017,0.422 -0.53,1.261 -1.131,-0.162 -0.647,-1.131 -2.748,-0.809 -1.132,0.162 -1.778,0.97 -0.97,-0.647 0.646,-1.94 1.94,-3.071 1.132,-1.132 -1.94,-1.455001 -2.102,0.809001 -2.91,1.94 -7.436,3.233 -2.91,0.646 -2.91,-0.485 -0.981,-0.878 -0.435,-0.552 3.841,-2.934 1.294,-0.162 4.526,-5.011001 1.778,-0.809 2.264,-3.88 2.425,-3.556 3.071,-2.587 4.775,-2.007 9.246,-4.06 3.938,-1.838 0.612,-2.28 -4.44,0.371 -0.713,1.085 h -0.647 l -1.778,-3.072 -8.891,0.323 -0.97,0.809 h -0.97 l -0.485,-1.294 -0.809,-1.778 -2.586,0.485 -3.233,3.233 -1.617,0.809 h -3.071 l -2.587,-0.97 v -2.102 l -1.293,-0.162 -0.485,0.485 -2.587,-1.293 -0.485,-2.91 -1.455,0.485 -0.485,0.97 -2.425,-0.485 -5.334,-2.425 -3.88,-2.586 h -2.91 l -1.294,-0.97 -2.263,0.646 -1.131,1.132 -0.324,1.293 h -4.85 v -2.101 l -6.304,-0.324 -0.324,-1.455 h -4.85 l -1.616,-1.616 -1.455,-6.143 -0.808,-5.497 -1.94,-0.808 -2.263,-0.485 -0.647,0.162 -0.323,8.244 -30.133,-0.035 -1.097,-0.047 -28.423,-0.564 -18.591,-0.647 -26.512,-1.293 -24.947,-1.884 -1.284,-0.482 -30.674,-2.807 -29.26,-3.557 -29.261,-4.04101 -32.332,-5.335 -18.43,-3.395 -32.723,-6.933 -1.123,-0.16 -12.996,-2.528 -0.721,-0.402 -15.16,-3.395 -22.956,-5.658 -20.046,-5.6579998 -8.567996,-1.94 -9.7,-2.748 -4.365,-1.455 -1.131,0.808 -0.324,0.808 2.425,4.85 1.132,2.5869998 -1.778,3.556 v 2.264 l 0.646,1.454 -0.808,1.779 0.485,3.233 0.97,1.293 -0.162,1.294 -1.455,0.161 -0.646,-1.94 -1.132,-2.425 -1.778,-1.455 0.323,-2.101 2.263,-0.485 -0.323,-1.778 -0.323,-1.132 -2.102,1.293 -1.293,1.132 v 2.425 l -2.263,0.161 -3.395,-0.97 -2.91,-1.454 -3.072,-0.647 -4.526,-2.102 -3.233,-1.94 -2.749,-2.586 -2.425,-2.9099998 -2.101,-0.485 -2.263,9.3759998 1.778,3.233 v 7.922 l -0.647,2.91 1.455,7.113 2.748,2.748 -4.365,0.647 -0.161,3.71801 2.586,1.131 -1.616,4.042 -2.748,0.323 -0.324,2.91 2.263,2.91 -2.101,2.587 -2.263,6.466 -3.234,10.023 -3.233,6.466 -5.011,14.065 -6.467,13.580001 -8.083001,12.609 -1.94,2.91 -0.808,8.568 -1.293,5.981 2.708,3.528 -0.481,0.962 -1.58,4.725 -0.162,7.436 -5.1729999,11.801 -3.072,2.587 -0.323,1.132 -1.778,0.808 -1.455,4.203 -0.809,3.233 2.749,4.203 1.616,4.204 1.132,3.556 -0.324,6.467 -1.778,3.071 -0.646,5.82 -0.97,3.718 1.778,3.88 2.748,4.526 2.2629999,4.85 1.294,4.042 -0.324,3.23299 -0.323,0.485 v 2.102 l 5.658,6.304 -0.485,2.425 -0.647,2.263 -0.646,1.94 0.161,8.24501 2.102,3.718 1.94,2.587 2.748,0.485 0.97,2.748 -1.131,3.557 -2.102,1.616 h -1.132 l -0.808,3.88 0.485,2.91 3.233,4.365 1.617,5.335 1.455001,4.688 1.293,3.071 3.395,5.82 1.455,2.587 0.485,2.91 1.616,0.97 v 2.424 l -0.808,1.94 -1.778,7.113 -0.485,1.94 2.425,2.748 4.203,0.485 4.526,1.779 3.88,2.101 h 2.91 l 2.91,3.072 2.587,4.85 1.131,2.263 3.88,2.102 4.85,0.808 1.455,2.101 0.647,3.234 -1.455,0.646 0.323,0.97 3.233,0.809 2.748,0.161 2.91,4.688 3.88,4.204 0.808,2.263 2.587,4.203 0.323,3.233 v 9.376 l 0.485,1.779 10.023,1.455 19.722996,2.748 13.907,0.975 1.006,0.746 -2.627,2.159 -0.323,1.455 0.485,0.97 18.914,10.67 12.124,7.597 14.712,8.568 16.812,10.023 12.286,2.425 25.128,2.705 1.605,0.802 15.46,1.99 1.294,-10.023 16.651,2.586 12.456,1.618 0.962,-10e-4 1.94,0.485 2.586,2.91 1.455,4.365 4.689,2.263 1.293,3.233 7.113,7.921 1.293,1.617 5.012,2.102 1.131,2.101 1.617,0.97 0.485,2.748 3.233,6.467 v 8.083 l 2.263,4.688 7.437,7.76 5.173,2.101 1.778,1.94 v 0.647 l 3.88,2.263 1.94,0.647 1.778,1.131 2.587,0.97 2.425,-2.425 4.364,-6.143 0.97,-3.718 2.264,-3.233 3.556,-1.455 4.527,-1.778 3.071,2.263 7.437,0.647 6.79,1.131 2.586,2.102 v 1.131 l 2.586,3.072 5.982,5.335 0.162,1.455 1.778,1.94 0.808,4.203 5.335,12.286 -0.162,1.94 4.203,2.586 3.557,6.629 3.395,4.364 3.233,1.294 1.617,2.263 -1.294,4.365 0.647,0.97 1.293,0.646 -0.323,3.395 -0.647,0.647 0.647,2.263 3.233,1.94 1.293,6.466 2.102,3.88 7.598,3.395 5.173,1.132 4.203,3.071 3.234,0.647 1.293,-0.485 5.496,1.132 5.658,3.88 3.072,-1.94 0.97,-1.455 -1.778,-2.749 -0.97,-6.143 -1.779,-6.951 -0.808,-2.425 0.808,-4.527 1.132,-3.88 1.293,-4.526 1.455,-5.496 -2.263,-1.94 0.97,-1.94 4.042,-0.324 3.88,-5.496 3.394,-0.647 5.82,-3.556 1.778,-1.455 6.305,-3.395 5.658,-2.425 5.335,-3.233 2.748,-2.102 5.658,-5.334 1.294,-0.809 2.101,-1.455 2.587,-1.94 0.97,-1.94 9.861,-4.526 5.665,-1.585 0.641,-0.128 4.687,-1.52 8.083,-0.324 10.346,3.557 6.467,1.132 3.718,-1.455 3.233,1.131 3.233,0.97 0.809,-2.101 -3.234,-1.132 -2.586,0.485 -2.748,-1.617 c 0,0 0.161,-1.293 0.808,-1.455 0.647,-0.161 3.071,-0.97 3.071,-0.97 l 1.779,1.455 1.778,-0.97 3.233,0.647 1.455,2.425 0.323,2.263 4.527,0.324 1.778,1.778 -0.808,1.616 -1.293,0.809 1.616,1.616 8.407,3.557 3.556,-1.293 0.97,-2.425 2.587,-0.647 1.778,-1.455 1.293,0.97 0.808,2.91 -2.263,0.808 0.647,0.647 3.395,-1.293 2.263,-3.395 0.808,-0.485 -2.101,-0.324 0.808,-1.616 -0.162,-1.455 2.102,-0.485 1.132,-1.293 0.646,0.808 c 0,0 -0.161,3.071 0.647,3.071 0.808,0 4.203,0.647 4.203,0.647 l 4.042,1.94 0.97,1.455 h 2.91 l 1.131,0.97 2.263,-3.072 v -1.455 h -1.293 l -3.395,-2.748 -5.82,-0.808 -3.233,-2.263 1.132,-2.749 2.263,0.324 0.162,-0.647 -1.779,-0.97 v -0.485 h 3.234 l 1.778,-3.071 -1.293,-1.94 -0.324,-2.749 -1.455,0.162 -1.94,2.102 -0.646,2.586 -3.072,-0.646 -0.97,-1.779 1.778,-1.94 2.021,-1.778 0.757,-0.515 1.102,-0.778 2.587,-4.203 1.778,0.808 6.79,-1.94 2.101,0.323 1.455,0.809 h 5.174 l 0.254,-1.256 1.039,-0.2 h 2.748 l 0.647,0.162 1.293,-2.748 1.455,-4.365 2.263,0.647 3.072,5.981 v 0.97 l -2.748,1.94 2.748,0.324 5.542,-2.573 0.678,0.114 3.48,-0.613 5.98,-2.101 5.982,-0.485 4.365,-0.647 7.598,1.778 8.083,3.88 1.617,1.455 2.91,1.132 1.616,1.94 0.324,2.748 3.233,-1.294 h 3.88 l 3.556,-1.94 3.718,-3.556 3.072,0.162 0.485,-1.132 -0.808,-0.97 0.161,-1.94 4.042,-0.808 h 2.586 l 2.91,1.455 4.203,1.455 2.425,3.718 2.748,0.97 1.132,3.395 3.395,1.616 1.617,2.587 1.94,0.647 5.173,1.293 1.293,3.071 3.071,3.719 v 9.538 l -1.454,4.688 0.323,2.748 1.293,4.85 1.778,4.041 0.809,-0.485 1.455,-4.526 -2.587,-0.97 -0.323,-0.647 1.616,-0.646 4.527,0.97 0.162,1.616 -3.234,5.497 -2.101,2.424 3.556,3.719 2.587,3.071 2.91,5.335 2.91,3.88 2.101,5.011 1.778,0.324 1.617,-2.102 1.778,1.132 2.587,4.041 0.647,3.557 3.071,4.365 0.808,-1.294 3.88,0.324 3.557,2.263 3.395,5.173 0.808,3.395 0.323,2.91 1.132,0.97 1.293,0.485 2.425,-0.97 1.455,-1.617 3.88,-0.162 3.071,-1.454 2.749,-3.234 -0.485,-1.94 -0.324,-2.425 0.647,-1.94 -0.323,-1.94 2.425,-1.293 0.323,-3.395 -0.647,-1.778 -0.485,-11.963 -1.293,-7.598 -4.527,-8.244 -3.556,-5.82 -2.587,-5.335 -2.91,-2.91 -2.91,-7.436 0.809,-1.293 1.132,-1.294 -1.617,-2.91 -4.042,-3.718 -4.85,-5.496 -3.718,-6.305 -5.334,-9.376 -3.73,-9.743 -2.266,-7.318 -0.019,-0.89 -0.775,-6.298 2.263,-10.023 1.455,-4.204 -0.485,-2.586 3.335,-6.244 -0.51,-1.352 0.57,-0.972 2.102,-1.293 5.011,-5.497 -0.97,-3.233 2.91,-0.162 3.556,-3.395 1.617,-0.808 2.263,-3.395 2.749,-2.748 2.101,-3.557 2.425,-0.646 1.132,-2.748 1.616,-0.809 0.485,-6.304 2.587,-6.144 5.421,-5.458 0.28,-0.803 5.453,-1.337 4.689,-0.485 0.485,-2.425 1.94,-6.466 3.394,-4.688 6.467,-5.335 5.173,-2.425 2.748,-0.646 1.132,0.485 h 1.293 l 3.072,-4.85 1.94,-3.557 -1.294,0.485 -2.263,2.263 -0.647,-1.616 h -4.203 l 1.94,-6.305 -0.808,-1.293 h -1.94 v -0.97 l -0.323,-1.293 1.616,1.293 1.455,0.161 2.425,0.324 3.718,-1.617 1.293,-2.91 0.647,-2.101 2.587,-1.294 0.323,-4.203 -0.808,-0.646 2.425,-0.162 -0.647,-2.263 -2.425,-2.425 -3.556,-6.467 -1.71,-4.698 -0.92,-0.925 -3.608,-6.012 -5.801,1.686 -1.573,-1.494 2.553,-1.382 -0.491,-2.524 -1.774,-1.785 -0.121,-1.412 -2.281,-1.543 -0.09,-1.615 2.695,0.094 0.222,-1.384 -1.23,-0.79 0.48,-1.93 -1.375,-1.103 0.439,-4.69 -0.868,-1.2 -3.19,-0.402 -2.153,-2.089 -4.856,-0.942 z m -37.273,311.85001 2.425,-0.647 1.293,-0.242 1.455,-2.344 2.344,-1.617 1.293,0.485 1.698,0.323 0.404,1.051 -3.476,1.213 -4.203,1.455 -2.344,1.212 -0.89,-0.89 z m 13.498,-5.012 1.213,1.051 2.748,-2.101 5.335,-4.204 3.718,-3.88 2.506,-6.628 0.97,-1.697 0.161,-3.395 -0.727,0.485 -0.97,2.83 -1.455,4.606 -3.233,5.254 -4.365,4.204 -3.395,1.94 z m 54.561,-241.44001 2.587,-2.506 3.152,-2.587 1.5361,-0.646 0.161,-2.021 -0.646,-6.143 -1.4551,-2.344 -0.647,-1.86 0.728,-0.242 2.748,5.497 0.404,4.445 -0.162,3.395 -3.395,1.536 -2.829,2.425 -1.131,1.212 z m 63.9751,-157.60899 2.172,-0.686 0.457,-1.714 1.029,0.114 1.029,2.286 -1.258,0.457 -3.886,0.115 z m -9.373,0.8 2.286,-2.629 h 1.6 l 1.83,1.486 -2.401,1.03 -2.172,1.028 z m 11.679,-67.173 1.5359,-1.536 1.3741,1.051 0.566,2.425 -1.698,0.89 z m 6.709,-5.900001 1.778,1.859 c 0,0 1.293,0.08 1.293,-0.243 0,-0.323 0.243,-2.02 0.243,-2.02 l 0.89,-0.809 -0.81,-1.778 -2.02,0.727 z m -88.6721,162.710991 1.131,2.506 0.162,1.778 1.132,1.86 c 0,0 0.889,-0.89 0.889,-1.213 0,-0.323 -0.728,-3.071 -0.728,-3.071 l -0.727,-2.345 -1.86,0.485 z m -238.701,-182.228991 1.83,-2.058 2.171,-0.8 5.373,-3.886 2.286,-0.572 0.457,0.457 -5.144,5.144 -3.315,1.944 -2.057,0.914 -1.6,-1.143 z m 86.175,32.128001 0.646,2.506 3.234,0.162 1.293,-1.213 c 0,0 -0.081,-1.455 -0.404,-1.616 -0.324,-0.162 -1.617,-1.86 -1.617,-1.86 l -2.182,0.243 -1.617,0.162 -0.323,1.131 z M 72.173954,8.0719492 l 2.02,-0.162 0.485,1.374 1.536,-1.616 h 2.344 l 0.808,1.535 -1.535,1.6979998 0.646,0.808 -0.727,2.02 -1.374,0.405 c 0,0 -0.89,0.08 -0.89,-0.242 0,-0.324 1.456,-2.587 1.456,-2.587 l -1.698,-0.566 -0.323,1.455 -0.728,0.647 -1.535,-2.264 z M 445.28695,563.05396 l -0.566,-7.113 -2.748,-7.194 -0.566,-7.032 1.536,-8.245 3.314,-6.87 3.476,-5.416 3.152,-3.557 0.647,0.243 -4.77,6.628 -4.364,6.547 -2.02,6.628 -0.324,5.173 0.89,6.144 2.586,7.193 0.485,5.174 0.161,1.455 z M 36.850954,332.76795 l 1.293,1.536 -0.162,1.293 -3.233,-0.08 -0.566,-1.213 -0.646,-1.455 z m 1.94,0 1.212,-0.647 3.557,2.102 3.071,1.212 -0.889,0.647 -4.527,-0.243 -1.616,-1.616 z m 20.692,19.803 1.778,2.344 0.809,0.97 1.536,0.566 0.565,-1.455 -0.97,-1.778 -2.667,-2.02 -1.05,0.16 v 1.213 z m -1.455,8.65 1.778,3.152 1.213,1.94 -1.455,0.242 -1.293,-1.212 c 0,0 -0.728,-1.455 -0.728,-1.86 v -2.182 z" />
  <path
     id="path39"
     d="m 177.48089,419.65336 8.41992,5.01953 12.28516,2.42383 25.12891,2.70507 1.60351,0.80274 15.46094,1.99023 1.29297,-10.02343 16.65234,2.58593 12.45511,1.61719 h 0.9629 l 1.9394,0.48438 2.5859,2.91015 1.4551,4.36524 4.6895,2.26367 1.2929,3.23242 7.1133,7.91992 1.293,1.61719 5.0117,2.10352 1.1309,2.0996 1.6172,0.97071 0.4843,2.74804 3.2325,6.4668 v 8.08203 l 2.2636,4.68946 7.4375,7.75976 5.1719,2.10156 1.7793,1.93946 v 0.64648 l 3.8789,2.26367 1.9414,0.64649 1.7774,1.13086 2.5859,0.9707 2.4258,-2.42578 4.3633,-6.14258 0.9707,-3.71875 2.2636,-3.23242 3.5567,-1.45508 4.5273,-1.77734 3.0703,2.26172 7.4375,0.64843 6.7891,1.13086 2.5859,2.10156 v 1.13086 l 2.586,3.07227 5.9824,5.33398 0.1621,1.45508 1.7773,1.94141 0.8086,4.20312 5.336,12.28516 -0.1621,1.93945 4.2031,2.58594 3.5566,6.62891 3.3946,4.36523 3.2324,1.29297 1.6172,2.26367 -1.293,4.36524 0.6465,0.96875 1.293,0.64648 -0.3223,3.39453 -0.6484,0.64844 0.6484,2.26172 3.2324,1.9414 1.293,6.46485 2.1015,3.88086 7.5977,3.39453 5.1738,1.13281 4.2032,3.07031 3.2343,0.64649 1.293,-0.48438 5.4961,1.13086 5.6582,3.88086 3.0703,-1.93945 0.9707,-1.45508 -1.7773,-2.75 -0.9707,-6.14258 -1.7793,-6.95117 -0.8067,-2.42383 0.8067,-4.52734 1.1328,-3.88086 1.2929,-4.52539 1.4551,-5.4961 -2.2636,-1.93945 0.9707,-1.9414 4.041,-0.32422 3.8808,-5.49414 3.3946,-0.64844 5.8183,-3.55469 1.7793,-1.45508 6.3047,-3.39648 5.6582,-2.42383 5.334,-3.23437 2.748,-2.10157 5.6582,-5.33398 1.295,-0.80859 2.0996,-1.45508 2.5879,-1.93946 0.9707,-1.93945 9.8593,-4.52734 5.6661,-1.58399 0.6406,-0.1289 4.6875,-1.51954 8.082,-0.32421 10.3477,3.55664 6.4668,1.13281 3.7168,-1.45508 3.2343,1.13086 3.2325,0.9707 0.8086,-2.10156 -3.2344,-1.13281 -2.586,0.48633 -2.748,-1.61719 c 0,0 0.1616,-1.29308 0.8086,-1.45508 0.647,-0.161 3.0703,-0.9707 3.0703,-0.9707 l 1.7793,1.45508 1.7773,-0.97071 3.2344,0.64844 1.4551,2.42383 0.3223,2.26367 4.5273,0.32422 1.7773,1.77734 -0.8066,1.61719 -1.293,0.80859 1.6153,1.61524 8.4062,3.55664 3.5567,-1.29297 0.9707,-2.42383 2.5859,-0.64844 1.7793,-1.45507 1.293,0.9707 0.8066,2.91016 -2.2617,0.80859 0.6465,0.64648 3.3945,-1.29296 2.2637,-3.39454 0.8066,-0.48632 -2.0996,-0.32227 0.8067,-1.61719 -0.1622,-1.45508 2.1036,-0.48437 1.1308,-1.29297 0.6465,0.8086 c 0,0 -0.1615,3.07031 0.6465,3.07031 0.808,0 4.2031,0.64648 4.2031,0.64648 l 4.043,1.93945 0.9687,1.45508 h 2.9102 l 1.1308,0.97071 2.2637,-3.07227 v -1.45508 h -1.293 l -3.3945,-2.74804 -5.8203,-0.80664 -3.2324,-2.26368 1.1308,-2.75 2.2637,0.32422 0.1621,-0.64648 -1.7793,-0.97071 v -0.48437 h 3.2344 l 1.7773,-3.07031 -1.2929,-1.94141 -0.3242,-2.74805 -1.4551,0.16211 -1.9395,2.10157 -0.6465,2.58593 -3.0722,-0.64648 -0.9688,-1.77734 1.7774,-1.94141 2.0215,-1.77735 0.7558,-0.51562 1.1035,-0.77734 2.586,-4.20313 1.7793,0.80859 6.789,-1.9414 2.1016,0.32422 1.4551,0.80859 h 5.1738 l 0.2539,-1.25586 1.0391,-0.20117 h 2.748 l 0.6465,0.16211 1.293,-2.74805 1.455,-4.36328 2.2637,0.64649 3.0723,5.98046 v 0.97071 l -2.7481,1.93945 2.7481,0.32422 5.541,-2.57227 0.6777,0.11328 3.4805,-0.61328 5.9805,-2.10156 5.9804,-0.48437 4.3653,-0.64649 7.5996,1.77735 8.082,3.88085 1.6172,1.45508 2.9102,1.13086 1.6152,1.93946 0.3242,2.74804 3.2324,-1.29297 h 3.8809 l 3.5566,-1.93945 3.7168,-3.55664 3.0723,0.16211 0.4844,-1.13281 -0.8067,-0.96875 0.1602,-1.94141 4.043,-0.80664 h 2.5859 l 2.9101,1.45508 4.2032,1.45508 2.4238,3.71679 2.748,0.97071 1.1329,3.39453 3.3945,1.61719 1.6172,2.58593 1.9394,0.64649 5.1739,1.29297 1.2929,3.07226 3.0703,3.71875 v 9.53711 l -1.4531,4.68945 0.3223,2.74805 1.2929,4.84961 1.7774,4.04102 0.8105,-0.48633 1.4551,-4.52539 -2.5879,-0.97071 -0.3222,-0.64648 1.6152,-0.64649 4.5273,0.97071 0.1621,1.61523 -3.2343,5.49805 -2.1016,2.42383 3.5567,3.71875 2.5859,3.07031 2.9101,5.33594 2.9102,3.88086 2.1016,5.00976 1.7773,0.32422 1.6172,-2.10156 1.7793,1.13086 2.5859,4.04101 0.6465,3.5586 3.0723,4.36523 0.8066,-1.29492 3.8809,0.32422 3.5566,2.26367 3.3946,5.17188 0.8085,3.39453 0.3243,2.91015 1.1308,0.97071 1.293,0.48437 2.4258,-0.96875 1.4551,-1.61719 3.8789,-0.16211 3.0722,-1.45507 2.7481,-3.23438 -0.4844,-1.93945 -0.3242,-2.42383 0.6465,-1.94141 -0.3223,-1.93945 2.4238,-1.29297 0.3242,-3.39453 -0.6484,-1.7793 -0.4844,-11.96289 -1.2929,-7.59765 -4.5274,-8.24414 -3.5547,-5.82032 -2.5879,-5.33398 -2.9101,-2.91016 -2.9102,-7.43554 0.8086,-1.29297 1.1328,-1.29492 -1.6172,-2.91016 -4.041,-3.7168 -4.8515,-5.49609 -3.7168,-6.30469 -5.334,-9.37695 -3.7305,-9.74219 -2.2656,-7.31836 -0.02,-0.89062 -0.7754,-6.29688 2.2636,-10.02344 1.4551,-4.20507 -0.031,-0.16797 z m 275.40426,97.97265 -3.1523,3.55664 -3.4766,5.41602 -3.3144,6.87109 -1.5352,8.24414 0.5664,7.03125 2.7481,7.19532 0.5644,7.11328 0.8887,-0.24219 -0.1602,-1.45508 -0.4843,-5.17383 -2.586,-7.19336 -0.8906,-6.14453 0.3242,-5.17187 2.0196,-6.62891 4.3652,-6.54687 4.7695,-6.62891 z m 333.2637,30.15039 -0.7285,0.48438 -0.9688,2.83008 -1.455,4.60547 -3.2325,5.2539 -4.3652,4.20508 -3.3965,1.93945 -2.5058,1.53516 1.2129,1.05078 2.748,-2.10156 5.3359,-4.20313 3.7188,-3.88086 2.5058,-6.62695 0.9688,-1.69726 z m -22.6328,21.01563 -2.3438,1.61719 -1.455,2.34375 -1.293,0.24218 -2.4258,0.64649 0.8906,0.88867 2.3438,-1.21094 4.2031,-1.45508 3.4746,-1.21289 -0.4023,-1.05078 -1.6992,-0.32422 z"
     style="fill:#000000" />
</svg>
