<?xml version="1.0" encoding="utf-8"?>
<!-- Generator: Adobe Illustrator 17.1.0, SVG Export Plug-In . SVG Version: 6.00 Build 0)  -->
<!DOCTYPE svg PUBLIC "-//W3C//DTD SVG 1.1//EN" "http://www.w3.org/Graphics/SVG/1.1/DTD/svg11.dtd">
<svg version="1.1" id="APPROVED_1_copy" xmlns="http://www.w3.org/2000/svg" xmlns:xlink="http://www.w3.org/1999/xlink" x="0px"
	 y="0px" viewBox="0 0 418 152" enable-background="new 0 0 418 152" xml:space="preserve">
<g>
	<path fill="#FFFFFF" d="M402,0H16C7.2,0,0,7.2,0,16v120c0,8.8,7.2,16,16,16h386c8.8,0,16-7.2,16-16V16C418,7.2,410.8,0,402,0z
		 M412,136c0,5.5-4.5,10-10,10H16c-5.5,0-10-4.5-10-10V16c0-5.5,4.5-10,10-10h386c5.5,0,10,4.5,10,10V136z"/>
	<path fill="#1E1E1E" d="M16,140c-2.2,0-4-1.8-4-4V16c0-2.2,1.8-4,4-4h386c2.2,0,4,1.8,4,4v120c0,2.2-1.8,4-4,4H16z"/>
	<g>
		<polygon fill="#FFB80C" points="330,111.4 322.6,104 315.4,111.2 330,125.8 358.1,97.8 350.9,90.6 		"/>
	</g>
	<g>
		<path fill="#FFFFFF" d="M72.3,91h9.3l12.2,34.9h-8.9l-2.1-6.5H70.3l-2.1,6.5h-8.3L72.3,91z M80.6,112.5l-4-12.6h-0.1l-4.1,12.6
			H80.6z"/>
		<path fill="#FFFFFF" d="M95.7,91h15.8c7.7,0,12.2,4.7,12.2,11.2c0,5.7-3.5,11.6-12,11.6h-7.2v12.1h-8.7V91z M110.1,107.1
			c3.1,0,5.1-1.9,5.1-4.6c0-3-2-4.6-5.1-4.6h-5.6v9.2H110.1z"/>
		<path fill="#FFFFFF" d="M126.6,91h15.8c7.7,0,12.2,4.7,12.2,11.2c0,5.7-3.5,11.6-12,11.6h-7.2v12.1h-8.7V91z M141,107.1
			c3.1,0,5.1-1.9,5.1-4.6c0-3-2-4.6-5.1-4.6h-5.6v9.2H141z"/>
		<path fill="#FFFFFF" d="M157.5,91h15.2c7.9,0,12.5,4.5,12.5,11c0,4.2-2.1,8.4-6.5,10.3l8,13.6h-9.5l-6.9-12.3h-4v12.3h-8.7V91z
			 M171.6,107.1c3.2,0,5.1-1.8,5.1-4.6c0-3-2-4.6-5.1-4.6h-5.4v9.2H171.6z"/>
		<path fill="#FFFFFF" d="M188,113.7v-10.1c0-8.8,7.2-13.2,14.7-13.2c7.8,0,14.9,4.2,14.9,13.1v9.7c0,9.1-7.5,13.2-14.8,13.2
			C195,126.4,188,122.7,188,113.7z M208.9,113.5v-10.3c0-3.7-2.9-5.7-6.2-5.7c-3.1,0-6,1.7-6,5.7v10.2c0,3.7,2.6,5.8,6.2,5.8
			C205.9,119.2,208.9,117.5,208.9,113.5z"/>
		<path fill="#FFFFFF" d="M217.4,91h9l6.8,24.6h0.1l7-24.6h8.3l-11.3,34.9h-8.9L217.4,91z"/>
		<path fill="#FFFFFF" d="M250.3,91H276v7.1h-16.9v6.6h14.2v7h-14.2v6.9h17v7.1h-25.7V91z"/>
		<path fill="#FFFFFF" d="M280,91h14.6c7.8,0,14.2,4.2,14.2,12.3v9.8c0,8.6-6.8,12.7-14.2,12.7H280V91z M294.1,118.7
			c3.2,0,6-2,6-5.6v-9.6c0-3.4-2.7-5.4-6.2-5.4h-5.1v20.6H294.1z"/>
	</g>
	<g>
		<g>
			<defs>
				<rect id="SVGID_1_" x="29" y="18.5" width="360" height="68.8"/>
			</defs>
			<defs>
				<path id="SVGID_2_" d="M200,67.6c0,0-0.2,0.4-0.8,1c-3.2,3.3-7.1,4.9-11.6,4.9c-4.5,0-8.4-1.6-11.6-4.9
					c-3.2-3.3-4.8-7.2-4.8-11.9c0-4.6,1.6-8.6,4.8-11.9c3.2-3.3,7.1-4.9,11.6-4.9c4.5,0,8.4,1.6,11.6,4.9c0.7,0.7,0,0,0.9,1
					l-3.6,5.1c-1.1-1.1-1.3-1.3-1.7-1.7c-2.1-2-4.4-3.1-7.3-3.1c-2.8,0-5.2,1-7.2,3.1c-2,2.1-3,4.5-3,7.4c0,2.9,1,5.4,3,7.4
					c2,2.1,4.4,3.1,7.2,3.1c2.8,0,5.2-1,7.3-3.1c0.3-0.3,0.8-0.8,1.6-1.7L200,67.6"/>
			</defs>
			<clipPath id="SVGID_3_">
				<use xlink:href="#SVGID_1_"  overflow="visible"/>
			</clipPath>
			<clipPath id="SVGID_4_" clip-path="url(#SVGID_3_)">
				<use xlink:href="#SVGID_2_"  overflow="visible"/>
			</clipPath>
			<rect x="165.4" y="34.3" clip-path="url(#SVGID_4_)" fill="#FFFFFF" width="40.4" height="45"/>
		</g>
		<g>
			<defs>
				<rect id="SVGID_5_" x="29" y="18.5" width="360" height="68.8"/>
			</defs>
			<defs>
				<path id="SVGID_6_" d="M373,44.8c2.2-3.4,6.7-4.5,11.2-4.8v6.4c-2.2,0.1-6.9,0.9-8.2,2.4c-1.9,2.2-2.9,4.7-3,7.7v17h-6V40.1l6,0
					L373,44.8"/>
			</defs>
			<clipPath id="SVGID_7_">
				<use xlink:href="#SVGID_5_"  overflow="visible"/>
			</clipPath>
			<clipPath id="SVGID_8_" clip-path="url(#SVGID_7_)">
				<use xlink:href="#SVGID_6_"  overflow="visible"/>
			</clipPath>
			<rect x="361.3" y="34.3" clip-path="url(#SVGID_8_)" fill="#FFFFFF" width="28.6" height="45"/>
		</g>
		<g>
			<defs>
				<rect id="SVGID_9_" x="29" y="18.5" width="360" height="68.8"/>
			</defs>
			<defs>
				<path id="SVGID_10_" d="M300,67.6c0,0-0.2,0.4-0.8,1c-3.2,3.3-7.1,4.9-11.6,4.9c-4.5,0-8.4-1.6-11.6-4.9
					c-3.2-3.3-4.8-7.2-4.8-11.9c0-4.6,1.6-8.6,4.8-11.9c3.2-3.3,7.1-4.9,11.6-4.9c4.5,0,8.4,1.6,11.6,4.9c0.7,0.7,0,0,0.9,1
					l-3.6,5.1c-1.1-1.1-1.3-1.3-1.7-1.7c-2.1-2-4.4-3.1-7.3-3.1c-2.8,0-5.2,1-7.2,3.1c-2,2.1-3,4.5-3,7.4c0,2.9,1,5.4,3,7.4
					c2,2.1,4.4,3.1,7.2,3.1c2.8,0,5.2-1,7.3-3.1c0.3-0.3,0.8-0.8,1.6-1.7"/>
			</defs>
			<clipPath id="SVGID_11_">
				<use xlink:href="#SVGID_9_"  overflow="visible"/>
			</clipPath>
			<clipPath id="SVGID_12_" clip-path="url(#SVGID_11_)">
				<use xlink:href="#SVGID_10_"  overflow="visible"/>
			</clipPath>
			<rect x="265.5" y="34.3" clip-path="url(#SVGID_12_)" fill="#FFFFFF" width="40.4" height="45"/>
		</g>
		<g>
			<defs>
				<rect id="SVGID_13_" x="29" y="18.5" width="360" height="68.8"/>
			</defs>
			<defs>
				<path id="SVGID_14_" d="M99.3,59.1c0,1.9-1.3,3.6-2.8,5.1c-2,2-4.4,3.1-7.2,3.1c-2.8,0-5.3-1-7.3-3.1c-2-2-3-4.5-3-7.4
					c0-2.9,1-5.3,3-7.4c2-2.1,4.4-3.1,7.3-3.1c2.8,0,5.2,1,7.2,3.1c1.5,1.5,2.8,3.3,2.8,5.2V59.1L99.3,59.1L99.3,59.1z M99.3,44.6
					c-2.4-3-6.2-4.6-10-4.6c-4.5,0-8.4,1.6-11.6,4.9c-3.2,3.3-4.8,7.2-4.8,11.8s1.6,8.6,4.8,11.8c3.2,3.3,7,4.9,11.6,4.9
					c3.8,0,7.7-1.5,10-4.6v4.5h6.1V26.6h-6.1V44.6L99.3,44.6L99.3,44.6z"/>
			</defs>
			<clipPath id="SVGID_15_">
				<use xlink:href="#SVGID_13_"  overflow="visible"/>
			</clipPath>
			<clipPath id="SVGID_16_" clip-path="url(#SVGID_15_)">
				<use xlink:href="#SVGID_14_"  overflow="visible"/>
			</clipPath>
			<rect x="67.2" y="20.9" clip-path="url(#SVGID_16_)" fill="#FDD130" width="44" height="58.4"/>
		</g>
		<g>
			<defs>
				<rect id="SVGID_17_" x="29" y="18.5" width="360" height="68.8"/>
			</defs>
			<defs>
				<path id="SVGID_18_" d="M136.7,59.1c-0.5,1.9-1.3,3.6-2.8,5.2c-2,2-4.4,3.1-7.2,3.1c-2.8,0-5.3-1-7.3-3.1c-2-2-3-4.5-3-7.4
					c0-2.9,1-5.4,3-7.4c2-2.1,4.4-3.1,7.3-3.1c2.8,0,5.2,1,7.2,3.1c1.5,1.6,2.3,3.3,2.8,5.2V59.1L136.7,59.1L136.7,59.1z
					 M136.7,44.6c-2.8-3-6.2-4.6-10-4.6c-4.5,0-8.4,1.6-11.6,4.9c-3.2,3.3-4.8,7.2-4.8,11.9c0,4.6,1.6,8.6,4.8,11.9
					c3.2,3.3,7,4.9,11.6,4.9c3.8,0,7.2-1.5,10-4.6v4.6h6.1V26.6h-6.1V44.6L136.7,44.6L136.7,44.6z"/>
			</defs>
			<clipPath id="SVGID_19_">
				<use xlink:href="#SVGID_17_"  overflow="visible"/>
			</clipPath>
			<clipPath id="SVGID_20_" clip-path="url(#SVGID_19_)">
				<use xlink:href="#SVGID_18_"  overflow="visible"/>
			</clipPath>
			<rect x="104.6" y="20.9" clip-path="url(#SVGID_20_)" fill="#FDD130" width="44" height="58.4"/>
		</g>
		<g>
			<defs>
				<rect id="SVGID_21_" x="29" y="18.5" width="360" height="68.8"/>
			</defs>
			<defs>
				<path id="SVGID_22_" d="M45.1,65.1c-1.4-1-2.5-2.4-3.2-4.1c-1.2-2.6-1.2-5.3-0.1-8c1.1-2.7,2.9-4.6,5.6-5.7
					c2.7-1.2,5.3-1.2,8-0.1c0.6,0.3,1.2,0.6,1.8,0.9l3.6-5.1c-1-0.6-2-1.1-3.1-1.6c-4.3-1.7-8.5-1.6-12.8,0.2
					c-4.2,1.8-7.2,4.9-8.9,9.2c-1.7,4.3-1.6,8.5,0.2,12.8c1.2,2.8,3,5.1,5.3,6.8L45.1,65.1"/>
			</defs>
			<clipPath id="SVGID_23_">
				<use xlink:href="#SVGID_21_"  overflow="visible"/>
			</clipPath>
			<clipPath id="SVGID_24_" clip-path="url(#SVGID_23_)">
				<use xlink:href="#SVGID_22_"  overflow="visible"/>
			</clipPath>
			<rect x="29" y="34.4" clip-path="url(#SVGID_24_)" fill="#FFFFFF" width="37.5" height="41.6"/>
		</g>
		<g>
			<defs>
				<rect id="SVGID_25_" x="29" y="18.5" width="360" height="68.8"/>
			</defs>
			<defs>
				<path id="SVGID_26_" d="M66.8,50.2c-1.2-2.9-3-5.1-5.4-6.8l-3.6,5.1c1.4,1.1,2.5,2.5,3.3,4.2c1.1,2.7,1.2,5.3,0.1,8
					c-1.1,2.7-2.9,4.6-5.6,5.7c-2.7,1.1-5.3,1.2-8,0.1c-0.7-0.3-1.3-0.6-1.9-1l-3.6,5.1c1,0.6,2,1.2,3.2,1.7
					c4.3,1.7,8.6,1.6,12.8-0.2c4.2-1.8,7.2-4.9,8.9-9.2C68.7,58.7,68.6,54.4,66.8,50.2"/>
			</defs>
			<clipPath id="SVGID_27_">
				<use xlink:href="#SVGID_25_"  overflow="visible"/>
			</clipPath>
			<clipPath id="SVGID_28_" clip-path="url(#SVGID_27_)">
				<use xlink:href="#SVGID_26_"  overflow="visible"/>
			</clipPath>
			<rect x="36.4" y="37.6" clip-path="url(#SVGID_28_)" fill="#FDD130" width="37.6" height="41.7"/>
		</g>
		<g>
			<defs>
				<rect id="SVGID_29_" x="29" y="18.5" width="360" height="68.8"/>
			</defs>
			<defs>
				<path id="SVGID_30_" d="M336.4,53.2c0.5-1.4,1.3-2.7,2.4-3.8c2-2,4.3-3,7-3.1c2.7,0,5,1.1,6.9,3.1c1.6,1.7,2.5,3,2.6,3.8
					L336.4,53.2L336.4,53.2L336.4,53.2z M361.5,59.3c0.1-1.4,0.1-2.2,0.1-2.5c0-0.7,0-1.3-0.1-2c-0.4-3.8-1.9-7.1-4.6-9.9
					c-2.4-2.5-5.1-4-8.3-4.6c-0.8-0.2-1.7-0.3-2.7-0.3c-0.1,0-0.1,0-0.2,0c-0.1,0-0.1,0-0.2,0c-4.4,0-8.2,1.6-11.3,4.9
					c-3.1,3.2-4.6,7.1-4.7,11.6c0,0.1,0,0.2,0,0.3v0v0c0,4.6,1.6,8.6,4.7,11.9c3.1,3.3,6.9,4.9,11.3,4.9c0,0,0.1,0,0.1,0
					c0.1,0,0.2,0,0.2,0c4.5,0,8.4-1.6,11.6-4.9l-4.3-4.4c-1.5,1.5-3.3,2.5-5.2,2.9l0,0c-0.9,0.1-1.6,0.2-2.1,0.2
					c-2.8,0-5.2-1-7.2-3.1c-1.4-1.4-2.3-3.1-2.7-4.9h21.3L361.5,59.3L361.5,59.3L361.5,59.3z"/>
			</defs>
			<clipPath id="SVGID_31_">
				<use xlink:href="#SVGID_29_"  overflow="visible"/>
			</clipPath>
			<clipPath id="SVGID_32_" clip-path="url(#SVGID_31_)">
				<use xlink:href="#SVGID_30_"  overflow="visible"/>
			</clipPath>
			<rect x="323.9" y="34.3" clip-path="url(#SVGID_32_)" fill="#FFFFFF" width="43.5" height="45"/>
		</g>
		<g>
			<defs>
				<rect id="SVGID_33_" x="29" y="18.5" width="360" height="68.8"/>
			</defs>
			<defs>
				<path id="SVGID_34_" d="M241.1,53.2c0.5-1.4,1.3-2.7,2.4-3.8c2-2,4.3-3,7-3.1c2.7,0,5,1.1,6.9,3.1c1.6,1.7,2.5,3,2.6,3.8
					L241.1,53.2L241.1,53.2L241.1,53.2z M266.2,59.3c0.1-1.4,0.1-2.2,0.1-2.5c0-0.7,0-1.3-0.1-2c-0.4-3.8-1.9-7.1-4.6-9.9
					c-2.4-2.5-5.1-4-8.3-4.6c-0.8-0.2-1.7-0.3-2.7-0.3c-0.1,0-0.1,0-0.2,0c-0.1,0-0.1,0-0.2,0c-4.4,0-8.2,1.6-11.3,4.9
					c-3.1,3.2-4.6,7.1-4.7,11.6c0,0.1,0,0.2,0,0.3v0v0c0,4.6,1.6,8.6,4.7,11.9c3.1,3.3,6.9,4.9,11.3,4.9c0,0,0.1,0,0.1,0
					c0.1,0,0.2,0,0.3,0c4.5,0,8.4-1.6,11.6-4.9l-4.3-4.4c-1.5,1.5-3.3,2.5-5.2,2.9l0,0c-0.9,0.1-1.6,0.2-2.1,0.2
					c-2.8,0-5.2-1-7.2-3.1c-1.4-1.4-2.3-3.1-2.7-4.9h21.3L266.2,59.3L266.2,59.3L266.2,59.3z"/>
			</defs>
			<clipPath id="SVGID_35_">
				<use xlink:href="#SVGID_33_"  overflow="visible"/>
			</clipPath>
			<clipPath id="SVGID_36_" clip-path="url(#SVGID_35_)">
				<use xlink:href="#SVGID_34_"  overflow="visible"/>
			</clipPath>
			<rect x="228.6" y="34.3" clip-path="url(#SVGID_36_)" fill="#FFFFFF" width="43.5" height="45"/>
		</g>
		<g>
			<defs>
				<rect id="SVGID_37_" x="29" y="18.5" width="360" height="68.8"/>
			</defs>
			<defs>
				<polyline id="SVGID_38_" points="328.5,40 314.8,53.6 328.5,73.5 321.4,73.5 311.8,59.4 311.4,59.7 311.4,73.5 305.7,73.5 
					305.7,26.6 311.4,26.6 311.4,48.9 320.3,40 328.5,40 				"/>
			</defs>
			<clipPath id="SVGID_39_">
				<use xlink:href="#SVGID_37_"  overflow="visible"/>
			</clipPath>
			<clipPath id="SVGID_40_" clip-path="url(#SVGID_39_)">
				<use xlink:href="#SVGID_38_"  overflow="visible"/>
			</clipPath>
			<rect x="300" y="20.8" clip-path="url(#SVGID_40_)" fill="#FFFFFF" width="34.3" height="58.4"/>
		</g>
		<g>
			<defs>
				<rect id="SVGID_41_" x="29" y="18.5" width="360" height="68.8"/>
			</defs>
			<defs>
				<path id="SVGID_42_" d="M164.3,56c-1.3-1.2-3.3-2.4-6.2-3.8c-1.5-0.9-2.5-1.5-2.9-1.9c-0.5-0.4-0.7-1-0.7-1.6
					c0-0.6,0.2-1.2,0.7-1.6c0.5-0.4,1.1-0.7,1.8-0.7s1.2,0.2,1.6,0.6c0.2,0.2,0.5,0.4,0.9,0.7c0.2,0.2,0.6,0.5,0.9,0.7l4.3-5.1
					l-1-0.9c-1.8-1.6-4-2.4-6.7-2.4c-2.7,0-4.9,0.9-6.8,2.6c-1.9,1.7-2.8,3.8-2.8,6.1c0,2.4,0.9,4.4,2.8,6.1c1.1,1,2.9,2.1,5.4,3.3
					c1.9,1.1,3.1,1.9,3.7,2.4c0.8,0.7,1.2,1.6,1.2,2.7c0,1.1-0.4,2-1.3,2.8c-0.8,0.7-1.8,1.1-3,1.1c-1.2,0-2.1-0.4-3-1.1
					c-0.8-0.6-0.9-0.7-2-1.6l-4,5.2c0.7,0.6-0.5-0.5,1,0.9c2.2,2,4.9,3,8,3c3.2,0,5.8-1,8-3c2.2-2,3.3-4.4,3.3-7.3
					C167.6,60.5,166.5,58.1,164.3,56"/>
			</defs>
			<clipPath id="SVGID_43_">
				<use xlink:href="#SVGID_41_"  overflow="visible"/>
			</clipPath>
			<clipPath id="SVGID_44_" clip-path="url(#SVGID_43_)">
				<use xlink:href="#SVGID_42_"  overflow="visible"/>
			</clipPath>
			<rect x="141.5" y="34.3" clip-path="url(#SVGID_44_)" fill="#FDD130" width="31.8" height="45"/>
		</g>
		<g>
			<defs>
				<rect id="SVGID_45_" x="29" y="18.5" width="360" height="68.8"/>
			</defs>
			<defs>
				<path id="SVGID_46_" d="M226.4,43.6c-1.9-2.3-4.9-3.7-8.1-3.7c-0.1,0-0.5,0-0.6,0c-2.3,0-4.3,0.4-6.2,1.2l0-14.6h-6v47.1h6V50.1
					c0,0,0-2.1,0-2.1c1-1.1,2.5-1.4,3.8-1.7c0.6-0.1,1.2-0.2,2.2-0.2c2,0,3.5,0.6,4.4,1.8c1,1.2,1.5,2.7,1.5,4.4v21.2h6V52.1
					C229.2,48.7,228.3,45.8,226.4,43.6"/>
			</defs>
			<clipPath id="SVGID_47_">
				<use xlink:href="#SVGID_45_"  overflow="visible"/>
			</clipPath>
			<clipPath id="SVGID_48_" clip-path="url(#SVGID_47_)">
				<use xlink:href="#SVGID_46_"  overflow="visible"/>
			</clipPath>
			<rect x="199.8" y="20.8" clip-path="url(#SVGID_48_)" fill="#FFFFFF" width="35.2" height="58.5"/>
		</g>
	</g>
</g>
</svg>
