<?xml version="1.0" encoding="UTF-8"?>
<svg width="29px" height="39px" viewBox="0 0 29 39" version="1.1" xmlns="http://www.w3.org/2000/svg" xmlns:xlink="http://www.w3.org/1999/xlink">
    <!-- Generator: Sketch 49.3 (51167) - http://www.bohemiancoding.com/sketch -->
    <title>click</title>
    <desc>Created with Sketch.</desc>
    <defs></defs>
    <g id="Page-1" stroke="none" stroke-width="1" fill="none" fill-rule="evenodd">
        <g id="Squad-landing-boring-version" transform="translate(-852.000000, -354.000000)" fill="#000000" fill-rule="nonzero">
            <g id="Group-4" transform="translate(852.000000, 354.000000)">
                <g id="click">
                    <path d="M28.760344,28.1143525 L12.3974213,12.2322315 C12.1617949,12.0067298 11.8116534,11.9368236 11.5056151,12.0607043 C11.1996535,12.1830216 11,12.4736649 11,12.7944594 L11,34.7848537 C11,35.0882275 11.1783306,35.3645768 11.4598244,35.4979869 C11.7412416,35.6313969 12.0767331,35.5980444 12.3204899,35.4106599 L16.4750169,32.2580291 L20.1010718,38.591804 C20.2516365,38.852296 20.5297555,39 20.8177689,39 C20.940491,39 21.0665113,38.9729755 21.1843245,38.9157998 L26.093209,36.5334779 C26.2928625,36.4366217 26.4433505,36.2650945 26.5088535,36.058577 C26.5742797,35.850496 26.5497353,35.6265578 26.4434272,35.4376099 L23.0268436,29.4707125 L28.1811723,29.4707125 C28.5116783,29.4707125 28.8095095,29.2769255 28.9371405,28.9799542 C29.0646948,28.6829085 28.9943597,28.341492 28.760344,28.1143525 Z M21.6375526,27.8840862 C21.3479285,27.8840862 21.0795505,28.0333535 20.932284,28.2763503 C20.7850175,28.5177838 20.7801086,28.8179563 20.9208555,29.06408 L24.59761,35.4852563 L21.1531838,37.1576463 L17.4436779,30.6745295 C17.3274754,30.4712133 17.1246004,30.3267105 16.8905847,30.2806275 C16.8349762,30.2695348 16.7809785,30.2647702 16.7269807,30.2647702 C16.5469627,30.2647702 16.3670214,30.3235093 16.2229764,30.4330961 L12.6361926,33.1552711 L12.6361926,14.7114096 L26.2076474,27.8840862 L21.6375526,27.8840862 Z" id="Shape"></path>
                    <path d="M12,0 C11.4480172,0 11,0.336020812 11,0.750017578 L11,5.24998242 C11,5.66397919 11.4480172,6 12,6 C12.5519828,6 13,5.66397919 13,5.24998242 L13,0.750017578 C12.9999063,0.336020812 12.5519828,0 12,0 Z" id="Shape"></path>
                    <path d="M6.12497949,12 L0.875020508,12 C0.392024281,12 0,12.4480172 0,13 C0,13.5519828 0.392024281,14 0.875020508,14 L6.12497949,14 C6.60797572,14 7,13.5519828 7,13 C7,12.4480172 6.60797572,12 6.12497949,12 Z" id="Shape"></path>
                    <path d="M24.1249795,12 L18.8750205,12 C18.3920243,12 18,12.4480172 18,13 C18,13.5519828 18.3920243,14 18.8750205,14 L24.1249795,14 C24.6079757,14 25,13.5519828 25,13 C25,12.4480172 24.6079757,12 24.1249795,12 Z" id="Shape"></path>
                    <path d="M8.76573763,6.63308596 L5.36675577,3.23435387 C5.05440593,2.92188204 4.54661221,2.92188204 4.23426237,3.23435387 C3.92191254,3.54682571 3.92191254,4.05481777 4.23426237,4.36728961 L7.63324423,7.76602169 C7.79024507,7.92143136 7.99522465,8 8.20027931,8 C8.40533397,8 8.61031355,7.92308386 8.76573763,7.76602169 C9.07808746,7.45354986 9.07808746,6.94555779 8.76573763,6.63308596 Z" id="Shape"></path>
                    <path d="M8.76573763,16.2343539 C8.45338779,15.921882 7.94559407,15.921882 7.63324423,16.2343539 L4.23426237,19.633086 C3.92191254,19.9455578 3.92191254,20.4535499 4.23426237,20.7660217 C4.39126321,20.9214314 4.59624279,21 4.80129745,21 C5.00635211,21 5.21133169,20.9215065 5.36675577,20.7660217 L8.76573763,17.3672896 C9.07808746,17.0548178 9.07808746,16.5468257 8.76573763,16.2343539 Z" id="Shape"></path>
                    <path d="M20.7658115,3.23548119 C20.4535601,2.92150627 19.9459265,2.92150627 19.6320988,3.23548119 L16.2341885,6.63340931 C15.9219372,6.94580722 15.9219372,7.45367912 16.2341885,7.76607704 C16.3911399,7.92144995 16.5960548,8 16.8010448,8 C17.0060349,8 17.2109498,7.92310205 17.3679012,7.76607704 L20.7658115,4.36814893 C21.0780628,4.05575101 21.0780628,3.54953122 20.7658115,3.23548119 Z" id="Shape"></path>
                </g>
            </g>
        </g>
    </g>
</svg>