<svg xmlns="http://www.w3.org/2000/svg" viewBox="0 0 2048 2048">
<g>
  <path d="M2048.465 1023.994c0 565.334-458.395 1024.006-1023.86 1024.006C459.135 2048 .608 1589.328.608 1023.994.61 458.38 459.135 0 1024.603 0c565.466 0 1023.86 458.38 1023.86 1023.994z"></path>
  <path fill="white" d="M1909.55 783.7c9.647 70.933 14.233 160.846 2.214 163.363-13.654 2.372-66.584-3.348-105.122-3.348-24.726 0-117.432 1.818-130.27-13.272-16.475-19.124-41.886-105.136-101.933-214.74-34.64-62.13-103.6-147.02-106.39-171.6-2.66-22.196 44.123-73.57 68.56-112.108 23.59-37.286 38.38-76.944 52.06-82.242 13.55-5.588 96.896 50.545 145.372 95.646 2.215 2.643 4.745 5.02 7.38 7.39C1573.04 242.24 1314.45 107.08 1024.6 107.08c-505.71 0-916.92 411.198-916.92 916.908 0 50.966 4.19 101.233 12.15 149.815 10.625 1.963 27.1 10.61 55.147 17.172 26.543 6.288 65.766 13.403 68.56 21.642 2.663 8.38 35.612 117.71 68.27 180.96 32.95 62.825 120.65 167.263 112.4 186.11-8.094 19.27-16.74 54.035-22.195 77.773-1.82 8.236-3.48 21.64-6.274 33.225 164.326 154.98 385.642 250.206 628.862 250.206 505.71 0 917.053-411.183 917.053-916.905 0-83.074-11.337-163.64-32.107-240.295zM791.427 872.925c-19.138 8.237-128.873 5.72-191.846 0-63.1-5.443-180.67-8.105-189.05-22.062-14.362-24.014-21.9-131.39-21.9-186.126 0-54.722 0-147.72 11.018-161.545 10.886-13.68 68.27-71.197 169.914-128.728 101.38-57.662 175.24-87.962 191.714-87.962 16.345 0 87.673 68.548 128.873 104.292 40.907 35.466 117.85 95.79 117.85 115.06 0 19.125-82.24 145.347-106.967 186.112-24.7 41.477-90.335 172.854-109.603 180.96zm698.688 786.36c-11.177 13.827-94.685 69.116-162.112 106.112-50.82 27.506-189.34 80.844-207.897 80.277-19.27-.555-114.77-49.7-161.56-85.168-79.58-59.758-145.478-122.86-147.85-131.377-8.647-27.8 35.61-76.948 96.054-177.747 50.426-84.062 87.277-151.21 104.04-153.73 16.318-2.65 118.936 8.093 221.712 11.032 68.692 1.817 191.714-2.94 205.525 5.587 13.55 8.092 38.96 130.678 44.26 166.145 6.563 45.52 18.583 165.314 7.828 178.863z"></path>
  <path d="M1438.027 1314.28c-13.812-8.528-136.833-3.77-205.525-5.59-102.776-2.938-205.394-13.68-221.71-11.03-16.765 2.518-53.616 69.666-104.042 153.73-60.443 100.798-104.7 149.946-96.055 177.74 2.372 8.517 68.27 71.62 147.852 131.378 46.787 35.467 142.288 84.613 161.56 85.168 18.556.566 157.075-52.77 207.896-80.277 67.428-37 150.936-92.29 162.112-106.117 10.755-13.55-1.266-133.342-7.828-178.863-5.3-35.467-30.71-158.053-44.26-166.145zm-430.03-808.426c0-19.27-76.944-79.593-117.855-115.06-41.2-35.744-112.528-104.292-128.872-104.292-16.475 0-90.335 30.3-191.714 87.962-101.643 57.53-159.028 115.046-169.914 128.728-11.018 13.826-11.018 106.823-11.018 161.545 0 54.736 7.538 162.112 21.903 186.547 8.383 13.536 125.947 16.198 189.053 21.642 62.973 5.72 172.708 8.237 191.846 0 19.27-8.105 84.904-139.482 109.604-180.96 24.725-40.764 106.966-166.987 106.966-186.112zm740.548-205.947C1555.303 106.532 1298.11 0 1024.605 0c-273.668 0-530.57 106.532-724.103 299.907C107.13 493.427.61 750.327.61 1023.994c0 273.666 106.52 530.71 299.893 724.086 193.534 193.39 450.435 299.92 724.1 299.92 273.51 0 530.7-106.53 723.942-299.92 193.533-193.375 299.92-450.42 299.92-724.086 0-273.667-106.387-530.568-299.92-724.087zM1024.605 1940.9c-243.222 0-464.537-95.225-628.863-250.207 2.795-11.584 4.455-24.988 6.274-33.225 5.455-23.738 14.102-58.506 22.194-77.773 8.25-18.848-79.448-123.285-112.398-186.113-32.66-63.25-65.608-172.576-68.27-180.96-2.795-8.237-42.018-15.353-68.562-21.642-28.047-6.562-44.52-15.21-55.145-17.172-7.96-48.582-12.152-98.85-12.152-149.814 0-505.71 411.21-916.908 916.92-916.908 289.85 0 548.44 135.16 716.825 345.707-2.636-2.372-5.166-4.744-7.38-7.117-48.477-45.377-131.825-101.51-145.373-95.922-13.682 5.298-28.47 44.956-52.062 82.242-24.435 38.538-71.224 89.913-68.562 112.107 2.8 24.58 71.757 109.472 106.39 171.602 60.05 109.603 85.46 195.615 101.937 214.74 12.838 15.09 105.544 13.27 130.27 13.27 38.538 0 91.468 5.72 105.122 3.35 12.02-2.52 7.433-92.432-2.215-163.365 20.77 76.653 32.107 157.222 32.107 240.295 0 505.722-411.343 916.905-917.052 916.905z"></path>
</g>
</svg>