<?xml version="1.0" encoding="utf-8"?>
<!-- Generator: Adobe Illustrator 15.1.0, SVG Export Plug-In . SVG Version: 6.00 Build 0)  -->
<!DOCTYPE svg PUBLIC "-//W3C//DTD SVG 1.1//EN" "http://www.w3.org/Graphics/SVG/1.1/DTD/svg11.dtd">
<svg version="1.1" id="Layer_1" xmlns="http://www.w3.org/2000/svg" xmlns:xlink="http://www.w3.org/1999/xlink" x="0px" y="0px"
	 width="2048px" height="2048px" viewBox="0 0 2048 2048" enable-background="new 0 0 2048 2048" xml:space="preserve" fill="white">
<path d="M1945,449h-538V158.499c0-22.091-17.408-39.499-39.5-39.499h-688c-22.091,0-40.5,17.408-40.5,39.499V449H104
	c-22.091,0-40,17.908-40,40v1391c0,22.092,17.909,40,40,40h1841c22.092,0,40-17.908,40-40V489C1985,466.908,1967.092,449,1945,449z
	 M812,290h424v159H812V290z M1505,1313h-352v352H897v-352H545v-256h352V705h256v352h352V1313z"/>
</svg>
