<!DOCTYPE svg PUBLIC "-//W3C//DTD SVG 1.1//EN" "http://www.w3.org/Graphics/SVG/1.1/DTD/svg11.dtd">
<svg version="1.1" id="Layer_1" xmlns="http://www.w3.org/2000/svg" xmlns:xlink="http://www.w3.org/1999/xlink" x="0px" y="0px"
	 width="2048px" height="2048px" viewBox="0 0 2048 2048" enable-background="new 0 0 2048 2048" xml:space="preserve" fill="white">
<g>
	<path fill="white" d="M1846.438,317.954c2.704,20.037,4.014,45.371,0.661,46.033c-3.855,0.773-18.798-0.897-29.662-0.897
		c-6.952,0-33.104,0.494-36.727-3.734c-4.631-5.41-11.768-29.635-28.752-60.543c-9.673-17.601-29.156-41.444-29.924-48.391
		c-0.711-6.332,12.395-20.839,19.294-31.68c6.701-10.499,10.811-21.63,14.673-23.176c3.861-1.543,27.34,14.243,40.916,27.038
		c0.696,0.653,1.397,1.325,2.109,2.004c-47.392-59.383-120.325-97.5-202-97.5c-142.495,0-258.425,116.002-258.425,258.594
		c0,14.412,1.202,28.542,3.48,42.319c3.004,0.506,7.643,2.938,15.559,4.785c7.413,1.738,18.496,3.806,19.268,6.123
		c0.773,2.318,10.043,33.223,19.303,50.991c9.266,17.769,33.977,47.127,31.66,52.531c-2.319,5.406-4.757,15.208-6.237,21.881
		c-0.523,2.363-1.015,6.143-1.788,9.438c46.302,43.696,108.663,70.524,177.181,70.524c142.496,0,258.425-116.003,258.425-258.592
		C1855.454,362.268,1852.306,339.556,1846.438,317.954z M1531.328,343.124c-5.404,2.325-36.282,1.55-54.048,0
		c-17.747-1.54-50.952-2.317-53.27-6.173c-4.087-6.824-6.176-37.085-6.176-52.537c0-15.458,0-41.723,3.087-45.579
		c3.089-3.867,19.306-20.094,47.869-36.316c28.57-16.227,49.406-24.728,54.041-24.728c4.637,0,24.709,19.319,36.292,29.362
		c11.578,10.039,33.201,27.039,33.201,32.446c0,5.408-23.165,40.955-30.11,52.534
		C1555.26,303.724,1536.737,340.808,1531.328,343.124z M1728.208,564.859c-3.084,3.865-26.647,19.5-45.672,29.886
		c-14.302,7.807-53.368,22.748-58.553,22.651c-5.444-0.104-32.364-14-45.555-23.947c-22.398-16.899-40.973-34.753-41.691-37.087
		c-2.441-7.852,10.068-21.697,27.119-50.128c14.18-23.646,24.607-42.583,29.242-43.356c4.628-0.774,33.594,2.321,62.532,3.085
		c19.316,0.517,54.042-0.767,57.905,1.551c3.868,2.317,11.015,36.916,12.479,46.878
		C1727.906,527.254,1731.3,560.994,1728.208,564.859z"/>
	<path fill="white" d="M1713.533,467.512c-3.862-2.318-38.588-1.031-57.902-1.55c-28.938-0.765-57.904-3.86-62.535-3.083
		c-4.632,0.772-15.061,19.707-29.239,43.356c-17.052,28.432-29.561,42.276-27.12,50.125c0.72,2.335,19.29,20.191,41.692,37.087
		c13.189,9.95,40.107,23.846,45.555,23.95c5.185,0.093,44.251-14.845,58.552-22.651c19.025-10.385,42.586-26.021,45.67-29.886
		c3.092-3.866-0.299-37.605-2.191-50.469C1724.551,504.431,1717.404,469.833,1713.533,467.512z"/>
	<path fill="white" d="M1592.325,239.603c0-5.409-21.623-22.41-33.201-32.447c-11.579-10.044-31.655-29.365-36.292-29.365
		c-4.635,0-25.471,8.503-54.041,24.73c-28.563,16.222-44.78,32.449-47.869,36.314c-3.087,3.855-3.087,30.124-3.087,45.581
		c0,15.451,2.089,45.713,6.176,52.535c2.317,3.856,35.522,4.633,53.27,6.176c17.766,1.549,48.644,2.324,54.048,0
		c5.409-2.32,23.932-39.402,30.885-50.99C1569.16,280.555,1592.325,245.009,1592.325,239.603z"/>
	<path fill="white" d="M1801.081,181.521c-54.508-54.542-126.973-84.579-204.054-84.579c-77.078,0-149.542,30.037-204.049,84.579
		c-54.504,54.54-84.521,127.053-84.521,204.18c0,77.129,30.017,149.644,84.519,204.182c54.507,54.54,126.973,84.576,204.051,84.576
		c77.081,0,149.546-30.036,204.051-84.576c54.506-54.538,84.521-127.053,84.521-204.182
		C1885.6,308.574,1855.584,236.059,1801.081,181.521z M1597.027,644.296c-68.517,0-130.879-26.829-177.177-70.526
		c0.771-3.293,1.261-7.073,1.786-9.434c1.479-6.677,3.918-16.477,6.238-21.885c2.313-5.404-22.395-34.762-31.66-52.529
		c-9.26-17.771-18.532-48.675-19.302-50.994c-0.773-2.317-11.858-4.385-19.267-6.123c-7.921-1.844-12.559-4.276-15.563-4.785
		c-2.278-13.773-3.48-27.907-3.48-42.319c0-142.591,115.93-258.594,258.427-258.594c81.673,0,154.606,38.119,202,97.5
		c-0.71-0.679-1.415-1.347-2.111-2.001c-13.576-12.797-37.055-28.583-40.916-27.041c-3.859,1.546-7.971,12.678-14.673,23.179
		c-6.898,10.839-20.002,25.346-19.294,31.681c0.77,6.945,20.253,30.787,29.928,48.389c16.985,30.907,24.117,55.134,28.748,60.544
		c3.624,4.229,29.774,3.732,36.727,3.732c10.865,0,25.81,1.67,29.666,0.897c3.349-0.663,2.039-25.996-0.662-46.031
		c5.864,21.603,9.016,44.314,9.016,67.746C1855.454,528.294,1739.523,644.296,1597.027,644.296z"/>
</g>
<g>
	<polygon points="2050,1954.5 1858.5,1954.5 1858.5,1122.5 194.5,1122.5 194.5,1954.5 2,1954.5 2,930 2050,930 	"/>
</g>
</svg>
