<?xml version="1.0" encoding="utf-8"?>
<!-- Generator: Adobe Illustrator 15.1.0, SVG Export Plug-In . SVG Version: 6.00 Build 0)  -->
<!DOCTYPE svg PUBLIC "-//W3C//DTD SVG 1.1//EN" "http://www.w3.org/Graphics/SVG/1.1/DTD/svg11.dtd">
<svg version="1.1" id="Layer_1" xmlns="http://www.w3.org/2000/svg" xmlns:xlink="http://www.w3.org/1999/xlink" x="0px" y="0px"
	 width="2048px" height="2048px" viewBox="0 0 2048 2048" enable-background="new 0 0 2048 2048" xml:space="preserve" fill="white">
<g>
	<path fill="white" d="M1355.889,1318.408c3.596,26.644,5.342,60.334,0.884,61.214c-5.131,1.03-25.019-1.191-39.475-1.191
		c-9.249,0-44.052,0.657-48.874-4.968c-6.158-7.193-15.65-39.41-38.254-80.51c-12.872-23.405-38.802-55.113-39.822-64.35
		c-0.945-8.424,16.492-27.714,25.676-42.129c8.916-13.965,14.383-28.767,19.523-30.822c5.138-2.051,36.381,18.94,54.448,35.956
		c0.923,0.869,1.86,1.762,2.807,2.663c-63.065-78.969-160.117-129.659-268.801-129.659c-189.622,0-343.888,154.266-343.888,343.888
		c0,19.164,1.602,37.959,4.63,56.275c4,0.676,10.172,3.911,20.71,6.365c9.86,2.31,24.61,5.061,25.638,8.144
		c1.03,3.082,13.365,44.18,25.684,67.81c12.332,23.626,45.211,62.67,42.131,69.855c-3.086,7.189-6.333,20.224-8.301,29.102
		c-0.697,3.141-1.35,8.167-2.376,12.549c61.61,58.108,144.597,93.787,235.772,93.787c189.621,0,343.885-154.267,343.885-343.887
		C1367.887,1377.338,1363.696,1347.134,1355.889,1318.408z M936.574,1351.88c-7.192,3.092-48.282,2.06-71.923,0
		c-23.616-2.047-67.801-3.083-70.885-8.21c-5.438-9.076-8.217-49.318-8.217-69.865c0-20.554,0-55.487,4.105-60.61
		c4.111-5.143,25.691-26.722,63.701-48.295c38.019-21.579,65.745-32.885,71.917-32.885c6.167,0,32.878,25.691,48.292,39.048
		c15.408,13.351,44.182,35.957,44.182,43.148c0,7.189-30.829,54.462-40.071,69.859
		C968.419,1299.483,943.77,1348.798,936.574,1351.88z M1198.561,1646.75c-4.103,5.141-35.456,25.934-60.775,39.745
		c-19.032,10.379-71.017,30.247-77.914,30.119c-7.247-0.136-43.07-18.616-60.62-31.845c-29.809-22.476-54.522-46.217-55.481-49.321
		c-3.246-10.437,13.399-28.852,36.089-66.659c18.867-31.448,32.744-56.628,38.91-57.655c6.161-1.03,44.708,3.085,83.216,4.101
		c25.702,0.69,71.91-1.018,77.055,2.063c5.146,3.083,14.655,49.093,16.604,62.339
		C1198.158,1596.742,1202.676,1641.61,1198.561,1646.75z"/> 
	<path fill="white" d="M1179.037,1517.297c-5.143-3.082-51.352-1.373-77.053-2.063c-38.509-1.018-77.054-5.133-83.217-4.101
		c-6.165,1.027-20.042,26.206-38.911,57.655c-22.688,37.808-39.335,56.218-36.088,66.659c0.96,3.105,25.673,26.847,55.481,49.321
		c17.55,13.229,53.371,31.709,60.619,31.845c6.899,0.128,58.884-19.74,77.915-30.119c25.319-13.813,56.669-34.604,60.774-39.744
		c4.115-5.142-0.402-50.008-2.915-67.116C1193.694,1566.39,1184.184,1520.379,1179.037,1517.297z"/>
	<path fill="white" d="M1017.745,1214.213c0-7.191-28.774-29.798-44.182-43.147c-15.411-13.357-42.125-39.048-48.292-39.048
		c-6.172,0-33.898,11.307-71.917,32.885c-38.01,21.573-59.59,43.151-63.701,48.294c-4.105,5.125-4.105,40.057-4.105,60.612
		c0,20.548,2.78,60.79,8.217,69.864c3.084,5.129,47.27,6.161,70.885,8.214c23.641,2.055,64.731,3.091,71.923,0
		c7.196-3.085,31.845-52.398,41.098-67.812C986.915,1268.675,1017.745,1221.406,1017.745,1214.213z"/>
	<path fill="white" d="M1295.532,1136.975C1223.001,1064.445,1126.57,1024.5,1024,1024.5c-102.569,0-199,39.945-271.527,112.475
		C679.943,1209.503,640,1305.934,640,1408.501c0,102.57,39.943,198.999,112.47,271.526C824.999,1752.56,921.43,1792.5,1024,1792.5
		c102.571,0,199-39.94,271.53-112.473C1368.059,1607.5,1408,1511.071,1408,1408.501
		C1408,1305.933,1368.059,1209.502,1295.532,1136.975z M1024,1752.388c-91.175,0-174.162-35.676-235.77-93.788
		c1.025-4.381,1.679-9.406,2.376-12.549c1.967-8.875,5.215-21.906,8.3-29.102c3.08-7.184-29.798-46.228-42.129-69.854
		c-12.321-23.632-24.657-64.729-25.685-67.811c-1.028-3.083-15.779-5.832-25.639-8.144c-10.538-2.454-16.709-5.689-20.71-6.36
		c-3.028-18.321-4.628-37.116-4.628-56.28c0-189.622,154.265-343.887,343.887-343.887c108.685,0,205.74,50.692,268.801,129.658
		c-0.943-0.902-1.882-1.791-2.807-2.662c-18.067-17.018-49.31-38.008-54.448-35.957c-5.139,2.055-10.604,16.856-19.524,30.823
		c-9.18,14.414-26.617,33.704-25.674,42.127c1.021,9.237,26.949,40.946,39.821,64.352c22.604,41.1,32.095,73.316,38.256,80.51
		c4.821,5.628,39.624,4.968,48.872,4.968c14.459,0,34.346,2.22,39.477,1.19c4.456-0.88,2.711-34.569-0.882-61.214
		c7.804,28.729,11.995,58.93,11.995,90.093C1367.887,1598.122,1213.62,1752.388,1024,1752.388z"/>
</g>
<g>
	<polygon points="2048,1024.5 1856.5,1024.5 1856.5,192.5 192.5,192.5 192.5,1024.5 0,1024.5 0,0 2048,0 	"/>
</g>
</svg>
