<?xml version="1.0" encoding="UTF-8"?>
<svg width="35px" height="26px" viewBox="0 0 35 26" version="1.1" xmlns="http://www.w3.org/2000/svg" xmlns:xlink="http://www.w3.org/1999/xlink">
    <!-- Generator: Sketch 49.3 (51167) - http://www.bohemiancoding.com/sketch -->
    <title>TV-icon</title>
    <desc>Created with Sketch.</desc>
    <defs></defs>
    <g id="Page-1" stroke="none" stroke-width="1" fill="none" fill-rule="evenodd">
        <g id="Squad-landing-boring-version" transform="translate(-135.000000, -362.000000)">
            <g id="Group-2" transform="translate(136.000000, 359.000000)">
                <g id="TV-icon" transform="translate(0.000000, 4.000000)">
                    <path d="M16.2875732,19.5 L16.2875732,22.3092457 L9.16317716,22.3092457 C8.91412884,22.3295209 8.69967057,22.4049898 8.52672035,22.5604332 C8.34224012,22.7282671 8.25,23.0267635 8.25,23.4559225 C8.25,23.6699388 8.26037701,23.8817023 8.27997804,24.0900866 C8.30073206,24.2973445 8.3249451,24.4539144 8.35261713,24.5620489 L9.16317716,24.5620489 L25.6649341,24.5620489 L26.5296852,24.5620489 C26.5573572,24.4539144 26.5815703,24.2973445 26.6023243,24.0900866 C26.6219253,23.8817023 26.6323023,23.6699388 26.6323023,23.4559225 C26.6323023,23.0267635 26.5400622,22.7282671 26.355582,22.5604332 C26.1768668,22.4004842 25.9566435,22.3216361 25.6983712,22.3148777 L18.5935761,22.3092457 L18.5935761,19.5 L16.2875732,19.5 Z" id="Page-1" fill="#02053E"></path>
                    <polygon id="Path" stroke="#02053E" stroke-width="1.60361842" points="0 19.5 33 19.5 33 0 0 0"></polygon>
                </g>
            </g>
        </g>
    </g>
</svg>