<svg fill="none" height="39" viewBox="0 0 133 39" width="133" xmlns="http://www.w3.org/2000/svg"><g fill="#008dff"><path d="m42.2546 24.3911v-3.2477h-9.4742l-2.5814 7.6631v9.7857h12.0315v-3.2357h-7.821v-4.1704h6.6215v-3.1159h-6.6215v-3.6791z"/><path d="m23.8329 33.8465 3.4787-12.7031h4.7022l-5.8778 17.4487h-4.6061l-5.8299-17.4487h4.6663z"/><path d="m14.9357 21.1434h-2.4239v17.4488h4.1984v-12.1375z"/><path d="m4.21054 35.3565v-14.2131h-4.21054v17.4488h11.8126v-3.2357z"/><path d="m70.4253 30.2447h-8.1584v7.1093h9.3802v1.2447h-10.8537v-17.4262h10.7938v1.2447h-9.3203v6.5827h8.1584z"/><path d="m87.7362 38.5987h-1.4736l-10.0272-14.9128v14.9128h-1.4854v-17.4262h1.4854l10.0393 14.9247v-14.9247h1.4615z"/><path d="m103.657 22.4172h-5.9775v16.1815h-1.4735v-16.1815h-5.9661v-1.2447h13.4171z"/><path d="m116.105 30.2447h-8.158v7.1093h9.38v1.2447h-10.854v-17.4262h10.794v1.2447h-9.32v6.5827h8.158z"/><path d="m126.947 31.3338h-5.068v7.2649h-1.485v-17.4262h5.666c1.861 0 3.315.4503 4.361 1.351 1.046.9005 1.569 2.1598 1.569 3.7776 0 1.1156-.327 2.0998-.982 2.9526-.655.8527-1.533 1.4426-2.636 1.7692l4.361 7.42v.1558h-1.569zm-5.068-1.2448h4.517c1.237 0 2.232-.3516 2.982-1.0549.751-.7031 1.127-1.6142 1.127-2.733 0-1.2306-.392-2.1856-1.174-2.8649-.783-.6792-1.881-1.0189-3.295-1.0189h-4.157z"/><path d="m53.2601 38.88h-3.5305c-1.2148 0-2.1717-.3542-2.8722-1.0636-.7007-.7092-1.0508-1.6799-1.0508-2.9115v-10.0498c0-1.2319.3501-2.202 1.0508-2.9115.7005-.7089 1.6574-1.0636 2.8722-1.0636h3.5305c1.2142 0 2.1717.3547 2.8721 1.0636.7004.7095 1.0508 1.6796 1.0508 2.9115v1.3716c0 .2239-.103.3359-.3082.3359h-.7847c-.2058 0-.3082-.112-.3082-.3359v-1.3157c0-.8957-.2288-1.5816-.6864-2.0576-.458-.4759-1.1164-.7139-1.9756-.7139h-3.2784c-.8595 0-1.5131.243-1.9615.728-.4482.4854-.6725 1.1666-.6725 2.0435v9.9377c0 .8777.2243 1.5587.6725 2.0438.4484.4856 1.102.7277 1.9615.7277h3.2784c.8591 0 1.5175-.238 1.9756-.7139.4575-.4757.6863-1.1616.6863-2.0576v-1.3157c0-.2238.1025-.3359.3083-.3359h.7846c.2053 0 .3083.112.3083.3359v1.3719c0 1.2316-.3504 2.2023-1.0508 2.9115-.7004.7094-1.6579 1.0636-2.8721 1.0636z"/></g><path d="m6.51601 2.964c0 .696-.24 1.276-.72 1.74-.472.456-1.196.684-2.172.684h-1.608v3.492h-1.091999v-8.364h2.699999c.944 0 1.66.228 2.148.684.496.456.744 1.044.744 1.764zm-2.892 1.524c.608 0 1.056-.132 1.344-.396s.432-.64.432-1.128c0-1.032-.592-1.548-1.776-1.548h-1.608v3.072z" fill="#616161"/><path d="m10.7412 8.988c-.616 0-1.17597-.14-1.67997-.42-.496-.28-.888-.676-1.176-1.188-.28-.52-.42-1.12-.42-1.8 0-.672.144-1.264.432-1.776.296-.52.696-.916 1.2-1.188.504-.28 1.06797-.42 1.69197-.42s1.188.14 1.692.42c.504.272.9.664 1.188 1.176.296.512.444 1.108.444 1.788s-.152 1.28-.456 1.8c-.296.512-.7.908-1.212 1.188s-1.08.42-1.704.42zm0-.96c.392 0 .76-.092 1.104-.276s.62-.46.828-.828c.216-.368.324-.816.324-1.344s-.104-.976-.312-1.344-.48-.64-.816-.816c-.336-.184-.7-.276-1.092-.276-.4 0-.768.092-1.10397.276-.328.176-.592.448-.792.816s-.3.816-.3 1.344c0 .536.096.988.288 1.356.2.368.464.644.792.828.328.176.68797.264 1.07997.264z" fill="#616161"/><path d="m24.309 2.304-2.052 6.576h-1.128l-1.584-5.22-1.584 5.22h-1.128l-2.064-6.576h1.116l1.512 5.52 1.632-5.52h1.116l1.596 5.532 1.488-5.532z" fill="#616161"/><path d="m31.3928 5.34c0 .208-.012.428-.036.66h-5.256c.04.648.26 1.156.66 1.524.408.36.9.54 1.476.54.472 0 .864-.108 1.176-.324.32-.224.544-.52.672-.888h1.176c-.176.632-.528 1.148-1.056 1.548-.528.392-1.184.588-1.968.588-.624 0-1.184-.14-1.68-.42-.488-.28-.872-.676-1.152-1.188-.28-.52-.42-1.12-.42-1.8s.136-1.276.408-1.788.652-.904 1.14-1.176c.496-.28 1.064-.42 1.704-.42.624 0 1.176.136 1.656.408s.848.648 1.104 1.128c.264.472.396 1.008.396 1.608zm-1.128-.228c0-.416-.092-.772-.276-1.068-.184-.304-.436-.532-.756-.684-.312-.16-.66-.24-1.044-.24-.552 0-1.024.176-1.416.528-.384.352-.604.84-.66 1.464z" fill="#616161"/><path d="m33.9262 3.372c.192-.376.464-.668.816-.876.36-.208.796-.312 1.308-.312v1.128h-.288c-1.224 0-1.836.664-1.836 1.992v3.576h-1.092v-6.576h1.092z" fill="#616161"/><path d="m43.3107 5.34c0 .208-.012.428-.036.66h-5.256c.04.648.26 1.156.66 1.524.408.36.9.54 1.476.54.472 0 .864-.108 1.176-.324.32-.224.544-.52.672-.888h1.176c-.176.632-.528 1.148-1.056 1.548-.528.392-1.184.588-1.968.588-.624 0-1.184-.14-1.68-.42-.488-.28-.872-.676-1.152-1.188-.28-.52-.42-1.12-.42-1.8s.136-1.276.408-1.788.652-.904 1.14-1.176c.496-.28 1.064-.42 1.704-.42.624 0 1.176.136 1.656.408s.848.648 1.104 1.128c.264.472.396 1.008.396 1.608zm-1.128-.228c0-.416-.092-.772-.276-1.068-.184-.304-.436-.532-.756-.684-.312-.16-.66-.24-1.044-.24-.552 0-1.024.176-1.416.528-.384.352-.604.84-.66 1.464z" fill="#616161"/><path d="m44.3441 5.568c0-.672.136-1.26.408-1.764.272-.512.644-.908 1.116-1.188.48-.28 1.016-.42 1.608-.42.512 0 .988.12 1.428.36.44.232.776.54 1.008.924v-3.48h1.104v8.88h-1.104v-1.236c-.216.392-.536.716-.96.972-.424.248-.92.372-1.488.372-.584 0-1.116-.144-1.596-.432-.472-.288-.844-.692-1.116-1.212s-.408-1.112-.408-1.776zm5.568.012c0-.496-.1-.928-.3-1.296s-.472-.648-.816-.84c-.336-.2-.708-.3-1.116-.3s-.78.096-1.116.288-.604.472-.804.84-.3.8-.3 1.296c0 .504.1.944.3 1.32.2.368.468.652.804.852.336.192.708.288 1.116.288s.78-.096 1.116-.288c.344-.2.616-.484.816-.852.2-.376.3-.812.3-1.308z" fill="#616161"/><path d="m57.1527 3.528c.224-.392.552-.712.984-.96s.924-.372 1.476-.372c.592 0 1.124.14 1.596.42s.844.676 1.116 1.188c.272.504.408 1.092.408 1.764 0 .664-.136 1.256-.408 1.776s-.648.924-1.128 1.212c-.472.288-1 .432-1.584.432-.568 0-1.068-.124-1.5-.372-.424-.248-.744-.564-.96-.948v1.212h-1.092v-8.88h1.092zm4.464 2.04c0-.496-.1-.928-.3-1.296s-.472-.648-.816-.84c-.336-.192-.708-.288-1.116-.288-.4 0-.772.1-1.116.3-.336.192-.608.476-.816.852-.2.368-.3.796-.3 1.284 0 .496.1.932.3 1.308.208.368.48.652.816.852.344.192.716.288 1.116.288.408 0 .78-.096 1.116-.288.344-.2.616-.484.816-.852.2-.376.3-.816.3-1.32z" fill="#616161"/><path d="m69.8341 2.304-3.96 9.672h-1.128l1.296-3.168-2.652-6.504h1.212l2.064 5.328 2.04-5.328z" fill="#616161"/></svg>