<?xml version="1.0" encoding="utf-8"?>
<!-- Generator: Adobe Illustrator 17.1.0, SVG Export Plug-In . SVG Version: 6.00 Build 0)  -->
<!DOCTYPE svg PUBLIC "-//W3C//DTD SVG 1.1//EN" "http://www.w3.org/Graphics/SVG/1.1/DTD/svg11.dtd">
<svg version="1.1"
	 id="svg25" inkscape:version="0.92.2 5c3e80d, 2017-08-06" sodipodi:docname="childvg.svg" xmlns:inkscape="http://www.inkscape.org/namespaces/inkscape" xmlns:sodipodi="http://sodipodi.sourceforge.net/DTD/sodipodi-0.dtd" xmlns:svg="http://www.w3.org/2000/svg" xmlns:cc="http://creativecommons.org/ns#" xmlns:dc="http://purl.org/dc/elements/1.1/" xmlns:rdf="http://www.w3.org/1999/02/22-rdf-syntax-ns#"
	 xmlns="http://www.w3.org/2000/svg" xmlns:xlink="http://www.w3.org/1999/xlink" x="0px" y="0px" viewBox="0 0 141.3 229.3"
	 enable-background="new 0 0 141.3 229.3" xml:space="preserve">
<sodipodi:namedview  inkscape:pageshadow="2" inkscape:pageopacity="0" inkscape:window-height="581" inkscape:window-x="0" inkscape:window-maximized="0" inkscape:window-y="0" inkscape:current-layer="svg25" inkscape:window-width="877" bordercolor="#666666" guidetolerance="10" showgrid="false" objecttolerance="10" pagecolor="#ffffff" id="namedview27" gridtolerance="10" borderopacity="1" inkscape:zoom="0.81236444" inkscape:cx="113.32528" inkscape:cy="113.935">
	</sodipodi:namedview>
<title  id="title6">Separated Child Icon</title>
<g id="Layer_70" transform="translate(-62.232855,-29.900914)">
	<path id="path8" inkscape:connector-curvature="0" fill="#353535" d="M163,184.1l-2.9,8.2c-0.4,1.1-0.6,2.3-0.6,3.4l0.5,52.5
		c0,5.5,4.5,9.9,10,9.9h0.1c5.5-0.1,9.9-4.6,9.9-10.1l-0.5-50.7l4.7-13.3C177.2,184.6,170.1,184.6,163,184.1z"/>
	<path id="path10" inkscape:connector-curvature="0" fill="#353535" d="M156,72.3c-19,8.8-14.7,23.1-10.5,44.2
		c5.9-13.3,6.1-23.6,6.1-23.8c0.1-5.1,4.2-9.2,9.3-9.2h0.1c5.1,0.1,9.2,4.3,9.2,9.4c0,1.4-0.6,27.7-21.3,53.6
		c0,10.8-1.7,21.6-5,31.9c59.3,11.7,59.7-8.2,59.7-8.2S192.9,55.3,156,72.3L156,72.3z"/>
	<path id="path12" inkscape:connector-curvature="0" fill="#353535" d="M117.1,189c0.2-3.3,0.3-6.4,0.4-9.4H77.7
		c0.1,2.9,0.2,6,0.4,9.4c0.1,2.8-1.1,5.6-3.3,7.3v52.5c0.2,5.7,5,10.2,10.7,10.1c5.5-0.2,9.9-4.6,10.1-10.1v-49.4h4.1v49.4
		c0,5.7,4.6,10.4,10.4,10.4c5.7,0,10.4-4.6,10.4-10.4v-52.5C118.2,194.6,116.9,191.8,117.1,189z"/>
	<path id="path14" inkscape:connector-curvature="0" fill="#353535" d="M62.8,189.8c0.2,3.5,3,6.2,6.5,6.2h0.3
		c3.6-0.2,6.3-3.2,6.2-6.8c-1.2-23.2-0.4-37.1,1-45.4l2.3,0.2c-1.1,6.3-1.8,16.4-1.5,32.7h39.9c0.1-5.1,0.1-9.5,0-13.5l-0.2-0.2
		c-2.4-3.2-2.6-7.6-0.3-10.9c-0.3-3.2-0.6-5.9-1-8l2.3-0.2c0.3,1.8,0.6,3.8,0.8,6.1c4.2-3.2,8-6.8,11.5-10.6
		c-1.5-7.3-3.8-12.3-6.9-15.6c-2-2.2-4.7-3.7-7.7-4.3c-0.6-0.2-1.1-0.2-1.7-0.2H114h-0.5c-8.9,8.8-23.1,8.8-32,0h-0.5h-0.3
		c-0.6,0-1.2,0.1-1.7,0.2c-2.9,0.6-5.6,2.1-7.7,4.3c-3.6,3.7-6,9.8-7.5,18.8C62.1,153.3,61.8,168.8,62.8,189.8z"/>
	<path id="path16" inkscape:connector-curvature="0" fill="#353535" d="M124.7,166.5c-1.7,0-3.4-0.5-4.8-1.3
		c0.1,6.6-0.1,14.5-0.5,23.9c-0.2,3.6,2.6,6.6,6.2,6.8h0.3c3.5,0,6.3-2.7,6.5-6.2c0.5-10.4,0.7-19.4,0.5-27.1
		c-0.8,0.7-1.6,1.3-2.5,2C128.8,165.9,126.8,166.5,124.7,166.5L124.7,166.5z"/>
	<path id="path18" inkscape:connector-curvature="0" fill="#353535" d="M167.9,92.8c0-3.8-3-7-6.9-7.1h-0.1c-3.8,0-7,3.1-7,6.9
		c0,0.3-0.7,33.7-33.5,59c-3.2,2.2-4,6.6-1.8,9.7c2.2,3.2,6.6,4,9.7,1.8c0.2-0.1,0.4-0.3,0.5-0.4C167,133.4,167.9,94.5,167.9,92.8z"
		/>
	<path id="path20" inkscape:connector-curvature="0" fill="#353535" d="M97.6,82.2c-11.3,0-20.5,9.2-20.5,20.5s9.2,20.5,20.5,20.5
		s20.5-9.2,20.5-20.5S108.9,82.2,97.6,82.2L97.6,82.2z"/>
	<path id="path22_1_" inkscape:connector-curvature="0" fill="#353535" d="M127.7,74.3c12.1,2.8,24.2-4.8,27-16.9
		c0.6-2.6,0.7-5.2,0.4-7.9l0.1,0c-1.6-12.3-12.8-21-25.2-19.5s-21,12.8-19.5,25.2c1.1,8.5,6.9,15.7,15,18.4"/>
</g>
</svg>
