<?xml version="1.0" encoding="UTF-8" standalone="no"?>
<svg
   xmlns:dc="http://purl.org/dc/elements/1.1/"
   xmlns:cc="http://creativecommons.org/ns#"
   xmlns:rdf="http://www.w3.org/1999/02/22-rdf-syntax-ns#"
   xmlns:svg="http://www.w3.org/2000/svg"
   xmlns="http://www.w3.org/2000/svg"
   xmlns:sodipodi="http://sodipodi.sourceforge.net/DTD/sodipodi-0.dtd"
   xmlns:inkscape="http://www.inkscape.org/namespaces/inkscape"
   viewBox="0 0 80.850882 80.840881"
   version="1.1"
   id="svg13"
   sodipodi:docname="plane.svg"
   width="80.850883"
   height="80.840881"
   inkscape:version="0.92.2 5c3e80d, 2017-08-06">
  <metadata
     id="metadata17">
    <rdf:RDF>
      <cc:Work
         rdf:about="">
        <dc:format>image/svg+xml</dc:format>
        <dc:type
           rdf:resource="http://purl.org/dc/dcmitype/StillImage" />
        <dc:title>Plane Icon</dc:title>
      </cc:Work>
    </rdf:RDF>
  </metadata>
  <sodipodi:namedview
     pagecolor="#ffffff"
     bordercolor="#666666"
     borderopacity="1"
     objecttolerance="10"
     gridtolerance="10"
     guidetolerance="10"
     inkscape:pageopacity="0"
     inkscape:pageshadow="2"
     inkscape:window-width="691"
     inkscape:window-height="480"
     id="namedview15"
     showgrid="false"
     inkscape:zoom="1.2116226"
     inkscape:cx="67.156545"
     inkscape:cy="41.69"
     inkscape:window-x="0"
     inkscape:window-y="0"
     inkscape:window-maximized="0"
     inkscape:current-layer="svg13" />
  <defs
     id="defs4">
    <style
       id="style2">.cls-1{fill:#353535;}</style>
  </defs>
  <title
     id="title6">Plane Icon</title>
  <g
     id="Layer_8_copy"
     data-name="Layer 8 copy"
     transform="translate(-94.61,-26.099115)">
    <g
       id="Layer_15"
       data-name="Layer 15">
      <g
         id="Element">
        <path
           class="cls-1"
           d="m 174.56,27 c 0,0 -3.67,-3.35 -10.84,2.87 0,0 -8.94,7.35 -19.3,16.9 l -10.77,-1.83 a 11.45,11.45 0 0 0 2.86,-4.37 7,7 0 0 1 -1.5,-1.13 6.71,6.71 0 0 1 -1.13,-1.5 11.62,11.62 0 0 0 -4.45,2.94 13.45,13.45 0 0 0 -2.28,3 l -8.58,-1.46 a 11,11 0 0 0 2.37,-3.84 6.77,6.77 0 0 1 -1.51,-1.13 6.49,6.49 0 0 1 -1.13,-1.5 11.62,11.62 0 0 0 -4.45,2.94 14.37,14.37 0 0 0 -1.95,2.4 l -8.79,-1.49 a 6.37,6.37 0 0 0 -5.58,1.11 c -2.39,2.08 -3.67,3.35 -0.8,5.9 l 31.55,15.85 a 264.51,264.51 0 0 0 -19,22.59 l -13.74,-0.93 -0.93,3.16 11.64,7.82 7.82,11.64 3.16,-0.93 -0.93,-13.74 a 264.51,264.51 0 0 0 22.59,-19 l 15.85,31.55 c 2.55,2.87 3.82,1.59 5.9,-0.8 a 6.37,6.37 0 0 0 1.11,-5.58 l -1.49,-8.79 a 13.89,13.89 0 0 0 2.4,-2 11.62,11.62 0 0 0 2.94,-4.45 6.71,6.71 0 0 1 -1.5,-1.13 7,7 0 0 1 -1.13,-1.5 11,11 0 0 0 -3.79,2.43 l -1.45,-8.58 a 13.61,13.61 0 0 0 3,-2.28 11.67,11.67 0 0 0 2.94,-4.45 A 6.68,6.68 0 0 1 161,65 11.65,11.65 0 0 0 156.63,67.86 L 154.8,57.14 c 9.55,-10.37 16.89,-19.3 16.89,-19.3 6.22,-7.18 2.87,-10.84 2.87,-10.84 z"
           id="path8"
           inkscape:connector-curvature="0"
           style="fill:#353535" />
      </g>
    </g>
  </g>
</svg>
