<svg width="20" height="60" viewBox="0 0 20 60">
			<g transform="translate(8.684382438659668, 30.141508102416992) " fill="white">
				<path d="M9.093-8.107C8.876-9.018,8.704-9.946,8.56-10.871c-0.064-0.415-0.306-0.767-0.155-1.195
		c0.174-0.488,0.07-0.81-0.169-1.267c-0.242-0.468-0.065-0.964-0.519-1.408c-0.589-0.572-0.135-0.931-0.217-1.604
		c-0.02-0.157-0.065-0.555-0.276-0.6c-0.063-0.583-0.11-1.073-0.121-1.665c-0.022-0.882-0.458-1.69-0.59-2.563
		c-0.279-1.819-0.475-3.525-0.846-5.306c-0.18-0.876-0.769-1.678-1.468-2.218c-0.795-0.613-1.359-0.697-2.276-0.932
		c-1.812-0.462-3.627,1.986-3.927,3.475c-0.362,1.803-0.354,3.829-1.214,5.546c-0.393,0.784-0.924,1.279-1.015,2.197
		c-0.062,0.637,0.14,1.462-0.726,0.686c-0.134,0.652,0.595,0.576,0.865,0.799c-0.16,0.251-0.457,0.184-0.701,0.207
		c-0.144,0.208,0.562,0.082,0.565,0.082c-0.074,0.235-0.631,0.405-0.823,0.508c-0.72,0.394-0.767,0.566-1.001,1.289
		c-0.181,0.535-0.634,0.85-0.712,1.481c-0.081,0.678,0.018,1.357-0.152,2.03c-0.306,1.208-2.526,4.867-0.429,5.401
		c0.992,0.237,0.612,1.993,0.67,2.76c0.106,1.4,1.465,2.847,1.258,4.187c-0.194,1.263-0.443,2.524-0.604,3.799
		c-0.078,0.624-0.081,1.26-0.186,1.882c-0.106,0.627,0.329,0.468,0.746,0.597c1.186,0.377,1.172,0.728,1.347,1.866
		c0.169,1.097,0.441,2.401,0.301,3.511c-0.188,1.488-0.667,2.859-0.553,4.406c0.1,1.359,0.202,3.288,0.786,4.531
		c0.507,1.095,0.753,2.598,0.451,3.768c-0.165,0.647,0.418,1.22,0.21,1.873c-0.15,0.477-0.435,0.935-0.754,1.312
		c-0.251,0.295-0.767,1.193-0.2,1.434c0.226,0.095,0.565,0.499,0.798,0.352c0.279-0.18,0.521,0.246,0.858,0.064
		c-0.117,0.063,1.457,0.413,0.906-0.084c0.245-0.219,0.868,0.408,0.921-0.173c0.363-0.004,0.622,0.834,1.152,0.207
		c0.115,0.315,0.851,0.219,0.772-0.038c0.459,0.478,0.633-0.188,0.973-0.16c0.514,0.044,0.273-0.197,0.478-0.484
		c0.587-0.82-0.914-2.184-0.838-3.125c0.083-0.999-0.027-1.856,0.255-2.81c0.264-0.896,0.518-1.796,0.777-2.694
		c0.42-1.459,0.998-2.975,0.691-4.515c-0.268-1.341-0.283-3.188-0.162-4.552c0.098-1.23,1.04-2.403,0.975-3.635
		c0.211,0.333,3.535-1.223,3.746-1.315C7.869,5.509,7.99,3.988,7.521,2.439C7.216,1.45,7.269,0.414,6.934-0.586
		C7.461-1.603,7.888-2.85,7.888-4.007c0-0.316,0.005-0.58,0.146-0.869c0.259-0.533,0.594-0.291,0.606-1.097
		c0.006-0.302,0.334-0.51,0.324-0.697C8.941-7.185,9.231-7.514,9.093-8.107C9.025-8.388,9.16-7.816,9.093-8.107z M-3.91-17.622
		c-0.306-0.117-0.032-1.101,0.088-1.315c0.14-0.253,0.799-0.803,0.827-0.922c-0.164,0.05-0.007,0.024,0,0.035
		C-3.146-19.651-3.988-17.923-3.91-17.622C-3.929-17.629-3.976-17.875-3.91-17.622z M-3.414-17.582
		c0.059-0.225,0.213-0.316,0.421-0.275C-2.839-17.643-3.33-17.593-3.414-17.582C-3.392-17.662-3.292-17.598-3.414-17.582z
		 M-3.312-18.201c0.083-0.146,0.344-0.25,0.318-0.439c0,0.14,0.016,0.036,0.043-0.012c-0.021,0.14-0.181,0.353,0.027,0.462
		C-3.053-18.194-3.183-18.197-3.312-18.201C-3.241-18.327-3.187-18.189-3.312-18.201z M-0.021,10.014
		c-0.036-0.416-0.09-2.054,0.136-2.132c-0.313,0,0.192-0.115,0.242-0.132c-0.371,0.346,0.123-0.138,0.074,0.596
		C0.403,8.772,0.42,9.199,0.413,9.626c-0.014,0.873-0.315,1.687-0.39,2.552C-0.334,11.826,0.021,10.489-0.021,10.014
		C-0.05,9.682,0.009,10.368-0.021,10.014z M0.689,17.464c-0.016,1.076-0.089,2.141-0.059,3.222c0.03,1.075,0.158,2.424-0.479,3.353
		c-1.107,1.61-0.011,3.357-0.518,5.014c-0.605-0.871-0.224-2.594-0.243-3.638c-0.01-0.544-0.402-0.898-0.569-1.326
		c-0.285-0.733,0.07-1.499,0.07-2.231c0-0.934,0.2-1.815,0.124-2.762c-0.066-0.827-0.028-1.687,0.004-2.517
		c0.029-0.745,0.487-1.36,0.721-2.051c0.139-0.412,0.094-1.034,0.238-1.333c-0.03,0.028,0.267,1.2,0.386,1.458
		C0.784,15.542,0.711,16.506,0.689,17.464C0.684,17.809,0.697,17.11,0.689,17.464z M4.407-17.528
		c-0.115-0.104-0.514-0.057-0.306-0.348c-0.084,0.119,0.271-0.322,0.188-0.317C4.283-17.932,4.434-17.813,4.407-17.528
		C4.311-17.615,4.43-17.775,4.407-17.528z M7.168-16.146c-0.254-0.173-0.369-0.371-0.284-0.707
		C7.095-16.695,7.196-16.444,7.168-16.146C6.96-16.288,7.182-16.291,7.168-16.146z" style="display: block;" fill="white"></path>
			</g>
		</svg>