<svg xmlns="http://www.w3.org/2000/svg" viewBox="0 0 34 34"><path d="M14.079 5.029l-.203-.002H5.882a.989.989 0 0 0-.988.988v8.13l.002.101c.002.23.071.415.21.566.136.147.405.222.797.222a6.622 6.622 0 0 0 .966-.071V8.429l.341.338 6.459 6.392a7.31 7.31 0 0 0 .727-.64c.274-.276.419-.524.418-.716a.701.701 0 0 0-.222-.512L8.581 7.344l-.344-.342h6.557a6.2 6.2 0 0 0 .071-.966c0-.392-.075-.661-.222-.797a.807.807 0 0 0-.564-.21zM19.68 28.99l.203.002h7.994a.989.989 0 0 0 .988-.988v-8.13l-.002-.101a.808.808 0 0 0-.21-.566c-.136-.147-.405-.222-.797-.222a6.622 6.622 0 0 0-.966.071V25.59l-.341-.338-6.459-6.392a7.31 7.31 0 0 0-.727.64c-.274.276-.419.524-.418.716a.701.701 0 0 0 .222.512l6.012 5.948.345.342h-6.557a6.2 6.2 0 0 0-.071.966c0 .392.075.661.222.797a.798.798 0 0 0 .562.209z"/></svg>