<svg xmlns="http://www.w3.org/2000/svg" viewBox="0 0 34 34"><path d="M28.083 19.029l-.203-.002h-7.994a.989.989 0 0 0-.988.988v8.13l.002.101c.002.23.071.415.21.566.136.147.405.222.797.222a6.622 6.622 0 0 0 .966-.071V22.429l.341.338 6.459 6.392a7.31 7.31 0 0 0 .727-.64c.274-.276.419-.524.418-.716a.701.701 0 0 0-.222-.512l-6.012-5.948-.345-.342h6.557a6.2 6.2 0 0 0 .071-.966c0-.392-.075-.661-.222-.797a.8.8 0 0 0-.562-.209zM5.685 14.99l.203.002h7.994a.989.989 0 0 0 .988-.988v-8.13l-.002-.101a.808.808 0 0 0-.21-.566c-.138-.147-.406-.221-.798-.221a6.622 6.622 0 0 0-.966.071V11.591l-.341-.338L6.094 4.86a7.063 7.063 0 0 0-.727.64c-.275.276-.419.524-.419.716a.7.7 0 0 0 .222.511l6.012 5.948.345.342H4.97a6.2 6.2 0 0 0-.07.967c0 .392.075.661.222.797a.8.8 0 0 0 .563.209z"/></svg>