<svg xmlns="http://www.w3.org/2000/svg" viewBox="0 0 34 34"><path d="M20.452 24.875c-.286 0-.567-.014-.843-.041a4.64 4.64 0 0 1-.63-.093V11.153c0-.357.111-.656.335-.898.223-.241.62-.361 1.192-.361.285 0 .567.014.844.04.276.027.486.059.629.094v13.587c0 .358-.112.657-.335.898-.223.24-.62.362-1.192.362zm-7 0c-.286 0-.567-.014-.843-.041a4.64 4.64 0 0 1-.63-.093V11.153c0-.357.111-.656.335-.898.223-.241.62-.361 1.192-.361.285 0 .566.014.844.04.276.027.486.059.629.094v13.587c0 .358-.112.657-.335.898-.223.24-.62.362-1.192.362z"/></svg>