<svg xmlns="http://www.w3.org/2000/svg" viewBox="0 0 34 34"><path d="M15.312 10.785l-2.264 2.255H8.979c-.828 0-1.5.172-1.5 1V19.541a1.5 1.5 0 0 0 1.5 1.5h4.068l2.264 2.255c.851.848 2.093 1.852 3.168.781V10.005c-1.075-1.072-2.317-.067-3.167.78zM21.997 11.881l.012-.015-.894-.523-.136.141a1.81 1.81 0 0 0-.156.192 3.235 3.235 0 0 0-.167.257c-.134.229-.173.426-.119.603a.66.66 0 0 0 .123.229l-.022.037.219.127c1.097.634 1.881 1.658 2.209 2.886s.16 2.507-.475 3.604a4.734 4.734 0 0 1-1.719 1.723.686.686 0 0 0-.32.388c-.055.176-.018.373.113.603.051.09.106.177.165.26.063.089.115.154.156.195l.135.139.511-.291a6.247 6.247 0 0 0 2.258-2.265 6.215 6.215 0 0 0-1.893-8.29z"/></svg>