<svg id="Layer_1" xmlns="http://www.w3.org/2000/svg" viewBox="0 0 433.8 80"><style>.st0{fill:url(#SVGID_1_)}.st1{fill:url(#SVGID_2_)}.st2{fill:#fff}.st3{opacity:.4}</style><linearGradient id="SVGID_1_" gradientUnits="userSpaceOnUse" x1="1438.381" y1="-.696" x2="1438.381" y2="80.646" gradientTransform="matrix(-1 0 0 1 1512.32 0)"><stop offset="0" stop-color="#0e1a4b"/><stop offset=".036" stop-color="#152a68"/><stop offset=".895" stop-color="#152a68"/><stop offset="1" stop-color="#0e1a4b"/></linearGradient><path class="st0" d="M8.5 80C2.2 80 0 76.3 0 70.1V9.9C0 3.7 2.2 0 8.5 0h139.3v80H8.5z"/><linearGradient id="SVGID_2_" gradientUnits="userSpaceOnUse" x1="1221.463" y1="80.696" x2="1221.463" y2="-.646" gradientTransform="matrix(-1 0 0 1 1512.32 0)"><stop offset="0" stop-color="#5a2329"/><stop offset=".074" stop-color="#cb0429"/><stop offset=".916" stop-color="#cb0429"/><stop offset="1" stop-color="#e6313e"/></linearGradient><path class="st1" d="M147.9 80V0h277.4c6.3 0 8.5 3.7 8.5 9.9v60.2c0 6.2-2.2 9.9-8.5 9.9H147.9z"/><path class="st2" d="M95.6 73.9c.9.5 2.9 1.1 5.3 1.1 4.2.1 6.4-1.5 8.1-5.2L131.3 20c-.9-.5-3-1-4.6-1.1-2.9-.1-6.7.5-9.2 6.4l-7.2 17.1-14.2-23.2c-.9-.3-3.1-.7-4.8-.7-5 0-7.8 1.8-10.7 5L66.8 38.6l11.1 17.5c2.1 3.2 4.8 4.8 9.1 4.8 2.9 0 5.3-.7 6.4-1.2L80.1 39.6l9.5-10L105.1 54l-9.5 19.9zM66.3 55c0 3.7-1.4 5.8-8.6 5.8-1 0-1.8-.1-2.6-.2V11.9c0-3.7 1.3-7.6 8.5-7.6.9 0 1.8.1 2.7.3V55zm-14.8-7.3c0 6.8-4.5 11.9-13.6 12.8-6.6.7-16.1-.1-20.7-.6-.2-.7-.3-1.7-.3-2.4 0-6 3.2-7.4 6.3-7.4 3.2 0 8.1.5 11.8.5 4.1 0 5.3-1.4 5.3-2.7 0-1.7-1.6-2.4-4.8-3l-8.6-1.7c-7.2-1.4-11-6.3-11-11.6 0-6.4 4.5-11.8 13.5-12.8 6.7-.7 14.9.1 19.5.6.2.8.3 1.5.3 2.3 0 6-3.2 7.3-6.2 7.3-2.3 0-6-.4-10.1-.4-4.2 0-6 1.2-6 2.6 0 1.5 1.7 2.1 4.3 2.6l8.2 1.5c8.5 1.6 12.1 6.4 12.1 12.4zM211.6 49.3c0-8.3-5.4-12.3-14-14.2l-15.1-3.4c-2.7-.6-5-1.4-5-4.2 0-3 2.4-4.1 8.7-4.1 7.5 0 9.2.4 16 .4 3.1 0 6.3-1.4 6.3-7.6 0-.8-.1-1.6-.2-2.4-4.6-.4-12.7-.8-22.8-.8-15.1 0-20.9 6.5-20.9 14.9 0 7.8 4.9 12.2 13.7 14.2l15.1 3.5c3.5.8 5.4 2.4 5.4 4.6 0 3-2.7 4.1-9 4.1-7.5 0-10.9-.5-17.7-.5-3.1 0-6.3 1.4-6.3 7.6 0 .8.1 1.6.2 2.4 4.6.5 14.4 1 24.4 1 15.1-.1 21.2-6.5 21.2-15.5zM335.9 36V23.2h11.9c5.1 0 9.1.8 9.1 6.1 0 4.5-3 6.6-9.1 6.6h-11.9zm-.1 10h6.3l12.2 14.5c2.3 2.8 4.5 4.3 9.7 4.3 3.5 0 5.9-.5 7.8-1.4L356 45.1c8.9-1.9 13.4-7.7 13.4-16.2 0-10.5-6.4-15.7-19.3-15.7l-18.5-.1c-6 .2-8 2.3-8 7.8V64c.9.2 2 .2 3 .2 7.6 0 9.4-2.2 9.4-6.2l-.2-12zM229.4 37.3v-14h12.4c6.2 0 9.2 2.3 9.2 6.8 0 4.8-3 7.2-9.2 7.2h-12.4zM217 64c.9.2 2 .2 3 .2 7.6 0 9.4-2.2 9.4-6.2V47.6h12.9c14.1 0 21.1-6.1 21.1-17.5 0-11-7-16.9-20.2-16.9H225c-6.1 0-8 2.4-8 7.8v43zM304.6 37.9c0 5.9-1 10-3 12.4-1.9 2.5-5 3.7-9.3 3.7-4.3-.1-7.5-1.3-9.4-3.7-2-2.4-3-6.5-3-12.4s1.1-10 3-12.3c2-2.4 5.1-3.6 9.4-3.6s7.3 1.1 9.3 3.6c2 2.4 3 6.5 3 12.3zm-12.2 26.2c8 0 14.2-1.9 18.5-5.8 4.3-3.8 6.5-10.7 6.5-20.4-.1-9.6-2.3-16.3-6.8-20.2-4.5-3.9-10.6-5.9-18.3-5.9-7.7 0-13.8 2-18.3 5.9-4.5 4-6.7 10.7-6.8 20.2 0 9.7 2.2 16.6 6.5 20.4 4.5 3.9 10.7 5.8 18.7 5.8zM402.1 23.6h10c3.3 0 6.6-1.5 6.6-8 0-.8-.1-1.7-.2-2.4h-38.7c-3.3 0-6.6 1.5-6.6 8 0 .8.1 1.7.2 2.4h16.4V64c.9.2 2 .2 3 .2 7.6 0 9.4-2.2 9.4-6.2V23.6z"/><g class="st3"><path class="st2" d="M426.4 61.6c5.4 5.4 6.2 10.4 6.4 11.5.5 0 .7-2.4.7-5.9V10.4c0-6.6-2.1-8.8-7.7-8.8-1.9 0-3.8 1-6.3 1H14.7c-2.5 0-4.4-1-6.3-1C2.8 1.6.7 3.8.7 10.4v56.8c0 3.5.2 5.9.7 5.9.2-1.1.4-6.6 6.4-11.5 47.8-37 367-48.3 418.6 0z"/></g></svg>