<?xml version="1.0" encoding="UTF-8"?>
<svg width="228px" height="70px" viewBox="0 0 228 70" version="1.1" xmlns="http://www.w3.org/2000/svg" xmlns:xlink="http://www.w3.org/1999/xlink">
    <!-- Generator: Sketch 47 (45396) - http://www.bohemiancoding.com/sketch -->
    <title>L18-LOGO White</title>
    <desc>Created with Sketch.</desc>
    <defs></defs>
    <g id="Page-1" stroke="none" stroke-width="1" fill="none" fill-rule="evenodd">
        <g id="L18-LOGO-White" transform="translate(0.000000, -2.000000)">
            <rect id="Rectangle-2" fill="#063E7B" x="0" y="2" width="145" height="70"></rect>
            <rect id="Rectangle-2-Copy" stroke="#063E7B" x="83.5" y="2.5" width="144" height="69"></rect>
            <path d="M22.92,59 C21.2919919,59 20.2470023,58.6810032 19.785,58.043 C19.3229977,57.4049968 19.092,56.5800051 19.092,55.568 L19.092,19.07 C19.092,18.1899956 19.3669973,17.453003 19.917,16.859 C20.4670027,16.264997 21.445993,15.968 22.854,15.968 C23.5580035,15.968 24.2509966,16.0009997 24.933,16.067 C25.6150034,16.1330003 26.1319982,16.2099996 26.484,16.298 L26.484,52.268 L46.878,52.268 C46.9660004,52.7520024 47.0429997,53.2469975 47.109,53.753 C47.1750003,54.2590025 47.208,54.7759974 47.208,55.304 C47.208,56.712007 46.911003,57.6799974 46.317,58.208 C45.722997,58.7360026 44.8980053,59 43.842,59 L22.92,59 Z M55.26,59.396 C54.5999967,59.396 53.9400033,59.3630003 53.28,59.297 C52.6199967,59.2309997 52.1140018,59.1540004 51.762,59.066 L51.762,29.894 C51.762,29.0139956 52.0259974,28.2880029 52.554,27.716 C53.0820026,27.1439971 54.0279932,26.858 55.392,26.858 C56.0960035,26.858 56.7779967,26.8909997 57.438,26.957 C58.0980033,27.0230003 58.6039982,27.0999996 58.956,27.188 L58.956,56.36 C58.956,57.2400044 58.6920026,57.9659971 58.164,58.538 C57.6359974,59.1100029 56.668007,59.396 55.26,59.396 Z M55.392,21.116 C54.2919945,21.116 53.346004,20.720004 52.554,19.928 C51.761996,19.135996 51.366,18.1900055 51.366,17.09 C51.366,15.9459943 51.761996,14.978004 52.554,14.186 C53.346004,13.393996 54.2919945,12.998 55.392,12.998 C56.5360057,12.998 57.503996,13.393996 58.296,14.186 C59.088004,14.978004 59.484,15.9459943 59.484,17.09 C59.484,18.1900055 59.088004,19.135996 58.296,19.928 C57.503996,20.720004 56.5360057,21.116 55.392,21.116 Z M70.176,59.396 C69.5159967,59.396 68.8450034,59.3630003 68.163,59.297 C67.4809966,59.2309997 66.9640018,59.1540004 66.612,59.066 L66.612,27.386 C67.0960024,27.2539993 67.5909975,27.1330005 68.097,27.023 C68.6030025,26.9129995 69.1639969,26.858 69.78,26.858 C71.1440068,26.858 72.122997,27.2209964 72.717,27.947 C73.311003,28.6730036 73.608,29.6519938 73.608,30.884 L73.674,31.808 C74.7740055,30.2679923 76.2149911,29.0030049 77.997,28.013 C79.7790089,27.022995 81.7919888,26.528 84.036,26.528 C87.6000178,26.528 90.4159897,27.6939883 92.484,30.026 C94.5520103,32.3580117 95.586,35.7019782 95.586,40.058 L95.586,56.36 C95.586,57.2400044 95.3330025,57.9659971 94.827,58.538 C94.3209975,59.1100029 93.364007,59.396 91.956,59.396 C91.2959967,59.396 90.6250034,59.3630003 89.943,59.297 C89.2609966,59.2309997 88.7440018,59.1540004 88.392,59.066 L88.392,40.85 C88.392,38.0339859 87.7760062,35.9660066 86.544,34.646 C85.3119938,33.3259934 83.5740112,32.666 81.33,32.666 C79.921993,32.666 78.5030072,33.061996 77.073,33.854 C75.6429928,34.646004 74.5540037,35.7019934 73.806,37.022 L73.806,56.36 C73.806,57.2400044 73.5530025,57.9659971 73.047,58.538 C72.5409975,59.1100029 71.584007,59.396 70.176,59.396 Z M117.63,59.726 C114.945987,59.726 112.548011,59.3080042 110.436,58.472 C108.323989,57.6359958 106.542007,56.4700075 105.09,54.974 C103.637993,53.4779925 102.527004,51.7070102 101.757,49.661 C100.986996,47.6149898 100.602,45.4040119 100.602,43.028 C100.602,40.6519881 100.997996,38.46301 101.79,36.461 C102.582004,34.45899 103.670993,32.7210074 105.057,31.247 C106.443007,29.7729926 108.081991,28.6180042 109.974,27.782 C111.866009,26.9459958 113.911989,26.528 116.112,26.528 C118.576012,26.528 120.753991,26.9789955 122.646,27.881 C124.538009,28.7830045 126.110994,29.9819925 127.365,31.478 C128.619006,32.9740075 129.564997,34.6679905 130.203,36.56 C130.841003,38.4520095 131.16,40.3879901 131.16,42.368 C131.16,43.4680055 131.050001,44.5679945 130.83,45.668 L107.928,45.668 C108.236002,48.2200128 109.236992,50.1669933 110.931,51.509 C112.625008,52.8510067 114.857986,53.522 117.63,53.522 C118.818006,53.522 119.851996,53.4340009 120.732,53.258 C121.612004,53.0819991 122.403996,52.8730012 123.108,52.631 C123.812004,52.3889988 124.449997,52.1800009 125.022,52.004 C125.594003,51.8279991 126.165997,51.74 126.738,51.74 C127.530004,51.74 128.178997,52.0919965 128.685,52.796 C129.191003,53.5000035 129.444,54.4459941 129.444,55.634 C129.444,55.8540011 129.433,56.0959987 129.411,56.36 C129.389,56.6240013 129.356,56.8879987 129.312,57.152 C127.991993,57.7680031 126.34201,58.3509972 124.362,58.901 C122.38199,59.4510028 120.138013,59.726 117.63,59.726 Z M124.428,40.52 C124.207999,38.1439881 123.405007,36.153008 122.019,34.547 C120.632993,32.940992 118.664013,32.138 116.112,32.138 C113.691988,32.138 111.767007,32.9079923 110.337,34.448 C108.906993,35.9880077 108.082001,38.0119875 107.862,40.52 L124.428,40.52 Z" id="Line" fill="white"></path>
            <path d="M170.048,59.396 C169.343996,59.396 168.640004,59.3630003 167.936,59.297 C167.231996,59.2309997 166.704002,59.1540004 166.352,59.066 L166.352,24.35 L158.234,28.178 C157.617997,27.6939976 157.134002,27.1000035 156.782,26.396 C156.429998,25.6919965 156.254,25.0100033 156.254,24.35 C156.254,22.8099923 157.023992,21.6000044 158.564,20.72 L168.068,16.1 L173.81,16.1 L173.81,56.294 C173.81,57.1740044 173.535003,57.910997 172.985,58.505 C172.434997,59.099003 171.456007,59.396 170.048,59.396 Z M199.286,59.792 C196.557986,59.792 194.17101,59.4730032 192.125,58.835 C190.07899,58.1969968 188.363007,57.3280055 186.977,56.228 C185.590993,55.1279945 184.546004,53.8190076 183.842,52.301 C183.137996,50.7829924 182.786,49.1440088 182.786,47.384 C182.786,44.6119861 183.511993,42.3130091 184.964,40.487 C186.416007,38.6609909 188.395987,37.352004 190.904,36.56 C190.023996,36.2079982 189.188004,35.7460029 188.396,35.174 C187.603996,34.6019971 186.900003,33.9090041 186.284,33.095 C185.667997,32.2809959 185.173002,31.3570052 184.799,30.323 C184.424998,29.2889948 184.238,28.1560062 184.238,26.924 C184.238,25.4279925 184.534997,23.9870069 185.129,22.601 C185.723003,21.2149931 186.635994,19.9830054 187.868,18.905 C189.100006,17.8269946 190.661991,16.9580033 192.554,16.298 C194.446009,15.6379967 196.689987,15.308 199.286,15.308 C201.882013,15.308 204.125991,15.6379967 206.018,16.298 C207.910009,16.9580033 209.460994,17.8269946 210.671,18.905 C211.881006,19.9830054 212.782997,21.2149931 213.377,22.601 C213.971003,23.9870069 214.268,25.4279925 214.268,26.924 C214.268,28.2000064 214.081002,29.3439949 213.707,30.356 C213.332998,31.3680051 212.838003,32.269996 212.222,33.062 C211.605997,33.854004 210.891004,34.546997 210.077,35.141 C209.262996,35.735003 208.438004,36.2079982 207.602,36.56 C210.110013,37.352004 212.089993,38.6719908 213.542,40.52 C214.994007,42.3680092 215.72,44.6339866 215.72,47.318 C215.72,49.122009 215.368004,50.7829924 214.664,52.301 C213.959996,53.8190076 212.915007,55.1279945 211.529,56.228 C210.142993,57.3280055 208.42701,58.1969968 206.381,58.835 C204.33499,59.4730032 201.970013,59.792 199.286,59.792 Z M199.286,53.588 C200.606007,53.588 201.804995,53.4230016 202.883,53.093 C203.961005,52.7629983 204.895996,52.2900031 205.688,51.674 C206.480004,51.0579969 207.095998,50.3430041 207.536,49.529 C207.976002,48.7149959 208.196,47.8020051 208.196,46.79 C208.196,45.8659954 208.020002,44.9860042 207.668,44.15 C207.315998,43.3139958 206.777004,42.5660033 206.051,41.906 C205.324996,41.2459967 204.401006,40.718002 203.279,40.322 C202.156994,39.925998 200.826008,39.728 199.286,39.728 C197.701992,39.728 196.338006,39.925998 195.194,40.322 C194.049994,40.718002 193.115004,41.2459967 192.389,41.906 C191.662996,42.5660033 191.135002,43.3139958 190.805,44.15 C190.474998,44.9860042 190.31,45.8659954 190.31,46.79 C190.31,48.7700099 191.112992,50.3979936 192.719,51.674 C194.325008,52.9500064 196.513986,53.588 199.286,53.588 Z M199.286,34.052 C201.662012,34.052 203.542993,33.4690058 204.929,32.303 C206.315007,31.1369942 207.008,29.6300092 207.008,27.782 C207.008,25.9339908 206.348007,24.4600055 205.028,23.36 C203.707993,22.2599945 201.794013,21.71 199.286,21.71 C196.777987,21.71 194.853007,22.2599945 193.511,23.36 C192.168993,24.4600055 191.498,25.9339908 191.498,27.782 C191.498,29.6300092 192.201993,31.1369942 193.61,32.303 C195.018007,33.4690058 196.909988,34.052 199.286,34.052 Z" id="18" fill="#063E7B"></path>
        </g>
    </g>
</svg>