<svg width="1166" height="2100" viewBox="0 0 1166 2100" xmlns="http://www.w3.org/2000/svg" xmlns:xlink="http://www.w3.org/1999/xlink"><title>map_russia</title><defs><path id="a" d="M0 0h1166v2100H0z"/></defs><g fill="none" fill-rule="evenodd"><mask id="b" fill="#fff"><use xlink:href="#a"/></mask><g mask="url(#b)"><path fill="#1F9CD8" fill-rule="nonzero" d="M0 0h1166v2100H0z"/><path d="M0 0h1166v2100H0z"/><path d="M459.8-11l1.3 1.6 7.7 2.9 5.8 1.8 8.7 4.6 1.5.2 4.3-4 7.3-2.8 2.3-3.8-.2-3.3-1.9-5.9-.3-3.7h-44.7l4.7 4.6z"/><g><g fill="#0877B3" fill-rule="nonzero"><path d="M845.4 1283.9l-3.2 1.1-1.2 1 1.8.6 1.8.2.6-.4 2.3.3v-.9l-.8-.9zM817.9 1281.7v.4l.3 1.3.4-.2.9-1.1-.6-1zM857.4 1278l-1 .8.5.7 1.6.4h.6l.2-.4-.9-.7-.6-.8zM834.4 1281.9l-3.2 1.2 1.5.9 1.7-.1 1.1-.5.5-.7.8-1.5-.7-1-.9 1.2zM102.7 169.7l1.2-.4.6.4.9-.1 1.4-2.9-.4-1-1.3-.5-.3-.9-1.8-1.7-1.2-.3-.3.4h-.6l-1-.3-1.3-2.2-1.4.7-.8 1.6.6 1 .9.6.4.8-.1 1.4-.5 2.2-1.3.3-.2-3.2-.9.1-1.1.7-.3 1.5 1.6 5.9 1.2.8 5.1-.5v-2.6l.2-1.3zM91.2 167.4l-.7 2.6.4 1.8.9.4.5-1.2.6-.3.9.2-.1-1-.8-2.6zM110.5 175.5l-.7.9.3.4 1.7-.1.8.9 1.8-.2.1-1-.9-1.3-1.7-.2zM773 1245.9l.7.6.7-1.8.2-2.9-.1-3-1.2-1.8.6-1.1-.4-.1-2.1.4-.4 1 .8 3.2-.5 2.2zM419.3 996.8l2-1.8-3.2.9-3 1.6-1.8.6-2.8 2-10.1 3.2-3.2.5-3.4-.2-4-.4-4-.9-.3 3-1.1 2.6-2.3.6-1.4-.3-1.3-.3-2.1.7-1.8 1.8-1.8 1-2-.8.3 3.4 2.2 4.7.7 1.3 1.3.6 4.1 1.5 1.3.1 2.5-.4 1.1.7.6 1.6 1.4.1.4-.8v-.9l.8-1.1 1.2-.5 1.3-.1 2.7-.5 2.6-.9 2.2-1.5 4.1-4.3 1.3-.1 1.4.2 2.5-.2 2.5-.4-.6-1.5-.4-.6-1.6-2-.6-1.6.8-2.5zM148.7 225.8l3.2.1 2.2 1.4 1.5 4.6-.1 1.8 1.5.9 2.6-.8 2.4-4.7.5 1 1.1.8 1.8-2.1 1.9-.3-.6-3.6-1.6-3.1-4-1-.3-.7-.3-1.8-1.1-.6-1.4.3-1.8 2.3-.9 2.2-9 1.3zM144.8 263.7l-.2 1.3.4 1.3 1.8-.2 1.6-1.2 1.7-3.6.9-4.5 2.3-2.3 2.7-.8 5.2.2.5-1.3 2.9-2.1 2-2.2 1.3-.3 1-1.1 1-1.6 4.3-.6-.7-1.4-7.2-5.1-3.2-.7-1.4.7-1.5.3-1.5-1-1.6-.2-1.6.9-3.2 1-1.4 3.1-1.3-.6-.8.3-1.9 1.5-1.8-1.3-1.7-.2-1.4.7 2.7 4.7-.4 1.6-.9 1.4-.7.4-.8.1.6 1.7 3.3 2 1.6 1.8 1.8.7-.8 1.6zM174.9 239.4l-.5-3-3.7-1.3-1.2.8-1 2 4.3 3 1.8-.4zM541.6 1484.3l-1.7-.9.6 1.9 2.7.4 2.2-.1 2.4.5 2-.1.2-1.1-3.4-1.7-.4.9-.5.4-.6.1-.9-1.2-.2-2.3-.8-1-1.2-.8-1.9-.3 1 1.4-.5.5-.7.4-.2 1 1.7.2 1.2 1.3-.1.2zM542.7 1474.6l-.6-.5-.2.5-.9.9.3.4 2.2.9zM138.6 170.6l-.2 2.5.8.4 2.2-1.5.7-2.7-2.2.1zM141.1 161.3l2.3 2.2 1.6-.2-.4-.8-1.6-1.7 1-.4-1-1.6-1.7-1.4-.2.8.6 1.7-.9.5zM129 149.9l-1 .8-.2.7.7 3.5 1.2 2 1.5-.3 1.5.2.3-2.1-3.3-2.9zM134.2 171.6l-.4 1 1.2 1.3 1.9-.5.4-1.4-.3-1.3-1.4-.1zM128.3 26.4h-3.4l1.5 3.8 2.3 2.4 1.2-.6.2-.8 1.1-1.3.2.4.8.1.2-2.4-1.3-.8-1.7 1.7-1.3.2-.2-.9.1-.9zM154.2 164.8l-1.3-2.3-1.2.3-2.8-1-1.1.6-.3 1.9-.7 1.2 1.4 1 1 1.2.5 1.8 1.1 1.4h2.2l-.3-1.7-.9-1.1.2-1.8zM701.6 2085.5h.1l-.1-.5-.4.1.1.4zM199.8 955.6l.8-.4.3-1.2-.2-.7-1-.4-.9.6-.4 1.5zM219.1 968l.4-.5.5-1.1-2.4-2-.8.8.6 1zM221.7 975.2l-.3-1.1-1.3-1.1-.3.2.4.7v1l-.4.7-.6.5 1.5.5zM218.7 875l-1.3.9-1.2-1.4-3.9.1-.1.7.3 1.9-.1 1.6 1.5.8 1.2-.1.4-.6.5-1.2.6-.1v1.2l.3.9.7.4h1.3l.4-2.4.6-1.6.8-1 .3-1.5-1.7.6zM115.9 917.7l-.5-.2-.6.1.5 1.9 1.4 2.6 1.1-.3-.4-1-.7-.9-.2-.8v-.7zM255.5 959.7l.3-.4.2-.7-.6-.3-1.1-1.1-1.7-1 1.1 1.7-.4 2.2zM260.9 961.2l-1.1.2-3.4 1.6-2.3 1.8-.8 1.3h.7l1.8-1.2 2.6-.2.9-.9 3.5-1.6zM207.9 933.4l-1.4-2.1h-.6l-1.4.8.3 1.7 1.1.8.7 1.3 1.9 1.5 1.7 2.1.7-1.8-.2-1.1-.8-1.7.2-1.3zM166 975.4l-.4.5-.6 1.3.1 2.7.6 1.2 2.3.8.3-1.2.9-1.5-2.2-2.2zM237.7 941l-2.7.1-2 2-.3 1.1 1-.2 3.9-1 2-1.4 1.2-1.6-.6.1zM274 970.8l.2-.8v-1.1l-.1-.5-.6.2-1.1.8v.6l1.1 1.2zM271.5 988.3l.5.1 1.6-.6 2.7-3.2 2.7-.5-.4-1.7 1.7-2.2 1.8-4.4.1-1.7-1.3.2-5.7 2.2-2.2 1.9-.9 1.7-1.3 1.1.1.8.8 2-.9 3zM178.4 931.4l-.7-.1-.4.3-.6 1.1-.4.2.4.6.7.2h.9l.9-.6-.3-1.3zM196.1 939.9l-.9 2.2.2 2 1.5-1.4 1-2-.5-.9zM239 969.7v1.3l1.4 1 1.1-1.4 1.7-.6-.9-1.1-1.1-.4.3.9-1 .7zM180.2 1005.9l.9.6h1.5l4-.3 2.4.6 10.3 1.7 2.6 1.2 2.8.7.6.8.2 1.2v1.7l1.2.4 8.9-.6 8.9-1.3 4.8-.5 4.8.3 2.6-.1 1.8-.7.2-1.4.6-1.7.4-2.9.4-1.3-.7.2-2.6 2.5h-3.1l-3 1-1.2 1.2-1 .3-1-.5-.2-1.1.4-3.9-.5-.6-3.6.6-2.1.6-3.9-.9-4.2-.2-2.3-1.7-6.2-.4-2 .4-2.1.8-1.9.4-2 .1-.9-.1-.9-.6-.3-1-.1-1.2-1.7.3-1.2-.7-.3-.3.3-.4 1.6-.7-.7-1.6h-1.6l-1.3 1.6-.4.2h-2.1l-1.5-.2-1.2-.5-.5-2.1-.8-.6-.5 1.3v1.5l-.9 1-1-.5-.4-.9-.9.8-.4 3.2.3 3.3zM200.9 966.7v-1.6l-1.7.4-.2.5-.6.5-1.5-.9-.2.6-.4 1.8 4.5-.7zM254.7 937.1l-.8.1-2.7-1-1.8.1-2.3.8-1.2 1.6.7.3 2.3.2 1.5 1.3 1.3.4 2.9-1.6 1.7-.2-.3-1.7zM198.6 945.6l-.8.6-.6.9.6 1-.4 1.9 1.3-.8 1-1.8-.8-1.1zM177.5 907.2l-1.3-3-2.2-2.2-1.2.1-2.5.8-3.5 2.5-2.6 1.3.3.6 1.2.2 2-.9 2.5.8 2.4 1.2 2.5 1.9 2.2 2.2.9 1.2 1 .9 1.5.8.7 3.1 2.4 1.1h2.8l3.4.3v.5l.5 1 .8.6.9 2 1 1.1.1 1.5.4.9 2.4 1.6.9 1.2h1.2l.7.4.6.6.6.3.8-.2.9-1.2.2-2.9-.5-.6-2.2.1-2.3-.5-1.9-1.6-1.2-3.3-.7-3.5.5-1.2-.2-1-1-1.3-.6-1.7-.6-.6-4.9-.5-4.2-2.2-1.1-.1-2.5-1.2zM112.6 928l1 .3.8-.6 3.4 1.3.5-.5.1-1.4-2-2.9-1.6-.6-.2-3.3-1.1-2.5-.3.5v1.7l-.7 1.7-.8.4-1-1-.6.5-1.2 3.2v1.2l.8-.2 1.3-1.3.5.4.6 1-.1.5zM187.8 897.3l.6-1.8-1.8 1.1-1 2.3 1-.4zM99.7 881.9l-.2-.8-.8-.7-1.2-.6-2.8.6-1.4.9.1 1.1 3.5 4 1.6 3.6 2 1.4 2.8 1-.5-1.6-1.1-.3-1.6-.8-.6-1-.5-2.7v-.5l-1.3-1.4.4-.7zM258.1 1001.8l.9-1.5 1.2-.4-.5-2.1-1.2-1.9 1.1-2.3.4-2.9-1.4.9-.1 1.7-1.9 3.4 1 2.4-.3 1.4zM223.9 957.5l.1-3.1-.5-.9-.9-.3-3.6 3.5.8 2.4 1.3 1.4 2-1zM228.6 963.9l-1.2.5.6.2 2-.2 2.7-2.5 1.8-.6-1.4-1-1.3 1.4-2 1.1-.4.6zM211 940l.4.8.8.9 2.3 1.9 1.4.3.8-1.8-.7-.8-2.9-.5-1.1-.9zM206.1 853.6l-1.2-1.6-2.1-.2-.8.7-1.6 2.4v1.1l2.9 2 2.8-1.1-.1-1.2.4-1.3zM235.5 915.8l-2.1-1.6-3.7.8.1 1.8 2.4 2.6.7 1.7-.9 1.5-1.7.9.4.7 2.3 2.3 2.1-1.6.3-.4.1-1.3 1-.6-.1-4.7-.2-.5.4-1.5zM183.3 900.7l.9-.9-4.1-2.7 1.6 3.2zM240.7 892.2l-4 .3v1.1l-1.7.8-1.3.6-2.6-.1-1.5 2.5.3.6 1.1 1.1 3.7 1.2 2.3-2.8 2.1-.1-.6 1-3 2.3 1.1 1.6 5.1 1.5h1.7l1.7-.6-1-1.1-.3-1.2 1 .3 1.1.9.3-.5-.4-1.7-1-1.7-3.1-2.8.4-1.7zM224.8 860.5l-1.2-.7-2.7 1 2.8 2.3 2.5-.7-.5-1.1zM221.1 946.3l.2-.6-2.6-1.1-.7.6-.2 2.1 2.1-.2zM208.8 947.4l.3.5h.6l.1-2.9-.8-.4-.2 1.7zM115 908.1l-.9 1.7-.7 2.7-.1 2.2.6-.5.7-.1.7.1.9-.2.6-.8.1-4.5-.5-1.3zM203.8 958.7l.2 1 .5 1.2.4-.1 1-.8-1.1-2h-.7zM116.6 938.1l2.5 2.2 2-1.9 1.9.7-2.4-2.7-1-1-1.8-.3-1.5-2.1-1.6 2 .4.9zM216.3 954.5l-2 1.2-.9 2 .6.9 1.5.3 1.7-2.2-.1-.4v-1.5zM199.5 904.1l-.3 2 2.3 1.6v.4l-.5.9.6.1 2.3-.7-2-2-.4-1.8-1.7-1zM30.4 778.7l1.9-.9.4-.5-1.3-1-5.1-1-3.3-.1-.5 1.3-.1.8 1.5.9 3 .6zM28.4 788.8l.9.6 2.5.5 2.8-.9 2.5.4 2.1-.1-.4-.5-1.6-.9-2.7-.5-3 .3-4.1-.8.4 1.1zM22 780.9l3.2 1.6 2.8.6 9.8.2 1.6-.3-3-.5-8-1-.9-1.1-2.9-.5-3.2.5zM-2.1 757.8l1.4 1.4 1.4.4-1.4-2.2-2.3-1.1zM43.7 792.8l-1 .3 8.8 2.7-3-2.1-3.9-.9zM882.7 1224.5l-4 1.5-1.1-.3-.1.5.4 1.1.6.2 1.9.1 2.6-.9 2.9-1.6 1.6-.2 2.2-.9 1-.1 1.3.8 3.1-2.5 2.1-2.9 2-.8-1.5-1.2-3 .5-3.7 1.8-3.3-1-.2.4.8 1.9-.5 1.1zM565 1875.3l-2.5 1.6-.4 1.2.8-.1 2.8-1.3.4-.4v-.3l-.2-.4zM614.6 2080.9l-.9.1-.5.4-.5.9-.6 7.1 1.6 2.1 1.2.3 2 1.3.4-.3.6-.9-1-2.5-1.5-3.1.3-4.5zM640.2 2102.9l.4-.7v-2.3l-1.1-3.1-.5-.2-.9.4-.1.6-.6 1.1-1 .1-.9-.2-1.6.2 3.5 1.8 1.8 1.9zM720.2 1151.1l.8 1.3.8.3 1.3-.6 1.4-1.8.2-.6v-1.6l-2.6-3.9-1-1-.6.4-.4 1.6-.4.3-.1.4v.5l-.8 1.3zM767.9 726.7l.4-.8.4-2.6-1.2.2-.8 1.7.4 1.9zM763.6 724l-.1-.7-1.1.5-.8.7-.7 3.3 2.2 3.3 1.2.1.8-.9-1.9-.8-1.3-2.1.2-1.9zM123.8 369.4l1.6-5.3.2-3.1v-1.9l-.6 1.3-.6 4.1-1 2.9-2.5 4.5 1.3.3zM954.4 1372.9l-3.3 3.7v3l.4.1 1.4-.3 1.1-1.1 1.4-3.7 2.6-2.1-1.5-3.9zM778.7 1271.1l1.2 2.7 1.6 2 .8.5 1.3.2h1.5l1.9-.5 1.9-.5 2.9-.9.7-.6 2.3-5.3 1.2-1.8.4-2.1-.1-2.3-.9-3.3-.9-2.6-.2-1.5-.6-1.7.9-3.9 1-2.4-.6-2.9-3.4-2.7-2.8-3.4-3.4 1.7-2.3 2.5-2.2 6.2-.7 2.7-1.5 2.8-.9 1.3-.2 1.1.5 5.4 1.6 6.9-.3 1zM581 1456.9l-.9.3.6 1.5 2.1 2.2 1.5.7 2.3-.4.7.6.1.6.5.5.6.6.2-.6.1-2.6-2.4-2.1-.8 1 .2.4.7.7-1.7-.1-.9-.8.3-.7-.2-.6-.1-3-.7-1.3-1.2-.2.5 1.3-.6 1.2zM465.1 1246.4l-.1 1.9 1 .8.2-.3v-.5l-.4-1.5.1-1.5zM464.2 1250.4l.5 1.1 4.3 1.6.9.8.9 1.2 1.5 1.7h.6l1.2-.8-.7-.2-3.9-3.3-3.5-1.5-.7-.6-.5-1zM881.9 1934.8l1.1.7-.1-2.1-1.8-2.9-1.6 1.1.7.9 1.4 1zM82.1 269.2l.4-2.5 3.9-1.7-1.1-.6-3.2-.2-2.2 2.9 1.1 2zM76.4 274.6l1.5-.5 1.1-2.9 1.8-.9-2.7-2.7-1.2-.6-1.3.6-.8 2.8-1.8-1.3-4.1 1.4-2.9 3-2.7 4.2-1.7 1.8-1.5 2.2-.2 4.4.5 4.5-1 2.7 1.3 2.5 1 3.2 1.7 2-1.8 2.9-1.3 3.6 2.3-.4 2-1.9 1-4.4 2-3 1.3-1.4 3.6-1.9.9-3.3 1-1.5 1.3-1 1.4-.5-2.6-3.5.5-9.1zM70.7 197.9l-1 1-.4 1.7-.2.3.5 1.8.6-1.4.6-1 1.6-1.4v-.4zM37.1 290.9l-1.4-.6-.7 1.2-.8 2.7-1.3 3.1-.8 3.4-3 7.6-2.1 1-4.8 12.3-.4 3.4.1 6.9.7 2.6 1 .2 1.1-2 5.5-20.6 1.3-1.4 1-5.8 3.8-9 .1-.9-.2-2 1.5-1.6zM67.8 217l-.5-.1-1.5.7-.4.9-.6 2 .5.1.9-.4zM828.2 900.3l-.7 1.2.6 4.4 1.1 4 .3-1.3-1.2-6.7.8-1.5zM232.6 869.5l-1.3-1.7-1 .1-2.9 1.1-1.6 1.7 1.6.9 5-.9zM533.9 1949.1l.7.5.9.3 1.1-1.1 1.2-3 .2-2.2-.1-3.3.3-1.1-.1-1.1-1.9.9-2.3-.4.6 4.1-1.2 5.6zM524.4 1968.2l1.6.1 1.5 1.9.9-.4.5 1.6.7.7h.7l1.2-.6.2-.9-1.7-4.6-.2-.2-1.2-1.1-1.4-3.6-.3-3.1-1-2-1 2.9-1.6 1.7.3 3.4-.5 1.9zM533.1 2005.7l.4.3 1.2-.3 1.1-1.5 1.4-.2 1.6-3.8.2-1.8-.3.3-1 1.5-2.9 2.2-1.2 1.6-1.3.8zM357.1 685.9l-1.2-.9-1.6-2.3.4 2.2.8 1.5 3 1.4 6.8 1.5 3.1.4-3.1-1.6zM847.3 1551.8l-2.1.8-1.4-.2-2.7-1.6-2.3-.2-2.3 1.2-.6.6-.3.7-1.6 1.6 4 2.4 2.2 1.8 2.7.6 9-1 3.1-1.9 3.1-.8.8-.9 1.4-.7-7.1-2.5zM597.1 1491.9l.3.9.6-.5.5-.7.3-.8-.5-1.4-.7.5zM601.2 1527.3l-1 1.8 1.5-.7.8-1.4-.3-.1zM601.8 1520.2l-1.5 1.3 1.4 1.2.4.1.3-.4.2-.9z"/><path d="M1168.5 375l-1.9.4-3 .3-533.1 3.8 2.5 286 95.3 8.4.7 1.4 1 .9.5.4 3.6 1.9 4.1 2.1 4.9 2.9 1.1.4-.6-1.6 1.8-1.6 1.7.9-.4-2.4v-1.1l2-.6 3.2-.2 1.1-.8 2.8-.1 2.8-.8 2.5-1.2 2.2-2 4.5-3.1 2.5-2.7 1.2-.1 1.2.3 1.2-.3 2.1-1.8 1.2-.4 4.1-2.9 5.7-2.2 2.5.4 7.1 2.1.8.4 2 2.7 4.5 1.3 1.4-.2 1.7 2 1.1.3 1.1-.3 3.4-1.8.9-.9.8-1.3 1.4-.9 4.3 1.1 5.2.1 2.6 1.9.8 1.2 1.5 3.7.7 2.3-.8 2-1.2 1.9-.3 2.3 1 1.9.6 7.1-2.1 7.1-3.4 5.9-2.5 6.5 1.4 2.4 5.5 2.8 2.5 2.3-2.7.8-3.7-.4-3-.7-5.3-1.8-2.3-.1-8.4.5-6.9-.4-4.3 1.8-2.7-.5-1.8 2.4-.9 1.6-.9 3.4-2.2 2.5-2.4 1.8-.7 1.9.2 2.1.8 1.3 3.6 3.1 2 2.8 1.2.6 1.4-.1 1.4.8 1.1 1.4-3.6-.3-1.5.3-2.9.9-1.5-.2-1.4-.7-4.1-3-4.6-.1-5.3.3-2.5 1.3-.7 1.7-.3 2v1.7l.5 1.5 1.2 1 3.1.9 4.7.9 2.2 1.1 1 1.1 2.4 7.2 2.8 6.3 1.6 3.1 2.2 2.2.8 1.3.6 1.5.3 1.9v1.9l-.5 3.8.1 1.7 1.1.2 3.7-.1 2.2.4 1.9 1.6 1.8 3 .6 1.5.7 1.3 1.2 1.2 1.4.6 1.3-.3 1.2-.6 2.4.4 2 2 1.1-.5 2.4-.2 1.3.1 1.3.4 1 1.4.9 6.1-.4 3.8-1 2.9-1.3 2.7-1.2 4.1-.1 1.5.2 4.8.6 3.1v.1l2.5 7.3 3 4.8 1.8 3.9.5.9.2-.3-.7-3.8 1.2-7.9v-1.2l-1.5-1.7 2-5.4 1.4-2.4 3.1-2.8 1.2-.7 2.7.4 4.6-1.2 2.8-.4 2.8.2 1.2.3.9.8 2.4 6.6.9 2.8 1 3.8 1.2 3.6 1.9 2.6 2.2 2 6.8 4.9 1.8 2.1.7 1.5.3 1.7.1 1.8-.3 1.7-.5.5-.7.4-2.4.8-3.8-1.1-1.2 1 .4 2 .9 2.1-1 .1-1.1-.1-2-.8-2.3.4-4.8 1.7-2.3-.5-1.5-2.3-1.8-2.1-2.1-.4-2.1 1.1-2 .3-3.1-.7-1-.5-1.9-1.9-1.4-2-1.2-2.3-1.1 5.1-.9 5.1-1.5 4-1.1 4.3.3 5.1 1.3 4.8 2 4 1.5 2.3 1.6 1.7-1.9-3.5.8-2.6 3.3.2 3.3.6h2.6l1.1.5.7.9-.6 2.3-.2 2.3.5 2.3 1.3.8 1.1.9.5 1.8-2.4.3h-2.3l-1.9-.6-1.5-1.5-2.4 5-.1 2.4.8 2.4 1-1.5 1.4-.7h1.5l3.1 1 1.4.9 1.7 1.6 1.9.2.1 1.6.3 1.4 2 2.4 1.2 2 .4 2.4-.3 3.4-.5 3.4-.2 3 .3 3v3.4l-.6 6.6-.1 3.3.6 7.2 1.1 7.1.3 1.9h.1l.8 4.4 1.4 6.3.2 1.4-.2 1.5-1 .8-1.4.2-3-.2-2-.9 3.3-.8 1.9-1.3h-3.3l-8.6 1.6-26.1 6.8-9.4.2-14.1-3.5-4.2-1.9-8.7-5.5-4.3-3.8-2.7-5.2-.9-1.1-1-.8-3.3-1-5.5-1-5.7-.4-2.1-.7-4.5-2.2-2-1.8-1.4-3-1.2-3.2-.8-3.5-.5-3.6-.7-6.9v-1.2l-.6-.1-4.6 1.1-.9-.3-3.8-4.9-.8-.6-1.7-.2-1-.8-.8-1.3.8 1.3 1 .8 1.6.2.8.5 3.9 4.9.9.4 4.5-1.1.7.1-.4-10.7.1-.7 1.5-3.4.8-3.3 1.2-1.6 2.1 1.4v1.6l.2.7 1-.7.8-1.2 1.5-6.1 1.1-1.2.9-.6.1-1.4-.8-2.9-.1-3 2-6.6 1.4-7.1 1.6-3 2.6-1.6 2.7-1.1 2.8-.9 4.9-.2 4.9 1.3-1.3-3.8-1.3-1.4-1.4-1.3-1.4-.8-2.8-1.3h-3.1l-1.7-.2-1.2-.7-3.6-3.1-2.2-2.4-5.1-6.6-1.1-2.6-.7-2.9-.8-2.5-1.2-2.1-5-7.5-3.5-4.6-2-1.7-1.2 1.9-87-65.5-92.9 13-4.2-.8-1.5.5-1.3 2-1 2 4.7 3.2 5.9 5 1.4.8 6.9 1.7 4.9 4 1.5 3.1 6.4 2.7 1.5 2.3 2 7.8 1.8 7.4 2.2 5.2v4.5l-1.3 3.3-4.2 5.5-2.1 2.8-7.2 4.8-2.8 1.4-3 .6-3 2.4-9.2 4.3-3.1.5-2.8-1-1.9.3-2.3-.4-8.4-3.6-12.6 2.6-6.5 2.3-3.9.3-10.4-2.2-3.1-2.2-7.4-1.1-8-2-1.6-2.7-4.8-2.5-2.8.3-1.4.7-1.7 1.9-2.3-.3-2.7-1.8-2.2-2.7-2.8-7.5-1.6-.6-1.3-.3-8 2.4-5.7-2.8-2-2-1.9-2.8-.2-1.9.6-1 .3-1.1-3.2-1.1-5.7 3.2-12.2-.2-17.9-1.6-2.1.4-7.4 3.3-8.9 2.5-5.2 2.2-4.9 4.2-13.8 7.8-2.4 4.8-2.1 1.4-9.7.7-10.3-3.3-9.3 1.4-13.2-2.3-3.8.2-1.2 1.3-.6 2.2-.5 2.7.8 1.3.7.8 3.2 2.6 2.4 1.1 9.5 1.4h1.1l-.1.6-7.4.9-10 1.7-2.1.6-3.7 2.7 1.1.9 1.2.6 1.8.5 1.7 1.2-1 1h-5.9l-2.4.4-7.5-.8-7.2 1-.7-.3.7-1.6.7-.9-.1-.7-2.5-.7-2.4.1-.8.9 2.6 2.8-1.3.9-1.4.6-5.5.3-3.2-1.6-.4-1.1-.6-1.2-3.6.1-2.4 1.6-6-.1-5.8 5.8-3.6 5-2.9 1-.7 3.3.1 6.2-1.2 2.5-.1 1.3.4 1.6 5.2-.5 3-1.1 7.5-1.2 1.6.4.2.9-2.1 2.8-2.3 2.3-.6 1.3.8.9 3 4.1-.1 1.7-.9 1.2.1 1.5 1.2 1 1.1-.3 1.1.4 1 .9-2.3 3.2-2.6 1.1-.6.7.5 1.4.2 1 .9 1.9 1.6 2.1 1.4 1 3.8-.1-1 1-5.2 1.2-2.1-.5-.9-.8-.7.4-.5 1.9-.7-.5-1-1.8.3-1.9-.5-2-1.6-2-1.6-.3-1.4.4-.1 1.8 1.2 3.4-.3 2-1.5-.1-1.2 2.6.9 1 2.1.8 2.1 1.4 1.3.4.9-.8 1.3-.6 2.8 1.7 1.5 2.3 1.5-.2 4.7 2.1 1.6.2.5 2.7-.7 4.4-3.2 1-.2.8 1.7 1.5 1.3 3.1.3 2.9 1.6 1.1 1.9.2.5.9 2.6 1.6.4 2.4-3.7 1.1-1.5-.1-1.1 1.3.3 2.8 1-.1.9-1.1 7 .4 10.2-.6h2.4l-.4.9-3.1 2-1.7 2.5-1.6.6-6.6.6-1.7.8-1.9.3-.3.9 1.9.8 2.5.3 3.3-1.7 6.1-.4-1.5 2.2.1 1 2-.4 1.9-1.1 2.4-3.4 3.9.2 5.2 2.8 2.2.7 1.7.1 1.6-1.2 1.5.6.5 1.6.1 1.3 1.1 1.9.6 3.3 1.8 2 2.8 1.8 7.5 2.7 2.2-.3 6.4-2.2 3.3-1.5 1.4.5 2 1.2 1.3-.7.8-1.1.5-3.9 1.2-2 .5-7.4 1.4-1.9 6.7.5 6.4.7 2.4.6 9.4 5.1 5.4 2.2 2.4 2.3 3.3 4.9 2.1 2.3 3.4 2.3 5.8 1.7 2.9-1.6 3.8-.2 7.5-1.3 1.8.2 3.8-1 5.7-3.1 1.5-1.2 6.1-7.2 6.6-4.9 2.3-.9 2.3.5 2.9 2 5.2 2.4 4.7 1.7 3.2-.6 1.9-1.5.8-2 1.6-1.1 1.5-.4 2.3-1.9 3.2-1.7 1.9 1.6.9 1.2.2 1.8v2.3l-3.4 3.7-3.3 3.2-1.6 2.6 1.7 4.1 1.5 4.3-1.4 2.2-1.2 1.8-1.6 7.5 3 4.1.3 1.9.1 1.3.5 2.1-1.2 4.4v2.9l.3 2.6 1.6 6 .1 2.1-1.3 1.5-2.5 1.5-3.5 5-.8 5.7-2.2 4-3.8 9.9-1.9 2.9-1.1 3.5-1 2.6-1 2-.7 3.1-1.6 3.6-1.9 5.5-2.5 10.9-2.8 7.7-4.3 7.9-.1.2-2 2.6-4.2 4.1-.5.5-6 3.1-5.2 1.3h-6.3l-4.1 1.2-.8-1.1-.6-1.1-5 1.5-1-.2-3.8 1.1-1.8.2-1.5-.8-4.6-4-1.6-1h-.8l.6 1.2.9 1.2-1.7 2.1-2.3.7-.8-1.6-1.2-1.7-2.4-.5-2.9-1.3 2.3-3.1.4-1.8 4 3.5 1.4.1-3.8-4.1-1.7-1-1.1.4-5.1 1.8-1.8-.1-7.3-3.3-2.4-.4-.7.3-.4 2.1-.7 1.2-3.5.6-3.1.9-3-.3 7-2.7.9-1.2-7.8 2.4-3.8.4-1.2 1.4-.7 1.2-1.1 1-.8 1.5-2.1.1-1.7-.3-2.7 1-7.4 5.5-3.6 2.2-3.3 1.5-2.6.9-1.9.1-2.2-.7-3.7-2.2-6.4-2.8-12-1.2-3.1-2.5-4.6.1-1.7-.5-6.5-4.2-10.5-2.4-6.9-1.1-12.4-2.8-11.2 2.8-3.5-.5-1.6-3.2-.8-1.4-2-4.4-1.6-1.8-1.6-.8-4.3-.8-4.5.4-7.7-.3-2-.7-3.1-2.3-2.2-.8-11.2-1.5-4-3 .1-1.7.4-1.3-.8-4.5-3.8-1.7-3.6-1.4-5.1-1.4-4-2.3-3.4-1-7.6.3-2.6-.9-1.9.1-4.7 3.6-2.3.6-5.6.1-9.8 5-5.5 3.9-5.4 5.5-2 2.9-1.3 2.8-1 4.7.7 6.7 1.3 3.7 1.9 2.9.8 2.6.2 3-.9 3-2.1 4.1-6.6 8-2.7 1.9-6.6 3.1-3.7.6-4.1-.6-5.9-3.2-10.5-9.2-5.3-1.9-2.6-1.9-10.6-3.9-12.5-3.5-7.3-.3-7.2-.9-6.4-2.5-2.8-1.7-2.4-2.7-2.2-3.2-1.8-4.6-1.1-3.5-.1-4.9-2-3.9-2-2.1-11-2.3V2107h569.2v-.3l-1.4-.8.8-2.2-.3-1.8-.2-4.3.7-2.6-.5-1.4-.3-2.1-1.4-4.2.7-4.7-1.3-2.6.4-1.5 1.5-1.9 1.2-2.5-.4-.9-.5-.6.3-1.5 1.7-2.2-2.4-1.5 1.5-1.1 1.3-1.2-2.1-2.1-1.2-2.3-2.6 2-3.9 3-4 2.9 3.9-2.9 4-3 2.6-2-.3-.4-.3-.8-1.1-1.2-3.8-2.5-1.7-.9-1.2-1-2.2.1-.8-1.5-1.8-1.6-3.1-.5 1.3-1.9-.2-1.7-1-2.5-.7-3.2-1.6-3.8.4-4.8-4.2-5.5.6-.8.3-1-2.5-3.1-1.6-6.1.1-2.1.7-2.3 2.2-5.1-.3-4.4-2.1-1.5-1 .9.1-5.9 1.4-3.9 1.7-3 1.9-1.8.6-2.2-1.6-3.2-4.1-1.4-1.3-2.9-2.2-2.8-1.3-1.3-1.9-.9-2.4-2.8-.4-2.7-1.1-3 .3-4.2 2-5.6 1.5-2.3 1.8-6.3.6-1.5.7-2.2.1-1.8 1.7-4.5.5-1.8-.7-.4.6.3.2-.6 1.3-1.2 1.9.4 2.5-3.3 3.2-7.1.5-.7.7-1.2.9-1.6.3-.8.4-1 1.3-2.7.9-4.6.8-.9.9-2.1 1.2-2 2.7-2.1.3-1.7 1.4-3.4-.3-4.4 1-2.9 1.2-1.3 2.8-1.6 5.2-.3 3.7-3.2.2-1.3 1.7-1.4.6-1.7-.4-1.2-.4-2.5.6.4.8.3.4-1.4.6-.9 1.4.6 1 .1 3.5-.8 2.7-1.7 3.2-3.8 2.2-2.5 2.2-3.3 2.5-4.9.9-1.2.8-2.1 1.2-1.8 2.8-2.5 2.5-2.6 3.9-5 1.5-1.1 2.1-3 1.6-1.5 1.7-1.7 16.6-17.4 5.5-5.2 7-5.4 6.6-6.2 12.9-9.2 19.9-10.9 5-3.6 18.2-17.8 13.9-14.9 10.2-11.6 5.7-10 9.1-11.9 8.8-14.9 1-5.1 3.1-8.2 2.5-4.7 4.9-6.7 2.2-3.8 2-4.2 2-6.7 5.5-5.2 4-6.9.8-2.4 2.4-5 4.6-5.8 1-2.9 3.1-4.2.2-6.2.9-4.8.5-7.3.7-1.8 2.3-1.1 3.8-1 1.3.6 2.6.4.1-.8-.4-1.2-1.7-.5-2.2-1.3-.2.6.1 1.1-2.8 1-.7-.2.5-.6.9-.4.3-1.1.5-1.3.2-1.4-.4-9.3-.8-5.8 1.1-3.8 1.8-3.4.3-1.9.6-1.9-1.4-.3-8.8-3.1-3.5.9-2.3 2.6-1.4 2.2-7.8 4.4-10.3 1.8-5.6 2.4-7.2 1.6-2.7.3h-.8l-5-1.5-2.3.1-2.9.6-9.2 3.4-6.8.6-5.2-1.4H704l-3.9 1.7-5.6 3.9-9 4-2.3.2-4.6-1-5-.3-4.6-.9-2.6.7-7.9 3.4-8.7 4.7-12.2.2-2.4-.9-2.7-1.8-6.7-5.2-4.9-5.6-4.1-6.9-4.3-3.4-1.9-1.5-2.6-.5h-2.9l-2.7.6-3 1.1-1.5.3-1-.1-.4-1.5 2.6.2 3.5-4 5.5-2 4.9-3.1 1.5-1.3.9-1.4.7-2.2-1.3-4-1.2-2.2-3.7-4.4-.3-1.1-.8-2.6-1.8-1.7-.7 2.1-3.8-1.3-1.3-3.4-4.7-4.6-2.7.2-1.2-4.2-2.2-4.2-12.9-8.9-3.9-5.9-6.7-8.5-8.3-2.8-3.6-3.1-2-1.2-2.4-.7-2.9-.2-2.2-.9-2.6-3.1-.6-1.5-.4-2.6-1.3-1.4-2.6-1.7-1.1 1.3-.5 2.1.6 1.7.1 1-.8 1.7-1.4-2-2-5.4-1.1-1.6-1.6-.2-1.9-5.8-2.7-3.1-1.7-6.2-1.7-12.2-2.4-8.1-2.7-7.8-6.6-13.3-.8-1.5-5.3-3.4-1.1-1.6-.7.5-1.1.4-1.6-1.9-1.2-1.8-3.4-3.4-4.2-3.2-2.8-.5-1.5-.8-1.4-1.6-2.4-6.3-2.5-11.3.3-4.9-1.5-7.6-.1-6.4.9-3.8-1.2-4.1-.4-3.8-.3-2 .2-2.9 1.4.6.9.9.2-.8-.1-.8-1.1-1.8-2.8-3.3-3.4-6.1-1-4.3-.3-5.4v-.4l-.9-2-9.1-7-4.1-5.5-6.9-2.7-1.5-1.1-1.1-1.5-2.2-2.3-2.9-7.7-.9-4.1-.4-8 .2-1.5.6-1.9 1.1-.5.9-.2 3.3.3-3.5-3.1-3.2-2.1-1.8-2.8-4.5-4.9-7.5-16-3.8-7.3-2.5-6.1-5.2-8.1-6.1-12.8-2-2.4-1.5-9.9-.9-3.3-1.1-2-2.3-1.8-.9-2.2-2.3-4.4.2-2.3-.3-4.9-1.1-1.9-2.7-1.9-3.8-3.9-3.9-5.8-2.8-3.1-.9-1.6-.6-1.8-1-2.1-2.7-3.5-.6-1.6.1-4.8-.9-3.5-.7-1.6-3.7-3.7-.8-2.4 1.1-3 1.7-2.6-.3-1.9 2-1.2 1.8 4.4 1.6 7 1 1.8 1 1.3 1.3 2.8 4.5 5.4 1.2 2.3 1.6 5v2.1l1 3.2 3.7 4.4 3.9 3.4 3.7 5.1 6.3 5.4 3.8 1.6 2.2-3.1 1.8-3.1.6-2.2.4-6.3 3.7-10 2.7-12.8 2.4-4 1.3-1.2 1.5-1.9.2 1.7-.7 3.3 4.7.8 3.8.7 5.7 1 5.8 1 3.4.6 1.2-.2 4.7-3.9 4.2-3.5-4.2 3.5-4.7 3.9-1.2.2-3.4-.6-5.9-1-5.6-1-3.8-.6-4.7-.8-3.4 15.8-.4 5.3-2.1 6.1-1.5 2.8.2 2.1 2.1-1.6 2.3.5 5.6.6 2.2 1.3 5.4 7.4 3.4 7.5 4 4.2 2 4.7 3.9 4.6 1.4 2.8 3.4 4.2 6 12 3.4 1.6.6 3.3 1.3 3.7 2.2 1.4 1.3 1.3 5 8.4 1.5 3.4.6 1.9.5 2.8-1 2.1-.9 1.2 3.5 5 2 3.7 2.5 4 2.1.4 1.6.1 2.4 2 2.2.1 1.2 1.4 2.7 1.6 4.2 3.6 3.8 4.7 1.8 3.7 3.6 6 1.1 2.7.9 3.4.8 1.5 2.3 2.5h-1.2l1.2 1.8 1.5.9-.1 1.6 1.3 2.6.7 4.7-.5 2.3-.8 2.2-.3 4-.7 3.6.9 2.5 1.3 2.6 1.3 3.4v2l-1.2 2.9 4 7.9 4.7 5.5 2.7 5.2 2.5 2.9 3.5 2.3 4.3.6 8.8 6.4 3 4 3.1 1.5.4.9.3 1.7 1.3 2.1 1.4 1.5 4.5 9.4.6 2.2 1 2.7.7 2.5.2 2 4.4 5.2 1.7 4.5 3.3 5.7 2 2.8 6.7 5 5.3 5.4.8 4 1.1 3.1 2 1.7 1.6 2 .2 2.1 2 1.6 1.2 1.4.6 1.9.1 1.9 1.3 2.7.2 1.9 4.1-3.2 1-.9.6-.8 1-1.8h.1l-1 1.7-.6.9-1 .9-4.1 3.1.8 7.8-2.6 8.5 1.8 6.5v1l-.3 1.3-1.1-.6-.9-.7-.9 2.1 4.4 2.3.9 2.8.9 1.6v.9l-.5.8.2 1 .5 1 1.6 4.9v.8l-.3.8.9 3.2 1 3.1-.1 4.4 3.2 3.4 1.1 3.8v1.1l-1.1 8.4 5.3 9.6.3 3.2 3.2-1.1 4.4 1.6 2.1 1.3 1.7.2 2.3-.7 3.3-.1 2.2-.6 5.7-3.3 3 1.2 3-.4 3.2-.8 1.6-2.7 1.2-1.4 5-1.5 3.1-3.7 2.7-2.4 5.8-1.2 6.2-.7 6.6.2 3.6-.4 2.7-.7 4.1-1.9 5.9-1.4 3.6-1.1 5-4.5 4.9-2.2 1.3-1.3 1.7-.7 6.3 1.1 3.8-.2 3.1-.9 1.7-.1 2.4-1.7 3.3-3.2 1.7-2 .9-2.3 1.2-.9 5.5-3.1 4.3-2 7.9-2.4 5.7-.5 3.8-1.7 4.1-2.5 10.8-2.3 6.7-2 6.2-2.5 1.7-.9 1.5-1.4 1.8-.4 3-1.8 2.7-1.1 2.8-1.6.1-2.4-1-4.5 1.4-4.8 2-2.8 2.6-2.3 2.9-1.8 11.1-4 4.7-1.8 6.9-.8 3.6-2.2 4-1.4 2.5-2 6.8-.7 4.1.1 2.2.5 2.4 1 6.4-1.7 2.4-2.7 2.2-3.7.5-1.4-.3-1.5-1-1.3.4-1.9 4.9-5.9 3-1 8.4-1.1 6-.4 2.5-.8 3.7-4.1 2.3-9.7 3.7-3.9 2.9-1.7 4.9-1.7 5.5-1 5.4-.3 1.4-.5 1.6-.9-.4-3-.6-2.4-.1-4.2-1-4v-1.7l.6-2.9 1.3-3.5.9-3.8.4-3 1.9-2.3 3.4-5.3 1.5-.4 1.7-.2-.3 2.1-.5 2 1.2.6 1.8.2 2.8-.5 1.3-2.2 3.5-7.1 4.5-7.2 3.8-4.1 5.2-3.4 1.4-1.5 3.2-6.7 3-4 .6-2.4 2.7-3.9.5-2 .3-2.8-.3-2-2.8-.9-3.6-.8-2.3-1.9-2.6-3.2-2.6-4.2-3.6-3.8-1-2.5-1.6-2.3-1.8-1.5-1.2-2.9-4.3-3-1.7-.1-2.4.7-1.5-.1-4.5-2.2-6.5-1.1-4.7-1-8.6-2.9-2.1-1.4-4.7-4-3-4.4-2.9-3.3-3.4-5.9-2.2-6.4-.4-.9-.2-13.3-1.4-2 .2-1.4.5-1.1 1-1.2.9-7.4v-2.5l.3-2.9-.4-.6-.7-.1-.8 1.1-.8 1.9-1.7.4-.7-.3-.8.6-1.8 3.5.8-.2v.1l-.7.1-.2.2-1.1 3.4-1.8 2.9-9.2 7.2-2 2.5-2.4 2.3-.4 1.5-4.6 4.7-7.7 5.6-1.9 2.3-.8 2.3-.9 1.4-1.1.8-.7 1.6-.9 2.5-1.4 1.9-2 .6-3.5 2-5.6 2.3-2 .1-10.4-.7-6.6-1.1-8.4-.2-3 1-5.7 2.8-2.9.6-4.7-.3-1.4-.7-1.1-1.5-.5-4.3-.8-.2-1.5.3-.9-1.2-.4-.9-.8 1.3v.6l.1 3.1.4 1.2.8 1.1 1.2 1.5 1.2 1.6 1.3 1.6 1.2 1.5 1.2 1.6 1.2 1.6 1.2 1.5 1.2 1.6 1.2 1.6 1.2 1.5 1.2 1.6 1.2 1.6 1.2 1.5 1.2 1.6 1.3 1.5 1.2 1.6 1 1.3 1.8.2.6.1 1.7.2 2.5.3 3.4.5 4 .5 4.4.6 4.7.6 4.9.7 4.9.6 4.8.6 4.4.6 4 .5 3.3.5 2.6.3 1.7.2.6.1 1.7.3.3-.1-.3.1-1.7-.3h-.6l-1.7-.3-2.6-.3-3.4-.4-3.9-.6-4.5-.5-4.7-.7-4.9-.6-4.9-.7-4.7-.6-4.5-.6-3.9-.5-3.4-.4-2.6-.4-1.6-.2-.6-.1-1.9-.2-1-1.3-1.2-1.6-1.2-1.5-1.2-1.6-1.2-1.5-1.2-1.6-1.2-1.6-1.2-1.5-1.2-1.6-1.2-1.5-1.3-1.6-1.2-1.6-1.2-1.5-1.2-1.6-1.2-1.6-1.2-1.5-1.2-1.6-.8-1.1-.5-1.1-.1-3.1v-.7h-.7l-1.3-.6-1.8-.2-1.8-.5 1.3-3.3 1.1-1.3-.2-1-1.6.2-1.6-1-1.9.5-1.9.5h-1.5l-1.3-.2-.8-.5-1.6-2.1-1.1-2.6-1.8-1.9-1.3-2.3-2.4-3-1.1-5.3-1.1-2.9-3.9-3.4-.9-1.4-1.1-3.2-1.3-2.2-1.1-2.8-1.1-3.7.5-.2 1 .1.8.4h.5l1.2-5.1-.6-2.3-1.6-1.3-1.9-1.7-.3-2-.1-1.7.4-.5 1.4.5 1 .4h.3l-3.6-4.1-5.9-3.1-3.9-4.8-2.9-.8-2.8-3.2-2.3-3.1 1.4-1.3-1.8-.9-1.5-.5-4-2-2.4-2.4.2-1 .6-.9-.6-2.3-.7-1.6-3.3-4.3-2.2-5.5-.6-2.3-1.2-2.4-1.2-2.2-.4-1.5-.7-1.8-1.9-3.4-1.5-2-1.8-5.8-.3-1.6-.8-2-1.2-.8-1.4.5h-1.9l-2.7-.7v-.6l2-1.7 3.4-3.3 1.7.5.9.5 1.2.1-.2-1.1-1.2-2.5-1.6-3-.7-2.8.1-.9.1-.7 1.9-.9 1.6.1 4.6 2.1 2.2.5 2.1-.6-1.5-1.1-1-.8-.8-1.8-.2-1.3.3-.7-.4-1.1-1.2-1.4-1.1-.8-1.2-.1-.9-.8-.8-1.6-1.8-1.1-1.1-.2-.1-4.8v-8.5l-3.8-.2-3.5-.1V1107l1.6-5.2 1.7-4.9-2.5-3.7-2.7-3.9-1.8-1.6-2.1-4.9-1-2.2-.9-.8-1-.5-3.6.2-3.3-2.7-4-3.1-4.8-3.8-4.3-2.5-1.7-.5-4.1-.2-.4-.5-.3-1.3v-1.6l1.4-2.3.1-1.4-2.8-4.9-.9-1.4-2.3-.6.4-1.4v-.9l-.3-.8-.5-.3-.7-.1-1.9.6-1.4-2.2-4.4-6.3-1.5-.8-.2-.4 1.1-1.9 1.8-2.9.3-1.7-.4-1.8-1.9-3.4.5-1.5.8-1.7.1-1.3v1.2l-.9 1.7-.4 1.5 1.9 3.4.4 1.9-.3 1.6-1.9 2.9-1 1.9.2.5 1.4.7 4.5 6.3 1.4 2.2 1.8-.5h.7l.6.4.3.7v.9l-.5 1.5 2.4.5.9 1.5 2.7 4.8-.1 1.5-1.3 2.3v1.5l.3 1.4.4.4 4.1.2 1.7.6 4.3 2.5 4.8 3.8 3.9 3.1 3.4 2.6 3.6-.2 1 .5.9.8 1 2.2 2.1 4.9 1.7 1.6 2.7 3.9 2.6 3.7-1.7 5-1.6 5.1v10.2l3.4.2 3.9.1v13.4l1.2.2 1.8 1 .7 1.6 1 .8 1.2.2 1.1.8 1.1 1.4.5 1-.3.7.2 1.3.8 1.8 1 .9 1.4 1 1.1-.3 1.7-1.3 3.5-.2.9-.7 1-1.5-.2-3-.4-2.2.6-1.8 2.6-1.3-.7-1.5h2.8l2.1.9.5 1.5-1.3 1-2.1-.8-1 .2-1 .6.5 1 .6.7 8.3 4.5 2.7 2.6 9.4-4.6 2 .3 1.2 3.8.9 3.2 1.4 1.2 3.4 4.9 3.5 3.3 2.3 3.2.4 2-.5 3.2.7 1.7 2.6.7 1.8 1.4v1.4l-.8 2 .6 1.4 3.4 2.2.9 1.4.7 5.3.7 2 3.3 5.3v2.2l5.3 5.5 1.6 1.1 1.7.5 3.8-.1 4.2.6 3.5 2.7 6.3 2.4 2.8 3.1.7 2.5 1.2 1.7 6.4 4.5 7.9 3.3 2.5 1.5 1.1 2.3 4.4 3.1 2.6.4 5.4-.6 3.9.9 6.1 2.6 2.7 2 2.5.1 3-1.3 5.7-4.1 3.1-1.5 2.8.4 2.1-1.5 1.6-2.5 1.3-1.1 6.4-1.5 3.9-2.6 3.6-1.1 1.6-.3 8.2 1.8 1.9 1 2.1 2.3 1.6 2.2 1.2 2.6.8 2.9.7 7.6 2.1 5.1.1 3 1.2 2.9 1.6 3.1 8.8 1.6 1.4 1.8 3.1-1 1.9 1.2 3.9 1.2 2.5.3 4.8-.3 5.8.9 5.5 3.4 4-.3 5-1.3 3.5 1.9 4.5.1 1.7.9 2.8-.5 8.3 1.7 2.4-3 1.7.5.6 2.1 1.1 1.1 9.8 2.4 2.9 1 3.7 1 1.8-1.3.9-1 1.2-.1-.5.4 3.9 1.1 3.6.2 4-.6 1.4-1.2 1-.5 1.1.7 1.5 1.5 1.6-.4 1.2-1.1 2.8-1.4 2-.2 7.8.9 3.4-.7 2.5.7 4.5.4.1-2.1 1.4-1.4 3.6-.8 4.7 1.1 1.1-.2 1.6-1.3 1.5.7.6 1 8.6 2.3 1.1.8 1.4.5 2.6-3 6.3-.1 7.6-1.5 6 .5 4.5-1.6 7.7-1.1h2l1.7.4 1.4.1-1.3-1-1.1-.5-5 .3.7-1.5 1.2-.8 2.4-.3 2.3.6 2.3 2.2.8 2.6 2.8 3.7.2 2.8-.6 4.4.5 1.6 8.7 1.7 1.6.8 2.6 9.4.3 2.5.1 2.1 1.3 2 1.3.6.6.6.5.6.6 1.8 1.3 1.4 1.8-.9.1 1.3.4 1.3 3.3-.4.9-1.8 2 1.8 1.2.1.7-.6.7.7 1.1 1.6.7-1.1.4-1.4 1.5-1 1-.7 2.2-.5 2.4-.4-2.3.4-2.2.5-1.1.7-1.5 1 .6 3.1.9 3.1 2.4-.5 1.8-2.1 1.6-1 1-.4V374.5z"/><path d="M-12.2 723.4l1.2 3.4-.5 4.7.2 3.5 1.9 3.2 6.4 6.7 2.4 1.7 2 1.7-2.2-.5h-1.9l-1.2.5h-1l-1.3.5 1.3 2.6 6.9 8 3.5 3 3.6 2.2 2.7 2.5.1 1.5-.1 1.1.9 1.5 1.4.4h1.8l3.1-.8 2.7-.3 4.6 2.4 6.6 2.1 5 5.5 4.4 2.9 4.6 4.6 1 .7h.1l1.8 1.2 1.2 1.4-11.1-5.3-2 .1-1.8.3 4.7 1.4 7.2 3.9 5.2 1.2 7.4 4.9 3.8 3.1 4.1 2.8-.9-1.4-.9-1.2V800l-2-.8-.9-.4-4-2.7-1.7-1.5-2.8-2-1.7-1.2-.9-1.7-1.3-.3 1.3.3.9 1.7 1.7 1.2 2.8 1.9 1.7 1.6 4 2.7.9.4 2 .8v1.1l.9 1.2.9 1.4.8.2.8-.5h1.2l-.3.6-.3.8.3.6 5.8 3.8 5 5.6 1.4 3.3 3.4 2.3 2.8.4 2.4 2v4.3l-.7 1.3-1.1 1-1.2 4 .3 3 .5 2.5-.5 3.8.1 5-1.7 4.2-1 3.6.2 1.2 2.1 4.4.4 1.9-.4.8-1-.5-.8-.4h-.8l.8 1.7.8 1.9 2 2.1 8 4.8 2.5 4.9.7 2 .1 2.6h.1l2.1 1.9 2 2.7 2.5 6.2 3.6 2 2.3 3.1 2.6 2.2.5 1 1.5.7 3.1-.8 2.5.3.7-.2 1.1.1.6 1.4.2 1.6-.9.8-.8.3-4-1.6-2.6.4-.1 1.5.1 1.9 2.2.9 2.6 3.4 1.5 4.2 1.1 3.3 1.6 1.1 2.6-.8.6-1.4v-1.7l.6.3.7 1.9 1.8 2.4 2.1-.3 1.8-.6h1.5l1.9-.4 3.6-1.2 5.7 1.6 2.1-.1 1.4-.8.8-1.5 3.6 2.6 3.7 1.6.7.8 1.1.7 2.2.9 1.3-.3.9.3 1.3.2 1.2.6.8 1.1-.7 1.1-.7.6h-3.6l-1.4.6.5 1.3.1 1.3-1.6-.2-1.1-.4-1.9-1.8-3.4-1.9-6.9-2.1-6.4-3.7-2.8-.2-1.7 1.5-2 2.8-2.4.3-2.1-1.1-1.1.2-2.1 4.7-3.6 3-.4.8.3 1 1.4.7 1.9 1.5.9 2.9 1.9.8 3.4 2.8 2.4 4.2.3 2.2-2.5 3 .1 3.3 3.4 5.9 3.4 3.5.9-1.8.1-2.5.4-2.7 1.2-.7 1.5-.3 1.2 1.8.7 1.6 1.4.6 3.2 4.9.1 1.6-.1 3.6 1.1 1 1.4.8v-3.3l2.6-5.8 2.4-.4 1.4.2 1.1 2.7 3.3 4.4 1.8 1.1 1 1 1.1.1-1-2.8-1.6-2.6.7-3.6-.3-2.1-1.4-4.5-3.2-7.5-1.8-2.8-.9-4.1 1.1-1.2 1.6 1.4 2 .5 1.6.9 1.8 1.2.1 2.1 1.4.8.9-.4 1.1-.8 5.2-1.7v-.7l-.7-.9-1.1-1.2-.3-1.1-1-.5-1.9.1-1.4-.7-1.2-2.7v-2.1l-1.3-1.6-1.1-.7.3-.7.8-.3 2.4-1.3 4.9-.9 1.8-1.2.8.1 1 .6 3.3 3.5 3.2 2.9 2.1 2.8h1l.8-.9.2-1.8V936l-.7-3.8-.1-5.1-.5-2.4-.8-1.4-2.9-1.4-3.3-.7-2.6-3.9-4.4-1-2.5-3.8-2.6-.2-2.5-2.1-5.5-1.6-1.9-1.4h-1.1l-1.5-.5.7-.6 1.7-.3h2.8l2.8-1.3 3-2.6-2.2.2-.6-2.3-1.2-1.6-1-2.5 1.8-1.4 1.6-.7 3.7 2.1.1 1.3-1 2.2.7.9 1.4-.1 2.4-2-.8-3.2-1.2-1.9-2.9-3.8-2.7-2.1-1.4-1.8-1.8-4.9-5.4-6.8-.5-2.3.8-4.5.9-2.6-.4-1.8.1-1.9 2.4-1.2 1.6-1.2 2.4-.4-.7 1.9-.9 1 1 2.6 4.5 2.8 4.7 2.5.3 3.6 1.5 2.9 5.1 1.9.7-.3.3-.7-4.5-3.3-.8-1.2-1-3.1.9-1.2 5.2 1.2 3.8 5.8 2.4 1.6.8-.8.4-.9-.7-2.6-1.1-1.1-2.1-1.5-2.3-2.3.2-1.2 2.1-1.2 2 .3 3.1 1.6 2.3.7 1.6 1.8 2.5 2-1.2-2.7-1.7-2.5-4-2.3-2.2.1-1.4-.4-.8-1.8 1-1.8-2.2-2.4-.7-1.4.4-2.1h4l3 .7 3.4-1.8 3.2-3.7 2.1-1 1.7.4 2.7 1.9 2.5.3 4.7-3.2 2.2-.7 3.2 1.7 1.7-.3 3.7 1.7 7.9 1.2 3.4 2.2.6 1.2h.1l.6 1.2.8 2.1 2.6-.2 3 .4 4.8-.6h4.7l-1.6 2.4-6 2.8-2 1.6-2.2 2.2-.1 1.9.2 1.3-.7 1.7-.5 2 1.5-.7 1.3-.7 3-4 6.7-6.8 4.4-1.9 6.3-3.6 3.8-4.4 1.5-3.8 5.4-1.2 3.9.7 3.6-2.1 1.9-.5 2.7.2 10.6 2.8 3.9-.9.9-1.6.8-2.3.5-2.6-2.4-.5-13.2-6.4-3.3-2.6-3.2-5.1-1.4-3.7.6-3.4-.7-2.3-3.6-4.7-2.4-4.2-1.5-1.5-3.5-2 6-7.1 1.4-.3 1.5-1 .2-8.1.7-5 1.1-1.3 1.3-1.1 2.1-3.9 4.1-.9 3.2 1.1 2.1-3.4.6-7.3.1-1.6 1.5-5.7-.3-9.5 1.2-2.5 3.3-4 .8-2.1-1.8.3.2-1.2.7-1 .1-2.5.4-1 1.2-1.9-.7-3.3.8-1.5 1.2-.8 2.5.5-1.1 1.5.5 1.7.3 2.3-.8 1.3 11.2-2.7 1.1-2.2.7-2 .9-5.4.2-1.3.4-2v-.1l.4-2.5-1.2-6.2-1.5-1.8v-2.6l.6-1.3 1.2-1 3 .7 1.8-.6 2.3-1.5 3.9-1.6.8-.5 6-7.1.4-.5 3.2-5.1.3-1.2 1.1-1.9 1.1-3.4.6-2.5 7.5-2.3 4 .3 1.8-.5 2.1-3.5 1.4-1.2-.6 3.6 2.7.7 2.7.3 2.1-.6.6-2.3.2-6.5-1-2.5-.6-2.7-1.7-4 1.7 1.8.6 2 1.6 3.6.6 4.1-.5 2.2.7 2.5 1.5 2.1 1.9 1.4 4.9 1.1 5-1.7-.6.8-2.9 2.4-1.3 1.3-5.1-1.1-5.5-.4-3.6-1h-3.5l1.5 1.4 2 1.2 3.1.3 3.4 1.1.1 1.3-.5.7-1.7.5-1.6.1-1.4.7 1.2 1.4 2-.2 2.5.8 6.4 4.2 3.3 1.4 7-1.5 3.2.3 5.7-1.7 1.4 1.6 3.6 2.1 1.5-.6 2.1-.6 1 2 .6 2.7-4.4 3.5-4.1 2.3-3 .5-6.9 4.9-7.1 5.9 1 1.6 1.3.7 3.6-.9 3.2.3 5.9 4.8 1.6.7 2.9-.5 3.6 2.8 1 3.6.2 2.3-1.8 7-.8 1.9-.7.7-.2 1.3 4.5 3.7 2.2 1.1 3.4.3 3.6-1.1 4.6-3.5 4.1-5.7 5.4-2.6 3.8-.5 4.4.6 1.5-2.9 4.4-2.5 2.6-3.7 2.1-.7 2.4.6 1.8.9.9 1 1.5 1.1 4.1-.8 3.8.1 3.6-1.2.8-2.7.5-2.5 1.4-2.2 1.3-2.8-3.2-1.3-3.1-.7-2.6.1-2 .9-1.5 1.7-3.9-1-1.8.4-4.3 2.5-2.2-.2-1.8-1.2-2.5-2.9-5.2-7.9-2.6-5.6-1.1-3.4-.3-2.8.2-3.6 2.6-1.7 2.1-.8 3.6-5.5 1.4 2.2v1.8l-.3 1.1-1.3 1.5-4.5 4 .9.1 1.7-.7 1.6-1.4 1.1-1.1 3.2-5.6 9.4-7.8 4.3-1.3 3.7.7 1.9-.5 3.4-2.3 2.8-1h2.8l2.4 1.6 3-3.6 2.5-1.6 3.8-1.3h2.6l4.5-5.1 6.3-.7 7.7.5.8-.3-.2-1.5-.1-1.2.4-1.2 1-.8L543 643l47-49-161-328.5-149.1-59.4.5-.7-.4-1.2-1.5-2.2-1.2-1.4-.2.7-2.4 2.4-12.3-1.6h-7.9l-2.7-.9-5-3.6h-3.6l-14.7-3.5-3.9.3-2.3-.5-.1 1.8.3 1.7-1.7 1.6h-12.4l-6.5 2.9-4.5-.8-4.5 4.2-2.7.2.7 3.4-6.6.8-3.2 1.4-3.2 2 .5 3.7-.8 1.7-.3 1.6 1.1 1.4-.6 1.6-1.2 1.7 1.4 4.3.1 1.3.7.3 3.2-.2-.7 1.4-2.6 1.6-.4 2.4 1.1 3.5 2.9 3 .3 3 1.3 3 5.4 2.3 2.3 1.7 2.6-1 1.2-1.6 1.1-2.2 1.2-.2 3 1.3.4 2.1-.3.9-1 .9-.5 6.5-2.9 8.1-.2 1.6.8.2 2.2-1.7 6.9-3.2 1.4-.2 1.6-.6 4.4-2.5.2.2-.2-.2-4.4 2.5-1.6.6-1.4.2-6.9 3.2-2.1 1.7-.9-.2-.5 3.6 1.4 5.7.9 13.1-.5 3-2.2 3.2-5 4.3-2.7 2.3-6.3 1.5-7.9-4.8-3.3-9.5-2.2-2.8-8.5-8.3-.7-2.2-1.4-3-7.1 2.3-6.4 2.8-4.7 1.1-5.9 10.2-.8 3.5-.4 4.3-1.2 4.5-2.1 3.4-4 4.4-.9 7.5-.4 15 .7 7.5.1 1.8.2 8.2 2.4 7.7 1.5 6.3-.8 4.3.8 2.8-.1.3 1.4-.1 2-.4 1.3 1.6 2.4 1.5 2.8 1.3 4.2 2.3 4.4 1.5 1.4.1 4.6-.2 4.8.2 1.4 3.4 2.4 1.6 1.9 2.2.1 1.3-2.6 7.8-.6 2.6-.1 2.7 1 3.3.9 1.8-.7.2-12.4-.3-11.8-.6-10.8-.6-10.5-.6-10-.5-6.3-.5-6.1-.5-.9-.5-1 1-3.3 1.8-9.5 1.4-3.1-.8-3.7-2.3-1.8-3.1-3.3-8.8 1.4.1 3.9 2.9 2.7 1.2-.9-1.9-4.9-3.2-4.7-2.6H59l-5.4.8-12.7 3.3-5.6 2.9-2.7 2.1-7.2 1.7-4 4.4-1.9 2.8-1.1 1.1-1.2 1.6-3.2.9-3.1.5-13.5 4.2-12.6 4.6-.8.4v299.5zM-14 855.4l1.6 1.1 1.5 2.2.9 2.5.8 2.6-1.3 2v1.3l.5.7 7.6 4.8 2.1.6 4.3-.1 2.3 1.8 1.6 3.5 2 6.9 3.7 7.8 1.1 6 .8 3.3 2.2 2.3-.3 5.1-2.9.7-2 .6-1 1.2-1.1 1.6.6 3.7-1.8 5-2.7 1.1-1.2 2.5v3.9l1.7 2.6h7.4l1.1-2.2.8-1.9 3-4.5 5.8-4.5.6-2.3-.3-6.2 1.3-2.4 3-2.5 4.4-1.5 3.2.6 1.7-2.2-1.2-3.9-.2-6.9-2.5-2.9-3.8-2.7-5-1.8-1.7-3.1.2-3.2 3-7.9 3.1-5.4 2.6-3.8 2.3-1.6 3.3.3.7.5.8 1.4.2 1.1 3 1.7 1.8.7 8.5 1 4.7 9.8 3.1 2.4 2.8.9 1.1-2.3.6-2.4 1.4-3.4-.6-3.3-2.9-4.3-6.4-5.6-1.8-2.6-10.6-5.4-4.3-3.9-3.8-2.5-12.2-4.9-11.8-6-2.5-2.2.3-3.2 2.6-2.3 2.6-1.7.9-1.7-.6-2.4-2.3-.9-2.1-.4-12.3.8-5.2-.6-6.7-3.5-4.1-3.3v44.1z"/><path d="M-13.8 966.5l2.5-.3 2.5.8 2.4.1.1-1.3-.3-1.3.3-1.5.5-1.4 1-1.2 2.4-2.2v-1.1l-.2-1.2-1.1-1.1-1.4-1.9 1.3-1-.8-1.1-1.1-.7-.6-.7-.3-1.1-.1-2.3.7-2 .7-1.6.6-1.7.3-1.9.7-1.8 5.3-7.7.7-1.3 1.5-3.1 1.3-1.4-1.5-.8-1.5.1-3.5 2.1-1.3-.4-1.3.6-1 1.2-1.3.4-3-.4-3-.1-1.2.1-1.2.5-1.3 1.1v37.7zM330.2-6.6l1.3-2.4H176.4l-3.8 5-2.6 1.5-2.6 2.2-5.7 6.8-4.9 1.8-.1 3.4-2.8 4.3-1.8-.6-.1 1.6.7 1.4-1.6-.6-.7.9 1 2.9.7 1.6v1.7l-4.4 3.2-4.9 1.7-2.1-1.3-5.6 1.6.1 2.4.4 2 1.8 3.6-3.9.3-.3 4-5.8 7.7-1.1 2.4-.6 2.5-.3 3.1.8 5.2.5 4.8 3.5 3.4.4 3 .3 2.6-1.2 5.2-1 5.8 2.9 3.4 1.8 4.9 1.7 5 .1 1.7 1.2 3.5-.2.6-.1.4-1.5.1-.5.7.6 1.3.5.6.3 1.2h-1.3l-.1 1.3.5 2.1-.2 5.9-.8 5-.6 2-1.6 3.1-.4 4.2.4 5.3.6 3.7.1 3.2v2.7l.6 1.8 2 1.1 1.9 1.8 2.5-2.3 1.7-.5 1.1 3.9 1.7.3 7.2 4.4 5.7 1.1.9-.4.5.2-.2.9-1.3 3.5v.8l1.6.3.1 1.2-.6 1-1.1.3-1-.1-.6 2 .6.4-.7 2.5v.8l.6 1.9 4 .1 1.1-.5 1.2-.8.9-.9.6-1.1.6-3.7.4-1.3 1 .3 1.8 4.9 1.9 2.2 1.5.3 1.1.8-.2 2.2-1.6 2.6-2.3 2-1 1.8 1.2.5 3.6-1.3 3.2-3.5 3-2.7 2.8.8 2.8.1 6.7-1.9 7-1.5 2.3 1 1.6-1.1 1.8-3 5.4-2 2.4.1 4.4-1.7 2.4-2.4 4.2-.5 2-1.8 2.4-1.4 1.3 2.9h.9l2-2.1 2.2-1.4 1.9.2.1-1.3-.7-2.4-1.1-2.2h1.8l3.7 3 3.8-.7 1.7-1.9.9-3.8 1.6-3.3.8-.1-.1 1.4-1.1 2.2-.7 3.3.3 2.7 1.6-1.2 2.5-.7 5.1-.8 2.7-2.4 2.9-.8.8.2 4.8 3.3 1.4-1.1 3.2-.4 2-1.5.8-.1 7.8-9.4 93.6-6.8 6.9-134.4-59.7-.6 4.5-2.8zM-16 343.3l1.7-.4-.9-4 1.4-1.1 6-.4 6 .8 4.1-1.2 2.5-.1 2.1.8 2.3 1.6 2.1-1.7 1.7-2.2 3.4-11 1.4-3.6 2.9-4.7 1.3-4 1.1-4.8 1.6-5.7-.5-2.9-.6-1.9-.1-3.1 3.4-6.8.5-2.8-1.1-2.8-.4-3v-4.9l-.6-2.1.9-4.2 2.1-.2.2-10.1 1.5-2.2-1.2-3.7-1.4-5.5 3.8-1 2.2-1.4-3-3.9-2.3-.6-4.5-.6-2 .5-1.6-1.1-2.2-.4 2.2-1.1 7.1.5 7.5-.1 2.7-2.4 5.4-3 2.4-3.3 4.7-2.4 2.1-2.1 1.4.4 3.2-2 2.7-2.6 4.1-2 .8-1 1.2-2 .9-4.7 1.8-.1 2.6-1.5-1.2-2.9-1.2-.6-1.1.5-1.3 1.2-1.4-.3-1.4.4-1.3 1.5-1.7.6-3.4-.5-2.3 2.5-6.7.1-2.1-1-2.3-.1-1.5.9-2.8-3.6-2.4-.7-3.3-3.2-3.8.7-2.9-1-10.3.3-2.2-1.4 4.6-.6 4.9-1.1 2.2-4 1.6 2.2 2.3.7 2-1.9 3 1.6 1.8-.8 6.8 3.2.4-3.8 3.2 1.9 3.4-.1-.4-2.3 2-1.1.5 1 .5 1.9-.7 6 1.2 1.5 3 .9 4.4-3.1 1.1.4 1.3-.7 1.4-1.7 1.4-.6 3.9-3.2 1.3-1.6 1.8-2.4 3.9-3.3 1.6-1.1.4-3.1-1.2-5-1.1-1.6-.7-2-1.4-2.4-4.1-1.7-1.5-1.5.5-4.5-3.4-3.7-3.3-1.1-2-2-3.3-4.6-1.2-3.5-1.9.4-2.8 1.8-1.8.2-.7-2.2-.8-1.9-.8-.7h-2.2l-2.1.1-2.4-2.7.2-2.8.4-2.2-1.7-6.3.3-1.6-.6-7.2-.2-4.7-.3-1.4.8-1.5-.5-2.1-.9-1.1.6-3.5-.4-2.1-.3-3.3 1.8-3.7-.4-3.2 3 1.5 2.9.4-1-2.7-.5-1.9-.5-3.9.8-4.7.8-2.6 1.4-6.7 1.2-2.2 1.5-1-2.1-1.4-2.4-3.4-1.2-4.3.1-1.8.7-2.1 2.2 1.2 1.3 1.5h1.7l1.6-2.4 2.6-.1 2.4-3.6 2-1-.7-1.3-1.6-.6-.6-.9.8-1 .7-2-.9-3.1-.8-2.2-.4-2 .6-.7 1 2.6 3.2-.1-.4 1.1-.1 1.1h2.1l1-1.1.8-1.7 4.7-2.3.4-1.6.1-1.4.3-1.5-4.1-.4.7-1.7 1.4-.3 2.7-1.2 1-3.1.6-2.5 1.4.1 2-1.1 1.3.1.9-.5-.2-.8-1.3-.7.6-1 4.8 1 4.4-5.3 1.1-4 1.5-2.4 3.1 2.6-.1-1.8.2-2.4 2 1.1 1.4 1.4 1.5-.2 1.3-3.7 2.9-3.6 6.4-2.6 3.7-3 1.8-2.5L116-.6l1.9-2.1 2.3-6.3H-16z"/></g></g><g fill="#04507F" fill-rule="nonzero"><path d="M160.7 396.9l2.7-7.9-.2-1.2-1.9-2.2-2.4-1.6-1.3-3.4-4.9-.2-4.6.2-1.4-.2-4.4-1.4-4.2-2.3-2.8-1.3-2.4-1.5-1.3-1.6-2 .4h-1.3l-.3 6-.8 6.7-4.2 1.2-2.4-.3-2.5-1.4-2.1-.3-1.8-1 5.8-7.8 2.1-3.6-1.2-.3-1.2 2.1-3.7 4.9-3.5 4.2-2.7 1.6-6.4-.2-2.9 1.4-.5 3.5-.2 3-1.8 4.4-2.3 3.4-3.3 3.2.8.5 6.2.5 6.2.5 10.1.5 10.4.6 10.9.6 11.8.6 12.4.4.7-.3-.9-1.8-1-3.3.1-2.7zM496.6-19.7l1.9 5.9.2 3.3-2.3 3.8-7.3 2.8-4.3 4-1.5-.2-8.7-4.6-5.8-1.8-7.7-2.9-1.3-1.6-3.5-7.8-4.7-4.6H329.7l2.1 2.3.6 1.8.3 3v3.2l-.5 2.8-1.9 3.7-4.6 7.2-4.5 2.8-.3.6 1.4 2.3 8 9.1 5.2 4.3 7.1 5.7 4.5 4.5 1.5 3.2 1.9 3.6 2.2 2.9 1.6 2.6.6 1.6v1.7l-2.2 5.3-1.2 4.1-2.1 5.9-2.2 4.1-5.5 7.5-8.1 9.2-1.9 2.8-3.8 4.8-6.6 9.7-1.7 2.1-5.3 7.7-2.4 2.4-2 2.3-5.3 7.1-5.6 5.5-5.6 5-1.7 2.5-2.1 1.9-2.5 1.9-1 1-5.6 6.8-7.8 9.4 8.4-1.6 7.3-4.7 1.4 1.1 1.6 1.9-.2 3-.4 2.3-2.9-2.2.7 2.6 2.7 4.8 3.7 1.9 5.6 6.2 6.7.7 4.3-1.1 3.4.2 3.3 3.3 2.3 4.2 1.8 1 2.5 2-.3 2.3-.8 1.4-9.9-3.6-11.5-1.9-1.5 1.7-1.5 2.6-.7 2-.7 1.2-1.8.7-2.6.2-3.2-.5-1.9-1.3-1.4 1.5-.7 3.5-1.9 1.8-2.7-1.4-1.8-2.7-1.6.2-1 2.5.7 3.4.4 4-1.1 3 1.2 1.4 1.4 2.1.4 1.3-.5.7-1.4.6-.4.7-.6 1.1-1.8.2-.8.9-1.1 3.6-2 6-3 4.6-2.4 2.5-1.1 1.9-.6 2.3-.2 2.3 2.3 12.5v2.3l-.6 2.3-.4 2.3.4 2.1 1.5 3.4 1.6 5.2.6 3.3 1.1 1.2 1 .8.2.6v.6l-.5.6-4.7 1.7-.6 1.5-.5 1.6-2 2.4-.6 2.2-.4 2.6v.9l2.6.2.9.6.6 3.2 2.9 2.5 2.8 2.1.7 1 .2 1.8-.2 2.2-.3 1.1-1.2 1.3-1 3.2-.1 3.1-1.6 5.3.3.1 3.4-.9.9.5.7 1.2.3 3.3 1 1.5 1.1 2.4.4 1.8 2.1 2.1.2 1.4 1.2 4.9.5 2.9.3 2.1-.7 2.8-.5 1.9 3 3.4.7.1 1.6-1.3.4-.1 3.4-.1 1.6 1.2 1.2 2.3 1.1 1.8 1.2.5 3.4-2.3 1.8-.8 1.2.1 4.3 2 2.1 1.2.4 1 .1 1.2-.6 1.9-.4 1.9 1.3 2.3 1.5 1.6 3.3-2.6 1.2-.7h1.3l1.7-1 1.3-1.4 1.2-.5 2.3.3 4.2-.3 4.9 2.2.5.7 2.4 2.7.9 1.3.8.5 1.3 1.3 1.7.8 1.2-.3.6.5.5 1 .1 1.7-.2 5-.8 1.4-.9 1.2-.3.9.1 1 1.4 2.2 1.8 3.3.4 1.9v1.4l-2.4 4.2-.8 1-.6 2.1-.3 2.1.2.8 4 3.3 3.1 1.8.6.9.1.6-1.6 3.5-.2 1 2.5 1.4 1.3 2.4 1.2 3.7 2.3 3.6 4.9 3.2 3.6 2.1.7.9.3 1.1-.3 2.5-.9 3-.6 1.6 1.4.7 3.8-.2 4.6.6 5.5 3.3v1.4l-.6 1.4.4 1.4.6 1.2 4.8 3.6.4 1.1.1 1.7-.1 1.3-1.3.3-1.5.6-2.4 1.6-1 2.2-3.8 3-2.4 1.3-1.9.1-4.5-.6-1.6-1.5-.7-1.4-1.7-.6h-2.3l-3.2.2-.7.4-.5 1.7-1.4 2.8-.9 1.6.8 1 1.2 2.1 2 2.6 2.1 2.3.6 1.4v1l-1 1.2.2 2.4 1.9 3.1-.6.5-.2 3.8v4.1l.5 1 1.1.8.9 1.5 1.5 3.4.1.9.4.1 2.1 1 2.1.8 1.5.1 1.8-.2 2.1-1.2 1.4-1.1 1.8-5.6.6-.8 1-.5h1.6l3 1 3.5 1 2.1-.2 5.5-3 3-.5 3.6.8h3.6l2.7-.4 1.8 1 2.3 2.3 2 3.4 2.2 6.3 6.2 7.1.1 1.4-.5.9-3 .8-2.6.5-.2 1.2.7 1.3 1.2 1.9.2 2.5-.1 2.2.5 2 1 .8.2 1-1.2 1.2-.3.8.4.4 5.7.2 2.8 1.2 2.1 1.1 1 .1 2.4-.7 2.7-.4 1.6-.1.6.8.5 2.1 1 2.1.8.6 1.6-.1 1 .1.5.8-.6 1.2.1 1.3.7 1.6.8 3.6.8 1.1.5 1.4v1.6l-.6 1.3-.5 1.1.5 2.5 1.6 2.7 1.3.7 1 2.5 1.8.8 2.7-2.1 2.1-1.1 2.6.6 2.4.4 1.6 1.4 1.2 1.9 1.3 1.1 1.4-.6 2.9.6 1.3 1.6 1.3.8 1.7-1.2 1.4-1.6 5-1.6 3.2-.4.9-.4 1.8-1.1 1.9-.8 1.8.2 1.7 2.4 1.8 1.7.5 2.7 2.2 3.6 5.4 4.9 2.1 1.5 1.5-.2.7-.4.4-.6.3-2.4.7-.9h1.1l4.2 3 2.2.3 2.2.1 2.8 2.3 3.1 2.1 2.4.2 1.9-.8 1.3-.5.9.8.7 1.7 1.3 1.4 1.4.4h2.1l3.6 2.7 3.4 2.6 2.1.2 1.8-.8 1.6-.2 1.1.7.3 1.1-.8 1.6v2.2l1.5 2.1v2.1l-.4 1.8-.9 1.8-2 2.3-1.9 2.2-2.9 1-1.6.9.4 1.6 1.1 1.5 2.4 1.2 2.8.9.3 1-.4.5-1.8.5-2.4-.5-.9.9-1.1 1.4-.7 2.5-.6 2.4 2.6.6 1.6 1 .5 1.9.5 2.2.2 1.9-.9 1v.9l.4.5 1.1.2.9.5.1 1-1.7 2.3-1.6 4.3-.8 2.4.1 2.5-1 1.4h-1.8l-5.8.3-5.2-.1-2.2-.4-3.4-.2-1.7.6-2.3 4-1.7 1.6-2.9 1.4-3.1.4-1.8 1.6-.6 2.6-.1 2.3-.3 1.1-.7 1-.2.8.1.7.8.3.8.4v.6l-.3.7-1 .8-.4 1.2.1 1.2.2 1.5 5.9-2.7 2.1-2.1 4-.7-.5.8-2.1.8-2 2 2.6.2 5.7-1 2.1-3.2 3.8.1 1 2.3 1.1 3-.1 1.1-.4.9-3.1.7-7.2 3.7-3.8 1.1-4.2 1.9 1.1 2.6.3 2.2-3.5-.5-2.5-.7-1.5.3-4.2 2.4-2.3-.5-2.2-.1 1 3.3 2.3 4 1.4.7 2.2-.3 5.2 4.8 3.9 4.8-2 .3-2-.4h-2.8l-1.1 2.9-1.2 2.1-.2-1.1.1-1.5-1.3-.9-1.8 1.4-2 6.4-3.8 4.6-1.3 2.8v2l.5.4h.9v1.8l-.6 1.6-8.4 2.1-1.1 1.2-2.5-.9-2.7-2.6-2.5-1.3-1.6.5-1.6 1.2.9.7 1.1.3 2.9 1.6-1.5 1.1-5.6 2.1.2 1.1.5.8 6.5 1.7 5.7 3 1.7 2.1 1.5 3.6 1.3 1.7 1.9 1.2 1.7.8 2.9.3 3.2-1.2 7.3 8.6 2.8 1.4 7.2 1.7 1.8.9 13.4 11.9 4.1 5.2 7.9 7.7 2.3 1.6 1-1.9 1.3-2.1 1.5-.5 4.2.8 3.9.9 2.8-.6 3.4 1.6 3.1 1.9 3.1 1.3 6 1.2 2.3 1.7 2.6 1.8 10.4.8.8-.2.7-.3 3.5-.6 3.1.1 3.2 2.1 2.1-.1 2.2-.3 2.8 1.1 2.3 1.2.2 1.3 1.9 1.8 5.7 2.7 4.6 1.6 1.5 1.1 3.5 1.8.3.6v.7l-1 1.4-.3 1.2.5.7 1.4.6 2.9.2 1.1-.9 2.1-.6 2.2-1.1 2.8-1.5 3.9-1.3h1.5l1.5.4 1.1.7 1.7 2.8 1.8-3.9.4-.3 1.6.8 2.8 1.1 2 .6 1 .8 3 3.5 4.8-.2 2.1.5 1.1.6.5.7-.9 3.5-1.2 3.6.1.9 1.9 1.4 2.7 1.4 1.4 1.2.9 1 2.1.8 2.5.5 1.1.1 1.3.8 3.1 1.7.4.4 2.4.6.3 1.7.4.4 1-.2 1.6-.8 1.3.6 1.7 2 2.3 2.2 1.3 1.4.5 1 1.2 1 1.7 1.1 1.4 1.8 1.2 4.1 1.2.9 4.5 1.6 1.6.3 4.4.5 1.5-.4 2.3-3.5 2-3.6 1.9-.8 3.4-1.8 2.1-1.6.8-1.8 2-3.4 1.2-2-2.2-1.7-1.1-.6-.9-.9-1.8-3.7-1.6-3-3.3-5.1-5.7-7.7-1.1-1-.9-1-.5-3.9-1.6-2.8-2.3-1.9-.9-1-.6-1 1.1-5.5v-1.6l-.5-3.4.4-3.8 1.3-5.3 1.4-3.7.4-2.4-1.9 1.5-2.2 8.5-.7-6.8-1.5-6.5-1.2-3.3-1.7-2.8-2.3-2.1-2.2-2.5-2.4-1.3-3.6-1.1-.7-.9-.3-1.6.2-1.8.9-2.9 1.9-1.9 2.5-2 .6-1.3.4-1.6.8 1.2 1 .6.7-2.7 1-2 1.3-1.7 1.7-3.9 1.2-2.1.9-2.4.4-3.9 1-.4.7-.7.6-1.1.3-1.2-.1-2.3-1.4-2.4.4-.3.6.5 1.5 1.2 1.3 1.6.4-2.3 1.1-.9 1.4.6 1.4.1 4.9-1.8 2.4-.5 2.1-1.3 5.1-4.9 1.1-.3 1.1.3 1.1.9 1.1.5.9-.2.4-.8-1-1.8-.3-1.6-.1-1.8 1.3-.5h1.5l5.9-2.8.7-1.2.3-1.7 2.7-.3-.3-1.5-1.1-.3-4.9-3-4.1-2.1-3.6-1.9-.5-.3-1-.9-.7-1.4-.2-1.6.4-1.1.8-.8 1.1-.3.9.3 1 .7 1.8.8 2.4.2 1.5-.7.2-1.5-2.8-5.8-2.6-4.7-2.5-5.2-1.1-1.9-3.1-4.4-3-4.3-2.4-3.9-1.2-1.2-3.9-.5-7.3-.9-2.6-.5-2.1 1.2-2.1.9-2-1.7-1.6-2.8-.8-2.3.4-2.4.2-3.5-1.2-3.5-1.3-1.7-3.4-1.3-4.2-2.9-1.1-5.3 2-7.7 3.3-5.5 2.4-2.3 1.2-2 .3-1.8-.2-1.6-1.5-1.8-2.2-1.7-1.1-2.1.5-4.6 1.4-6.6 2.3-5.3 3-2.9 2.6-2.1 1-2 .1-2.8-.1-2.6.7-2 1.1-1.5 1.2-1.4 1.6-1.5 2.1-.4 2.4 1.3 3.1 3.2 4.7 6.5 2.6 4.2 1 1.3 2.4 2.5 2.2 1.1 3.6-1.6 3.5-1.8 1.2-1.2.7-1.7-.6-3-.7-1.9-.8-2.5-1.1-4.3-.7-6.8-.9-2.1.6-.3 1.8.5 1.6.2 2.3-1.5 3.2-2.9 5.8-4.3 1.3-2.9 1-3.2 1.6-2 3.7-.7 3.4-1 2.5-2.3 3.7-2 3.2-1.2 1.3-1.1 1-1.7 3.6-4.8 2.8-3 2.5-3 .8-1.9 1.9.3 3 1.4 3.2 1.2 2.4 1.8.4 2 .3 1.5.9.7 1.1.2 1.7-.4 3-.1 3.7-2.4 5.1-4.2 4.7-1.3 2.4 1 2 3 1.6 2.9 1.7 1.1h1l.4.1 2.1-.7h.1l1.9.2 1.8.9 3 .1 4.1-.7.5-.3 2 .4 2.4 1.3 1.9 1.6 3.4 5.2 1.9 1.3 4 1.9 1.8 1.6 2.2 2.6 1.1 1.6 2.4 2.8 2.7 4.7.5 3.6.6 3.2 1 1.4.9.2.8-.5.9-1.4.3-2.4-.2-4.2-.7-3.4-.9-1.1-.5-1.2.6-1.5 1.5-.8 1.9.5 3.1 2 3.3 2.4 3.9 4.4 3.7 2.7 4 2.2 3.1.7 2.5-.7 2.9-1.8 2.6-2 1.2-2.2.9-2.4 4-3.2 3.6-2.9 1.7.6 1.2.8 3.7-1.8 1.3-.5 3.6-.7 3.7 1.1 2.9 3.1 2.9 2 2.5-.2 2.1-1.1 1.4-1.9 1.1-2.3 1.4-1.5.2-.1 4.5.8 2.9-.1.3-.3 3.7.6 4.2 3.2 2.5 3.6 3.3 4.6 1.6 1.4 2.2.7 1.7.3 2.4.7 6.2.9.9.6.7.7-.6 2.5.5.6 5.1-1.7 1.3-1.4 1.7-3.7 1.4-3.8 1.1-1.4 1.2-.4 1.2.6 1.6 2.2 2.3 2.3 3 .9 1.8.3 2.9.2 6.6-1.1 6.3-2.7 3.6-3 1.6-4.5 1.1-5.2 1.6-3.2-.7-3.3-3.1-3.2-1.1-1-7.7-1.7-.4-1.3-.5-.3-7.5-2.8-3.7-1.3-1-1.8-.7-2.5-2.3-2.1-4.7-2-.8-1.6.7-1.5 2.5-1.2 1.2-.5 4.3-3.6 1.6-.8 3.7-.1 3.5-3 2.4-1.7 1.3-2-.4-2.1-3.4-6.3-1.1-3.8.6-2.5 2-2.7 1.2-1.5 1.3-2.7.9-1.4 3.6-.6 4.2-.2 2.9.6 4.1.3 3.7.5 1.9.5 1.4-.9 1-1.4v-1.9l-1.5-1.8-5.5-2.5-2.3-2-1.8.3-3.1-.7-2.8-1.3-2.4-.4-.8-1.8.5-2.6.9-1.5 1.8-.7 2 .4 2.1-1.1.7-.6.1-.8-.3-1.2-1-.9-1.4-.3-1.6.8-2 .6-3.3-1.2-2.6-1.4.2-1.4 1.9-1.9.9-1.6V425.1l.6-3.1 2-2 2.2-1.1 5.8 2 7.3 1.8 1.2-.3.4-1 .8-.8 10.1-.4 2-1.2 1-.9 9.7-1.3 1.1-1.3 1.5-1.2h2.2l2.7-.5 3.7-1.4 2.6-.8.4-.1 2.8.3 3.4-1.1.8-.5.5-.9 3-1.6 5.8-1.4 1.4.8 2.8.4 3.5-.6 2.6-1.1 1.5 1.1 2 1 1.5-.9.8-2.9 1-2.8 1.7-1.3 1.4-.5 1.2-1.1 1-1.2 5 .2 4.6-2.8.9 1.3 5.9-.3 7.3-1.9 4.4-.8 7.5-1.9 3.5-1.6 5-1 4.6-.6 3-2.8 2.4-.3 3-.3 1.8-.6 1.2-1 .7-1.9-.4-2.4-.4-1.8 2.1-1 3-.3 1.9-.4 4.1-4 2.9-1.9 3-1.2 5.9.7 5.4.6 2.4.8V-23.4H496.3z"/></g></g></g></svg>