<svg enable-background="new 0 0 200 200" viewBox="0 0 200 200" xmlns="http://www.w3.org/2000/svg"><path d="m100 0-86.5 49.9 86.5 50 86.5-50z" fill="#0072ce"/><path d="m13.5 49.9 86.5 50v99.8l-86.5-49.9z" fill="#003087"/><path d="m100 99.9v99.8l86.5-49.9v-99.9z" fill="#005eb8"/><g fill="#fff"><path d="m47.6 122.8c-.6 0-1.4-.1-2.2-.2s-1.4-.3-1.9-.6l15.2-43.8c.9-.2 1.7-.4 2.6-.5.8-.1 1.7-.1 2.4-.1 1.1 0 2 .1 2.7.2.7.2 1.3.4 1.8.8.5.3.9.8 1.2 1.3s.6 1.2.9 2l13.8 40.1c-.5.2-1.2.4-1.9.6s-1.4.3-2 .3c-1.1 0-2-.1-2.7-.4-.8-.2-1.3-.9-1.7-2l-3.3-9.8h-17.5l-3.3 9.8c-.4 1-.9 1.6-1.6 1.9-.6.3-1.5.4-2.5.4zm9.6-18.7h13.2l-6.6-19.9z"/><path d="m102.4 119.1c-.8 0-1.5 0-2.2-.1s-1.3-.1-1.8-.2v-13.4h-12.4c-.1-.5-.2-1-.3-1.6s-.1-1.3-.1-2.2c0-1.7.4-2.9 1.1-3.6s1.6-1 2.7-1h9v-9.5c0-1 .3-1.9 1-2.6.6-.7 1.8-1.1 3.6-1.1.8 0 1.5 0 2.2.1s1.3.1 1.8.2v12.9h12.5c.1.5.2 1 .3 1.6s.1 1.3.1 2.2c0 1.7-.4 2.9-1.1 3.6s-1.6 1-2.7 1h-9.1v10c0 1.1-.3 1.9-1 2.6-.6.8-1.8 1.1-3.6 1.1z"/><path d="m130.4 122.4c-1.7 0-2.8-.3-3.3-1s-.7-1.5-.7-2.6v-37.3c0-1 .2-1.9.7-2.6s1.6-1 3.3-1h23c.1.4.2.9.2 1.5.1.6.1 1.3.1 1.9 0 1.3-.3 2.3-.9 2.8s-1.3.8-2.1.8h-16.7v11.9h17.7c0 .4.1.8.2 1.4s.1 1.2.1 1.8c0 1.3-.3 2.2-.8 2.7s-1.2.8-2 .8h-15.2v12h20c0 .4.1.8.2 1.4s.1 1.2.1 1.8c0 1.4-.3 2.3-.8 2.9s-1.2.9-2.1.9h-21z"/></g></svg>