<svg enable-background="new 0 0 200 200" viewBox="0 0 200 200" xmlns="http://www.w3.org/2000/svg"><g fill="#0072ce"><path d="m153.4 27h-11.4l-.2 13.2h-83.6l-.2-13.2h-11.2c-7 0-12.7 5.7-12.7 12.7v147.3c0 7 5.7 12.7 12.7 12.7h106.4c7 0 12.7-5.7 12.7-12.7v-147.4c.2-7-5.5-12.6-12.5-12.6zm-5.3 95.6h-95.8c-3.7 0-6.8-2.9-6.8-6.8s2.9-6.8 6.8-6.8h95.8c3.7 0 6.8 2.9 6.8 6.8s-3.2 6.8-6.8 6.8zm0-25.2h-95.8c-3.7 0-6.8-2.9-6.8-6.8s2.9-6.8 6.8-6.8h95.8c3.7 0 6.8 2.9 6.8 6.8s-3.2 6.8-6.8 6.8zm0-25.5h-95.8c-3.7 0-6.8-2.9-6.8-6.8s2.9-6.8 6.8-6.8h95.8c3.7 0 6.8 2.9 6.8 6.8s-3.2 6.8-6.8 6.8z"/><path d="m134.7 15.2h-17.4c-1.1 0-1.8-.7-2-1.8-.9-7.5-7.3-13.4-15-13.4s-14.1 5.9-15 13.4c-.2.9-.9 1.8-2 1.8h-17.6c-1.1 0-2 .9-2 2v13.8c0 1.1.9 2 2 2h68.8c1.1 0 2-.9 2-2v-13.8c.2-1.1-.7-2-1.8-2zm-34.5 5c-3.1 0-5.5-2.6-5.5-5.5 0-3.1 2.6-5.5 5.5-5.5s5.5 2.6 5.5 5.5c0 3.1-2.4 5.5-5.5 5.5z"/></g></svg>