<svg enable-background="new 0 0 173 200" viewBox="0 0 173 200" xmlns="http://www.w3.org/2000/svg"><path d="m86.5 0-86.5 49.9 86.5 50 86.5-50z" fill="#0072ce"/><path d="m0 49.9 86.5 50v99.8l-86.5-49.9z" fill="#003087"/><path d="m86.5 99.9v99.8l86.5-49.9v-99.9z" fill="#005eb8"/><g fill="#fff"><path d="m115.5 60.3h-6.2l-.1 7.2h-45.6l-.1-7.2h-6.1c-3.8 0-6.9 3.1-6.9 6.9v80.3c0 3.8 3.1 6.9 6.9 6.9h58c3.8 0 6.9-3.1 6.9-6.9v-80.3c.1-3.8-3-6.9-6.8-6.9zm-2.9 52.1h-52.2c-2 0-3.7-1.6-3.7-3.7s1.6-3.7 3.7-3.7h52.2c2 0 3.7 1.6 3.7 3.7s-1.7 3.7-3.7 3.7zm0-13.7h-52.2c-2 0-3.7-1.6-3.7-3.7s1.6-3.7 3.7-3.7h52.2c2 0 3.7 1.6 3.7 3.7s-1.7 3.7-3.7 3.7zm0-13.9h-52.2c-2 0-3.7-1.6-3.7-3.7s1.6-3.7 3.7-3.7h52.2c2 0 3.7 1.6 3.7 3.7s-1.7 3.7-3.7 3.7z"/><path d="m105.3 53.9h-9.5c-.6 0-1-.4-1.1-1-.5-4.1-4-7.3-8.2-7.3s-7.7 3.2-8.2 7.3c-.1.5-.5 1-1.1 1h-9.5c-.6 0-1.1.5-1.1 1.1v7.5c0 .6.5 1.1 1.1 1.1h37.5c.6 0 1.1-.5 1.1-1.1v-7.5c.1-.6-.4-1.1-1-1.1zm-18.8 2.7c-1.7 0-3-1.4-3-3 0-1.7 1.4-3 3-3s3 1.4 3 3c0 1.7-1.3 3-3 3z"/></g></svg>