<svg enable-background="new 0 0 200 200" viewBox="0 0 200 200" xmlns="http://www.w3.org/2000/svg"><g fill="#0072ce"><path d="m179.9 46.6h-159.8c-10.8 0-19.7 8.9-19.7 19.7v101c0 10.8 8.9 19.7 19.7 19.7h159.8c10.8 0 19.7-8.9 19.7-19.7v-101c0-10.9-8.8-19.7-19.7-19.7zm-79.9 119.3c-27.1 0-49.1-22-49.1-49.1s22-49.1 49.1-49.1 49.1 22 49.1 49.1-22 49.1-49.1 49.1z"/><path d="m132.8 106.2h-22.3v-22.2h-21v22.2h-22.3v21.1h22.3v22.2h21v-22.2h22.3z"/><path d="m114.6 67.4h-30.1c-15 0-27.2-12.2-27.2-27.2s12.2-27.2 27.2-27.2h30.1c15 0 27.2 12.2 27.2 27.2s-12.2 27.2-27.2 27.2zm-30.1-39.4c-6.7 0-12.2 5.5-12.2 12.2s5.5 12.2 12.2 12.2h30.1c6.7 0 12.2-5.5 12.2-12.2s-5.5-12.2-12.2-12.2z"/></g></svg>