<svg enable-background="new 0 0 200 200" viewBox="0 0 200 200" xmlns="http://www.w3.org/2000/svg"><g fill="#0072ce"><path d="m153.3 72.6h-14.6v11h-11.1v14.7h11.1v11h14.6v-11h10.9v-14.7h-10.9z"/><path d="m36.3 159.5c-10.8 0-19.5-8.7-19.5-19.5s8.7-19.5 19.5-19.5 19.5 8.7 19.5 19.5c0 10.7-8.7 19.5-19.5 19.5z"/><path d="m138.9 159.8c-10.8 0-19.7-8.9-19.7-19.7s8.9-19.7 19.7-19.7 19.7 8.9 19.7 19.7-8.7 19.7-19.7 19.7z"/><path d="m64.9 46.4h-2.4c-.2 0-.2-.2-.2-.2v-6.3c0-.2.2-.2.2-.2h2.4c.2 0 .2.2.2.2v6.3c-.1 0-.1.2-.2.2z"/><path d="m59.9 47.1-2.1 1.2c-.2 0-.2 0-.3-.2l-3.1-5.5c0-.2 0-.3.2-.3l2.1-1.2c.2 0 .3 0 .3.2l3.1 5.5c0 .1 0 .1-.2.3z"/><path d="m56 50.2-1.2 2.1c0 .2-.2.2-.3.2l-5.5-3.1c-.2 0-.2-.2-.2-.3l1.2-2.1c0-.2.2-.2.3-.2l5.5 3.1c.2-.1.3.1.2.3z"/><path d="m54.1 54.8v2.4c0 .2-.2.2-.2.2h-6.3c-.2 0-.2-.2-.2-.2v-2.4c0-.2.2-.2.2-.2h6.3c.2-.2.2 0 .2.2z"/><path d="m67.4 47.1 2.1 1.2c.2 0 .3 0 .3-.2l3.1-5.5c0-.2 0-.3-.2-.3l-2.1-1.2c-.2 0-.3 0-.3.2l-3.1 5.5c.1.1.1.1.2.3z"/><path d="m71.4 50.2 1.2 2.1c0 .2.2.2.3.2l5.5-3.1c.2 0 .2-.2.2-.3l-1.2-2.1c0-.2-.2-.2-.3-.2l-5.5 3.1c-.2-.1-.2.1-.2.3z"/><path d="m73.3 54.8v2.4c0 .2.2.2.2.2h6.3c.2 0 .2-.2.2-.2v-2.4c0-.2-.2-.2-.2-.2h-6.3c-.1-.2-.2 0-.2.2z"/><path d="m199.9 60.1c0-3.9-3.3-7-7-7h-102.8c-3.9 0-7 3.3-7 7v2.6h-24.7c-2.1 0-4.1.9-5.8 2.2l-42.3 45.6c-3.4 2.9-5.3 7.4-5.1 11.8v2.7c-2.7 0-5 2.2-5 5v4.8c0 2.9 2.4 5.1 5.1 5l12.7-.3c.2-8.7 7.2-15.6 15.9-15.6 8.4 0 15.4 6.7 15.9 14.9l33.1-.7h44c.9-8.1 7.5-14.2 15.8-14.2 8.2 0 15.1 6.3 15.8 14.2h34.3c3.9 0 7-3.3 7-7v-38.1h-26.9c-1 13.9-12.5 24.7-26.7 24.7-14 0-25.7-11-26.7-24.7h-36.6v-5.1h36.8c1.5-13.4 12.8-23.6 26.6-23.6s25 10.3 26.6 23.6h27.1v-27.8zm-123.4 40.8c0 1.2-1 2.2-2.2 2.2l-45.1.9c-1.4 0-2.1-1.7-1.2-2.7l24.8-27.9c1.7-1.5 3.9-2.6 6.2-2.6h15.1c1.2 0 2.2 1 2.2 2.2v27.9z"/></g></svg>