<svg enable-background="new 0 0 173 200" viewBox="0 0 173 200" xmlns="http://www.w3.org/2000/svg"><path d="m86.5 0-86.5 49.9 86.5 50 86.5-50z" fill="#0072ce"/><path d="m0 49.9 86.5 50v99.8l-86.5-49.9z" fill="#003087"/><path d="m86.5 99.9v99.8l86.5-49.9v-99.9z" fill="#005eb8"/><g fill="#fff"><path d="m117.6 84.2h-8.5v6.4h-6.5v8.6h6.5v6.4h8.5v-6.4h6.4v-8.6h-6.4z"/><path d="m49.3 134.9c-6.3 0-11.4-5.1-11.4-11.4s5.1-11.4 11.4-11.4 11.4 5.1 11.4 11.4-5.1 11.4-11.4 11.4z"/><path d="m109.2 135.1c-6.3 0-11.5-5.2-11.5-11.5s5.2-11.5 11.5-11.5 11.5 5.2 11.5 11.5-5.1 11.5-11.5 11.5z"/><path d="m66 68.9h-1.4c-.1 0-.1-.1-.1-.1v-3.7c0-.1.1-.1.1-.1h1.4c.1 0 .1.1.1.1v3.7s0 .1-.1.1z"/><path d="m63.1 69.3-1.2.7c-.1 0-.1 0-.2-.1l-1.8-3.2c0-.1 0-.2.1-.2l1.2-.7c.1 0 .2 0 .2.1l1.8 3.2c0 .1 0 .1-.1.2z"/><path d="m60.8 71.1-.7 1.2c0 .1-.1.1-.2.1l-3.2-1.8c-.1 0-.1-.1-.1-.2l.7-1.2c0-.1.1-.1.2-.1l3.2 1.8c.1 0 .2.1.1.2z"/><path d="m59.7 73.8v1.4c0 .1-.1.1-.1.1h-3.7c-.1 0-.1-.1-.1-.1v-1.4c0-.1.1-.1.1-.1h3.7c.1-.1.1 0 .1.1z"/><path d="m67.5 69.3 1.2.7c.1 0 .2 0 .2-.1l1.8-3.2c0-.1 0-.2-.1-.2l-1.2-.7c-.1 0-.2 0-.2.1l-1.8 3.2c0 .1 0 .1.1.2z"/><path d="m69.8 71.1.7 1.2c0 .1.1.1.2.1l3.2-1.8c.1 0 .1-.1.1-.2l-.7-1.2c0-.1-.1-.1-.2-.1l-3.2 1.8c-.1 0-.1.1-.1.2z"/><path d="m70.9 73.8v1.4c0 .1.1.1.1.1h3.7c.1 0 .1-.1.1-.1v-1.4c0-.1-.1-.1-.1-.1h-3.7c0-.1-.1 0-.1.1z"/><path d="m144.8 76.9c0-2.3-1.9-4.1-4.1-4.1h-60c-2.3 0-4.1 1.9-4.1 4.1v1.5h-14.4c-1.2 0-2.4.5-3.4 1.3l-24.7 26.6c-2 1.7-3.1 4.3-3 6.9v1.6c-1.6 0-2.9 1.3-2.9 2.9v2.8c0 1.7 1.4 3 3 2.9l7.4-.2c.1-5.1 4.2-9.1 9.3-9.1 4.9 0 9 3.9 9.3 8.7l19.3-.4h25.7c.5-4.7 4.4-8.3 9.2-8.3s8.8 3.7 9.2 8.3h20c2.3 0 4.1-1.9 4.1-4.1v-22.2h-15.7c-.6 8.1-7.3 14.4-15.6 14.4-8.2 0-15-6.4-15.6-14.4h-21.3v-3h21.5c.9-7.8 7.5-13.8 15.5-13.8s14.6 6 15.5 13.8h15.8zm-72 23.8c0 .7-.6 1.3-1.3 1.3l-26.3.5c-.8 0-1.2-1-.7-1.6l14.5-16.3c1-.9 2.3-1.5 3.6-1.5h8.8c.7 0 1.3.6 1.3 1.3v16.3z"/></g></svg>