<svg enable-background="new 0 0 200 200" viewBox="0 0 200 200" xmlns="http://www.w3.org/2000/svg"><g fill="#0072ce"><path d="m174 95.3v27.7h-148v-92.5c0-5.2-4.1-9.2-9.2-9.2h-7.6c-5.2 0-9.2 4.1-9.2 9.2v144.2c0 2.1 1.7 4.1 4.1 4.1h17.8c2.1 0 4.1-1.7 4.1-4.1v-23.8h148v23.8c0 2.1 1.7 4.1 4.1 4.1h17.8c2.1 0 4.1-1.7 4.1-4.1v-79.4c0-5.2-4.1-9.2-9.2-9.2h-7.5c-5.2 0-9.3 4.2-9.3 9.2z"/><path d="m57.5 92.7c10.3 4.5 16.1 15.2 18.7 20.6.9 1.7 0 3.9-1.9 4.5-5.6 1.9-17.4 4.9-27.7.4s-16.1-15.2-18.7-20.6c-.9-1.7 0-3.9 1.9-4.5 5.6-1.9 17.4-4.9 27.7-.4z"/></g></svg>