<svg enable-background="new 0 0 200 200" viewBox="0 0 200 200" xmlns="http://www.w3.org/2000/svg"><g fill="#005eb8"><path d="m180.2 40.4h-39.1c.5-2 .8-4.2.8-6.3 0-15.1-12.2-27.3-27.3-27.3h-30.2c-15-.1-27.3 12.2-27.3 27.2 0 2.2.3 4.3.8 6.3h-38.1c-10.9.1-19.8 9-19.8 19.8v101.4c0 10.9 8.9 19.8 19.8 19.8h160.4c10.9 0 19.8-8.9 19.8-19.8v-101.4c0-10.8-8.9-19.7-19.8-19.7zm-95.8-18.6h30.2c6.8 0 12.3 5.5 12.3 12.3 0 2.3-.7 4.5-1.8 6.3h-51.1c-1.1-1.9-1.8-4-1.8-6.3 0-6.8 5.5-12.3 12.2-12.3zm15.1 150.1c-33.7 0-61-27.3-61-61s27.3-61 61-61 61 27.3 61 61c.1 33.6-27.3 61-61 61z"/><path d="m74.3 148.9c-.4-1-.7-2.5-.7-4.3s.5-3.7 1.4-5.8c1-2 2-4.2 3.1-6.5s2.1-4.8 3.1-7.5 1.4-5.7 1.4-9v-1.4h-12c-.2-.6-.3-1.4-.4-2.4s-.1-2-.1-3.1c0-2.3.5-3.8 1.4-4.7 1-.9 2.1-1.3 3.4-1.3h6.5c-.5-2.2-1.2-4.6-2-7.3s-1.2-5.5-1.2-8.6c0-7.4 2.3-13.3 6.9-17.6s11-6.5 19.2-6.5c4.4 0 8.5.6 12.2 1.8s7.1 2.7 10.3 4.6c0 2.8-.6 5.2-1.8 7.1-1.2 2-2.8 2.9-4.9 2.9-1.1 0-2.2-.2-3.2-.6s-2.1-.8-3.2-1.2-2.4-.9-3.9-1.2c-1.4-.4-3.2-.6-5.2-.6-4.5 0-7.7 1.2-9.5 3.5s-2.7 5.3-2.7 9c0 2.6.3 5.2 1 7.7s1.2 4.8 1.6 7h21.7c.2.6.3 1.4.4 2.4s.1 2 .1 3.1c0 2.3-.5 3.8-1.4 4.7s-2.1 1.3-3.5 1.3h-16.2c0 7.5-2.5 14.6-7.5 21.2h40.7c.2.7.3 1.6.4 2.7s.1 2.3.1 3.5c0 2.5-.5 4.3-1.6 5.4s-2.6 1.6-4.6 1.6h-49.3z"/></g></svg>