<svg enable-background="new 0 0 173 200" viewBox="0 0 173 200" xmlns="http://www.w3.org/2000/svg"><path d="m86.5 0-86.5 49.9 86.5 50 86.5-50z" fill="#0072ce"/><path d="m0 49.9 86.5 50v99.8l-86.5-49.9z" fill="#003087"/><path d="m86.5 99.9v99.8l86.5-49.9v-99.9z" fill="#005eb8"/><g fill="#fff"><path d="m87.8 119.4 14.1 25.2 8.7-10.7c.5-.6.6-1.5.2-2.2l-14.8-26.9z"/><path d="m100 55.4h-27c-1 0-2 .5-2.6 1.3l-8.9 11.5c-.9 1.1-1 2.6-.3 3.8l15.8 28.2 8.2-14.6-8.1-14.5c-.3-.5.1-1.2.7-1.2h17.4c.6 0 1 .7.7 1.2l-33.7 60.6c-.4.7-.3 1.6.2 2.2l8.7 10.7 40.8-72.7c.7-1.2.6-2.7-.3-3.8l-8.9-11.5c-.7-.8-1.7-1.2-2.7-1.2z"/></g></svg>