<svg enable-background="new 0 0 200 200" viewBox="0 0 200 200" xmlns="http://www.w3.org/2000/svg"><path d="m193.4 126.7c2.3-.4 4.1-.9 4.8-1.6 2.4-2.2 1.7-9.1 1.6-12.6 0-.9-2.2-.9-2.2-1.8-.3-5.4-2.7-15.4-3.2-21-.2-2-1-4.7-4.6-6.9-4.2-2.6-16.2-9.6-20.7-11.5-3-1.3-2.3-1.6-5.5-2-16-2.3-51-5-66.7 0-12.9 4.1-24.1 10-35.8 17.3-20.6 3.6-37.4 6.6-47.4 9.3-4.8 1.3-6.9 3.6-8.4 6.5-1.6 3.1-2.4 5-3.1 6.8-1.8.1-2.2 1.8-2.2 4 .1 3.5-.3 6 .7 9.4.7 2.5 3 4 5.7 4.1l5 .2c2.4-.5 3.2-.3 3-3.6-.1-1.1-.1-2.3-.1-3.4 0-11.6 9.4-21 21-21s21 9.4 21 21c0 1.6 0 3.2-.1 4.7-.4 5.2-2 4.6 3 4.9l84.3-.1c3.6-.4 4.6 0 4.1-4.9-.2-1.5-.2-3-.2-4.6 0-11.6 9.4-21 21-21s21 9.4 21 21v3c-.2 3.8-1.1 4.7 4 3.8zm-67.2-38.4c1.3-10.6 1.5-13.6 2.4-16.2.2-.4 1.1-1.3 1.8-1.3 7.6.4 16.1.2 23.5 1.9 2.6.7 8 6.8 9.3 8.7.5.7 4.4 5.2 3.8 6.1-.4.6-1 1.1-2 1.1-11.5.4-24.3 1.6-35.7 1.7-3.3.1-3.4.9-3.1-2zm-43.6 3.7c.1-.4.7-2 .8-3.6.2-2.8-6-3-9.2-2.8 6.2-4.6 16.3-9.4 24.5-12.3 6.7-2.3 15.8-2.3 23-2.5 1.3 0 1.2.5 1.1 1.6-.5 3.3-1.7 10.5-2.5 15.3-.4 2.3-.9 2.9-3.3 2.9-9.3.1-34.5 1.9-34.4 1.4zm-47.3 13.9c7.6 0 13.8 6.2 13.8 13.8s-6.2 13.8-13.8 13.8-13.8-6.2-13.8-13.8 6.2-13.8 13.8-13.8zm133-1c7.6 0 13.8 6.2 13.8 13.8s-6.2 13.8-13.8 13.8-13.8-6.2-13.8-13.8 6.2-13.8 13.8-13.8z" fill="#0072ce"/></svg>