<svg enable-background="new 0 0 200 200" viewBox="0 0 200 200" xmlns="http://www.w3.org/2000/svg"><g fill="#0072ce"><path d="m57.3 200c-14.7 0-29.3-5.6-40.5-16.8-22.3-22.3-22.3-58.7 0-81l85.5-85.5c22.3-22.3 58.7-22.3 81 0s22.3 58.7 0 81l-85.5 85.5c-11.2 11.2-25.9 16.8-40.5 16.8zm85.4-186.5c-11.2 0-22.4 4.3-31 12.8l-85.5 85.5c-17.1 17.1-17.1 44.9 0 62s44.9 17.1 62 0l85.5-85.5c17.1-17.1 17.1-44.9 0-62-8.5-8.6-19.7-12.8-31-12.8z"/><path d="m84 63.4h93.5v10.1h-93.5z" transform="matrix(.7071 .7071 -.7071 .7071 86.6674 -72.3758)"/><path d="m28 119.3h93.5v10.1h-93.5z" transform="matrix(.7071 .7071 -.7071 .7071 109.8329 -16.4467)"/><circle cx="98.5" cy="73.6" r="6.2"/><circle cx="79.6" cy="92.5" r="6.2"/><circle cx="126.7" cy="101.8" r="6.2"/><circle cx="107.8" cy="120.7" r="6.2"/><circle cx="112.6" cy="87.7" r="6.2"/><circle cx="93.7" cy="106.6" r="6.2"/></g></svg>