<svg enable-background="new 0 0 173 200" viewBox="0 0 173 200" xmlns="http://www.w3.org/2000/svg"><path d="m86.5 0-86.5 49.9 86.5 50 86.5-50z" fill="#0072ce"/><path d="m0 49.9 86.5 50v99.8l-86.5-49.9z" fill="#003087"/><path d="m86.5 99.9v99.8l86.5-49.9v-99.9z" fill="#005eb8"/><g fill="#fff"><path d="m66.1 147.8c-7 0-14-2.7-19.4-8-10.7-10.7-10.7-28.1 0-38.7l40.9-40.9c10.7-10.7 28.1-10.7 38.7 0 10.7 10.7 10.7 28.1 0 38.7l-40.9 40.9c-5.3 5.3-12.3 8-19.3 8zm40.8-89.2c-5.4 0-10.7 2-14.8 6.1l-40.9 40.9c-8.2 8.2-8.2 21.5 0 29.6 8.2 8.2 21.5 8.2 29.6 0l40.9-40.9c8.2-8.2 8.2-21.5 0-29.6-4-4-9.4-6.1-14.8-6.1z"/><path d="m78.8 82.5h44.7v4.8h-44.7z" transform="matrix(.7071 .7071 -.7071 .7071 89.6693 -46.6664)"/><path d="m52.1 109.2h44.7v4.8h-44.7z" transform="matrix(.7071 .7071 -.7071 .7071 100.7429 -19.9291)"/><circle cx="85.8" cy="87.4" r="3"/><circle cx="76.7" cy="96.4" r="3"/><circle cx="99.3" cy="100.9" r="3"/><circle cx="90.2" cy="109.9" r="3"/><circle cx="92.5" cy="94.1" r="3"/><circle cx="83.5" cy="103.1" r="3"/></g></svg>