<svg enable-background="new 0 0 173 200" viewBox="0 0 173 200" xmlns="http://www.w3.org/2000/svg"><path d="m86.5 0-86.5 49.9 86.5 50 86.5-50z" fill="#0072ce"/><path d="m0 49.9 86.5 50v99.8l-86.5-49.9z" fill="#003087"/><path d="m86.5 99.9v99.8l86.5-49.9v-99.9z" fill="#005eb8"/><g fill="#fff"><path d="m62.3 85.8 10.5-14.9c.2-.3.7-.5 1-.3l19.2 8.7c.5.2.6.8.3 1.3l-15 21.3c-.3.4-.9.5-1.3.1l-14.6-15.1c-.3-.3-.3-.8-.1-1.1z"/><path d="m150.9 148.1 10.4-14.8c.3-.4.2-.9-.2-1.2l-63.8-50c-.4-.3-.9-.2-1.2.2l-15.2 21.6c-.3.4-.2.9.2 1.2l68.6 43.3c.4.2.9.1 1.2-.3z"/><path d="m60.2 82.6 8.7-12.4-21.2-20.6s-7.4 3.7-21-.2c8.5 11 6.2 19.3 6.2 19.3zm-18.2-22.3c1.3-1.8 3.7-2.2 5.5-1 1.8 1.3 2.2 3.7 1 5.5-1.3 1.8-3.7 2.2-5.5 1-1.9-1.3-2.3-3.7-1-5.5z"/></g></svg>