<svg enable-background="new 0 0 200 200" viewBox="0 0 200 200" xmlns="http://www.w3.org/2000/svg"><g fill="#0072ce"><path d="m52.8 83.9 15.6-22.2c.3-.5 1-.7 1.5-.4l28.4 12.9c.7.3 1 1.2.5 1.9l-22.3 31.7c-.5.6-1.4.7-1.9.2l-21.7-22.5c-.4-.5-.5-1.1-.1-1.6z"/><path d="m184.3 176.4 15.4-21.9c.4-.6.3-1.3-.3-1.7l-94.8-74.4c-.6-.4-1.4-.3-1.8.3l-22.6 32c-.4.6-.3 1.4.3 1.8l101.9 64.3c.8.3 1.5.1 1.9-.4z"/><path d="m49.6 79.1 12.9-18.4-31.4-30.6s-11.1 5.5-31.1-.4c12.7 16.4 9.2 28.7 9.2 28.7zm-27-33.1c1.9-2.7 5.5-3.3 8.2-1.4s3.3 5.5 1.4 8.2-5.5 3.3-8.2 1.4-3.3-5.5-1.4-8.2z"/></g></svg>