<svg enable-background="new 0 0 173 200" viewBox="0 0 173 200" xmlns="http://www.w3.org/2000/svg"><path d="m86.5 0-86.5 49.9 86.5 50 86.5-50z" fill="#0072ce"/><path d="m0 49.9 86.5 50v99.8l-86.5-49.9z" fill="#003087"/><path d="m86.5 99.9v99.8l86.5-49.9v-99.9z" fill="#005eb8"/><path d="m89 57.7c2.6 1.7 4.3 4.5 4.3 7.8 0 5.1-4.2 9.3-9.3 9.3s-9.3-4.2-9.3-9.3c0-3.3 1.7-6.2 4.3-7.8v-.1c0-2.6 2.2-4.8 5-4.8s5 2.1 5 4.8zm29.9 87.6c0 1.1-.9 1.9-2.1 1.9s-2.1-.9-2.1-1.9v-32.7-.1c0-.3 0-.6-.1-.9 0-.3-.1-.5-.2-.7-.3-.8-.8-1.3-1.4-1.3-.3 0-.5 0-.8 0-.5 0-1 .2-1.4.5-.3.2-.4.4-.5.7v.2c.1 1.1-.7 2-1.9 2.1-1.1.1-2.2-.7-2.3-1.7 0-.4 0-.8 0-1.1.2-1.3.9-2.4 2-3.2 1-.7 2.2-1.2 3.6-1.3.6-.1 1.2 0 1.7 0 2.1.3 3.9 1.6 4.8 4 .1.4.3.9.3 1.3.1.4.1.9.1 1.4v.1 32.7zm-33.8-18.5v17.2c0 1.8 1.9 3.2 4.1 3.2 2.3 0 4.1-1.4 4.1-3.2v-17.2h5.8c2.4 0 4.4-1.5 4.4-3.4l-8.3-34.7 11.5 14.7c1.1 1.4 3.3 1.9 5.1 1.2 1.8-.8 2.5-2.5 1.5-3.9l-16.3-23.3c-.6-.9-1.8-1.4-3.1-1.5-.2 0-.5 0-.7 0h-7-4.5-7c-.3 0-.5 0-.7 0-1.2.1-2.4.6-3.1 1.5l-16.5 23.3c-1 1.4-.3 3.2 1.5 3.9 1.8.8 4 .2 5.1-1.2l11.6-14.7-8.3 34.7c0 1.9 2 3.4 4.4 3.4h5.8v17.2c0 1.8 1.9 3.2 4.1 3.2 2.3 0 4.1-1.4 4.1-3.2v-17.2z" fill="#fff"/></svg>