<svg enable-background="new 0 0 173 200" viewBox="0 0 173 200" xmlns="http://www.w3.org/2000/svg"><path d="m86.5 0-86.5 49.9 86.5 50 86.5-50z" fill="#0072ce"/><path d="m0 49.9 86.5 50v99.8l-86.5-49.9z" fill="#003087"/><path d="m86.5 99.9v99.8l86.5-49.9v-99.9z" fill="#005eb8"/><g fill="#fff"><path d="m109.6 119c-1.1-2.2-3.1-3.7-5.3-4.3 0-.1 0-.1 0-.2l1.6-.8c4.2-2.1 5.8-7.3 3.7-11.5-1.6-3.1-4.8-4.8-8-4.6 2.9-2.5 3.9-6.8 2-10.4-.8-1.6-2.1-2.8-3.5-3.6l25.8-13.3c4.2-2.1 5.8-7.3 3.7-11.5-2.1-4.2-7.3-5.8-11.5-3.7l-54.3 28-7.1 3.6-3.5 1.8c-11.4 5.8-15.9 19.9-10 31.3l6.8 13.2c5.6 10.8 18.6 15.4 29.7 10.8.3-.1.7-.3 1-.4l.6-.3 10.6-5.5 14.1-7.3c4.1-2 5.8-7.2 3.6-11.3z"/><path d="m130.1 92.8c-1.9-2.2-4.3-2.5-5.9-11 0 0-1.5 6.8-5.3 10.5-.2.1-.3.3-.5.4-.2.2-.4.4-.5.6-1.2 1.4-1.8 3.2-1.8 5.2 0 4.5 3.6 8.2 8.2 8.2s8.2-3.6 8.2-8.2c-.1-2.2-1-4.2-2.4-5.7z"/></g></svg>