<svg enable-background="new 0 0 173 200" viewBox="0 0 173 200" xmlns="http://www.w3.org/2000/svg"><path d="m86.5 0-86.5 49.9 86.5 50 86.5-50z" fill="#0072ce"/><path d="m0 49.9 86.5 50v99.8l-86.5-49.9z" fill="#003087"/><path d="m86.5 99.9v99.8l86.5-49.9v-99.9z" fill="#005eb8"/><g fill="#fff"><path d="m104.2 121.9c-3.4 10.9-13.6 18.8-25.6 18.8-14.8 0-26.9-12-26.9-26.9 0-8.9 4.3-16.7 11-21.6l-1.7-10c-11.1 6.2-18.6 18-18.6 31.6 0 19.9 16.2 36.1 36.1 36.1 14.3 0 26.6-8.3 32.5-20.3z"/><path d="m128.8 130.3-19.6-21.9c-1.1-1.2-2.6-2-4.1-2h-25.3c-.9 0-1.7-.6-1.8-1.5l-2.8-16.6 24.1-2.9c2.2-.3 3.7-2.2 3.4-4.4s-2.2-3.7-4.4-3.4l-24.4 3-.7-4.1c-.5-3.2-3.4-5.4-6.6-4.9-3.2.5-5.4 3.4-4.9 6.6l5.5 33.2c.6 3.9 3.9 6.6 7.8 6.6h27.8l17.9 20.4c2.3 2.2 5.9 2.3 8.2 0 2.2-2.2 2.2-5.8-.1-8.1z"/><circle cx="64.9" cy="59.3" r="9.3"/></g></svg>