<svg enable-background="new 0 0 200 200" viewBox="0 0 200 200" xmlns="http://www.w3.org/2000/svg"><g fill="#0072ce"><path d="m27.8 86.8v96.7c0 4.2 3.4 7.7 7.7 7.7h42.3c4.2 0 7.7-3.4 7.7-7.7v-74.5c0-4.2 3.4-7.7 7.7-7.7h15.2c4.2 0 7.7 3.4 7.7 7.7v74.5c0 4.2 3.4 7.7 7.7 7.7h42.3c4.2 0 7.7-3.4 7.7-7.7v-96.7c0-4.2-3.4-7.7-7.7-7.7h-130.7c-4.2.1-7.6 3.5-7.6 7.7z"/><path d="m178.4 40.2 19.6-19.6c2.7-2.7 2.7-7.1 0-9.8s-7.1-2.7-9.8 0l-19.6 19.6-19.6-19.6c-2.7-2.7-7.1-2.7-9.8 0s-2.7 7.1 0 9.8l19.6 19.6-19.6 19.6c-2.7 2.7-2.7 7.1 0 9.8 1.4 1.4 3.1 2 4.9 2s3.6-.7 4.9-2l19.6-19.6 19.6 19.6c1.4 1.4 3.1 2 4.9 2s3.6-.7 4.9-2c2.7-2.7 2.7-7.1 0-9.8z"/><path d="m129.4 10.8c-2.7-2.7-7.1-2.7-9.8 0l-19.6 19.6-19.6-19.6c-2.7-2.7-7.1-2.7-9.8 0s-2.7 7.1 0 9.8l19.6 19.6-19.6 19.5c-2.7 2.7-2.7 7.1 0 9.8 1.4 1.4 3.1 2 4.9 2s3.6-.7 4.9-2l19.6-19.5 19.6 19.6c1.4 1.4 3.1 2 4.9 2s3.6-.7 4.9-2c2.7-2.7 2.7-7.1 0-9.8l-19.6-19.6 19.6-19.6c2.7-2.7 2.7-7.1 0-9.8z"/><path d="m60.8 10.8c-2.7-2.7-7.1-2.7-9.8 0l-19.6 19.6-19.6-19.6c-2.7-2.7-7.1-2.7-9.8 0-2.7 2.7-2.7 7.1 0 9.8l19.6 19.6-19.6 19.5c-2.7 2.7-2.7 7.1 0 9.8 1.4 1.4 3.1 2 4.9 2s3.6-.7 4.9-2l19.6-19.5 19.6 19.6c1.4 1.4 3.1 2 4.9 2s3.6-.7 4.9-2c2.7-2.7 2.7-7.1 0-9.8l-19.6-19.6 19.6-19.6c2.7-2.7 2.7-7.1 0-9.8z"/></g></svg>