<svg enable-background="new 0 0 173 200" viewBox="0 0 173 200" xmlns="http://www.w3.org/2000/svg"><path d="m86.5 0-86.5 49.9 86.5 50 86.5-50z" fill="#0072ce"/><path d="m0 49.9 86.5 50v99.8l-86.5-49.9z" fill="#003087"/><path d="m86.5 99.9v99.8l86.5-49.9v-99.9z" fill="#005eb8"/><path d="m75.9 62.7h8 5.1 8c.3 0 .6 0 .9.1 1.4.1 2.8.9 3.5 2.1l18.8 33.3c1.1 2 .4 4.5-1.7 5.6-2.1 1.1-4.6.3-5.8-1.7l-13.2-21 9.4 38.7c0 2.7-2.3 4.9-5 4.9h-6.1v35.4c0 2.5-2.1 4.6-4.7 4.6-2.6 0-4.7-2.1-4.7-4.6v-35.4h-4.2v35.4c0 2.5-2.1 4.6-4.7 4.6-2.6 0-4.7-2.1-4.7-4.6v-35.4h-5.6c-2.8 0-5-2.2-5-4.9l9.5-38.7-13.3 21c-1.2 1.9-3.8 2.7-5.8 1.7-2.1-1.1-2.9-3.6-1.7-5.6l18.8-33.3c.7-1.3 2.1-2.1 3.5-2.2zm23.1-12.2c-.4-.2-.9-.5-1.2-1.1.1-.6.1-1.1.1-1.7 0-6.8-5.1-12.3-11.4-12.3s-11.4 5.5-11.4 12.3v.9c0 .2-.1.3-.1.5-.3 1-.9 1.3-1.3 1.5-.3.1-.6.2-1.1.2.7 1.8 2.4 3.1 4.4 3.9 2 3.3 5.5 5.5 9.5 5.5s7.6-2.3 9.6-5.7c1.8-.8 3.3-2 3.9-3.7-.4-.1-.7-.2-1-.3z" fill="#fff"/></svg>