<svg enable-background="new 0 0 200 200" viewBox="0 0 200 200" xmlns="http://www.w3.org/2000/svg"><path d="m100 0-86.6 50 86.6 50 86.6-50z" fill="#0072ce"/><path d="m13.4 50 86.6 50v100l-86.6-50z" fill="#003087"/><path d="m100 100v100l86.6-50v-100z" fill="#005eb8"/><path d="m52.1 55.2c-.5-.5-1-.8-1.5-.8-2 0-2.9 5.3-.3 11.5 3.1 7.6 7.6 17.8 19.1 29.3 9.7 9.7 14.2 3.5 19.4 9.7l.1.1 7.4 9.3 25.5 32.1c1.5 1.5 3.4 2.2 5.4 2.2 1.9 0 3.9-.7 5.4-2.2 3-3 3-7.8 0-10.8zm3.4 80.8c-3 3-3 7.8 0 10.8s7.8 3 10.8 0l27.6-29.8-7.6-9.5zm95.2-68.8c-.7-.7-1.9-.7-2.6 0l-20.9 20.9c-1.2 1.2-2.7.7-4-.5-1.2-1.2-1.8-2.7-.5-4l20.3-21.4c.7-.8.7-2 0-2.7l-.2-.2c-.7-.7-1.9-.8-2.7 0l-21.7 20.5c-1.2 1.2-2.7.7-4-.5-1.2-1.2-1.8-2.7-.5-4l21.1-21.1c.7-.7.8-1.9 0-2.6-.7-.7-1.9-.7-2.7 0l-28.2 25c-2.7 2.7-3.7 6.6-2.8 10.1.7 2.8.7 6.2-1.4 8.2l-1.6 1.5 7.6 7.6 1.5-1.6c2-2.1 5.4-2.1 8.2-1.4 3.5.8 7.4-.1 10.1-2.8l25-28.2c.7-.8.7-2 0-2.8z" fill="#fff"/></svg>