<svg enable-background="new 0 0 200 200" viewBox="0 0 200 200" xmlns="http://www.w3.org/2000/svg"><path d="m6.5 12.5c-1-1-2-1.5-2.8-1.5-4 0-5.6 10.2-.7 22.4 6 14.8 14.8 34.7 37.4 57.3 19 19 27.6 6.9 37.9 18.9l.1.1 14.4 18.2 49.8 62.7c2.9 2.9 6.7 4.4 10.5 4.4s7.6-1.4 10.5-4.4c5.8-5.8 5.8-15.2 0-21zm6.7 157.7c-5.8 5.8-5.8 15.2 0 21s15.2 5.8 21 0l54-58.2-14.8-18.6zm185.7-134.1c-1.4-1.4-3.7-1.4-5.1.1l-40.8 40.8c-2.4 2.4-5.4 1.4-7.8-1s-3.4-5.4-1-7.8l39.8-41.9c1.4-1.5 1.4-3.8-.1-5.3l-.4-.4c-1.4-1.4-3.8-1.5-5.3-.1l-42.3 40.1c-2.4 2.4-5.4 1.4-7.8-1s-3.4-5.4-1-7.8l41.2-41.2c1.4-1.4 1.5-3.7.1-5.1s-3.8-1.4-5.3-.1l-55 48.8c-5.4 5.4-7.2 12.9-5.5 19.7 1.3 5.5 1.4 12.1-2.8 16l-3.1 2.9 14.9 14.9 2.9-3.1c3.9-4.2 10.5-4.1 16-2.8 6.9 1.7 14.4-.2 19.7-5.5l48.8-55c1.4-1.5 1.3-3.8-.1-5.2z" fill="#005eb8"/></svg>