<svg enable-background="new 0 0 173 200" viewBox="0 0 173 200" xmlns="http://www.w3.org/2000/svg"><path d="m86.5 0-86.5 49.9 86.5 50 86.5-50z" fill="#0072ce"/><path d="m0 49.9 86.5 50v99.8l-86.5-49.9z" fill="#003087"/><path d="m86.5 99.9v99.8l86.5-49.9v-99.9z" fill="#005eb8"/><g fill="#fff"><path d="m40.8 82 38.6-22.1c4.4-2.5 9.8-2.5 14.2 0l38.6 22.1c2.2 1.3 2.2 4.5 0 5.7l-38.8 21.4c-4.3 2.4-9.5 2.4-13.8 0l-38.8-21.4c-2.2-1.2-2.2-4.4 0-5.7z"/><path d="m56.3 101.6v9.3c0 7.7 4 14.8 10.6 18.7l3.9 2.3c9.7 5.8 21.8 5.8 31.6.1l4.2-2.4c6.7-3.9 10.8-11.1 10.8-18.8v-9.2l-21.8 12.7c-5.5 3.2-12.3 3.2-17.8-.1z"/><path d="m126.8 85.3-4.4 34.5h8.6z"/></g></svg>