<svg enable-background="new 0 0 173 200" viewBox="0 0 173 200" xmlns="http://www.w3.org/2000/svg"><path d="m86.5 0-86.5 49.9 86.5 50 86.5-50z" fill="#0072ce"/><path d="m0 49.9 86.5 50v99.8l-86.5-49.9z" fill="#003087"/><path d="m86.5 99.9v99.8l86.5-49.9v-99.9z" fill="#005eb8"/><g fill="#fff"><path d="m30.3 66.2v67.6c0 1.3 1.1 2.4 2.4 2.4h9.3c1.3 0 2.4-1.1 2.4-2.4v-38.4h26.2v38.4c0 1.3 1.1 2.4 2.4 2.4h67.3c1.3 0 2.4-1.1 2.4-2.4v-67.6c0-1.3-1.1-2.4-2.4-2.4h-107.6c-1.3 0-2.4 1.1-2.4 2.4zm101.3 57.8h-48.4v-48.4h48.4z"/><path d="m124.6 95.6h-10.5v-10.4h-9.5v10.4h-10.5v9.5h10.5v10.5h9.5v-10.5h10.5z"/></g></svg>