<svg enable-background="new 0 0 173 200" viewBox="0 0 173 200" xmlns="http://www.w3.org/2000/svg"><path d="m86.5 0-86.5 49.9 86.5 50 86.5-50z" fill="#0072ce"/><path d="m0 49.9 86.5 50v99.8l-86.5-49.9z" fill="#003087"/><path d="m86.5 99.9v99.8l86.5-49.9v-99.9z" fill="#005eb8"/><g fill="#fff"><path d="m121 97.8v12.9h-69v-43.1c0-2.4-1.9-4.3-4.3-4.3h-3.5c-2.4 0-4.3 1.9-4.3 4.3v67.2c0 1 .8 1.9 1.9 1.9h8.3c1 0 1.9-.8 1.9-1.9v-11.1h69v11.1c0 1 .8 1.9 1.9 1.9h8.3c1 0 1.9-.8 1.9-1.9v-37c0-2.4-1.9-4.3-4.3-4.3h-3.5c-2.4 0-4.3 2-4.3 4.3z"/><path d="m66.7 96.6c4.8 2.1 7.5 7.1 8.7 9.6.4.8 0 1.8-.9 2.1-2.6.9-8.1 2.3-12.9.2s-7.5-7.1-8.7-9.6c-.4-.8 0-1.8.9-2.1 2.6-.9 8.1-2.3 12.9-.2z"/></g></svg>