<svg enable-background="new 0 0 173 200" viewBox="0 0 173 200" xmlns="http://www.w3.org/2000/svg"><path d="m86.5 0-86.5 49.9 86.5 50 86.5-50z" fill="#0072ce"/><path d="m0 49.9 86.5 50v99.8l-86.5-49.9z" fill="#003087"/><path d="m86.5 99.9v99.8l86.5-49.9v-99.9z" fill="#005eb8"/><path d="m73.2 62.2h11.4 3.9 11.4c.3 0 .6 0 .9.1 1.4.1 2.9.8 3.5 2.2l17.1 33.7c1.1 2.1.4 4.6-1.7 5.7-2.1 1.1-4.7.3-5.9-1.7l-11.3-18.9-1.7 25.9c0 1.6-.3 3-1.6 3.9v47.3c0 2.8-2.4 5.1-5.3 5.1h-.5c-2.9 0-4.8-2.3-4.8-5.1v-46.4h-3.8v45.7c0 2.8-2.4 5.1-5.3 5.1h.5c-2.9 0-5.8-2.3-5.8-5.1v-46.7c-1.2-.9-1.6-2.3-1.6-3.9l-1.5-25.9-11.5 18.9c-1.2 2-3.8 2.8-5.9 1.7-2.1-1.1-2.8-3.6-1.7-5.7l17.1-33.7c.7-1.3 2.1-2.1 3.6-2.2-.1 0 .2 0 .5 0zm13.3-27.6c6.4 0 11.6 5.6 11.6 12.5s-5.2 12.5-11.6 12.5-11.6-5.6-11.6-12.5 5.2-12.5 11.6-12.5z" fill="#fff"/></svg>