<svg enable-background="new 0 0 173 200" viewBox="0 0 173 200" xmlns="http://www.w3.org/2000/svg"><path d="m86.5 0-86.5 49.9 86.5 50 86.5-50z" fill="#0072ce"/><path d="m0 49.9 86.5 50v99.8l-86.5-49.9z" fill="#003087"/><path d="m86.5 99.9v99.8l86.5-49.9v-99.9z" fill="#005eb8"/><g fill="#fff"><path d="m34.2 111.8c1.7 4.6 4.3 8.7 7.5 12 1.4-.7 3-1.1 4.7-1.1 4.1 0 7.7 2.4 9.4 6h16.8c1.7-3.5 5.3-6 9.4-6 1.5 0 2.9.3 4.2.9 2.7-3 5-6.5 6.7-10.4 1-2.3 1.7-4.7 2.3-7.2.2-1.1.3-2.8.7-4.1.2-.6.5-1.1.9-1.5 1.7-1.4 4.7-.9 4.8 1.6.1 1.6 1.5 2.9 3.2 2.8 1.6-.1 2.9-1.5 2.8-3.2-.2-2.4-1.3-5-3.7-6.5-.5-.3-1-.6-1.6-.8s-1.2-.3-1.8-.4c-.1 0 0 0-.3 0-3-.3-5.4.6-7.2 2-1.4 1.1-2 2.3-2.6 3.5-1 2-1 4.2-4.4 4.4-14.7 0-29.3 0-44 0-5.4-.2-9.6 2.2-7.8 8z"/><path d="m34 98.3c3.1-9.1 9.5-17.3 18.8-21.2 2.6-1 6.3-.5 7.2 4.2l5 23.6h-25.6c-2.9.1-7.9.6-5.4-6.6z"/><path d="m46 126.2c-4.5 0-8.1 3.7-8.1 8.2s3.6 8.2 8.1 8.2 8.1-3.7 8.1-8.2-3.6-8.2-8.1-8.2z"/><path d="m82.2 126.2c-4.5 0-8.1 3.7-8.1 8.2s3.6 8.2 8.1 8.2 8.1-3.7 8.1-8.2-3.6-8.2-8.1-8.2z"/><path d="m115.9 93.2-1.1 1.8c-.2.3-.4.6-.6.8l-6.8 7.7c-1.1 1.2-3 1.3-4.2.2s-1.3-3-.2-4.2l6.7-7.6 6.3-10.2c.4-2.4 2.5-4.3 5-4.3h6.3c2.8 0 5.1 2.3 5.1 5.1v17.7l7.2 19.5c0 1.9-1.6 3.5-3.5 3.5-1.4 0-2.7 0-4.1 0l2.5 15.8c.3 1.6-.9 3.2-2.5 3.4-1.6.3-3.2-.9-3.4-2.5l-2.7-16.7c-.9 0-1.8 0-2.8 0l-2.8 16.7c-.3 1.6-1.8 2.7-3.4 2.5-1.6-.3-2.7-1.8-2.5-3.4l2.6-15.8c-1.6 0-3.3 0-4.9 0-1.9 0-3.5-1.6-3.5-3.5l7.2-19.5v-7zm8.3-33.6c.4 0 .8 0 1.3.1.7-1.4 2.2-2.3 3.8-2.3 2.4 0 4.4 2 4.4 4.4 0 1.6-.9 3.1-2.2 3.8.2.7.3 1.4.3 2.1 0 4.5-3.3 8.1-7.5 8.1-4.1 0-7.5-3.6-7.5-8.1-.1-4.5 3.3-8.1 7.4-8.1z"/></g></svg>