<svg enable-background="new 0 0 173 200" viewBox="0 0 173 200" xmlns="http://www.w3.org/2000/svg"><path d="m86.5 0-86.5 49.9 86.5 50 86.5-50z" fill="#0072ce"/><path d="m0 49.9 86.5 50v99.8l-86.5-49.9z" fill="#003087"/><path d="m86.5 99.9v99.8l86.5-49.9v-99.9z" fill="#005eb8"/><g fill="#fff"><path d="m102.2 154.7h-38.4c-1 0-1.9-.4-2.5-1.2s-.9-1.7-.7-2.7l3.8-21.8h-6.5c-2.1 0-4.1-.9-5.4-2.5-1.4-1.6-1.9-3.7-1.6-5.7l1.9-12.2c-3.6-.1-8.7-1.1-10.9-5.2-2.8-5.3 4.2-12.2 11-17.3-2.4-10.4-.8-19.6 4.8-26.8 6.7-8.8 18.9-14 32.4-14 28.7 0 41.8 22.4 41.8 43.1 0 9.3-3.1 18.3-8.8 25.4-2.7 3.4-6.1 6.5-9.9 9-1.6 1-3.4 2.2-5.4 3.2-.6.3-1.3.5-1.9.7-.4.1-.9.3-1.2.4v.4l.1 1.5c.4 8.4 1 19.9.7 22.8-.2 1.6-1.6 2.9-3.3 2.9zm-35.9-5.4h33.8c0-3.3-.3-10-.8-20.1l-.1-1.5c0-.8-.1-2.3.8-3.7 1.1-1.6 3-2.2 4.4-2.6.4-.1.9-.2 1.1-.3 1.7-.8 3.3-1.9 4.7-2.8 3.3-2.2 6.2-4.8 8.6-7.8 4.9-6.1 7.6-14 7.6-22 0-18.8-11.2-37.7-36.4-37.7-11.7 0-22.5 4.5-28.1 11.9-4.8 6.2-5.9 14.1-3.5 23.5.4 1.4-.1 2.7-1.3 3.5-7.3 5.3-10.8 10-10.5 11.2 1.1 2.1 5.2 2.5 8.3 2.3 1-.1 2 .3 2.7 1.1s1 1.8.8 2.8l-2.3 14.6c-.1.7.2 1.1.4 1.3s.6.6 1.3.6h9c1 0 1.9.4 2.5 1.2s.9 1.7.7 2.7z"/><path d="m72.8 91.2c-7.8-5.1-11.1-15.3-6.6-23.5.2-.4.5-.8.7-1.2 6.1-9.4 18.6-9.3 23.1-9.3 22.2 0 30 16.9 30 31.4 0 9.6-4.4 18.4-11.4 23.7-2.1 1.6-4.8 3-7.4 3.1-1.5 0-4.1-.9-4.2-2.6-.1-.9.4-1.8 1-2.4 1-.9 2.4-1.1 3.4-1.9 1.2-.9 2.3-1.8 3.2-3 1.7-2.2 2.8-5.1 1.5-7.8-1.3-2.9-5.1-3.5-7.9-3.5-4.3.1-8.7 1-13 .9-4.7-.1-8.7-1.5-12.4-3.9z"/></g></svg>