<svg enable-background="new 0 0 173 200" viewBox="0 0 173 200" xmlns="http://www.w3.org/2000/svg"><path d="m86.5 0-86.5 49.9 86.5 50 86.5-50z" fill="#0072ce"/><path d="m0 49.9 86.5 50v99.8l-86.5-49.9z" fill="#003087"/><path d="m86.5 99.9v99.8l86.5-49.9v-99.9z" fill="#005eb8"/><path d="m60.3 154 7.8-42.2 2.2-26.4c.4-.1.8-.1 1.2-.1h11.4 7.4 11.4c.4 0 .8 0 1.2.1l2.3 26.4 8 42.2m-26.6-108c9 0 16.4 7.9 16.4 17.7 0 .8-.1 1.6-.2 2.4.4 1 1.1 1.4 1.7 1.6.4.1.9.3 1.5.2-.9 2.4-3.1 4.2-5.7 5.3-2.9 4.9-8 8.1-13.8 8.1-5.7 0-10.7-3.1-13.6-7.9-2.9-1.1-5.3-3-6.3-5.5.6 0 1.1-.1 1.5-.2.6-.3 1.5-.8 1.9-2.2.1-.2.1-.4.2-.7 0-.4 0-.8 0-1.2 0-9.6 7.4-17.6 16.4-17.6z" fill="#fff"/><path d="m106.6 87.5c-2.4-2.8-6.6-3.2-9.4-.8s-3.2 6.6-.8 9.4l13.1 15.5-19.5 6.4c-3.5 1.1-5.4 4.9-4.3 8.4s4.9 5.4 8.4 4.3l29-9.5c.8-.3 1.6-.7 2.2-1.2 2.8-2.4 3.2-6.6.8-9.4z" fill="#fff"/><path d="m70.5 123c2.6-11.1 17.4-26.3 29.8-27.2 10.4-.7 17.2 9.8 12.7 19.1-5.4 11.2-24.4 19.7-35.4 18.4-5.4-1.4-7.6-4.8-7.1-10.3z" fill="#005eb8"/><g fill="#fff"><path d="m107.3 104.8c3.1 4.3 2.3 10.1-1.7 13-4 2.8-9.8 1.6-12.8-2.7-3.1-4.3-2.3-10.1 1.7-13s9.7-1.7 12.8 2.7z"/><path d="m104 107.1c2.1 2.9 1.5 6.9-1.2 8.8s-6.6 1.1-8.7-1.9c-2.1-2.9-1.6-6.9 1.2-8.8 2.7-1.8 6.6-1 8.7 1.9z"/><path d="m66.4 87.5c2.4-2.8 6.6-3.2 9.4-.8s3.2 6.6.8 9.4l-13.1 15.5 19.5 6.4c3.5 1.1 5.4 4.9 4.3 8.4s-4.9 5.4-8.4 4.3l-28.9-9.5c-.8-.3-1.6-.7-2.2-1.2-2.8-2.4-3.2-6.6-.8-9.4z"/></g></svg>