<svg enable-background="new 0 0 173 200" viewBox="0 0 173 200" xmlns="http://www.w3.org/2000/svg"><path d="m86.5 0-86.5 49.9 86.5 50 86.5-50z" fill="#0072ce"/><path d="m0 49.9 86.5 50v99.8l-86.5-49.9z" fill="#003087"/><path d="m86.5 99.9v99.8l86.5-49.9v-99.9z" fill="#005eb8"/><g fill="#fff"><path d="m76.5 64.4h7.6 4.9 7.6c.3 0 .5 0 .8.1l1.6 17.5 9 47.5c0 2.5-2.2 4.6-4.8 4.6h-6.3v23.1c0 2.4-2 4.4-4.5 4.4-2.5 0-4.5-2-4.5-4.4v-23.1h-2.5v23.1c0 2.4-2 4.4-4.5 4.4-2.5 0-4.5-2-4.5-4.4v-23.1h-6.4c-2.6 0-4.8-2.1-4.8-4.6l9-47.5 1.5-17.6zm10.1-26c6 0 10.9 5.3 10.9 11.8 0 .5 0 1.1-.1 1.6.3.6.8.9 1.1 1.1.3.1.6.2 1 .2-.6 1.6-2 2.8-3.8 3.5-1.9 3.2-5.3 5.4-9.2 5.4-3.8 0-7.1-2.1-9.1-5.2-1.9-.7-3.5-2-4.2-3.7.4 0 .7-.1 1-.2.4-.2 1-.5 1.2-1.4 0-.1.1-.3.1-.4 0-.3 0-.5 0-.8.2-6.7 5.1-11.9 11.1-11.9z"/><path d="m99.9 65.9c-1.6-1.9-4.4-2.1-6.2-.5-1.9 1.6-2.1 4.4-.5 6.2l8.7 10.3-13 4.3c-2.3.8-3.6 3.2-2.8 5.6.8 2.3 3.3 3.6 5.6 2.8l19.2-6.3c.5-.2 1-.4 1.5-.8 1.9-1.6 2.1-4.4.5-6.2z"/><path d="m73.1 65.9c1.6-1.9 4.4-2.1 6.2-.5 1.9 1.6 2.1 4.4.5 6.2l-8.7 10.3 13 4.3c2.3.8 3.6 3.2 2.8 5.6-.8 2.3-3.3 3.6-5.6 2.8l-19.2-6.3c-.5-.2-1-.4-1.5-.8-1.9-1.6-2.1-4.4-.5-6.2z"/></g></svg>