<svg enable-background="new 0 0 200 200" viewBox="0 0 200 200" xmlns="http://www.w3.org/2000/svg"><path d="m185 56.3h-69.3v-40.9c0-1.7-1.4-3-3-3h-25.4c-1.7 0-3 1.4-3 3v40.9h-69.3c-8.3 0-15 6.8-15 15v101.3c0 8.3 6.8 15 15 15h170c8.3 0 15-6.8 15-15v-101.3c0-8.3-6.8-15-15-15zm-112.5 11.1h11.8v6.7c0 1.7 1.4 3 3 3h25.4c1.7 0 3-1.4 3-3v-6.7h11.8c5.3 0 9.7 4.4 9.7 9.7s-4.4 9.7-9.7 9.7h-55c-5.3 0-9.7-4.4-9.7-9.7s4.4-9.7 9.7-9.7zm23.6 99c0 1.7-1.4 3-3 3h-65.1c-1.7 0-3-1.4-3-3v-65.1c0-1.7 1.4-3 3-3h65.1c1.7 0 3 1.4 3 3zm80-33.1c0 1.7-1.4 3-3 3h-52.9c-1.7 0-3-1.4-3-3v-1.3c0-1.7 1.4-3 3-3h52.9c1.7 0 3 1.4 3 3zm0-15.4c0 1.7-1.4 3-3 3h-52.9c-1.7 0-3-1.4-3-3v-1.3c0-1.7 1.4-3 3-3h52.9c1.7 0 3 1.4 3 3zm0-15.3c0 1.7-1.4 3-3 3h-52.9c-1.7 0-3-1.4-3-3v-1.3c0-1.7 1.4-3 3-3h52.9c1.7 0 3 1.4 3 3z" fill="#0072ce"/></svg>