<svg enable-background="new 0 0 173 200" viewBox="0 0 173 200" xmlns="http://www.w3.org/2000/svg"><path d="m86.5 0-86.5 49.9 86.5 50 86.5-50z" fill="#0072ce"/><path d="m0 49.9 86.5 50v99.8l-86.5-49.9z" fill="#003087"/><path d="m86.5 99.9v99.8l86.5-49.9v-99.9z" fill="#005eb8"/><path d="m127.9 78.7h-33.8v-20c0-.8-.7-1.5-1.5-1.5h-12.3c-.8 0-1.5.7-1.5 1.5v20h-33.8c-4 0-7.3 3.3-7.3 7.3v49.4c0 4 3.3 7.3 7.3 7.3h82.9c4 0 7.3-3.3 7.3-7.3v-49.4c.1-4-3.2-7.3-7.3-7.3zm-54.8 5.4h5.7v3.3c0 .8.7 1.5 1.5 1.5h12.4c.8 0 1.5-.7 1.5-1.5v-3.3h5.7c2.6 0 4.7 2.1 4.7 4.7s-2.1 4.7-4.7 4.7h-26.8c-2.6 0-4.7-2.1-4.7-4.7s2.1-4.7 4.7-4.7zm11.5 48.3c0 .8-.7 1.5-1.5 1.5h-31.7c-.8 0-1.5-.7-1.5-1.5v-31.8c0-.8.7-1.5 1.5-1.5h31.8c.8 0 1.5.7 1.5 1.5v31.8zm39-16.2c0 .8-.7 1.5-1.5 1.5h-25.7c-.8 0-1.5-.7-1.5-1.5v-.6c0-.8.7-1.5 1.5-1.5h25.8c.8 0 1.5.7 1.5 1.5v.6zm0-7.5c0 .8-.7 1.5-1.5 1.5h-25.7c-.8 0-1.5-.7-1.5-1.5v-.6c0-.8.7-1.5 1.5-1.5h25.8c.8 0 1.5.7 1.5 1.5v.6zm0-7.4c0 .8-.7 1.5-1.5 1.5h-25.7c-.8 0-1.5-.7-1.5-1.5v-.6c0-.8.7-1.5 1.5-1.5h25.8c.8 0 1.5.7 1.5 1.5v.6z" fill="#fff"/></svg>