<svg enable-background="new 0 0 173 200" viewBox="0 0 173 200" xmlns="http://www.w3.org/2000/svg"><path d="m86.5 0-86.5 49.9 86.5 50 86.5-50z" fill="#0072ce"/><path d="m0 49.9 86.5 50v99.8l-86.5-49.9z" fill="#003087"/><path d="m86.5 99.9v99.8l86.5-49.9v-99.9z" fill="#005eb8"/><g fill="none" stroke="#fff" stroke-miterlimit="10" stroke-width="3"><path d="m115.4 141h-57.9c-6.6 0-12-5.4-12-12v-58c0-6.6 5.4-12 12-12h57.9c6.6 0 12 5.4 12 12v58c0 6.6-5.4 12-12 12z"/><path d="m45.5 94.7s41.4-35.7 81.9 0"/><path d="m86.5 122.2 14.9-50.7" stroke-linecap="round" stroke-linejoin="round"/></g></svg>