<svg enable-background="new 0 0 173 200" viewBox="0 0 173 200" xmlns="http://www.w3.org/2000/svg"><path d="m86.5 0-86.5 49.9 86.5 50 86.5-50z" fill="#0072ce"/><path d="m0 49.9 86.5 50v99.8l-86.5-49.9z" fill="#003087"/><path d="m86.5 99.9v99.8l86.5-49.9v-99.9z" fill="#005eb8"/><g fill="#fff"><path d="m101.2 114.2c-16.8 13.8-41.7 11.3-55.5-5.5s-11.3-41.7 5.5-55.5 41.7-11.3 55.5 5.5c13.8 16.9 11.3 41.8-5.5 55.5zm-42.4-51.8c-11.7 9.6-13.5 27-3.9 38.7s27 13.5 38.7 3.9 13.5-27 3.9-38.7-27-13.5-38.7-3.9z"/><path d="m128.7 143.2-4.6 3.8c-1.2 1-3 .8-4-.4l-26.6-32.5c-1-1.2-.8-3 .4-4l4.6-3.8c1.2-1 3-.8 4 .4l26.6 32.5c1 1.2.8 3-.4 4z"/><path d="m134.4 146.8-7.8 6.4c-2.1 1.7-5.2 1.4-6.9-.7l-20.1-24.5c-1.7-2.1-1.4-5.2.7-6.9l7.8-6.4c2.1-1.7 5.2-1.4 6.9.7l20.1 24.5c1.7 2.1 1.4 5.2-.7 6.9z"/></g></svg>