<svg enable-background="new 0 0 173 200" viewBox="0 0 173 200" xmlns="http://www.w3.org/2000/svg"><path d="m86.5 0-86.5 49.9 86.5 50 86.5-50z" fill="#0072ce"/><path d="m0 49.9 86.5 50v99.8l-86.5-49.9z" fill="#003087"/><path d="m86.5 99.9v99.8l86.5-49.9v-99.9z" fill="#005eb8"/><path d="m60.6 141.6c-.3-.6-.4-1.4-.6-2.4-.1-1-.2-2-.2-2.9 0-2.3.4-4.4 1.3-6.3.9-2 1.8-4 2.8-6s1.9-4.1 2.6-6.4c.8-2.3 1-4.8.8-7.5h-11.2c-.2-.8-.3-1.9-.5-3.1-.2-1.3-.3-2.6-.3-4 0-2.9.6-5 1.9-6.2s2.8-1.8 4.7-1.8h3.9c-.3-1.4-.6-3.2-.9-5.4s-.4-4.3-.4-6.3c0-4.2.7-7.8 2.1-10.9s3.3-5.7 5.7-7.7c2.4-2.1 5.3-3.6 8.6-4.6s6.9-1.5 10.8-1.5c5.1 0 9.8.7 14 2.1s7.9 3.1 11.2 5c0 3.9-.8 7.2-2.4 9.9-1.6 2.8-3.8 4.1-6.7 4.1-1.4 0-2.6-.2-3.6-.5s-2-.7-3.1-1.2c-1-.5-2.2-.9-3.5-1.2s-2.8-.5-4.7-.5c-3.1 0-5.4.9-6.9 2.7s-2.2 4.3-2.2 7.5c0 1.7.1 3.2.4 4.5s.6 2.6.8 3.9h20.4c.2.8.3 1.9.5 3.2s.3 2.6.3 4c0 3-.6 5.1-1.9 6.2s-2.8 1.7-4.7 1.7h-13.7c-.1 2.2-.5 4.4-1.1 6.7-.7 2.3-1.5 4.5-2.5 6.5h34.7c.2.9.3 2.2.5 3.8s.3 3.2.3 4.9c0 3.7-.8 6.2-2.3 7.6s-3.4 2.1-5.8 2.1z" fill="#fff"/></svg>