<svg enable-background="new 0 0 200 200" viewBox="0 0 200 200" xmlns="http://www.w3.org/2000/svg"><path d="m198.2 146.2c-3.6-7.9-11.4-12.6-19.6-12.4l-2.7-6.1c-2.9-6.4-8-11.3-14.6-13.8-6.5-2.5-13.7-2.3-20 .6-6.4 2.9-11.3 8-13.8 14.6-2.5 6.5-2.3 13.7.6 20 2.2 5 0 10.9-5 13.2l-.6.3c-5 2.2-10.9 0-13.2-5l-11.9-26.7c2.2-2 4.1-4.4 5.5-7.3l25.6-51.7c3.5-7.1 3.5-15.3-.2-22.4-3.6-7.1-10.2-11.9-18.1-13.2l-8.4-1.4c-.3-1.1-.6-2.2-1.1-3.3-4.2-9.4-15.3-13.6-24.7-9.4s-13.6 15.3-9.4 24.7 15.3 13.6 24.7 9.4c2.9-1.3 5.3-3.2 7.1-5.6l9.2 1.5c2.7.5 5 2.1 6.3 4.6s1.3 5.3.1 7.8l-25.6 51.7c-1.9 3.8-6.2 5.7-10.3 4.5l-55.5-16.6c-2.5-.8-4.5-2.5-5.5-4.9s-1-5 .2-7.4l3-5.9c2.7.1 5.4-.4 8-1.6 9.4-4.2 13.6-15.3 9.4-24.7s-15.3-13.6-24.7-9.4-13.8 15.2-9.5 24.6c.6 1.4 1.4 2.6 2.2 3.7l-3 5.9c-3.3 6.6-3.6 14.3-.7 21.1s8.7 11.9 15.8 14l55.5 16.6c2.4.7 4.8 1.1 7.2 1.1.6 0 1.3-.1 1.9-.1l12 26.8c4.4 9.7 13.9 15.5 24 15.5 3.6 0 7.2-.7 10.7-2.3l.6-.3c13.2-5.9 19.1-21.4 13.2-34.6-1.1-2.4-1.2-5.1-.2-7.6s2.8-4.5 5.2-5.5c2.4-1.1 5.1-1.2 7.6-.2 2.5.9 4.5 2.8 5.5 5.2l2.7 6c-5.7 6-7.6 15.1-4 23.1 4.8 10.6 17.2 15.4 27.8 10.6 10.7-4.7 15.4-17.1 10.7-27.7z" fill="#0072ce"/></svg>