<svg enable-background="new 0 0 200 200" viewBox="0 0 200 200" xmlns="http://www.w3.org/2000/svg"><path d="m100 0-86.6 50 86.6 50 86.6-50z" fill="#0072ce"/><path d="m13.4 50 86.6 50v100l-86.6-50z" fill="#003087"/><path d="m100 100v100l86.6-50v-100z" fill="#005eb8"/><path d="m166.2 131.1c-2.4-5.3-7.7-8.5-13.2-8.4l-1.8-4.1c-1.9-4.3-5.4-7.6-9.8-9.3s-9.2-1.5-13.5.4-7.6 5.4-9.3 9.8-1.5 9.2.4 13.5c1.5 3.4 0 7.4-3.4 8.9l-.4.2c-3.4 1.5-7.4 0-8.9-3.4l-8.1-18c1.5-1.4 2.8-3 3.7-4.9l17.2-34.8c2.4-4.8 2.3-10.3-.1-15.1s-6.9-8-12.2-8.9l-5.7-.9c-.2-.7-.4-1.5-.7-2.2-2.8-6.4-10.3-9.2-16.7-6.4s-9.2 10.3-6.4 16.7 10.3 9.2 16.7 6.4c1.9-.9 3.6-2.2 4.8-3.7l6.2 1c1.8.3 3.4 1.4 4.3 3.1s.9 3.6 0 5.3l-17.3 34.7c-1.3 2.6-4.2 3.8-6.9 3l-37.4-11.2c-1.7-.5-3-1.7-3.7-3.3s-.6-3.4.2-5l2-4c1.8 0 3.6-.3 5.4-1.1 6.4-2.8 9.2-10.3 6.4-16.7s-10.3-9.2-16.7-6.4-9.2 10.3-6.4 16.7c.4.9.9 1.7 1.5 2.5l-2 4c-2.3 4.5-2.4 9.6-.4 14.2s5.8 8 10.6 9.5l37.4 11.3c1.6.5 3.2.7 4.9.7.4 0 .9-.1 1.3-.1l8.1 18.1c2.9 6.6 9.4 10.5 16.2 10.5 2.4 0 4.9-.5 7.2-1.5l.4-.2c8.9-4 12.9-14.5 8.9-23.4-.7-1.6-.8-3.5-.1-5.1.6-1.7 1.9-3 3.5-3.7s3.5-.8 5.1-.1c1.7.6 3 1.9 3.7 3.5l1.8 4c-3.9 4-5.1 10.2-2.7 15.6 3.2 7.2 11.6 10.4 18.8 7.2 7.1-3.3 10.3-11.7 7.1-18.9z" fill="#fff"/></svg>