<svg enable-background="new 0 0 173 200" viewBox="0 0 173 200" xmlns="http://www.w3.org/2000/svg"><path d="m86.5 0-86.5 49.9 86.5 50 86.5-50z" fill="#0072ce"/><path d="m0 49.9 86.5 50v99.8l-86.5-49.9z" fill="#003087"/><path d="m86.5 99.9v99.8l86.5-49.9v-99.9z" fill="#005eb8"/><g fill="#fff"><path d="m128.1 90.9c-9.6-11.6-22.1-18.8-26.6-17.4-2.4.8-4.4 3.9-5.8 8.4 1.5 1 3 1.9 4.4 2.9.9-3.4 2.1-5.7 3-6.4 2.8.2 12.5 5.3 21.2 15.7 8.8 10.6 11.5 30.8 12.3 38.9-3.2 1.3-8.2 3.1-13.4 4.1-5 1-9 .9-11.3-.1-7.4-3.3-12.5-14.4-13.5-29.7-.2-3.4-.2-6.7-.1-9.6-1.6-.8-3.3-1.7-5.1-2.7-1.4 17.7 2.7 40.6 16.5 46.7 10.6 4.7 32.1-5.4 32.1-5.4s-1.5-30.5-13.7-45.4z"/><path d="m66.4 95.2c-.8.2-2.1.4-3.6.1-.2-.6-.4-2-.2-3.1.1-.7.6-1.9.9-2.6.1-.2-.1-.5-.3-.5-.1 0-.3.1-.3.2-.5.7-1.4 2.5-1.6 3.6-.1.7-.2 1.4-.2 2-1.7-.9-2.8-1.9-5.1-4.1-.1-.1-.2-.1-.4-.1l-.2.1c-.2.1-.4.3-.2.6.7 1.2 3 4.8 6 5.9.7.3 1.4.5 2.2.6.5.1 1 .2 1.5.2-.5 1.2-1.1 2.5-1.6 3.8-1.3 1.4-2.9 2.7-4.4 3.5-.4-.3-1-.8-1.6-1.6-.5-.6-1.1-2.2-1.1-3 0-.2-.1-.3-.3-.3h-.2c-.2 0-.4.1-.4.3-.1.9 0 2.2.5 3.5.3.8.7 1.4 1.1 1.9-1.9.6-3.7.8-6.2.6-1.2-.1-3.6-.7-4.8-.9-.3-.1-.5.2-.5.4v.3c0 .1.1.2.2.3.8.5 2.5 1.3 4 1.7-.2.3-.5.6-.6 1-.5 1.4-.4 1.9-.6 3.2 0 .1 0 .3.1.3l.1.1c.2.2.6.1.6-.2.1-.8.4-1.8.9-2.5.6-.7 1.3-1.2 1.9-1.5 2.6.2 4.9.3 6.6 0 .9-.2 1.8-.6 2.6-1.1-.8 2.5-1.6 5.1-2.3 7.7-.1.4-3 4.9-3.2 5.5l-.6.5c-.8.8-2 1.8-3.7 2.5-.3-.4-.7-.9-1.1-1.5-.4-.7-.7-2.4-.6-3.2 0-.2-.1-.4-.3-.4h-.2c-.2 0-.4.1-.4.3-.2.9-.4 2.2-.1 3.6.1.8.4 1.4.7 1.9-2.3.5-4.3 0-5.6-.5-.3-.1-.6.2-.5.5l.2.4c0 .1.1.2.2.2.9.4 3.5 1.8 7.5 1.3 1.2-.1 2.1-.5 2.9-.9-.9 2.9-1.9 6.1-2.3 7.7-.1.3.2.5.5.5l.8-.2c.1 0 .2-.1.3-.2.8-2 6.9-12.8 8-16.5.2.4.3.8.5 1.1 1.6 2.8 5.1 4.4 6.5 5 .3.1.6-.1.5-.4l-.1-.6c0-.1-.1-.2-.1-.2-2.6-1.9-3.5-2.5-4.4-4 .5-.2 1.1-.4 1.7-.7 1-.5 2.4-1.6 3-2.3.1-.1.1-.2.1-.4l-.1-.3c-.1-.3-.4-.3-.6-.2-.6.5-1.6 1.2-2.1 1.5-1 .5-2.4.5-2.9.5-.5-1.1-.7-2.2-.7-3.1.9-3.1 1.9-6.2 3.2-9 .2.6.4 1.2.8 1.9 2.1 3.6 4.6 5.3 5.5 5.9.1.1.2.1.3.1l.5-.2c.3-.1.4-.5.1-.7-1.3-1-3.3-3-4.4-6-.8-2.2-.7-4-.5-5.4.3-.5.6-.9 1-1.4 2.1-2.8 11.2-7.1 17.3-10.1 6.1 3 15.2 7.3 17.3 10.1.3.4.7.9 1 1.4.1 1.4.3 3.2-.5 5.4-1.1 3.1-3 5-4.4 6-.2.2-.2.6.1.7l.5.2c.1 0 .2 0 .3-.1.9-.6 3.4-2.3 5.5-5.9.4-.7.6-1.3.8-1.9 1.3 2.9 2.2 6 3.2 9 0 .9-.2 1.9-.7 3.1-.5 0-1.9 0-2.9-.5-.6-.3-1.6-1-2.1-1.5-.2-.2-.5-.1-.6.2l-.1.3c0 .1 0 .3.1.4.6.6 2 1.8 3 2.3.6.3 1.2.5 1.7.7-.9 1.5-1.8 2.1-4.4 4-.1.1-.1.1-.1.2l-.1.6c0 .3.2.5.5.4 1.4-.6 4.9-2.2 6.5-5 .2-.4.4-.8.5-1.1 1.1 3.7 7.2 14.5 8 16.5 0 .1.1.2.3.2l.8.2c.3.1.5-.2.5-.5-.5-1.6-1.4-4.7-2.3-7.7.8.4 1.7.8 2.9.9 4.1.5 6.6-1 7.5-1.3.1 0 .2-.1.2-.2l.2-.4c.1-.3-.1-.6-.5-.5-1.3.4-3.3.9-5.6.5.3-.5.5-1.2.7-1.9.3-1.4.1-2.7-.1-3.6-.1-.2-.2-.3-.4-.3h-.2c-.2 0-.3.2-.3.4.1.8-.2 2.5-.6 3.2s-.8 1.2-1.1 1.5c-1.7-.7-2.8-1.7-3.7-2.5l-.6-.5c-.2-.5-3.1-5.1-3.2-5.5-.7-2.7-1.4-5.2-2.3-7.7.8.5 1.7.9 2.6 1.1 1.6.4 3.9.2 6.6 0 .6.3 1.3.8 1.9 1.5s.8 1.7.9 2.5c0 .3.4.4.6.2l.1-.1c.1-.1.1-.2.1-.3-.2-1.3-.1-1.8-.6-3.2-.1-.4-.4-.7-.6-1 1.4-.4 3.1-1.2 4-1.7.1-.1.2-.2.2-.3v-.3c0-.3-.2-.5-.5-.4-1.2.3-3.6.8-4.8.9-2.5.2-4.3 0-6.2-.6.4-.5.8-1.1 1.1-1.9.5-1.3.5-2.6.5-3.5 0-.2-.2-.4-.4-.3h-.2c-.2 0-.3.2-.3.3-.1.8-.6 2.4-1.1 3-.7.8-1.2 1.2-1.6 1.6-1.5-.8-3.1-2.1-4.4-3.5-.5-1.3-1-2.5-1.6-3.8.5 0 1-.1 1.5-.2.7-.1 1.5-.3 2.2-.6 3-1.1 5.3-4.7 6-5.9.1-.2 0-.5-.2-.6l-.2-.1c-.1 0-.3 0-.4.1-2.3 2.2-3.4 3.2-4.9 3.8 0-.6-.1-1.2-.2-2-.2-1.1-1.1-2.9-1.6-3.6-.1-.1-.2-.2-.3-.2-.3 0-.4.3-.3.5.3.7.8 1.9.9 2.6.2 1.1-.1 2.5-.2 3.1-1.5.3-2.7.2-3.6-.1-2-3.3-8.9-8-15.3-11.9v-26h-9.8v26.2c-6.5 4-13.4 8.6-15.3 12z"/><path d="m74.9 97.8c.1 3 .1 6.2-.1 9.6-1.1 15.4-6.1 26.5-13.5 29.7-2.3 1-6.4 1.1-11.3.1-5.2-1-10.3-2.9-13.4-4.1.8-8.1 3.6-28.3 12.3-38.9 8.5-10.5 18.3-15.6 21.1-15.8.9.7 2 3 3 6.4 1.4-1 2.8-1.9 4.4-2.9-1.5-4.5-3.5-7.6-5.8-8.4-4.5-1.5-17 5.8-26.6 17.4-12.3 14.8-13.8 45.4-13.8 45.4s21.5 10.1 32.1 5.4c13.8-6.1 17.9-29 16.5-46.7-1.8 1-3.5 1.9-4.9 2.8z"/></g></svg>