<svg fill="none" viewBox="0 0 122 26" xmlns="http://www.w3.org/2000/svg" xmlns:xlink="http://www.w3.org/1999/xlink"><linearGradient id="a" gradientUnits="userSpaceOnUse" x1="41.5223" x2="41.5223" y1="0" y2="26"><stop offset=".4" stop-color="#f00"/><stop offset="1" stop-color="#d42321"/></linearGradient><linearGradient id="b"><stop offset="0" stop-color="#fff"/><stop offset="1" stop-color="#fff" stop-opacity=".25"/></linearGradient><linearGradient id="c" gradientUnits="userSpaceOnUse" x1="117.798" x2="117.783" xlink:href="#b" y1="11.9178" y2="-1.03092"/><linearGradient id="d" gradientUnits="userSpaceOnUse" x1=".00939" x2=".00939" y1="1.50053" y2="24.4997"><stop offset="0" stop-color="#002a91"/><stop offset=".8" stop-color="#002672"/></linearGradient><linearGradient id="e" gradientUnits="userSpaceOnUse" x1="30.2355" x2="30.1899" xlink:href="#b" y1="13.6276" y2="4.91803"/><path d="m119.578 0h-76.3096c-.9534 0-1.7334.78-1.7334 1.73333v22.53337c0 .9533.78 1.7333 1.7334 1.7333h76.3316c.953 0 1.733-.78 1.733-1.7333v-22.53337c-.021-.95333-.801-1.73333-1.755-1.73333z" fill="url(#a)"/><path d="m42.77 12.8917h.1734c5.135-.1734 77.0896-2.6867 77.0896-2.6867.65-.0217 1.3-.49833 1.3-1.32167v-7.15c0-.95333-.78-1.73333-1.733-1.73333h-76.3316c-.9534 0-1.7334.78-1.7334 1.73333v12.52337c0-.1517.0217-1.235 1.235-1.365z" fill="url(#c)" opacity=".4"/><path clip-rule="evenodd" d="m16.4234 18.0051c0 1.1917-.4766 1.885-2.8166 1.885-.3034 0-.585-.0216-.845-.065v-15.85998c0-1.21334.4116-2.47 2.7733-2.47.3033 0 .6067.02166.8883.08666zm9.5549 6.1317c.3033.1517.9316.3467 1.7333.3684 1.365.0216 2.1017-.4984 2.6433-1.7117l7.28-16.20666c-.3033-.15167-.975-.34667-1.5166-.34667-.9317-.02167-2.1884.17333-2.99 2.08l-2.3617 5.54663-4.615-7.5183c-.3033-.08666-1.04-.21666-1.56-.21666-1.6467 0-2.5567.60666-3.4883 1.625l-4.5067 4.89666 3.6183 5.6767c.6717 1.04 1.5384 1.56 2.9684 1.56.9316 0 1.7116-.2167 2.08-.39l-4.355-6.5217 3.0766-3.27166 5.07 7.92996zm-18.80663-4.3549c2.96833-.325 4.42003-1.95 4.42003-4.1817 0-1.9283-1.1917-3.4883-3.9217-3.9433l-2.68667-.4983c-.86666-.1517-1.40833-.3467-1.40833-.845 0-.47671.56333-.84505 1.92833-.84505.78208 0 1.50014.04268 2.11344.07913.45713.02717.85605.05087 1.1799.05087.99666 0 2.01503-.41166 2.01503-2.36166 0-.26-.0434-.52-.0867-.75834-1.47333-.19499-4.16-.455-6.34833-.21666-2.90334.30333-4.37667 2.05833-4.37667 4.13831 0 1.7117 1.25667 3.3367 3.59667 3.77l2.81666.5417c1.04.2167 1.56.4333 1.56.9967 0 .4116-.41166.8666-1.73333.8666-.63322 0-1.37857-.0472-2.09129-.0923-.65294-.0414-1.2785-.081-1.76538-.081-.99666 0-2.036663.4333-2.036663 2.3833 0 .2384.043333.5417.086666.78 1.473337.1734 4.593337.455 6.738337.2167z" fill="url(#d)" fill-rule="evenodd"/><path clip-rule="evenodd" d="m15.535 1.49512c-2.3617 0-2.7517 1.25666-2.7517 2.47v10.87668c0-.4333.3467-.8883.8883-.91.1866-.0104.5366-.0207.8867-.0311.3819-.0113.7638-.0226.9333-.0339.3684-.0217.91-.26.9317-.9317v-11.35332c-.2817-.04333-.585-.08666-.8883-.08666zm10.6166 4.85338 4.5067 7.3233c-.1734-.2383-.39-.3466-.585-.3466-.068 0-.8406.0296-1.578.0578l-.0005.0001h-.0024c-.6721.0258-1.3142.0504-1.3658.0504-.13 0-.6933 0-1.0617-.4983l-2.08-3.25003-3.0766 3.27163.8016 1.2134c-.2166-.2817-.5633-.52-1.1266-.4984-.0819 0-.608.0194-1.1635.0398-.6211.0228-1.2788.0469-1.3932.0469-.6067.0217-.91-.325-1.0617-.5417l-.3683-.5633 4.5067-4.89666c.9316-1.01834 1.8416-1.625 3.4883-1.625.52 0 1.2567.13 1.56.21666zm8.8182 6.1751 2.665-5.93669c-.3033-.17333-.975-.34667-1.495-.34667-.9317-.02166-2.1883.17334-2.99 2.08l-2.2865 5.39286c-.0069.015-.0102.0238-.0102.0238l.0102-.0238c.0402-.0881.2048-.391.5748-.4095 0 0 2.2534-.0867 2.4267-.0867.7222-.0212 1.0071-.5215 1.0997-.684zm-30.00813-1.4083 2.68666.4984c2.75167.4983 3.94337 2.0583 3.96497 3.9866 0 .1354 0 .2536-.0154.3699.0338-1.0018-.6321-1.95-1.7829-1.9082-.2129.0089-.73452.025-1.29868.0425-.81377.0251-1.71605.053-1.90799.0658-1.04.0434-2.405-.0433-3.01166-.1516-.73667-.13-1.45167-.325-2.16667-.78-.953333-.7367-1.43-1.7767-1.43-2.8384 0-2.07996 1.47333-3.83496 4.355-4.18163 2.21-.23833 4.875.04333 6.3483.21667.065.26.0867.49833.0867.75833 0 1.95-1.01833 2.36167-2.015 2.36167-.32533 0-.73042-.02393-1.19302-.05125-.6157-.03637-1.33328-.07875-2.10031-.07875-1.365 0-1.92834.39-1.92834.84496 0 .4984.54167.6934 1.40834.845zm6.63623 4.8549c-.0018.0139-.0039.0279-.0062.0418v.0217.0433c.0029-.0357.005-.0713.0062-.1068z" fill="url(#e)" fill-rule="evenodd" opacity=".25"/><g fill="#fff"><path d="m46.5185 18.6767c-.1517-1.0617.1733-1.625.8017-1.625.585 0 2.015.6283 4.0083.6283 2.1017 0 2.8817-.7366 2.8817-1.7116 0-.6934-.3034-1.3-2.1884-1.82l-2.1666-.585c-2.405-.6284-3.3367-1.8417-3.3367-3.315 0-1.84169 1.4517-3.46669 4.745-3.46669 1.4733 0 3.315.325 4.4417.75833.195 1.04-.13 1.60333-.7584 1.60333-.5633 0-1.8416-.54166-3.64-.54166-1.95 0-2.665.67166-2.665 1.53829 0 .6067.2817 1.17 2.015 1.6684l2.21.6066c2.47.6934 3.4667 1.8417 3.4667 3.4667 0 1.9067-1.4733 3.6183-5.0483 3.6183-1.6034.0217-3.575-.3683-4.7667-.8233z"/><path clip-rule="evenodd" d="m65.1734 19.5217c3.0767 0 5.8933-2.3616 5.8933-6.37 0-3.98663-2.8166-6.36996-5.8933-6.36996-1.8417 0-3.3583.86666-4.2467 2.10166v-1.17c0-.49833-.2816-.80166-1.105-.80166-.4116 0-.8016.065-.9966.10833v16.25003c.195.065.585.1083.9966.1083.8234 0 1.105-.325 1.105-.8017v-5.1566c.91 1.235 2.405 2.1016 4.2467 2.1016zm-.4117-10.89816c2.405 0 4.1817 1.84166 4.1817 4.52836 0 2.6866-1.7767 4.5283-4.1817 4.5283-1.6467 0-3.1417-.9317-3.835-2.3183v-4.42c.6933-1.36503 2.21-2.31836 3.835-2.31836z" fill-rule="evenodd"/><path clip-rule="evenodd" d="m79.3649 6.80322c-3.5967 0-6.2834 2.70834-6.2834 6.34838 0 3.6183 2.6867 6.37 6.2834 6.37 3.6183 0 6.305-2.7517 6.305-6.37 0-3.64004-2.6867-6.34838-6.305-6.34838zm.0002 1.81983c2.2966 0 4.1816 1.71165 4.1816 4.52835 0 2.7733-1.885 4.5283-4.1816 4.55-2.275 0-4.16-1.7767-4.16-4.55 0-2.8167 1.885-4.52835 4.16-4.52835z" fill-rule="evenodd"/><path d="m95.8317 7.92995c0 .845-.3466 1.01834-1.235 1.01834-1.755 0-3.25.82333-4.16 2.73001v6.9117c0 .52-.2816.8016-1.1266.8016-.3467 0-.7584-.0433-.975-.1083v-12.26335c.195-.04333.6066-.10833.975-.10833.845 0 1.1266.30333 1.1266.80167v1.71166c1.1917-1.82 3.0117-2.73 5.2867-2.42666.0217.17333.1083.56333.1083.93166z"/><path d="m105.018 18.6767c-1.061.52-2.296.845-3.531.845-2.4269 0-3.8786-1.43-3.8786-3.8133v-10.53003c0-.54166.3033-.88833 1.1267-.88833.3466 0 .7583.08667.975.13v2.665h4.7669c.021.17333.086.54167.086.845 0 .73667-.303.99667-.758.99667h-4.0733v6.65169c0 1.43.6713 2.1233 2.0153 2.1233 1.235 0 1.906-.5417 2.491-.5417s.91.4984.78 1.5167z"/><path d="m106.47 18.6767c-.152-1.0616.173-1.625.802-1.625.585 0 2.015.6284 4.008.6284 2.102 0 2.882-.7367 2.882-1.7117 0-.6933-.304-1.3-2.189-1.82l-2.166-.585c-2.405-.6283-3.337-1.8417-3.337-3.315 0-1.84166 1.452-3.46666 4.745-3.46666 1.473 0 3.315.325 4.442.75833.195 1.04-.13 1.60333-.759 1.60333-.563 0-1.841-.54166-3.64-.54166-1.95 0-2.665.67167-2.665 1.53836 0 .6066.282 1.17 2.015 1.6683l2.21.6067c2.47.6933 3.467 1.8416 3.467 3.4666 0 1.9067-1.473 3.6184-5.048 3.6184-1.604.0216-3.575-.3684-4.767-.8234z"/></g></svg>