<svg xmlns="http://www.w3.org/2000/svg" xmlns:xlink="http://www.w3.org/1999/xlink" width="375" height="500" viewBox="0 0 375 500">
    <defs>
        <path id="a" d="M0 0h375v500H0z"/>
        <linearGradient id="c" x1="50%" x2="50%" y1="5.824%" y2="100%">
            <stop offset="0%" stop-color="#006AB8"/>
            <stop offset="100%" stop-color="#023D85"/>
        </linearGradient>
        <filter id="d" width="101.3%" height="100.9%" x="-.8%" y="-.3%" filterUnits="objectBoundingBox">
            <feOffset dy="2" in="SourceAlpha" result="shadowOffsetOuter1"/>
            <feGaussianBlur in="shadowOffsetOuter1" result="shadowBlurOuter1" stdDeviation=".5"/>
            <feColorMatrix in="shadowBlurOuter1" result="shadowMatrixOuter1" values="0 0 0 0 0 0 0 0 0 0 0 0 0 0 0 0 0 0 0.8 0"/>
            <feMerge>
                <feMergeNode in="shadowMatrixOuter1"/>
                <feMergeNode in="SourceGraphic"/>
            </feMerge>
        </filter>
        <linearGradient id="e" x1="50%" x2="48.089%" y1="66.669%" y2="22.613%">
            <stop offset="0%" stop-color="#A70A27"/>
            <stop offset="100%" stop-color="#BB0F2F"/>
        </linearGradient>
        <linearGradient id="f" x1="47.058%" x2="47.058%" y1="2.376%" y2="100%">
            <stop offset="0%" stop-color="#8D1F00"/>
            <stop offset="100%" stop-color="#420600"/>
        </linearGradient>
        <linearGradient id="g" x1="47.058%" x2="47.058%" y1="2.376%" y2="100%">
            <stop offset="0%" stop-color="#B00729"/>
            <stop offset="100%" stop-color="#630415"/>
        </linearGradient>
    </defs>
    <g fill="none" fill-rule="evenodd">
        <mask id="b" fill="#fff">
            <use xlink:href="#a"/>
        </mask>
        <g mask="url(#b)">
            <path fill="url(#c)" fill-rule="nonzero" d="M0 7.719h374.921V683.12H0z" transform="translate(.04 -47.89)"/>
            <path d="M.04-40.172h374.92V635.23H.04z"/>
        </g>
        <g filter="url(#d)" mask="url(#b)">
            <g fill="url(#e)" fill-rule="nonzero" stroke="#D66952" stroke-opacity=".5" stroke-width=".852" transform="translate(-35 -42.534)">
                <path d="M317.496 471.156l-1.164.4-.437.365.655.219.655.073.219-.146.837.11v-.329l-.291-.328zM307.488 470.354v.146l.11.474.145-.073.327-.401-.218-.365zM321.864 469.006l-.364.291.182.255.582.146h.218l.073-.146-.327-.255-.219-.291zM313.493 470.427l-1.164.437.545.328.62-.036.4-.182.181-.256.292-.546-.255-.365-.328.438zM47.202 65.121l.437-.145.218.145.328-.036.51-1.057-.146-.364-.473-.182-.11-.328-.655-.62-.436-.11-.11.147h-.218l-.364-.11-.473-.802-.51.256-.29.583.218.364.327.219.146.291-.036.51-.182.802-.473.11-.073-1.167-.328.037-.4.255-.11.547.583 2.15.437.291 1.856-.182v-.948l.073-.473zM43.017 64.283l-.255.948.146.656.327.145.182-.437.219-.11.327.074-.036-.365-.291-.947zM50.041 67.235l-.255.328.11.146.618-.037.291.328.655-.073.037-.364-.328-.474-.619-.073zM291.148 457.308l.254.218.255-.655.073-1.057-.037-1.094-.436-.655.218-.401-.145-.037-.765.146-.145.364.29 1.167-.181.801zM162.424 366.531l.728-.656-1.165.328-1.092.583-.655.22-1.019.728-3.675 1.166-1.165.182-1.237-.073-1.456-.145-1.456-.328-.109 1.093-.4.947-.837.22-.51-.11-.473-.11-.764.256-.655.655-.655.365-.728-.292.109 1.24.8 1.712.255.474.473.219 1.492.546.474.037.91-.146.4.255.218.583.51.036.145-.291v-.328l.291-.4.437-.183.473-.037.983-.182.946-.328.8-.546 1.493-1.567.473-.037.51.073.91-.073.91-.146-.22-.546-.145-.219-.582-.729-.218-.583.29-.91zM63.943 85.565l1.165.037.8.51.546 1.676-.036.656.546.328.946-.291.874-1.713.182.364.4.292.655-.765.691-.11-.218-1.312-.582-1.13-1.456-.364-.11-.255-.108-.656-.4-.218-.51.109-.655.838-.328.802-3.275.473zM62.524 99.377l-.073.473.146.474.655-.073.582-.437.619-1.312.327-1.64.837-.838.983-.291 1.892.072.182-.473 1.056-.766.728-.801.473-.11.364-.4.364-.584 1.565-.218-.255-.51-2.62-1.859-1.165-.255-.51.255-.545.11-.546-.365-.583-.073-.582.328-1.165.364-.51 1.13-.472-.218-.291.109-.692.546-.655-.473-.619-.073-.51.255.984 1.713-.146.583-.328.51-.254.146-.291.036.218.62 1.2.729.583.655.655.256-.29.583zM73.478 90.521l-.182-1.093-1.346-.474-.437.292-.364.729 1.565 1.093.655-.146zM206.933 544.185l-.619-.328.219.692.982.146.801-.036.874.182.727-.036.073-.401-1.237-.62-.146.328-.182.146-.218.036-.328-.437-.072-.838-.292-.365-.436-.291-.692-.11.364.51-.182.183-.255.146-.072.364.618.073.437.474-.036.073zM207.333 540.65l-.218-.182-.073.182-.327.328.109.146.8.328zM60.268 65.45l-.073.91.29.146.802-.546.254-.984-.8.036zM61.177 62.06l.837.802.583-.073-.146-.291-.582-.62.364-.146-.364-.583-.619-.51-.073.292.219.62-.328.181zM56.774 57.906l-.364.292-.073.255.255 1.275.437.729.545-.11.546.073.11-.765-1.201-1.057zM58.666 65.814l-.145.364.436.474.692-.182.145-.51-.109-.474-.51-.037zM65.945 63.336l-.473-.838-.437.109-1.019-.364-.4.218-.11.693-.254.437.51.364.363.438.182.656.4.51h.801l-.109-.62-.328-.4.073-.657zM82.54 351.517l.291-.145.11-.438-.073-.255-.364-.146-.328.22-.145.546zM89.564 356.036l.146-.182.182-.4-.874-.73-.29.292.218.364zM90.51 358.66l-.109-.4-.473-.402-.109.073.146.255v.365l-.146.255-.218.182.546.182zM89.419 322.145l-.473.328-.437-.51-1.42.037-.036.255.11.692-.037.583.546.292.437-.037.145-.218.182-.438.218-.036v.437l.11.328.254.146h.473l.146-.875.218-.583.292-.364.109-.547-.619.219zM52.006 337.706l-.182-.073-.218.036.182.693.51.947.4-.109-.146-.364-.255-.328-.072-.292v-.255zM102.811 353.011l.11-.145.072-.255-.218-.11-.4-.4-.619-.365.4.62-.145.801zM104.777 353.558l-.4.073-1.238.583-.837.656-.291.474h.255l.655-.438.946-.072.327-.328 1.274-.583zM85.488 343.427l-.51-.765h-.218l-.51.292.11.62.4.29.255.474.692.547.618.765.255-.656-.073-.4-.29-.62.072-.474zM70.24 358.733l-.146.182-.219.474.037.984.218.437.837.292.11-.438.327-.546-.8-.802zM96.333 346.197l-.982.036-.728.73-.11.4.365-.073 1.419-.364.728-.51.437-.584-.219.037zM109.544 357.057l.073-.292v-.4l-.036-.183-.219.073-.4.291v.219l.4.437zM108.634 363.434l.182.036.583-.218.982-1.167.983-.182-.146-.62.619-.801.655-1.603.037-.62-.474.073-2.074.802-.8.692-.328.62-.473.4.036.292.291.729-.327 1.093zM74.752 342.698l-.255-.036-.145.11-.219.4-.145.073.145.219.255.073h.328l.327-.219-.109-.474zM81.194 345.796l-.328.802.073.729.546-.51.364-.73-.182-.327zM96.807 356.656v.473l.51.365.4-.51.618-.219-.327-.4-.4-.147.108.328-.364.255zM75.407 369.848l.328.218h.546l1.455-.11.874.22 3.748.62.947.436 1.019.255.218.292.073.437v.62l.436.146 3.24-.22 3.239-.473 1.746-.182 1.747.11.947-.037.655-.255.072-.51.219-.62.145-1.057.146-.473-.255.072-.946.911h-1.128l-1.092.365-.437.437-.364.11-.364-.183-.072-.4.145-1.422-.182-.218-1.31.218-.764.219-1.42-.328-1.528-.073-.837-.62-2.257-.145-.727.145-.765.292-.691.146-.728.036-.328-.036-.327-.219-.11-.364-.036-.438-.618.11-.437-.255-.11-.11.11-.145.582-.256-.255-.583h-.582l-.473.583-.146.073h-.764l-.546-.073-.436-.182-.182-.765-.292-.219-.182.474v.547l-.327.364-.364-.182-.146-.328-.327.291-.146 1.167.11 1.202zM82.94 355.562v-.583l-.618.146-.073.182-.218.183-.546-.328-.073.218-.145.656 1.637-.255zM102.52 344.776l-.29.036-.983-.364-.656.036-.837.292-.436.583.254.109.838.073.545.474.474.145 1.055-.583.619-.073-.11-.619zM82.104 347.873l-.292.219-.218.328.218.364-.145.693.473-.292.364-.656-.291-.4zM74.425 333.88l-.474-1.094-.8-.801-.437.036-.91.292-1.274.91-.946.474.11.219.436.073.728-.328.91.291.873.438.91.692.8.802.328.437.364.328.546.292.255 1.13.873.4h1.02l1.237.11v.182l.182.364.29.219.328.729.364.4.037.547.145.328.874.583.327.437h.437l.255.146.218.219.219.11.29-.074.328-.437.073-1.057-.182-.218-.8.036-.838-.182-.691-.583-.437-1.203-.255-1.275.182-.438-.072-.364-.364-.474-.219-.62-.218-.218-1.783-.182-1.529-.802-.4-.036-.91-.438zM50.805 341.46l.364.109.291-.219 1.238.474.182-.182.036-.51-.728-1.057-.582-.219-.073-1.203-.4-.91-.11.182v.62l-.254.619-.291.145-.364-.364-.219.182-.436 1.166v.438l.29-.073.474-.474.182.146.218.364-.036.182zM78.173 330.272l.218-.656-.655.4-.364.839.364-.146zM46.11 324.66l-.072-.292-.291-.255-.437-.218-1.02.218-.509.328.037.401 1.273 1.458.583 1.312.728.51 1.019.364-.182-.583-.4-.11-.583-.29-.218-.365-.182-.984v-.182l-.473-.51.145-.256zM103.758 368.353l.327-.546.437-.146-.182-.765-.437-.693.4-.838.146-1.057-.51.328-.036.62-.691 1.239.364.875-.11.51zM91.311 352.21l.037-1.13-.182-.328-.328-.11-1.31 1.276.291.875.473.51.728-.364zM93.022 354.542l-.437.182.218.073.728-.073.983-.91.655-.22-.51-.364-.473.51-.728.401-.145.219zM86.616 345.832l.146.292.291.328.837.692.51.11.29-.656-.254-.292-1.055-.182-.4-.328zM84.833 314.347l-.437-.583-.764-.073-.291.255-.582.875v.4l1.055.73 1.02-.402-.037-.437.145-.474zM95.533 337.014l-.764-.584-1.347.292.036.656.874.947.255.62-.328.547-.619.328.146.255.837.838.764-.583.11-.146.036-.474.364-.218-.037-1.713-.072-.182.145-.547zM76.535 331.51l.328-.327-1.492-.984.582 1.166zM97.425 328.413l-1.455.11v.4l-.62.292-.472.219-.947-.037-.545.911.109.219.4.4 1.347.438.837-1.02.764-.037-.218.365-1.092.838.4.583 1.856.547h.619l.619-.22-.364-.4-.11-.437.364.109.4.328.11-.182-.146-.62-.364-.62-1.128-1.02.146-.62zM91.639 316.861l-.437-.255-.983.365 1.02.838.91-.255-.183-.401zM90.292 348.128l.073-.218-.946-.401-.255.218-.073.766.764-.073zM51.679 334.208l-.328.619-.255.984-.036.802.218-.183.255-.036.255.036.327-.072.219-.292.036-1.64-.182-.474zM83.996 352.647l.073.364.182.438.145-.037.364-.291-.4-.729h-.255zM52.261 345.14l.91.802.728-.693.691.255-.873-.983-.364-.365-.655-.11-.546-.764-.582.728.145.328zM88.545 351.117l-.728.437-.327.729.218.328.546.109.619-.802-.037-.146v-.546zM82.431 332.75l-.109.729.837.583v.146l-.182.328.218.036.837-.255-.727-.729-.146-.656-.619-.364zM331.071 449.51l-1.456.546-.4-.11-.036.183.145.4.219.074.691.036.946-.328 1.056-.583.582-.073.8-.328.365-.036.473.291 1.128-.91.764-1.058.728-.291-.546-.438-1.092.183-1.346.656-1.201-.365-.073.146.291.692-.182.401zM271.932 422.761l.291.474.291.11.473-.22.51-.655.073-.22v-.582l-.947-1.421-.364-.365-.218.146-.146.583-.145.11-.037.145v.182l-.29.474zM289.291 268.102l.146-.291.146-.948-.437.073-.291.62.145.692zM287.727 267.118l-.037-.255-.4.182-.291.255-.255 1.203.8 1.203.437.036.291-.328-.691-.291-.473-.766.073-.692zM54.881 137.896l.583-1.932.072-1.13v-.692l-.218.474-.218 1.494-.364 1.057-.91 1.64.473.11zM357.165 503.589l-1.2 1.348v1.094l.145.036.51-.11.4-.4.51-1.349.945-.765-.545-1.421zM293.222 466.491l.437.984.582.729.291.182.473.073h.546l.692-.182.691-.182 1.056-.328.254-.219.837-1.931.437-.656.146-.766-.037-.838-.327-1.202-.328-.948-.073-.547-.218-.619.328-1.421.363-.875-.218-1.057-1.237-.984-1.02-1.239-1.237.62-.837.91-.8 2.26-.255.984-.546 1.02-.328.474-.072.401.182 1.968.582 2.515-.11.364zM221.272 534.2l-.327.11.218.546.764.802.546.255.837-.146.255.219.036.218.182.183.219.218.072-.218.037-.948-.874-.765-.29.364.072.146.255.255-.619-.036-.327-.292.109-.255-.073-.219-.036-1.093-.255-.474-.437-.073.182.474-.218.437zM178.765 458.948l.182.4 1.564.584.328.291.328.437.545.62h.219l.437-.292-.255-.072-1.42-1.203-1.273-.547-.255-.218-.182-.365zM39.705 101.381l.146-.911 1.42-.62-.401-.218-1.165-.073-.8 1.057.4.729zM37.63 103.349l.547-.182.4-1.057.655-.328-.982-.984-.437-.219-.473.219-.291 1.02-.656-.473-1.492.51-1.055 1.093-.983 1.53-.618.657-.546.801-.073 1.604.182 1.64-.364.983.473.912.364 1.166.619.729-.655 1.056-.474 1.312.838-.146.727-.692.364-1.603.728-1.094.473-.51 1.31-.692.328-1.203.364-.546.473-.365.51-.182-.947-1.276.182-3.316zM35.556 75.398l-.364.364-.145.62-.073.11.182.655.218-.51.219-.364.582-.51v-.146zM311.237 331.365l-.255.437.218 1.604.4 1.457.11-.473-.437-2.442.291-.546zM94.477 320.141l-.473-.62-.364.037-1.055.4-.582.62.582.328 1.82-.328zM139.787 253.234l-.437-.328-.582-.838.146.801.29.547 1.093.51 2.474.547 1.129.146-1.129-.583z"/>
                <path d="M433.3 140.192l-194.013 1.384.91 104.224 34.683 3.06 2.11 1.677 1.493.765 1.783 1.057 1.456-.692 1.747-1.567 1.419-.328 1.929-.729 2.438-1.858 1.347-1.02 1.637-.657 1.93-1.202 2.074-.802 3.493.911 2.657 1.603 1.529.766 1.637-.766 1.129-1.13 1.564.402 1.893.036 1.237 1.13.801 2.186-.837 2.26.582 3.28-.764 2.587-1.237 2.15-.91 2.369 2.51 1.895-1.418.983-3.021-.91-3.894.145-2.511-.146-1.565.656-1.638.693-.655 1.822-1.674 1.567.109 1.931 1.31 1.13 1.165 1.239 1.42.765-1.311-.11-1.601.438-2.548-1.421-1.674-.036-1.929.109-1.164 1.093.072 1.895 1.565.692 1.71.328 2.039 3.426 1.019 2.296 1.383 1.931.618 1.713-.182 2.077 1.784.656 1.492.729.873 1.64 1.201 1.13 1.784-.183 2.001.474 1.31.692.328 2.223-.51 2.442-.91 2.478.037 2.296 1.128 3.826 1.092 1.75.837 1.749.255-4.373.182-3.025 1.637-1.895 1.42-.11 1.674-.437 2.038-.072 1.638 2.806.691 2.405 1.128 2.26 3.276 2.514 1.019 1.931-1.383 1.895-1.383-.4-.328 1.894-1.965-.182-1.747.62-1.383-1.021-1.42-.911-1.491.51-1.492-.437-1.201-1.421-1.165 2.879-.946 3.024.582 3.608 1.274 2.296 1.383-1.53 2.147.218.364 2.186 1.055 1.458-1.528.765-1.238-.765-.873 1.822 1.128.948 1.674.364 1.82.984.873 1.968.474 2.842-.255 2.333.109 2.332-.218 2.405.182 3.826.4 2.588.437 2.296.51 2.295-.874 1.422-1.82-.401 1.892-.766-4.33.584-9.499 2.478-3.421.072-5.131-1.275-1.529-.692-3.166-2.005-1.565-1.384-.983-1.895-1.892-1.057-2.002-.365-2.074-.145-2.402-1.057-1.238-1.75-.728-2.441-.436-3.826-.146-4.337.874-2.697 1.273.766 1.201-2.916.473-2.223.692-3.498.51-2.588 1.528-1.676 2.002-.729 1.783-.073 1.783.474-.946-1.895-2.038-1.239-1.747-.073-1.747-1.384-2.657-3.28-.655-2.005-.728-1.676-1.82-2.733-1.273-1.676-32.827-23.797-33.81 4.738-1.528-.292-1.383 1.64 1.71 1.166 2.148 1.822 3.02.911 1.784 1.458 2.875 2.114 1.274 3.68.655 2.697.8 1.895-.473 2.842-1.528 2.005-3.385 2.77-2.11.728-4.44 2.442-2.148-.183-1.528-.036-3.057-1.312-4.586.948-2.366.838-1.419.109-3.785-.802-3.821-1.202-2.912-.73-2.329-1.894-1.528.364-1.456.583-1.783-1.64-1.02-2.733-3.966.547-2.075-1.02-1.419-1.75-.91-1.858-2.074 1.166-4.44-.073-6.515-.583-3.457 1.348-3.24.911-1.892.802-1.783 1.53-5.022 2.843-.874 1.75-4.294.765-3.749-1.203-3.384.51-4.804-.838-1.383.073-.837 2.26 1.71 1.712 4.331.911-2.329.547-3.64.62-2.11 1.202 1.492.729-1.892.801-3.603-.145-2.62.364-1.566-1.494-.327 1.895-2.002.11-1.31-.985-1.528-.4-3.058.546-2.11 2.114-1.31 1.822-1.31 1.567.036 2.26-.328 1.967 1.893-.182 3.821-.838-.946 2.332 1.164 2.296.11 1.968-.62 1.931.365 1.822 1.092 1.13 1.382-.037-2.256.802-1.346-.328-.874-1.567-1.164-.838-.11 2.04-1.091 1.64 1.856 1.167 1.273-.365 1.565 1.458 2.257.692.51 2.66-1.238.657 1.092 1.676 1.383 1.53 1.273 1.786-1.346.401-.837 1.458 3.239-.292 3.712-.218-1.02 1.967-2.983.438-1.31.4 1.492.73 3.42-.766 1.784-.62 1.42.073 1.892 1.02 1.419.292 1.31.365.655 2.369 1.674 1.384 2.73.984 3.13-.91 1.71-.365 1.492-.219.619-2.15.182-2.697 2.948-.51 2.329.255 4.294 2.077 1.966.802 2.074 2.624 2.002 1.676 2.11.62 2.439-.656 2.73-.474 2.037-.291 2.075-1.13 2.766-3.061 2.402-1.786 1.674-.146 2.948 1.604 1.71.62 1.856-.766 1.42-1.275 2.001-1.312 1.092 1.676-1.237 2.186-1.201 1.167.036 2.441.036 2.369-1.019 3.389 1.092 1.494.328 1.932-.437 2.66.692 3.134-1.347 1.858-1.274 1.822-.29 2.078-2.185 5.065-1.091 2.332-.728 1.677-.837 2.441-.692 2.005-.91 3.972-1.019 2.806-1.564 2.879-2.293 2.514-2.366 1.312-1.892.474h-2.293l-1.492.437-2.33-.255-1.746.328-2.875-1.676-1.784 1.53-1.601-1.385-.073-2.26 1.456 1.276-.873-1.457-2.876.437-3.311-1.239-1.274.729-1.529.656-2.22.218 2.548-.983-2.511.437-1.383.146-1.092 1.311-1.674.474-3.676 2.369-1.31.802-2.147.874-1.492-.218-1.347-.802-2.33-1.02-4.366-.438-2.803-.874-2.984-1.713-3.821-.875-2.511-.4-4.513-1.021-4.076 1.02-1.856-1.348-1.02-2.114-1.164-.947-1.565-.292-1.637.146-2.803-.11-1.856-1.092-4.877-.839-1.455-1.093-.11-2.733-1.382-.62-1.31-.51-1.857-.51-1.455-.838-4.004-.255-1.637-.292-1.71 1.312-2.876.255-3.566 1.822-2.002 1.422L47.603 399l-1.201 2.077-.11 4.155 1.165 2.405.364 2.04-1.092 2.588-2.402 2.915-3.384 1.822-1.347.219-1.492-.219-2.147-1.166-3.822-3.353-1.928-.692-4.804-2.114-4.55-1.275-2.656-.11-2.62-.327-2.33-.911-1.892-1.604-1.456-2.842-.437-3.061-1.455-2.187-4.004-.838v374.585h207.152l-.328-1.859.182-2.514-.8-2.806-.219-2.66 1.128-2.15.4-1.895-.618-2.15-1.383-.11-1.42 1.094-1.455 1.056 1.42-1.056 1.455-1.094-1.055-2.514-1.856-.656-2.075-1.312.037-2.223-.838-2.55-1.382-3.754-.583-1.786-.582-2.223 1.092-3.462-.874-2.15.182-3.243 1.31-1.75-.363-1.967-1.493-.51-1.273-2.078-2.038-1.822-.546-2.077.837-3.571 1.2-3.134.51-2.005.8-2.296 2.112-1.749 1.164-2.587.874-1.567.946-3.025 1.055-1.822 1.092-1.385.4-2.842.801-1.53 2.912-.693 1.346-1.166.91-1.604.582-1.931 2.148-.036 2.147-2.005 1.601-2.113.91-1.786 1.055-1.859 1.93-1.858 1.418-1.822 1.31-1.494 1.202-1.166 6.041-6.341 2.002-1.895 2.547-1.968 2.402-2.26 4.695-3.352 7.242-3.972 1.82-1.312 6.623-6.487 5.06-5.43 3.711-4.227 2.075-3.644 3.311-4.337 3.203-5.43.364-1.858 1.128-2.988.91-1.713 1.783-2.442 1.529-2.915.728-2.442 2.001-1.895 1.456-2.514 1.165-2.697 1.674-2.113 1.492-2.588.073-2.26.51-4.409 1.091-1.056 1.383-.365 1.42.365-1.53-1.385-1.31.91.874-1.748-.145-3.39-.292-2.113 1.056-2.624-3.385-2.624-2.11 1.276-3.349 2.405-3.748.656-2.038.875-2.62.583-3.094-.438-1.893.255-3.348 1.24-2.475.218-1.892-.51-1.965.62-2.038 1.42-3.276 1.458-2.51-.291-1.82-.11-1.675-.328-3.821 1.495-3.166 1.712-4.44.073-1.856-.984-2.439-1.895-1.783-2.04-1.492-2.515-1.565-1.239-1.638-.729-2.038.219-1.637.51 1.71-1.968 2.002-.729 1.783-1.13 1.128-1.785-.91-2.26-1.346-1.603-1.056-1.968-1.637.292-2.184-2.915-1.42-1.458-.8-1.53-4.695-3.244-1.419-2.15-2.438-3.098-3.021-1.02-1.31-1.13-1.601-.692-1.857-.4-1.164-1.677-1.565-2.077-.364 1.858-1.492-1.713-1.674-2.77-1.602-3.388-.618-4.446-.874-2.952-.982-2.842-2.402-4.847-2.22-1.786-1.638-.947-1.674-1.895-1.529-1.166-1.564-.474-1.383-2.88-.91-4.117-.437-4.555-.036-2.332-.11-2.88-.254-2.113.546-1.75-1.02-1.202-1.237-2.223-.473-3.535-3.64-3.425-1.491-2.004-2.512-.984-1.746-1.786-1.056-2.806-.473-4.41 1.019-1.494-1.237-1.785-2.293-2.806-2.73-5.83-1.383-2.661-.91-2.223-1.892-2.952-2.22-4.664-1.274-4.483-.728-1.931-1.164-1.458-.837-1.603-.037-2.624-1.382-1.385-1.383-1.421-1.42-2.114-1.346-1.713-1.565-2.696-.182-2.333-.583-1.858-1.346-1.348.11-1.968 1.236-2.077 1.238 4.154 1.2 2.15 1.639 1.968 1.019 2.66.363 1.932 1.347 1.603 1.42 1.239 1.346 1.859 2.293 1.967 1.383.583 1.455-2.259.364-3.097 1.347-3.645.983-4.664.873-1.458 2.548.984 1.382.255 2.075.365 2.11.364 1.675.146 1.71-1.421 1.529-1.276-1.529 1.276-1.71 1.42-1.674-.145-2.147-.364-2.039-.365-1.382-.219-1.711-.291-1.237 5.758-.146 1.931-.764 2.223-.473 1.786 1.601-.401 2.038.219 2.766 3.17 1.237 2.733 1.456 1.53.728 1.713 1.42 1.677 1.746 2.55 2.184 4.374 1.237.583.692 2.55 1.273.985 1.82 3.06.764 1.932-.51 2.223 1.275 1.822 1.637 2.806 1.347.182 1.674.766 1.42 1.093 1.528 1.312 1.383 1.713 1.965 3.534.728 2.223 1.128 1.458.983 2.515.072 2.55-.4 2.26.073 2.223.946 2.186-.437 1.786 1.456 2.879 1.71 2.004.983 1.895 2.184 1.895 1.565.219 3.202 2.332 1.092 1.458 1.274.874 1.092 1.932 1.638 3.425.582 1.786 1.929 3.535 1.82 3.717 3.166 2.842 1.928 1.968.692 2.587 1.31 1.349 1.237 1.858.728 2.37 1.565-.475.983-1.275-2.438 2.405.29 2.842-.946 3.098.656 2.369-1.165 1.13 1.601.838.655 1.931.655 2.806.583 2.879 1.128 2.842v4.847l1.929 3.499 1.274.765 1.6.583 1.384.547 2.038-.292 2.875-1.421 2.183.291 1.747-1.275 2.257-1.057 1.128-1.348 3.093-1.312 2.257-.255 2.402.073 1.31-.146 2.475-.948 2.147-.51 1.31-.4 1.82-1.64 1.783-.802 3.385-.328 1.383-.073 1.746-.365 2.075-1.785.946-1.567 2.438-1.458 1.565-.729 2.875-.874 2.075-.183 1.383-.62 1.492-.91 3.93-.838 2.439-.73 2.256-.91 1.165-.838 1.747-.802 2.001-.984-.327-2.514.51-1.75 1.673-1.858 5.095-2.114 1.711-.656 2.511-.291 1.31-.802 1.456-.51 3.385-.984 1.492.036 1.674.547 2.329-.62 1.674-2.332-.145-2.223 1.783-2.15 4.149-.765 2.183-.146 2.257-1.786.837-3.534 1.346-1.422 2.839-1.239 2.002-.364 1.965-.11.946-1.603-.255-2.405-.364-2.077.692-2.332.473-2.478 1.929-2.77 1.31 1.494 1.674-.11 1.747-3.388 1.638-2.624 1.383-1.494 1.892-1.24 1.674-2.988 1.092-1.457 1.201-2.296.182-2.478-2.33-.62-1.783-1.858-.946-1.53-1.31-1.385-.946-1.75-1.092-1.603-1.565-1.093-1.492.218-2.184-.838-2.365-.4-1.71-.365-3.13-1.057-2.475-1.968-1.092-1.603-1.055-1.203-1.238-2.15-.8-2.332-.219-5.175.11-2.077.327-2.697.109-1.968-1.601.984-1.201 1.385-1.092 2.369-3.348 2.624-1.602 1.749-1.82 2.26-2.802 2.04-.982 1.676-.983 1.385-.837 1.604-2.001.947-2.038.838-4.513-.218-2.402-.401-3.057-.073-3.167 1.385-2.765.109-1.092-2.369-1.31-.729-.11 2.26 1.165 1.53 1.347 1.713 1.31 1.713 1.31 1.713 1.31 1.712 1.274 1.604 1.492.182 2.147.292 1.456.182 1.601.218 1.71.219 1.784.255 1.783.219 1.747.218 1.601.22 1.456.181 2.147.292 1.456.218-1.456-.218-2.183-.255-1.42-.219-1.637-.182-1.71-.255-1.784-.219-1.783-.255-1.71-.219-1.638-.218-1.42-.182-2.183-.292-1.493-.182-1.237-1.604-1.31-1.712-1.31-1.713-1.347-1.713-1.31-1.713-1.165-1.53-.473-1.786-1.783-.474.873-1.676-1.237-.656-1.383.364-1.31-.255-.983-1.712-1.128-1.53-1.274-3.026-1.82-2.295-.727-1.677-.874-1.822 1.056-3.097-1.492-1.932-.328-2.697-2.147-1.13-1.42-1.748-2.074-1.458-.982-1.931-2.002-.912-.8-2.405-1.456-2.15-.801-2.004-.655-1.713-.837-2.004-1.238-1.968-.655-2.114-.837-1.603-2.183-.073 1.965-2.04 1.383.4-1.092-2.405.51-1.931 2.256.801 1.565-.036 2.293-.692.618-1.895 1.02-1.932 1.528-.219-1.42.693 3.058 2.478 4.403-.729 1.165 1.494.837 1.604 1.237 1.785 1.274 1.203.983 1.895 1.019 2.04.582 2.26 1.237.802.583 2.441 1.455 2.66 1.93 2.807 2.583.546 1.529.219 1.273.984 2.293.874 1.274 2.041 2.766 2.26 2.875 1.202 1.31 1.385 1.601 1.13 2.912-.073 1.42.328 2.22.947 1.892.765 3.166-1.967 2.147-.401 1.347-1.458 2.802-.947 1.42-.948 1.31-.4 3.566.546 1.456 1.202 1.019 1.75.546 3.826.764 1.859.473 2.15 3.785 1.712 1.638.292 2.11.874h2.657l2.111.328 2.002 1.24 1.455-.11 1.82-.474 1.274.693 1.638.036 1.637.146 3.02.62 1.493-.912 4.185 2.041 2.402.729 1.42-.875 2.547.62 1.456-.219 1.274-.364h1.565l1.746-.583 2.84.328h2.146l1.638.146 1.856-1.567 1.71.4 1.53-.291 3.347 1.202 1.856-.619 2.293-.036 2.766-.547 2.184.182 1.637-.583 2.803-.4 1.346.145-2.183-.4 1.565-.948 1.674 1.02 1.31 2.296-.146 2.624 3.348 1.202 1.529 3.717.619 2.405 1.091 1.312 1.31 1.13 1.53-.802 1.419.474 1.6-.437 2.039-.583-1.638.328-.728 1.749 1.201.947 1.238-1.13.364-335.847z"/>
                <path d="M5.386 266.9l.437 1.239-.182 1.712.073 1.276.691 1.166 2.33 2.442.873.62.728.619-.8-.183h-.692l-.801.183v1.13l2.511 2.915 1.274 1.093 1.31.802.983.91v.948l.837.693 1.783-.292.983-.11 1.674.875 2.402.766 1.82 2.004 1.6 1.057 1.675 1.676 1.055.692-3.603-1.42-.728.036 1.056.62 2.62 1.42 1.893.438 2.693 1.785 1.383 1.13 1.492 1.02-.655-.947-.728-.693-1.783-1.13-.62-.546-1.018-.729-.619-.437-.8-.729.8.729.619.437 1.019.693.619.583 1.455.984 1.056.437.327.838.619.583.728-.182 2.001 2.114 1.82 2.04.51 1.203 1.237.838 1.019.146.873.729v1.567l-.655.838-.436 1.458.109 1.093.182.91-.182 1.386.036 1.822-.619 1.53-.363 1.312.837 2.04v.985l-.655-.328.29 1.312.729.765 2.911 1.75.91 1.785.291 1.676.8.693.729.984.91 2.259 1.31.729.837 1.13.946.801.728.62 1.128-.292.91.11.873.473-.255.875-1.746-.474-.947.146v1.239l.8.328.947 1.239.546 1.53.4 1.203 1.529.11.218-1.13.473.801.655.875.765-.11.655-.218 1.237-.146 1.31-.437 2.075.583.764-.036.8-.839 1.31.948 1.347.583.656.547.8.328h.8l.91.291-.218 1.02h-1.31l-.291 1.167-.983-.22-.691-.655-1.237-.692-2.512-.766-2.329-1.348-1.019-.073-.619.547-.727 1.02-.874.11-.764-.401-1.165 1.785-1.31 1.093.473.911.692.547.327 1.057.692.291 1.237 1.02.874 1.531-.801 1.895.036 1.203 1.238 2.15 1.237 1.275.364-1.567.146-.983.982-.365.437.656.764.802 1.165 1.785v1.895l.91.656v-1.202l.946-2.114.873-.146.91 1.057 1.201 1.604.655.4.764.401-.363-1.02-.583-.948.255-1.311-.619-2.406-1.164-2.733-.655-1.02-.328-1.494.983.073.728.182 1.237.765.546 1.057.728-.437 1.892-.62-.655-1.02-1.165-.547-.946-1.239-.473-1.348.874-1.093 1.783-.328.655-.438.655.255 1.201 1.276 1.165 1.057.764 1.02.655-.328.073-1.093-.255-1.385-.036-1.859-.182-.874-1.347-1.02-1.2-.256-.947-1.42-1.601-.365-.91-1.385-.947-.073-.91-.765-2.001-.583-.691-.51-.947-.183.874-.328h1.019l1.019-.473 1.092-.948-.801.073-.218-.838-.801-1.494.655-.51 1.929.51-.328 1.275.765.292.873-.73-.291-1.165-.437-.693-1.055-1.384-.983-.766-.51-.656-.654-1.785-1.966-2.478-.182-.838.291-1.64.328-.948-.11-1.348.874-.438.583-.437.873-.146-.582 1.057.364.948 1.637 1.02 1.71.911.11 1.312.546 1.057 1.856.692-1.274-1.567-.655-1.567h2.22l1.383 2.114.874.583.181-1.567-1.164-.948-.837-.838.837-.874.728.109 1.128.583.837.255.582.656.91.729-.437-.984-.618-.911-1.456-.838-.8.036-.801-.801-.437-1.531-.11-1.275h1.457l1.091.255 1.238-.656 1.164-1.349.765-.364 1.6.838.91.11 1.711-1.167.8-.255 1.165.62 1.966.51 2.875.437 1.237.802.473.875 1.238.692 1.091.146 1.747-.219h1.71l-.581.875-2.184 1.02-.728.583-.8.802.036 1.166-.437 1.348 1.02-.51 1.09-1.458 2.44-2.478 1.6-.692 2.293-1.312 1.383-1.603.546-1.385 1.965-.437 1.42.255 1.31-.766.691-.182.983.073 3.858 1.02 1.42-.328.618-1.42.182-.948-.874-.183-4.804-2.332-1.2-.947-1.165-1.859-.51-1.348.219-1.24-.255-.837-1.31-1.713-.874-1.53-.546-.547-1.273-.73 2.183-2.586 1.056-.474.072-2.952.255-1.822.874-.875.764-1.42 1.492-.329 1.165.401.764-1.24.218-2.66.583-2.66-.11-3.462.437-.91 1.201-1.458-.291-1.093.291-1.276.582-1.057-.254-1.202.727-.839.91.183-.218 1.166-.182 1.312 4.076-.984.4-.802.583-2.697.218-1.202.146-.948-.437-2.259-.546-.656v-.947l.655-.839 1.092.255.655-.218.837-.547 1.42-.583 2.474-2.77 1.31-2.04.51-1.13.4-1.239.218-.911 2.73-.838 1.456.11.655-.183.764-1.275.291.874.983.255.982.11.765-.22.218-.837.073-2.369-.364-.911-.218-.984-.62-1.458.62.656.8 2.041.219 1.494.072 1.713.546.765.692.51 1.783.401 1.82-.62-1.274 1.167-2.33.073-2-.146-1.311-.364h-1.274l.546.51.728.437 1.128.11 1.237.4-.764.911-1.092.292 1.165.437.91.292 2.329 1.53 1.201.51 2.548-.546 1.164.11 2.075-.62.51.583 1.31.765 1.31-.437.363.728.219.984-1.602 1.276-1.492.838-1.092.182-2.51 1.786-2.585 2.15.837.838 1.31-.328 1.165.11 2.147 1.749 1.638.073 1.31 1.02.364 1.312-.582 3.389-.546.947 1.565 1.822.8.401 1.238.11 1.31-.401 1.674-1.276 1.492-2.077 1.966-.947 1.383-.183 1.6.22.547-1.058 1.601-.91.946-1.35.765-.254.873.218.655.328.874.766 1.492-.292 1.383.037 1.31-.438.29-.984.183-.91.51-.802.472-1.02-1.164-.474-1.128-.256-.947.037-.727.328-.546.62-1.42-.365-.655.146-1.565.91-.8-.072-.655-.437-.91-1.057-1.893-2.88-.946-2.04-.4-1.239-.11-1.02.073-1.312.947-.62.764-.291 1.31-2.005.51.802-.11 1.057-2.11 2.004.946-.218.582-.51 1.565-2.442 3.421-2.843 1.565-.473 1.346.255.692-.182 1.237-.839 1.02-.364h1.018l.874.583 1.092-1.312.91-.583 1.382-.474h.947l1.637-1.858 2.293-.255 2.802.182.182-1.093.51-.73 14.594-4.409 17.105-17.856-58.594-119.711-54.263-21.647-.509-1.494-1.383.62-4.476-.583h-2.875l-.983-.328-1.82-1.312h-1.31l-5.35-1.276-1.42.11-.836-.183.073 1.276-.619.583H85.67l-2.365 1.057-1.638-.292-1.638 1.53-.982.074.254 1.239-2.402.291-1.164.51-1.165.73.182 1.348-.4 1.202.182 1.093.073 2.187 1.455.51-1.2 1.093-.146.875.4 1.275 1.055 1.094.11 1.093.473 1.093 1.965.838.837.62.946-.365.837-1.384 1.529.4.036 1.094-.546 2.696-1.055 2.952-.255 1.895.51 2.077.327 4.774-.182 1.093-.8 1.167-1.82 1.567-.983.838-2.292.546-2.876-1.749-1.2-3.462-.801-1.02-3.094-3.025-.254-.802-.51-1.093-2.584.838-2.329 1.02-1.71.402-2.148 3.717-.29 1.275-.146 1.567-.437 1.64-.764 1.239-1.456 1.603-.328 2.734-.145 5.466.254 2.733.11 3.644.873 2.806.546 2.296-.291 1.567.291 1.02 1.201-.073 1.347 1.13 1.019.474 1.528.838 1.601.547 2.184-.037 1.747.073.51 1.24.873.582.691.802-.91 3.316-.218.948-.036.984.364 1.202-4.44.62-4.295-.219-3.93-.219-3.822-.218-3.639-.182-2.293-.183-2.22-.182-.691.182-1.201.656-3.458.51-1.128-.291-1.346-.838-.655-1.13-1.201-3.207 1.929 1.093.982.438-2.11-1.859-1.711-.947h-1.893l-1.965.291-4.622 1.203-2.038 1.057-.983.765-2.62.62-1.456 1.603-.691 1.02-.837.984-1.165.328-1.128.182-4.913 1.53-4.586 1.677-.29 109.29zM129.997.875L130.47 0H74.024l-1.383 1.822-.946.547-.946.801-2.075 2.478-1.783.656-.036 1.24-1.02 1.566-.654-.218-.037.583.255.51-.582-.219-.255.328.364 1.057.255.583v.62l-1.602 1.166-1.783.62-.764-.474-2.038.583.036.874.146.73.655 1.311-1.42.11-.109 1.457-2.11 2.806-.4.875-.22.91-.108 1.13.29 1.895.183 1.75 1.273 1.239.146 1.093.11.947-.437 1.895-.364 2.114 1.055 1.239.655 1.786.619 1.822.036.62.437 1.275-.073.218-.036.146-.546.037-.182.255.218.473.182.219.11.437h-.474l-.036.474.182.765-.073 2.15-.291 1.823-.218.728-.583 1.13-.145 1.53.145 1.932.219 1.348.036 1.166v.984l.218.656.728.401.692.656.91-.838.618-.182.4 1.421.62.11 2.62 1.603 2.074.4.328-.145.181.073-.072.328-.473 1.275v.292l.582.11.036.436-.218.365-.4.11-.364-.037-.219.729.219.145-.255.911v.292l.218.692 1.456.037.4-.183.437-.291.328-.328.218-.4.218-1.35.146-.473.364.11.655 1.785.691.802.546.11.4.29-.072.802-.582.948-.838.729-.363.656.436.182 1.31-.474 1.165-1.275 1.092-.984 1.019.291 1.019.037 2.438-.693 2.548-.546.837.364.582-.4.655-1.094 1.965-.729.874.037 1.601-.62.874-.875 1.528-.182.728-.656.873-.51.474 1.057h.327l.728-.765.8-.51.692.072.036-.473-.254-.875-.4-.802h.654l1.347 1.093 1.383-.255.619-.692.327-1.385.583-1.202.29-.037-.036.51-.4.802-.255 1.203.11.984.582-.438.91-.255 1.856-.291.982-.875 1.056-.291.29.072 1.748 1.203.51-.4 1.164-.147.728-.546.29-.037 2.84-3.425 34.064-2.478 2.51-48.978-21.726-.219 1.638-1.02zM4.003 128.384l.619-.145-.328-1.458.51-.4 2.184-.147 2.183.292 1.492-.437.91-.037.764.292.837.583.765-.62.618-.802 1.238-4.008.51-1.312 1.055-1.713.473-1.457.4-1.75.582-2.077-.182-1.057-.218-.692-.036-1.13 1.237-2.478.182-1.02-.4-1.02-.146-1.094v-1.785l-.218-.766.327-1.53.765-.073.072-3.68.546-.802-.436-1.349-.51-2.004 1.383-.365.8-.51-1.091-1.421-.837-.219-1.638-.218-.728.182-.582-.4-.8-.147.8-.4 2.584.182 2.73-.037.982-.874 1.965-1.094.874-1.202 1.71-.875.764-.765.51.146 1.165-.73.982-.947 1.492-.728.291-.365.437-.729.328-1.712.655-.037.946-.547-.437-1.056-.436-.219-.4.182-.474.437-.51-.109-.509.146-.473.547-.619.218-1.237-.182-.837.911-2.438.036-.765-.364-.837-.036-.546.328-1.019-1.312-.873-.255L21.909 77l-1.383.256-1.056-.365-3.748.11-.8-.51 1.673-.22 1.784-.4.8-1.458.583.802.837.255.728-.692 1.091.583.655-.292 2.475 1.166.146-1.385 1.164.693 1.238-.037-.146-.838.728-.4.182.364.182.692-.255 2.187.437.546 1.092.328 1.601-1.13.4.146.473-.255.51-.62.51-.218 1.419-1.166.473-.583.655-.875 1.42-1.202.582-.401.145-1.13-.436-1.822-.4-.583-.256-.729-.509-.874-1.492-.62-.546-.547.182-1.64-1.237-1.348-1.201-.4-.728-.73-1.201-1.676-.437-1.275-.692.145-1.019.656-.655.073-.254-.801-.292-.693-.29-.255h-.801l-.765.037-.873-.984.073-1.02.145-.802-.618-2.296.109-.583-.219-2.624-.072-1.713-.11-.51.292-.547-.182-.765-.328-.4.218-1.276-.145-.766-.11-1.202.656-1.349-.146-1.166 1.092.547 1.055.146-.363-.984-.182-.693-.182-1.42.29-1.714.292-.947.51-2.442.436-.801.546-.365-.764-.51-.874-1.239-.436-1.567.036-.656.255-.765.8.437.474.547h.618l.582-.875.947-.036.873-1.312.728-.365-.255-.473-.582-.22-.218-.327.29-.364.256-.73-.328-1.129-.291-.802-.146-.729.219-.255.364.948 1.164-.037-.145.401-.037.401h.764l.364-.4.292-.62 1.71-.838.146-.584.036-.51.11-.546-1.493-.146.255-.62.51-.109.982-.437.364-1.13.218-.911.51.036.728-.4.473.036.327-.182-.073-.292-.473-.255.219-.364 1.747.364 1.6-1.931.401-1.458.546-.874 1.128.947-.036-.656.073-.875.728.401.51.51.545-.072.473-1.349L45.93 6.96l2.329-.947 1.346-1.093.655-.911 1.784-.948.691-.765L53.571 0H4.003z"/>
            </g>
            <g fill-rule="nonzero" stroke="#D66952" stroke-opacity=".75" stroke-width=".852">
                <path fill="url(#f)" d="M25.002 153.383l.983-2.878-.073-.438-.691-.801-.874-.584-.473-1.239-1.783-.072-1.674.072-.51-.072-1.601-.51-1.529-.839-1.019-.474-.873-.546-.473-.583-.728.146h-.473l-.11 2.186-.29 2.442-1.529.437-.873-.11-.91-.51-.765-.109-.655-.364 2.111-2.843.764-1.312-.436-.109-.437.765-1.347 1.786-1.273 1.53-.983.584-2.33-.073-1.055.51-.182 1.275-.072 1.094-.655 1.603-.837 1.239-1.201 1.166.29.182 2.257.183 2.257.182 3.675.182 3.785.219 3.967.218 4.294.219 4.513.146.255-.11-.328-.656-.363-1.202.036-.984z" transform="translate(8.308 -48)"/>
                <path fill="url(#g)" d="M147.248 1.567l.691 2.15.073 1.203-.837 1.384-2.657 1.02-1.565 1.458-.545-.072-3.167-1.677-2.11-.656-2.803-1.057-.473-.583-1.274-2.842-1.71-1.676H86.507l.764.838.219.656.109 1.093v1.166l-.182 1.02-.691 1.349-1.675 2.624-1.637 1.02-.11.219.51.838 2.912 3.316 1.892 1.567 2.584 2.077 1.638 1.64.546 1.166.691 1.312.8 1.057.583.947.218.584v.619l-.8 1.931-.437 1.495-.764 2.15-.8 1.494-2.003 2.733-2.947 3.353-.692 1.02-1.383 1.75-2.402 3.534-.619.765-1.928 2.806-.874.875-.728.838-1.929 2.587-2.038 2.005-2.038 1.822-.618.91-.765.693-.91.693-.363.364-2.038 2.478-2.839 3.426 3.057-.583 2.657-1.713.51.4.582.693-.073 1.093-.146.838-1.055-.801.255.947.982 1.75 1.347.692 2.038 2.26 2.438.254 1.565-.4 1.237.072 1.201 1.203.837 1.53.655.365.91.729-.109.838-.291.51-3.603-1.312-4.185-.692-.546.62-.546.947-.255.729-.255.437-.655.255-.946.073-1.164-.182-.692-.474-.51.546-.254 1.276-.692.656-.982-.51-.655-.984-.583.073-.364.91.255 1.24.146 1.457-.4 1.094.436.51.51.765.145.474-.182.255-.51.219-.145.255-.218.4-.655.073-.291.328-.4 1.312-.729 2.187-1.091 1.676-.874.911-.4.693-.219.838-.072.838.837 4.555v.838l-.219.838-.145.839.145.765.546 1.239.583 1.895.218 1.202.4.438.364.291.073.219v.219l-.182.218-1.71.62-.219.546-.182.583-.728.875-.218.802-.146.947v.328l.947.073.327.219.219 1.166 1.055.911 1.019.765.255.365.072.656-.072.801-.11.401-.436.474-.364 1.166-.037 1.13-.582 1.931.11.037 1.237-.328.327.182.255.437.11 1.203.363.546.4.875.146.656.764.765.073.51.437 1.786.182 1.057.109.765-.255 1.02-.182.693 1.092 1.239.255.036.582-.473.146-.037 1.237-.036.582.437.437.838.4.656.437.182 1.237-.838.656-.291.436.036 1.565.729.764.437.146.365.036.437-.218.692-.145.693.473.838.546.583 1.2-.948.437-.255h.473l.619-.364.473-.51.437-.182.837.109 1.528-.11 1.784.802.182.255.873.984.328.474.29.182.474.474.619.292.436-.11.219.182.182.365.036.62-.073 1.821-.29.51-.328.438-.11.328.037.364.51.802.654 1.203.146.692v.51l-.873 1.53-.292.365-.218.765-.11.766.074.291 1.455 1.203 1.129.656.218.328.036.218-.582 1.276-.073.364.91.51.473.875.437 1.348.837 1.312 1.783 1.166 1.31.766.255.328.11.4-.11.912-.327 1.093-.219.583.51.255 1.383-.073 1.674.219 2.001 1.202v.51l-.218.51.146.51.218.438 1.747 1.312.145.401.037.62-.037.473-.473.11-.546.218-.873.583-.364.802-1.383 1.093-.873.474-.692.036-1.637-.218-.583-.547-.255-.51-.618-.219h-.837l-1.165.073-.255.146-.182.62-.51 1.02-.327.583.292.364.436.766.728.947.764.838.219.51v.365l-.364.437.073.875.691 1.13-.218.182-.073 1.384v1.495l.182.364.4.292.328.546.546 1.24.036.327.146.037.764.364.764.292.546.036.655-.073.764-.437.51-.401.655-2.04.218-.292.364-.183h.583l1.091.365 1.274.364.764-.073 2.002-1.093 1.092-.182 1.31.292h1.31l.983-.146.655.364.837.838.728 1.24.8 2.295 2.257 2.588.036.51-.182.328-1.092.291-.946.182-.073.438.255.473.437.693.073.91-.037.803.182.728.364.292.073.364-.437.438-.109.291.146.146 2.074.073 1.02.437.763.401.364.037.874-.256.982-.145.583-.037.218.292.182.765.364.765.291.219.582-.036.364.036.182.291-.218.438.036.474.255.583.291 1.312.291.4.182.51v.584l-.218.473-.182.401.182.911.582.984.473.255.364.911.655.292.983-.765.764-.401.947.218.873.146.582.51.437.693.473.4.51-.218 1.055.219.473.583.473.291.619-.437.51-.583 1.82-.583 1.164-.146.327-.146.655-.4.692-.292.655.073.619.874.655.62.182.984.8 1.312 1.966 1.785.764.547.546-.073.254-.146.146-.218.11-.875.254-.328h.4l1.529 1.093.8.11.801.036 1.02.838 1.127.765.874.073.691-.291.473-.182.328.291.255.62.473.51.51.146h.764l1.31.984 1.237.947.764.073.655-.292.583-.072.4.255.11.4-.292.584v.801l.546.766v.765l-.146.656-.327.656-.728.838-.691.802-1.056.364-.582.328.145.583.4.547.874.437 1.02.328.108.364-.145.183-.655.182-.874-.182-.327.328-.4.51-.255.91-.219.875.946.219.583.364.182.693.182.802.073.692-.328.364v.328l.146.183.4.072.327.183.037.364-.619.838-.582 1.567-.291.875.036.91-.364.511h-.655l-2.11.11-1.893-.037-.8-.146-1.238-.073-.619.219-.837 1.458-.619.583-1.055.51-1.128.146-.655.583-.219.947-.036.838-.11.401-.254.365-.073.291.037.255.29.11.292.145v.219l-.11.255-.363.292-.146.437.037.437.072.547 2.148-.984.764-.765 1.456-.255-.182.291-.765.292-.728.728.947.073 2.074-.364.764-1.166 1.383.036.364.838.4 1.094-.036.4-.145.328-1.129.256-2.62 1.348-1.383.4-1.528.693.4.948.11.801-1.275-.182-.91-.255-.545.11-1.529.874-.837-.182-.8-.037.363 1.203.837 1.458.51.255.8-.11 1.893 1.75 1.42 1.749-.729.11-.727-.147h-1.02l-.4 1.057-.436.765-.073-.4.036-.547-.473-.328-.655.51-.728 2.332-1.383 1.677-.473 1.02v.729l.182.146h.328v.656l-.219.583-3.057.765-.4.437-.91-.328-.983-.947-.91-.474-.582.182-.582.438.327.255.4.109 1.056.583-.546.401-2.038.765.073.401.182.292 2.366.62 2.074 1.092.619.766.546 1.312.473.62.691.436.619.292 1.055.11 1.165-.438 2.657 3.134 1.019.51 2.62.62.655.328 4.877 4.336 1.492 1.895 2.875 2.806.837.583.364-.692.473-.765.546-.183 1.528.292 1.42.328 1.019-.219 1.237.583 1.128.693 1.129.473 2.183.438.837.62.946.655 3.785.292.292-.073.254-.11 1.274-.218 1.128.036 1.165.766.764-.037.8-.11 1.02.402.837.437.073.474.691.656 2.075.984 1.674.583.546.4 1.273.656.11.22v.254l-.364.51-.11.438.182.255.51.218 1.055.073.4-.328.765-.218.8-.401 1.02-.547 1.419-.474h.546l.546.146.4.255.619 1.02.655-1.42.145-.11.583.292 1.019.4.728.22.363.29 1.092 1.276 1.747-.073.764.183.4.218.183.255-.328 1.276-.437 1.312.037.328.691.51.983.51.51.437.327.365.764.291.91.182.4.037.474.291 1.128.62.145.146.874.218.109.62.145.146.364-.073.583-.292.473.219.619.729.837.801.473.51.182.365.436.364.619.401.51.656.436 1.494.437.328 1.638.583.582.11 1.601.182.546-.146.837-1.275.728-1.312.692-.292 1.237-.656.764-.583.291-.656.728-1.239.437-.729-.8-.62-.401-.218-.328-.328-.655-1.348-.582-1.093-1.2-1.859-2.075-2.806-.4-.364-.328-.365-.182-1.42-.582-1.021-.838-.693-.327-.364-.218-.364.4-2.005v-.583l-.182-1.239.146-1.385.473-1.931.51-1.348.145-.875-.692.547-.8 3.097-.255-2.478-.546-2.369-.437-1.202-.618-1.02-.838-.766-.8-.91-.874-.475-1.31-.4-.255-.328-.109-.584.073-.655.328-1.057.691-.693.91-.729.218-.473.146-.583.291.437.364.219.255-.984.364-.73.473-.619.618-1.42.437-.766.328-.875.145-1.421.364-.146.255-.255.218-.4.11-.438-.037-.838-.51-.875.146-.11.219.183.545.437.474.583.145-.838.4-.328.51.219.51.036 1.783-.656.873-.182.764-.473 1.857-1.786.4-.11.4.11.4.328.4.182.328-.073.146-.291-.364-.656-.11-.583-.036-.656.474-.183h.545l2.148-1.02.254-.437.11-.62.982-.109-.109-.547-.4-.109-1.784-1.093-1.492-.766-1.31-.692-.182-.11-.364-.327-.255-.51-.072-.583.145-.401.291-.292.4-.11.328.11.364.255.655.292.874.073.546-.255.072-.547-1.019-2.114-.946-1.712-.91-1.895-.4-.693-1.128-1.603-1.092-1.567-.873-1.421-.437-.438-1.42-.182-2.656-.328-.946-.182-.765.437-.764.328-.728-.62-.582-1.02-.291-.838.145-.875.073-1.275-.437-1.275-.473-.62-1.237-.474-1.529-1.057-.4-1.931.728-2.806 1.2-2.004.874-.838.437-.73.11-.655-.074-.583-.545-.656-.801-.62-.4-.765.182-1.676.509-2.406.837-1.93 1.092-1.058.946-.765.364-.729.036-1.02-.036-.948.255-.729.4-.546.437-.51.582-.547.764-.146.874.474 1.128 1.166 1.71 2.369.947 1.53.364.474.873.911.8.401 1.311-.583 1.274-.656.436-.437.255-.62-.218-1.093-.255-.692-.291-.911-.4-1.567-.255-2.479-.328-.765.219-.11.655.183.582.073.837-.547 1.165-1.056 2.11-1.567.474-1.057.364-1.166.582-.73 1.346-.254 1.238-.365.91-.838 1.346-.729 1.165-.437.473-.4.364-.62 1.31-1.75 1.019-1.093.91-1.093.291-.693.691.11 1.092.51 1.165.437.873.656.146.73.109.546.328.255.4.073.619-.146 1.091-.037 1.347-.874 1.856-1.53 1.71-.474.874.364.728 1.093.582 1.057.619.4h.364l.145.037.765-.255h.036l.691.073.656.328 1.091.037 1.492-.256.182-.109.728.146.874.474.691.583 1.238 1.895.691.473 1.456.693.655.583.8.947.4.583.874 1.02.983 1.714.182 1.311.218 1.167.364.51.328.073.29-.183.328-.51.11-.874-.073-1.53-.255-1.24-.327-.4-.182-.438.218-.547.546-.291.691.182 1.129.729 1.2.874 1.42 1.604 1.346.984 1.456.802 1.128.255.91-.255 1.056-.656.946-.73.437-.801.327-.875 1.456-1.166 1.31-1.057.619.22.436.29 1.347-.655.473-.182 1.31-.256 1.347.401 1.055 1.13 1.056.729.91-.073.764-.4.51-.693.4-.838.509-.547.073-.037 1.638.292 1.055-.036.11-.11 1.346.219 1.528 1.166.91 1.312 1.201 1.676.582.51.801.256.619.109.873.255 2.256.328.328.219.255.255-.219.91.182.22 1.856-.62.474-.51.618-1.349.51-1.384.4-.51.437-.146.437.218.582.802.837.838 1.092.328.655.11 1.055.072 2.402-.4 2.293-.985 1.31-1.093.582-1.64.4-1.895.583-1.166-.255-1.202-1.128-1.166-.4-.365-2.803-.62-.145-.473-.182-.11-2.73-1.02-1.346-.474-.364-.656-.255-.91-.837-.766-1.71-.729-.292-.583.255-.546.91-.438.437-.182 1.565-1.312.582-.291 1.347-.037 1.273-1.093.874-.62.473-.728-.146-.766-1.237-2.295-.4-1.385.218-.911.728-.984.437-.547.473-.984.327-.51 1.31-.219 1.529-.073 1.055.22 1.492.108 1.347.183.691.182.51-.328.364-.51v-.693l-.546-.656-2.002-.91-.837-.73-.655.11-1.128-.255-1.019-.474-.873-.146-.292-.656.182-.947.328-.547.655-.255.728.146.764-.401.255-.219.036-.291-.109-.438-.364-.328-.51-.109-.582.292-.727.218-1.201-.437-.947-.51.073-.51.692-.693.327-.583v-1.749l.218-1.13.728-.729.801-.4 2.11.728 2.658.656.436-.109.146-.364.291-.292 3.676-.146.728-.437.364-.328 3.53-.474.4-.473.546-.438h.8l.983-.182 1.347-.51.946-.292.146-.036 1.019.11 1.237-.402.291-.182.182-.328 1.092-.583 2.11-.51.51.291 1.02.146 1.273-.218.946-.401.546.4.728.365.546-.328.291-1.057.364-1.02.619-.474.51-.182.436-.4.364-.438 1.82.073 1.674-1.02.327.473 2.147-.11 2.657-.692 1.601-.291 2.73-.693 1.274-.583 1.82-.364 1.673-.219 1.092-1.02.874-.11 1.091-.109.656-.218.436-.365.255-.692-.146-.875-.145-.656.764-.364 1.092-.11.691-.145 1.493-1.458 1.055-.692 1.092-.438 2.147.255 1.965.22.874.29V.22H147.139z" transform="translate(8.308 -48)"/>
            </g>
        </g>
    </g>
</svg>
