<?xml version="1.0" encoding="utf-8"?>
<!-- Generator: Adobe Illustrator 18.1.1, SVG Export Plug-In . SVG Version: 6.00 Build 0)  -->
<svg version="1.1" id="Layer_1" xmlns="http://www.w3.org/2000/svg" xmlns:xlink="http://www.w3.org/1999/xlink" x="0px" y="0px"
	 viewBox="0 0 113.4 113.4" enable-background="new 0 0 113.4 113.4" xml:space="preserve">
<g>
	<polygon fill="#2C71B9" points="56.7,1.9 9.2,29.3 56.7,56.7 104.2,29.3 	"/>
	<polygon fill="#253B80" points="9.2,29.3 56.7,56.7 56.7,111.5 9.2,84.1 	"/>
	<polygon fill="#2160AD" points="56.7,56.7 56.7,111.5 104.2,84.1 104.2,29.3 	"/>
</g>
<path fill="#FFFFFF" d="M75,43.4H38.4c-2.5,0-4.5,2-4.5,4.5v23.2c0,2.5,2,4.5,4.5,4.5H75c2.5,0,4.5-2,4.5-4.5V47.9
	C79.6,45.4,77.5,43.4,75,43.4z M56.7,70.8c-6.2,0-11.3-5-11.3-11.3s5-11.3,11.3-11.3S68,53.3,68,59.5S62.9,70.8,56.7,70.8z"/>
<polygon fill="#FFFFFF" points="64.2,57.1 59.1,57.1 59.1,52 54.3,52 54.3,57.1 49.2,57.1 49.2,61.9 54.3,61.9 54.3,67 59.1,67 
	59.1,61.9 64.2,61.9 "/>
<path fill="#FFFFFF" d="M60.1,48.2h-6.9c-3.4,0-6.2-2.8-6.2-6.2s2.8-6.2,6.2-6.2h6.9c3.4,0,6.2,2.8,6.2,6.2S63.6,48.2,60.1,48.2z
	 M53.2,39.2c-1.5,0-2.8,1.3-2.8,2.8c0,1.5,1.3,2.8,2.8,2.8h6.9c1.5,0,2.8-1.3,2.8-2.8c0-1.5-1.3-2.8-2.8-2.8H53.2z"/>
</svg>
