<?xml version="1.0" encoding="utf-8"?>
<!-- Generator: Adobe Illustrator 18.1.1, SVG Export Plug-In . SVG Version: 6.00 Build 0)  -->
<svg version="1.1" id="Layer_1" xmlns="http://www.w3.org/2000/svg" xmlns:xlink="http://www.w3.org/1999/xlink" x="0px" y="0px"
	 viewBox="0 0 113.4 113.4" enable-background="new 0 0 113.4 113.4" xml:space="preserve">
<g>
	<g>
		<polygon fill="#2C71B9" points="56.7,1.9 9.2,29.3 56.7,56.7 104.2,29.3 		"/>
		<polygon fill="#253B80" points="9.2,29.3 56.7,56.7 56.7,111.5 9.2,84.1 		"/>
		<polygon fill="#2160AD" points="56.7,56.7 56.7,111.5 104.2,84.1 104.2,29.3 		"/>
	</g>
	<g>
		<path fill="#FFFFFF" d="M46.3,52.9l5-7c0.1-0.2,0.3-0.2,0.5-0.1l9,4.1c0.2,0.1,0.3,0.4,0.2,0.6l-7.1,10c-0.1,0.2-0.4,0.2-0.6,0
			l-6.9-7.1C46.2,53.3,46.2,53.1,46.3,52.9z"/>
		<path fill="#FFFFFF" d="M88,82.2l4.9-6.9c0.1-0.2,0.1-0.4-0.1-0.5l-30-23.6c-0.2-0.1-0.4-0.1-0.6,0.1L55,61.4
			c-0.1,0.2-0.1,0.4,0.1,0.6l32.3,20.4C87.6,82.4,87.9,82.4,88,82.2z"/>
		<path fill="#FFFFFF" d="M45.3,51.4l4.1-5.8l-9.9-9.7c0,0-3.5,1.7-9.9-0.1c4,5.2,2.9,9.1,2.9,9.1L45.3,51.4z M36.7,40.9
			c0.6-0.8,1.8-1,2.6-0.4c0.8,0.6,1,1.8,0.4,2.6c-0.6,0.8-1.8,1-2.6,0.4C36.3,42.9,36.1,41.8,36.7,40.9z"/>
	</g>
</g>
</svg>
