<?xml version="1.0" encoding="utf-8"?>
<!-- Generator: Adobe Illustrator 18.1.1, SVG Export Plug-In . SVG Version: 6.00 Build 0)  -->
<svg version="1.1" id="Layer_1" xmlns="http://www.w3.org/2000/svg" xmlns:xlink="http://www.w3.org/1999/xlink" x="0px" y="0px"
	 viewBox="0 0 113.4 113.4" enable-background="new 0 0 113.4 113.4" xml:space="preserve">
<g>
	<path fill="#FFFFFF" d="M64.4,65.8c-8.3,6.8-20.5,5.5-27.2-2.7c-6.8-8.3-5.5-20.5,2.7-27.2c8.3-6.8,20.5-5.5,27.2,2.7
		C73.9,46.8,72.7,59,64.4,65.8z M43.6,40.3c-5.8,4.7-6.6,13.3-1.9,19s13.3,6.6,19,1.9c5.8-4.7,6.6-13.3,1.9-19S49.4,35.6,43.6,40.3z
		"/>
	<path fill="#FFFFFF" d="M76.8,80.9L76.8,80.9c-1.2,1-3,0.8-4-0.4L61.6,66.8c-1-1.2-0.8-3,0.4-4l0,0c1.2-1,3-0.8,4,0.4l11.2,13.7
		C78.2,78.1,78,79.9,76.8,80.9z"/>
	<path fill="#FFFFFF" d="M78.8,83.4L78.8,83.4c-2.1,1.7-5.2,1.4-6.9-0.7l-6.7-8.2c-1.7-2.1-1.4-5.2,0.7-6.9l0,0
		c2.1-1.7,5.2-1.4,6.9,0.7l6.7,8.2C81.2,78.6,80.9,81.7,78.8,83.4z"/>
</g>
<g>
	<polygon fill="#2C71B9" points="56.7,1.9 9.2,29.3 56.7,56.7 104.2,29.3 	"/>
	<polygon fill="#253B80" points="9.2,29.3 56.7,56.7 56.7,111.5 9.2,84.1 	"/>
	<polygon fill="#2160AD" points="56.7,56.7 56.7,111.5 104.2,84.1 104.2,29.3 	"/>
</g>
<g>
	<path fill="#FFFFFF" d="M31.9,48.5l20.9-12c2.4-1.4,5.3-1.4,7.7,0l20.9,12c1.2,0.7,1.2,2.4,0,3.1l-21,11.6c-2.3,1.3-5.2,1.3-7.5,0
		l-21-11.6C30.7,50.9,30.7,49.2,31.9,48.5z"/>
	<path fill="#FFFFFF" d="M40.3,59.1v5c0,4.2,2.2,8,5.8,10.2l2.1,1.2c5.3,3.1,11.8,3.2,17.1,0.1l2.3-1.3c3.6-2.1,5.8-6,5.8-10.2v-5
		L61.6,66c-3,1.7-6.7,1.7-9.7,0L40.3,59.1z"/>
	<polygon fill="#FFFFFF" points="78.6,50.3 76.1,69 80.8,69 	"/>
</g>
</svg>
