<?xml version="1.0" encoding="utf-8"?>
<!-- Generator: Adobe Illustrator 18.1.1, SVG Export Plug-In . SVG Version: 6.00 Build 0)  -->
<svg version="1.1" id="Layer_1" xmlns="http://www.w3.org/2000/svg" xmlns:xlink="http://www.w3.org/1999/xlink" x="0px" y="0px"
	 viewBox="0 0 113.4 113.4" enable-background="new 0 0 113.4 113.4" xml:space="preserve">
<g>
	<polygon fill="#2C71B9" points="56.7,1.9 9.2,29.3 56.7,56.7 104.2,29.3 	"/>
	<polygon fill="#253B80" points="9.2,29.3 56.7,56.7 56.7,111.5 9.2,84.1 	"/>
	<polygon fill="#2160AD" points="56.7,56.7 56.7,111.5 104.2,84.1 104.2,29.3 	"/>
</g>
<g>
	<path fill="#FFFFFF" d="M44.4,82l3.7-19.8l1-12.4c0.2,0,0.4,0,0.6,0l0,0H55h3.5h5.4c0.2,0,0.4,0,0.6,0l1.1,12.4L69.3,82 M56.7,31.4
		c4.2,0,7.7,3.7,7.7,8.3c0,0.4,0,0.8-0.1,1.1c0.2,0.5,0.5,0.6,0.8,0.8c0.2,0.1,0.4,0.1,0.7,0.1c-0.4,1.1-1.4,2-2.7,2.5
		c-1.4,2.3-3.7,3.8-6.5,3.8c-2.7,0-5-1.5-6.4-3.7c-1.3-0.5-2.5-1.4-2.9-2.6c0.3,0,0.5,0,0.7-0.1c0.3-0.1,0.7-0.4,0.9-1
		c0-0.1,0.1-0.2,0.1-0.3c0-0.2,0-0.4,0-0.6C49.1,35.1,52.5,31.4,56.7,31.4L56.7,31.4z"/>
	<path fill="#FFFFFF" d="M66.1,50.8c-1.1-1.3-3.1-1.5-4.4-0.4c-1.3,1.1-1.5,3.1-0.4,4.4l6.2,7.3l-9.2,3c-1.6,0.5-2.5,2.3-2,3.9
		c0.5,1.6,2.3,2.5,3.9,2l13.6-4.5l0,0c0.4-0.1,0.7-0.3,1.1-0.6c1.3-1.1,1.5-3.1,0.4-4.4L66.1,50.8L66.1,50.8z"/>
	<path fill="#2160AD" d="M49.2,67.5c1.2-5.2,8.2-12.3,14-12.8c4.9-0.3,8.1,4.6,6,8.9c-2.5,5.3-11.5,9.2-16.6,8.6
		C50,71.6,48.9,70.1,49.2,67.5L49.2,67.5z"/>
	<path fill="#FFFFFF" d="M66.4,58.9c1.4,2,1.1,4.8-0.8,6.1c-1.9,1.3-4.6,0.8-6-1.3c-1.4-2-1.1-4.8,0.8-6.1
		C62.3,56.3,65,56.9,66.4,58.9L66.4,58.9z"/>
	<path fill="#FFFFFF" d="M64.9,60c1,1.4,0.7,3.2-0.5,4.1c-1.3,0.9-3.1,0.5-4.1-0.9c-1-1.4-0.7-3.2,0.5-4.1
		C62.1,58.3,63.9,58.7,64.9,60L64.9,60z"/>
	<path fill="#FFFFFF" d="M47.3,50.8c1.1-1.3,3.1-1.5,4.4-0.4c1.3,1.1,1.5,3.1,0.4,4.4l-6.2,7.3l9.2,3c1.6,0.5,2.5,2.3,2,3.9
		c-0.5,1.6-2.3,2.5-3.9,2l-13.6-4.5h0c-0.4-0.1-0.7-0.3-1.1-0.6c-1.3-1.1-1.5-3.1-0.4-4.4L47.3,50.8L47.3,50.8z"/>
</g>
</svg>
