<?xml version="1.0" encoding="utf-8"?>
<!-- Generator: Adobe Illustrator 18.1.1, SVG Export Plug-In . SVG Version: 6.00 Build 0)  -->
<svg version="1.1" id="Layer_1" xmlns="http://www.w3.org/2000/svg" xmlns:xlink="http://www.w3.org/1999/xlink" x="0px" y="0px"
	 viewBox="0 0 113.4 113.4" enable-background="new 0 0 113.4 113.4" xml:space="preserve">
<g>
	<polygon fill="#2C71B9" points="56.7,1.9 9.2,29.3 56.7,56.7 104.2,29.3 	"/>
	<polygon fill="#253B80" points="9.2,29.3 56.7,56.7 56.7,111.5 9.2,84.1 	"/>
	<polygon fill="#2160AD" points="56.7,56.7 56.7,111.5 104.2,84.1 104.2,29.3 	"/>
</g>
<g>
	<g>
		<circle fill="#FFFFFF" cx="52.4" cy="63.4" r="2.4"/>
		<circle fill="#FFFFFF" cx="60.3" cy="63.4" r="2.4"/>
	</g>
	<path fill="#FFFFFF" d="M76.3,54.2c0-3.5-0.8-5.9-1.8-7.5l2.7-4.8c0,0-7.8-8.7-20.6-8.7c-12.8,0-20.6,8.7-20.6,8.7l2.8,4.7
		c-1,1.6-1.9,4.1-1.9,7.6c0,8.6,3.2,19.3-6.1,19.3c0,0,2,9.6,19.9,5.4c1.8,0.8,3.7,1.2,5.7,1.2c2.2,0,4.3-0.5,6.2-1.4
		c-0.2,0.1-0.4,0.2-0.4,0.2c18,4.2,20-5.4,20-5.4C73.1,73.5,76.3,62.8,76.3,54.2z M56.6,77.7c-7.8,0-14.1-7.5-14.6-16.9
		c1.1-0.8,4.5-3.3,8.3-3.8c2.6-0.3,4.9-1.2,6.4-2.5c1.5,1.4,3.8,2.2,6.4,2.5c3.6,0.5,6.9,2.7,8.1,3.7C70.8,70.1,64.4,77.7,56.6,77.7
		z M69.2,50.8c0,0-5.4-4-12.5-4s-12.2,4-12.2,4l-5.2-8.2c0,0,6.6-6.9,17.4-6.9s17.5,6.9,17.5,6.9L69.2,50.8z"/>
	<polygon fill="#FFFFFF" points="60.9,40 58,40 58,37.1 55.4,37.1 55.4,40 52.5,40 52.5,42.6 55.4,42.6 55.4,45.5 58,45.5 58,42.6 
		60.9,42.6 	"/>
</g>
</svg>
