<svg id="Layer_1" xmlns="http://www.w3.org/2000/svg" viewBox="0 0 841.9 595.3"><style>.st0{fill:none}.st1{fill:#005eb8}</style><path class="st0" d="M427.4 261.2c-.1-.1-.2-.3-.3-.5.1.2.2.4.3.5zM427.9 261.5c-.1 0-.2-.1-.4-.2.2.1.3.2.4.2zM426.7 259.5c-.1-.5 0-1 .2-1.2-.2.2-.3.7-.2 1.2zM426.2 257.9s0-.1 0 0c0-.1 0 0 0 0zM426.5 257.8c0 .2.1.3.2.5-.1-.2-.2-.4-.2-.5zM426.9 258.3c.1 0 .2-.1.3-.1h-.1c-.1.1-.2.1-.2.1zM424.5 276.5l7.7-1.4-7.7 1.4zM426.4 262.2v-2.3l-.2-.1v-.7h-.5l-.1.7h-.3l-.1.2v3.4l.5.1v-.5l-.2-.1.1-.8zM428.4 267.3c-.4.3-.8.8-1 1.2 0-.7-.7-1.4-1.1-1.9-.4-.4-.9-.9-1.5-1.1-.2.1-.3.1-.5.2.8.1 1.4.6 2 1.2.4.5 1.1 1.2 1.1 1.9.3-.4.6-.9 1-1.2.4-.3 1-.1 1.5-.1 0-.1 0-.2-.1-.4-.5.1-1-.1-1.4.2zM429 260.7c0 .1-.6-.2-.6-.1 0-.1.6.2.6.1zM425.5 255.9c.2.4.2.7.4 1.1.1.2.2.5.3.7 0 .1.1.1.1.2 0 0 0-.1-.1-.2-.1-.2-.2-.5-.3-.7-.2-.4-.3-.8-.4-1.1zM424.4 253.7c-.4-.7-.9-1.2-1.3-1.9-.1-.2-.3-.6-.6-.9.2.3.5.7.6.9.4.6.9 1.2 1.3 1.9zM413.2 292l-6.2-.8-.9.4 3.6.5zM426.5 302.9c-.3.2-1 .2-1.3.2-.4.1-1-.1-1.5 0-.4.1-.5.2-.9.2s-1-.1-1.4 0l.5-9.1-.5 9.1-.1 1.4.1-1.4c.4-.1 1 0 1.4 0 .4 0 .5-.1.9-.2s1.1.1 1.5 0c.2 0 1 0 1.3-.2zM421.8 240.4s0-.1 0 0c0-.1 0 0 0 0-.1 0 0 0 0 0zM428 258.9s.1-.1.1-.2c0 .1-.1.2-.1.2zM421.4 249.6c-.4-.3-.6-.5-.8-.6.2.2.4.3.8.6z"/><path class="st0" d="M420.6 249c0 .2.1.6.2.5-.1-.2-.2-.4-.2-.5z"/><path class="st1" d="M439.8 360.2c-1.1-.8-4-2.5-4-2.5l-2.3-1.9-1.4-1.5.9-.6-.2-1.7s-.9-.2-.9-.5.8-.7.8-1c0-.2-.5-1.6-.5-1.6l.9-.7-1.1-18.3-.2-14.6c.3-.2.5-.4.5-.4l2.1-.9h2.7l1.8-.3-2.7-17-4-21.7-7.7 1.4 7.7-1.4v-.1s1.3-.3 1.7-.5c.5-.2 1.4-.8 1.7-1.2.3-.5.8-2.6.8-3.2 0-1.2-1-2.9-1.4-4.1-.8-2.3-3.9-8.7-3.9-8.7s.1-.8 0-1.1c-.2-.9-1.5-3.2-1.5-3.2l-6.1-2.4s-1.1-1.4-1.7-1.9c-.2-.2-1.2-.7-1.3-.8s0-.7 0-1c0-.1 0-.1.1-.2.1-.2.5-.5.7-1.2.2-1.2.3-1.8.3-2.1 0-.2.3 0 .5-.5.4-1.1.6-3.4.6-3.4l-.5-.3.2-1.3.3-4.3-1.7-1.8-.6.3-.1-1-.5.5-.1-1s-1.8-.7-2.4-.7c-.7-.1-2.2.2-2.9.4-.6.2-1.9.5-2.4.9s-1.3 1.9-1.3 1.9l-.2 5.4s-.6.2-.7.4c-.4.9-.1 3.1.5 3.8.2.2 1.1.3 1.1.3l.5 2.9v.1l-.2.7h-.1l-.9.5v.1c-.5.3-.7.8-.8 1.4 0 .4 0 .8.1 1.2.1.3.5 1 .5 1h.9c.5.1 1 .2 1.3.4.6.3.7.3 1.3.7.6.3.9.6 1.3 1.1l-.2.2s1.7 2.3 2.2 3.1c.3.5.8 1.6 1 2.3h.4c-.3-.8-.5-1.5-.9-2.2-.4-.8-1.3-2.2-1.8-2.9-.5-.6-.9-1-1.3-1.5.3.1 2.9.6 3.8.4.6-.1 1.8-.6 2.3-1.1.2-.2.3-1 .3-1v.1c.1.5.2.9.3 1.4.2 1.1.4 2.1.6 3.2.3 2.4.5 4.8.7 7.1.1 1.1.2 2.2.3 3.2-.7-.1-2.6.2-2.6 0-.4-2.2-.9-4.3-1.5-6.3h-.5v1.3c-.1.4-.3 1.4-.7 1.7-.1.1-.4.2-.5.2-.1 0-.5 0-.6-.1-.5-.6.1-.8.1-.8l.5.2s.4-.7.5-1c.1-.4.2-1 .2-1.6-.2 0-.3-.1-.4-.1-.5-.2-.9-.5-1.1-.6-.6-.3-1.5-1.1-1.5-1.1l-3-2.3c0 .1-.1.1-.1.2-.1 0-.8-.3-1.1-.8-.3-.4-.4-.3-.6-1.1-.2-.6-.2-1.7-.4-1.8-.1-.1-.5-.7-.6-1.2-.1-.2-.2-1.3-.2-1.6v.3l-1.3 1.1-5.8 3.9s-.7 1.3-.8 1.8c-.3 2.2.9 6.7 1.5 8.9.1.4.2.8.4 1.3 1.2 3.3 3.9 9.2 3.9 9.2l-.4 15.5-.7.2-2.2 22.1 1.7.8-.9 16.3-.6 15.9s-1.3 3.9-1.3 4.4c0 .3.8 1 .8 1s-1.2 2.2-1.1 2.8c.1.5 1.4.5 1.4.5l.1 2.9-.9 3.5s-.5 1.6-.2 2c.5.8 2.5 1.4 3.4 1.7.9.2 2.7.2 3.5 0 .5-.1 1.4-.6 1.7-1 .4-.7.1-3.1.1-3.1l-1.3-3-.1-2 1.3.4.4-3.1s1-1.1 1.1-1.6c0-.4-.8-1.4-.8-1.4s1-.2 1.1-.5c.9-8.4.9-20 .9-20l.8-.6-.6-.7.7-.6 2.2-11.8 2.3.3c0 .7.2 10.8.6 13.9.3 2.3 2 9 2 9l-.2 14.3.8 1.3s-1 1.3-.8 1.8c.1.3 1.1.7 1.1.7s-.4 1.7-.5 2.2c0 .5.2 1.8.2 1.8s3.4 1.1 4.5 1c.4 0 1.1-.6 1.5-.6.5-.1 1.5.2 2 .4.4.2 1 .7 1.4.9 1.5.5 6.2.3 6.2.3l2.6-.2.3-1.1c0 .1-.7-1.2-1.1-1.4zm-10-93c0 .1 0 .3.1.4-.5 0-1.1-.2-1.5.1-.4.3-.8.8-1 1.2 0-.7-.7-1.4-1.1-1.9-.5-.5-1.2-1.1-2-1.2.2-.1.3-.2.5-.2.6.2 1.1.6 1.5 1.1.4.5 1.1 1.2 1.1 1.9.3-.4.6-.9 1-1.2.4-.4.9-.2 1.4-.2zm-4.1-4.2v.5h-.5l-.1-.3.1-3.1.1-.2.3-.1v-.7h.5v.7l.2.1v2.3l-.8-.1v.8l.2.1zm3.3-2.3c0 .1-.6-.2-.6-.1 0-.1.6.2.6.1zm-1.4.6c.1.1.2.1.4.2-.2 0-.3-.1-.4-.2zm-.5-.6c.1.2.2.3.3.5-.1-.1-.2-.3-.3-.5zm-.2-2.4c-.2.2-.3.7-.2 1.2-.1-.5 0-1 .2-1.2 0 0 .1-.1.2-.1h.1c-.1.1-.2.1-.3.1zm-.4-.5c0 .2.1.3.2.5-.1-.2-.2-.4-.2-.5zm-.3 0s0 .1 0 0c0 .1 0 0 0 0s0-.1-.1-.2c-.1-.2-.2-.5-.3-.7-.2-.4-.2-.7-.4-1.1.2.4.2.7.4 1.1.1.2.2.5.3.7.1.1.1.2.1.2zm1.9.9c0 .1-.1.1-.1.2 0 0 .1-.1.1-.2zm-6.3-18.3s-.1 0 0 0c0 0 0-.1 0 0 0-.1 0 0 0 0zm-1.2 8.6c0 .1.1.3.2.5-.1.1-.2-.3-.2-.5.2.1.5.3.8.6-.4-.3-.6-.4-.8-.6zm2 1.9c.2.3.5.7.6.9.3.7.9 1.2 1.3 1.9-.4-.7-.9-1.2-1.3-1.9l-.6-.9zM407 291.2l6.2.8-3.5.1-3.6-.5.9-.4zm16.7 12c-.4.1-.5.2-.9.2s-1-.1-1.4 0l-.1 1.4.1-1.4.5-9.1-.5 9.1c.4-.1 1 0 1.4 0 .4-.1.5-.2.9-.2.4-.1 1.1.1 1.5 0 .3-.1 1 0 1.2-.2h.1-.1c-.2.2-.9.2-1.2.2-.5 0-1.1-.1-1.5 0z"/><path class="st1" d="M413.9 256.3l2 1.4s1.3.9 1.7 1.1h.1c-.1-.6-.7-1.5-1-2-.5-.8-2.2-3-2.2-3-.1.1-.2.1-.2.1-.3-.6-.6-.7-1.1-1-.5-.3-.9-.4-1.3-.6-.5-.2-1-.2-1.1.4-.1 1 .7 1.9 1.6 2.3 0 .1-.1.1-.1.2l1.6 1.1z"/></svg>