<?xml version="1.0" encoding="UTF-8" standalone="no"?>
<svg
   xmlns:dc="http://purl.org/dc/elements/1.1/"
   xmlns:cc="http://creativecommons.org/ns#"
   xmlns:rdf="http://www.w3.org/1999/02/22-rdf-syntax-ns#"
   xmlns:svg="http://www.w3.org/2000/svg"
   xmlns="http://www.w3.org/2000/svg"
   xmlns:sodipodi="http://sodipodi.sourceforge.net/DTD/sodipodi-0.dtd"
   xmlns:inkscape="http://www.inkscape.org/namespaces/inkscape"
   id="Layer_1"
   viewBox="0 0 47.837485 134.3375"
   version="1.1"
   sodipodi:docname="workforce-1.svg"
   width="47.837486"
   height="134.33749"
   inkscape:version="0.92.2 5c3e80d, 2017-08-06">
  <metadata
     id="metadata3782">
    <rdf:RDF>
      <cc:Work
         rdf:about="">
        <dc:format>image/svg+xml</dc:format>
        <dc:type
           rdf:resource="http://purl.org/dc/dcmitype/StillImage" />
        <dc:title></dc:title>
      </cc:Work>
    </rdf:RDF>
  </metadata>
  <defs
     id="defs3780" />
  <sodipodi:namedview
     pagecolor="#ffffff"
     bordercolor="#666666"
     borderopacity="1"
     objecttolerance="10"
     gridtolerance="10"
     guidetolerance="10"
     inkscape:pageopacity="0"
     inkscape:pageshadow="2"
     inkscape:window-width="1131"
     inkscape:window-height="796"
     id="namedview3778"
     showgrid="false"
     inkscape:zoom="1.0717286"
     inkscape:cx="24.251856"
     inkscape:cy="67.250006"
     inkscape:window-x="0"
     inkscape:window-y="0"
     inkscape:window-maximized="0"
     inkscape:current-layer="Layer_1" />
  <style
     id="style3769">.st0{fill:none}.st1{fill:#005eb8}</style>
  <path
     class="st0"
     d="m 28.401844,63.0375 c 0.2,0.1 0.6,0.2 0.9,0.4 0.6,0.6 1.9,0.9 2.7,0.9 0.5,0 1.1,0.1 1.7,0.1 0.3,0 0.5,-0.1 0.7,-0.1 0.1,0 0.3,0 0.4,0.1 v -0.1 c -0.7,-0.2 -1.4,-1.1 -1.9,-1.5 -0.7,-0.6 -1.4,-1.3 -2.2,-1.8 -0.6,0.5 -0.9,1.3 -1.2,2 -0.7,-0.2 -1.4,-0.4 -2.2,-0.4 0.2,0 0.3,0.2 0.5,0.2 0.2,0 0.4,0.1 0.6,0.2 z m -7.6,-44.3 c 0.1,0 0.1,0 0,0 0.1,0 0,-0.1 0,0 0,-0.1 0,0 0,0 z m 15.9,28.1 c 0.1,-0.4 0.6,-0.4 0.5,-0.9 -0.1,-0.2 -0.2,-0.5 -0.3,-0.7 -0.1,-0.2 -0.1,-0.4 -0.2,-0.6 -0.1,-0.3 -0.2,-0.8 -0.2,-1.1 h -0.1 v -0.1 c -0.1,1.1 -0.1,2.3 -0.2,3.4 0,0.6 -0.1,1.2 -0.1,1.8 0,0.5 -0.1,1.3 0.1,1.7 0.1,-0.6 0.9,-1 0.7,-1.5 -0.1,-0.3 -0.4,-0.5 -0.1,-0.8 0.1,-0.2 0.5,-0.3 0.6,-0.5 -0.3,-0.1 -0.9,-0.1 -0.7,-0.7 z"
     id="path3771"
     inkscape:connector-curvature="0"
     style="fill:none" />
  <path
     class="st1"
     d="m 14.001844,25.9375 c -0.3,-0.1 -0.8,-0.2 -1.3,0.2 -0.5,0.5 -0.9,2.1 -0.9,2.1 l -0.2,-0.1 -1.1,3.6 c 0,0 -0.5999998,2 -0.6999998,2.7 -0.1,0.5 -0.2,1.6 0,2.1 0,0.1 0.1,0.2 0.1,0.3 0.3999998,-0.2 0.7999998,-0.5 0.9999998,-0.7 0.6,-0.6 1.7,-1.9 2.2,-2.6 0.6,-0.9 1.6,-4 1.6,-4 l -0.3,-0.1 c 0.3,-1.2 0.4,-2.1 0.4,-2.1 0,-0.5 -0.1,-1.1 -0.8,-1.4 z m 3,-17.1 c -0.2,-0.1 -0.5,-0.1 -0.7,0.1 -0.3,0.3 -0.4,0.8 -0.4,1.1 0,0.4 0.2,0.8 0.4,1.2 0.1,0.4 0.3,0.7 0.5,1.1 0.2,0.4 0.5,0.6 0.9,0.7 0,0.7 0.1,1.4 0.3,2.1 0.1,0.4 0.3,0.8 0.6,1.2 0,0.3 0,0.5 0.1,0.6 v 0.9 c 0,0.5 0,1.1 0.1,1.6 0.2,1 0.8,1.9 1.6,2.5 0.4,0.4 0.8,0.7 1.2,1.1 h 0.1 c 0.2,-0.1 0.5,-0.2 0.8,-0.3 0.3,-0.1 0.6,-0.3 0.9,-0.5 1,-0.7 1.6,-1.5 2.3,-2.4 0.3,-0.4 0.7,-1.2 0.7,-1.7 v -1 -0.9 c 0.8,-1 0.9,-2.2 1.1,-3.3 0.3,0.1 0.7,0.1 1,-0.1 0.2,-0.7 0.6,-1.4 0.9,-2.1 0.1,-0.3 0.1,-0.8 0,-1.1 0,-0.2 -0.3,-0.8 -0.5,-0.8 0,-0.2 0.1,-0.3 0,-0.5 0,-0.2 -0.1,-0.4 0,-0.5 0.1,-0.2 0.5,-0.3 0.5,-0.6 -0.5,-0.1 0,-0.5 0,-0.9 0,-0.2 -0.2,-0.3 -0.2,-0.5 0,-0.1 0,-0.3 -0.1,-0.4 -0.1,-0.2 -0.3,-0.3 -0.4,-0.4 -0.1,-0.2 -0.1,-0.4 -0.1,-0.6 0.1,-0.6 0.1,-1 -0.5,-1.3 -0.2,-0.1 -0.4,-0.2 -0.4,-0.4 -0.1,-0.1 -0.1,-0.3 -0.1,-0.5 -0.1,-0.5 -0.3,-0.8 -0.7,-1.1 -0.4,-0.2 -1,-0.4 -1.3,-0.3 -0.4,0.1 -0.6,0.4 -0.9,0 -0.3,-0.4 -0.7,-0.6 -1.2,-0.8 -0.3,-0.1 -0.8,0 -0.9,0.3 -0.2,0 -0.2,-0.2 -0.3,-0.2 -0.1,-0.1 -0.3,0 -0.4,0 -0.3,0.1 -0.5,0 -0.8,0 -0.3,0 -0.5,0.2 -0.6,0.5 0,0.1 0.1,0.4 0,0.4 -0.1,0.1 -0.3,0.1 -0.4,0 0,-0.3 -0.6,-0.2 -0.8,-0.1 -0.2,0.1 -0.1,0.3 -0.1,0.4 l -0.3,0.3 c -0.3,-0.1 -0.5,0 -0.7,0.3 0,0.1 -0.1,0.1 -0.1,0.2 0,0.1 0.1,0.2 0.1,0.2 0,0.2 -0.3,0.3 -0.4,0.3 -0.3,0 -0.5,0.1 -0.4,0.5 0.1,0.2 0.2,0.7 -0.3,0.6 v -0.1 c -0.2,0.2 0,0.4 0.1,0.5 -0.1,0.1 -0.3,0.2 -0.4,0.3 -0.1,0.1 -0.2,0.2 -0.2,0.4 -0.1,0.4 0.2,0.7 0.4,1 0.2,0.2 0,0.2 0,0.4 0,0.2 0.1,0.3 0.2,0.5 v 0.6 c -0.1,0.2 -0.2,0.3 -0.1,0.5 0,0.2 0.2,0.3 0.3,0.4 0.1,0.2 0.1,0.3 0.1,0.5 -0.5,0 -0.5,0 -0.5,0.1 z m 3.8,9.9 c 0,0 0,-0.1 0,0 0,-0.1 0.1,0 0,0 0.1,0 0.1,0 0,0 z"
     id="path3773"
     inkscape:connector-curvature="0"
     style="fill:#005eb8" />
  <path
     class="st1"
     d="m 45.501844,40.3375 -5,-10.8 v -1.2 l -1.1,-2.3 -1.2,-0.3 -8.1,-4.7 c 0,0 0.4,1.9 0.5,2.5 0.1,1 0.2,3 0.2,3.9 0,1.1 -0.1,4.4 -0.1,4.4 h -0.3 l -0.1,0.8 c 0.7,0.1 1.3,0.8 1.3,1.6 0,0.9 -0.7,1.6 -1.6,1.6 -0.9,0 -1.6,-0.7 -1.6,-1.6 0,-0.8 0.6,-1.5 1.4,-1.6 l 0.1,-0.8 h -0.4 c 0,0 0.2,-3.2 0.2,-4.3 0,-0.9 0,-2.8 -0.1,-3.7 -0.1,-0.7 -0.3,-2.1 -0.5,-2.8 -0.1,-0.4 -0.5,-1.2 -0.7,-1.5 l -0.9,-0.9 -0.7,2.8 -2.8,6.1 c 0,0 -1,2 -1.8,3.9 -0.6,1.3 -1.1,2.6 -1.3,3.3 -0.1,0.6 -0.3,1.5 -0.4,2.4 0.1,-1 0.2,-1.8 0.3,-2.5 0.2,-0.8 0.7,-2.1 1.3,-3.3 v -1.6 l -0.4,-4 c 0,0 1,-1.1 1.1,-1.1 0.1,0 -0.5,-0.7 -0.5,-0.7 l -0.6,-0.5 -1.5,0.8 0.4,0.9 0.3,0.6 -1.2,3 -0.9,3.4 -0.6,2.9 -0.6,3.9 v 10.3 l 1.3,3.6 1.3,-2.2 v 1.9 l -0.1,4.8 c -0.9,0.1 -1.5,0.2 -2.7,-0.1 v -2.9 l 0.1,-14.9 v -9.1 c 0,0 -0.3,-6.9 0.3,-9.9 0.2,-1.2 0.8,-2.5 1,-2.9 l -0.6,0.7 -1,1 c 0,0 -1.2,2.5 -1.5,3.4 -0.2,0.6 -0.6,2.4 -0.6,2.4 l 0.8,0.7 c 0.2,0.3 0.4,0.3 0.5,1.4 0.1,0.9 -0.5,2.8 -0.5,2.8 l -0.3,-0.1 -1.7,4 c 0,0 -1.6,2.2 -2.2,2.8 -0.3,0.2 -0.7,0.5 -1.1,0.8 0.3,0.6 0.8,1.2 0.8,1.2 l 0.6,0.4 h 0.2 c 0,0 0.1,-0.3 0.2,-0.3 0.1,0 0.3,0.2 0.3,0.2 v 0.4 c -0.1,0.1 -0.3,0.3 -0.4,0.3 h -0.3 l -0.7,-0.2 -0.8,-0.6 -0.8999998,-1.2 c -0.2,0.1 -0.3,0.2 -0.4,0.2 -0.3,0.1 -0.9,0.2 -1.2,0.2 -0.2,0 -0.6,-0.1 -0.6,-0.1 l -0.2,-0.2 -0.2,0.1 c 0,0 -0.2,0 -0.2,-0.1 -0.1,-0.1 -0.1,-0.3 -0.1,-0.4 0,-0.1 0.2,-0.3 0.3,-0.4 0.1,0 0.3,0 0.4,0.1 v 0.2 l 0.3,0.2 h 0.5 c 0.2,0 0.7,-0.1 0.9,-0.2 0.1,0 0.2,-0.1 0.4,-0.2 -0.1,-0.2 -0.2,-0.5 -0.2,-0.7 -0.1,-0.5 0,-1.6 0.1,-2 0.1,-0.7 0.5999998,-2.7 0.5999998,-2.7 l 1.1,-3.6 -0.2,-0.1 c 0,0 0.4,-1.7 0.7,-2.1 0.2,-0.3 0.6,-0.7 0.8,-0.8 0.3,-0.2 1.2,-0.3 1.2,-0.3 0,0 0.5,-1.8 0.7,-2.3 0.1,-0.4 0.5,-1.2 0.8,-1.8 l -5.7999998,3.3 c 0,0 -0.5,0 -0.7,0.2 -0.8,0.6 -2.2,3 -2.4,4 -0.1,0.5 -0.1,1.9 -0.1,1.9 l -2.2,4.2 c 0,0 -3.99999997,11 -3.89999997,12.7 0.3,3.9 1.29999997,7.3 2.09999997,9.7 0.6,1.7 3.3,6.4 3.3,6.4 v -0.1 c 0.1,-0.2 0.3,-0.9 0.5,-1.5 0.2,-0.5 0.4,-0.9 0.5,-1.1 0.5,-0.7 2.6,-2 2.6,-2 l 0.3,4.8 -1.3,0.3 -0.6,0.1 0.1,9.6 0.3,1.3 -0.9,23 3.8999998,0.3 -0.3,7.5 -0.9999998,9.4 0.5999998,1.4 -0.6999998,0.2 -0.4,1.6 1.0999998,1 -1.1999998,0.6 0.4,3.1 0.6999998,0.1 -0.9999998,2.2 c 0,0 -1.6,2.3 -2.3,2.9 -0.7,0.6 -2.7,1.2 -3.3,1.9 -0.2,0.2 -0.4,0.7 -0.4,0.9 0,0.3 0.5,1.1 0.5,1.1 l 3.9,-0.1 3.7999998,-0.6 1.3,-1.1 1.4,-0.4 1.3,0.3 2.8,-1.2 -0.1,-2.2 -0.6,-2.3 1.2,-0.3 0.6,-3.5 -0.5,-0.8 0.7,-0.6 -0.7,-2.2 1.3,-13.2 0.1,-8 h 1.5 l 0.4,2.8 4.1,-0.1 1.3,11.3 c 0,0 -0.3,1.8 -0.3,2.1 0,0.3 0.4,6.7 0.4,6.7 0,0 0.6,0.4 0.6,0.6 0,0.3 -0.7,0.5 -0.7,0.7 0,0.2 0.6,0.7 0.6,0.7 l -0.6,6.6 1.6,0.6 -1,3.5 -1.2,1.3 0.4,1.3 1,0.8 4,-0.3 4.1,-2.6 -0.1,-2.2 -0.4,-2.2 c 0,0 0.9,-0.4 1.3,-1.4 0.1,-0.3 -0.4,-1.3 -0.4,-1.3 0,0 0.4,-0.1 0.4,-0.4 -0.2,-1.1 -0.3,-2.5 -0.6,-4 -0.1,-0.4 -0.9,-1.3 -0.9,-1.3 l 0.4,-2.6 0.4,-10.5 -1.2,-9.6 1.8,-1.3 -1,-10.6 -0.5,-6.5 -0.2,-1.6 0.9,-10.6 1.1,0.1 c 0,0 8,-11.2 10.5,-16.2 0.8,-1.4 -2.2,-8.9 -2.2,-8.9 z m -16.1,22.6 c 0.3,-0.7 0.6,-1.5 1.2,-2 0.7,0.5 1.5,1.2 2.2,1.8 0.5,0.5 1.2,1.3 1.9,1.5 v 0.1 c -0.1,0 -0.3,-0.1 -0.4,-0.1 -0.2,0 -0.5,0.1 -0.7,0.1 -0.6,0 -1.1,0 -1.7,-0.1 -0.8,-0.1 -2.1,-0.3 -2.7,-0.9 -0.2,-0.2 -0.6,-0.3 -0.9,-0.4 -0.2,-0.1 -0.4,-0.1 -0.6,-0.2 -0.2,-0.1 -0.3,-0.2 -0.5,-0.2 0.9,0 1.5,0.2 2.2,0.4 z m 7.4,-14.9 c -0.2,0.4 0,0.5 0.1,0.8 0.2,0.5 -0.6,0.9 -0.7,1.5 -0.3,-0.4 -0.1,-1.3 -0.1,-1.7 0,-0.6 0,-1.2 0.1,-1.8 0.1,-1.1 0.1,-2.3 0.2,-3.4 v 0.1 h 0.1 c 0,0.3 0.2,0.8 0.2,1.1 0.1,0.2 0.1,0.4 0.2,0.6 0.1,0.2 0.3,0.5 0.3,0.7 0.1,0.5 -0.4,0.4 -0.5,0.9 -0.2,0.6 0.5,0.5 0.8,0.8 -0.2,0.2 -0.5,0.2 -0.7,0.4 z"
     id="path3775"
     inkscape:connector-curvature="0"
     style="fill:#005eb8" />
</svg>
