<svg id="Layer_1" xmlns="http://www.w3.org/2000/svg" viewBox="0 0 841.9 595.3"><style>.st0{fill:none}.st1{fill:#005eb8}</style><path class="st0" d="M432 261.7v-.5h-.4v.5l-.3.2-.1 2.5h1v-2.2l.2.1v3.3h.4v-3.7zM421.3 271.5l-.3-1.1-8.1 18.2 3.3 2.1-.1-1.1 1.1.4 1.1-.4 1.3.3 1.4-.4 1.1-.2 1.1.5 1.1.8.4-.4c-.1 0-.2-.2-.4-.3.1-.3.5-.7.8-.9.3-.4.7-.8 1-1.2 1.2-1.4 2.2-2.9 3.2-4.3.5-.7.9-1.4 1.3-2.1.3-.6.4-1.7 1.4-1.6-.1-.3-.4-.5-.2-.8.1-.2.6-.4.8-.5l.1-.1c-5-3.7-10.5-7.6-10.5-7.6l-.9.7zM411.6 297.1c.4-.1.8-.6 1.1-.9.3-.2.6-.6 1-.8-.3-.2-.6-.4-.8-.7l-.1-.1-1.2 2.5z"/><path class="st1" d="M430 256.9c0-.5 0-1-.1-1.5-.1-.4-.3-.9-.7-1-.4-.2-.9 0-1.2.2-.8.6-.6 1.6-.5 2.5h-.2c0 1.2.4 3.8.8 4.9.2.7.8 1.6 1.3 2.4.4-1 .6-2.8.7-3.7.1-1 .1-3.9.1-3.9-.1.1-.1.1-.2.1 0 .1 0 .1 0 0z"/><path class="st1" d="M439.9 260.1l.3-1.5-.9-2.6-1.1-1.7-1-.1-4.1-2-4.2-2.3-.3.1c.1.7.2 1.3.3 2 .1.5.1.9.1 1.4 0 0 1.6 0 1.9 1.4.1.7.1 1.3.1 2h-.2v.1s0 2.9-.1 4c-.1 1-.4 3-.9 4 .2.3.4.5.5.7.4.5 2 1.9 2 1.9l.2-.2c.1 0 .3.1.3.2v.4c0 .1-.3.4-.3.4l-.4-.1s-1.8-1.5-2.3-2.1c-.1-.2-.2-.3-.4-.5-.6.9-2.2 2.4-2.2 2.4l-.3.2-.5.1-.3-.2v-.6l.3-.2.3.2.3.1s1.5-1.5 2.1-2.4c-.7-.9-1.4-2.1-1.7-2.9-.4-1.2-.8-4.9-.8-4.9h-.2c0-.4-.1-.7-.1-1.1 0-.6 0-1.2.3-1.7.2-.3 0-.1.5-.6.2-.2.5-.3.7-.4 0-1.2 0-2.3-.2-3.5-.2-1-.5-1.6-.9-2.3-.1-.1-.2-.3-.3-.5h-.4c0-.4-.1-.8-.1-1-.1-.6-.1-1.2-.1-1.8 0-.3.1-.6.1-.8.3 0 .5 0 .7-.1.1-.1.2-.2.2-.3.2-.3.3-.6.4-.9.2-.5.3-1.1.3-1.6h.1s.2-.2.2-.3c.1-.1.2-.3.2-.5.1-.4-.1-.7-.4-.9.3-.8.2-1.3-.4-2 .4-.8.4-1.9.1-2.8-.3-.9-1.1-1.4-1.8-2-.6-.5-1.1-1.1-1.9-1.4-.8-.3-1.8-.5-2.7-.4-.8 0-1.2-.1-1.8.3.1-.4-.1.1-.2.1-1-.2-2.3.1-3.1 1.2-.3.4-.5.7-.7 1.1-.2.3-.2.8-.4 1.1-.5.8-.1 1.6.2 2.4.3.9 0 1.8.1 2.7.1.7.5 1.3.8 1.9 0 .2.1.5.1.8.2 1.7.5 3.7 1.3 5.3.1.3.4.6.7 1 .1.7.8 1.9 1.3 2.4.6.6 1.5 1.1 2.2 1.5 1-.2 1.7-1 2.5-1.6.4-.3.9-.8 1.2-1.2.3-.4.6-.9.8-1.5v.1c0 .6.2 1.1 0 1.7-.1.6-.2 1.2-.4 1.8-.5 1.6-1.2 3.1-1.7 4.6-.7 1.7-1.2 3.6-1.7 5.3l-.1-3.6-.4-3 .7-.6.4-.6-.4-.7-.5-.5h-.7l-.6.5-.6.7.9 1.1-1.8 5.3-.8 2.9c-.2-2.2-.6-4.5-.8-6.7-.1-1.3-.1-2.7-.1-4.1 0-.9 0-2.1.2-3.1h-.1l-.4 1.2-.3 1.3s-1.2 4.2-1.4 5.7c-.3 1.5-.6 6.2-.6 6.2l-.3.1v.6c.6.1 1.1.7 1.1 1.4 0 .8-.6 1.4-1.4 1.4-.8 0-1.4-.6-1.4-1.4 0-.7.5-1.3 1.2-1.4v-.6l-.2-.2s.3-4.8.6-6.3c.2-1.3.8-3.9 1.4-5.5l-.4-.1-6 4-1 .4-.6 2.6-1.9 19.9 2.4 13.1.2.3s-1.1 13.2-1.1 13.4c0 .2-.9 16.9-.9 16.9s.6 0 1.6.1l.4 11.3-.3 10.2-.3 3.2.9 1.4-.9 2.1-.3 3.2 1.2.1c-1 1.3-2.2 2.4-3.4 3.4-.9.7-4.4 2.6-4.2 3.2.6 1.9 3.4 1.1 4.4 1 1.4-.2 3-.5 4.6-1 1.5-.4 2.4-1 3.4-2.3.1.2.1.5.2.7v.4c.2-.1 3.5-.4 3.5-.6.1-1.1.1-2.1.1-2.6s-.2-1.1-.4-1.6v-.1l.7-.1.5-1.4-.9-3.5.7-2.1-.7-5.4.9-13.7.6-13.6h.1l.9 7.9 3.4.2v.5l.4 6.7.5 9.6-.7 2.4.4.9-.5 1.4-.1 8.9v3.3l.5.3.5.3c-.4 1.7-.6 3-.3 3.6.7 1.7 1.9 2.8 1.9 2.8s2.1 1.2 2.6 1.3c.7.2 1.6.4 2.2 0 .7-.4 1.7-1.3 1.8-3 .1-1.8-1.8-4.5-1.8-4.5l.1-.1.9-.7-.1-4.9.8-2.6-.8-1.6.7-2.2.9-22.5h.7l5.1-.7-1.1-22.9-.2-8.8-5.1 9.3s-2.7-1.4-6.2-3.2c.1 0 .2-.1.3-.1.6-.3 1.1-.7 1.7-1l-.3.2 3.2 2.2 8.1-13.9 1.4-3.3.4-7.9-1.1-12.2zm-7.5 5.5v-3.3h-.3v2.2h-.9l.1-2.5.3-.2v-.4h.4v.5l.7.2v3.7l-.3-.2zM413 294.7c.2.3.4.5.8.7-.3.2-.6.6-1 .8-.3.2-.7.8-1.1.9v-.1l1.3-2.3zm19.5-16.2c-.2 0-.7.2-.8.5-.2.3.1.5.2.8-1-.1-1 1-1.4 1.6-.4.7-.8 1.4-1.3 2.1-1 1.5-2.1 3-3.2 4.3-.3.4-.7.8-1 1.2-.2.3-.6.6-.8.9.1.1.2.2.4.3l-.4.4-1.1-.8-1.1-.5-1.1.2-1.4.4-1.3-.3-1.1.4-1.1-.4.1 1.1-3.3-2.1 8.1-18.2.3 1.1.9-.7s5.4 3.9 10.5 7.6l-.1.1z"/></svg>