<svg id="Layer_1" xmlns="http://www.w3.org/2000/svg" viewBox="0 0 841.9 595.3"><style>.st0{fill:none}.st1{fill:#005eb8}</style><path class="st0" d="M407.8 293.9h-.3.3zM407.3 293.8c-.1 0-.2-.1-.2-.1l-.9-.3.9.3c0 .1.1.1.2.1zM400.7 285.6c-.2.3-.5.6-.6.9.1-.3.3-.6.6-.9zM408.3 290.1c-.4 0-.7-.1-1-.1-.3 0-.7 0-1-.1.3 0 .7.1 1 .1.3 0 .6.1 1 .1zM405.3 289.8c.3 0 .7.1 1 .1-.3 0-.6-.1-1-.1zM416.8 252.5c-.2 0-.4 0-.6-.1.2.1.4.1.6.1zM406.7 286.1s.1 0 0 0c.1 0 .1 0 0 0zM414.2 251.7c.4.4.9.6 1.4.7-.5-.1-1-.3-1.4-.7zM436.3 275.4c-.5-.4-2.6-1.9-3-1.8-.2.4-.3 1.3-.4 1.7l-.3 2.1c-.1.7-.1 1.4-.1 2.2 0 .5.1 1.7-.2 2 1.2-1.6 2.5-3.2 3.9-4.7-.4-.1-1-.1-.9-.6 0-.4.7-.7 1-.9zM432.1 289.7c0 .1 0 .1 0 0 0 .1 0 .1 0 0 0 .1 0 0 0 0zM432.2 291.6c0 .7 0 1.4.1 2.1.3 0 .7 0 1-.1 0-.4.1-.9.1-1.3 0-.3.1-1.3 0-1.4-.4-.5-1.2-.9-1.2-1.3-.1.8 0 1.4 0 2zM405.7 286.1c.3 0 .7-.1 1 0v-.1c-.1-.3 0-.7-.1-.9 0-.4-.1-.8-.2-1.1-.2-1.8-.3-3.6-.5-5.3-.1-.9-.2-1.7-.2-2.6 0-.8-.2-1.6-.2-2.4-.1.2-.2.5-.3.7-.2.3-.3.5-.5.7-.3.4-.6 1-.9 1.4.2.1.7.3.6.6-.1.3-.6.4-.7.6.4.3.7.5.2.9-.2.2-.2.3-.2.6v5c0 .2 0 .2-.2.3l-.3.3v.1c.3.1.5.4.8.6l.7.7c.2 0 .7-.1 1-.1zM406.7 286.1zM406.4 295.3c-.1 0-.2 0-.3-.1.1.1.2.1.3.1zM434.8 293c-.1-.3-.5-.7-.7-.8v1.6c.3-.2.8-.3.7-.8z"/><path class="st1" d="M446.8 275.7c-.3-1.4-1.1-2.6-1.7-3.9-.5-1.2-1-2.5-1.8-3.6-.9-1.3-2-2.4-2.8-3.7-.9-1.4-1.7-2.8-2.9-4-1.8-1.9-2.8-4.5-4.8-6.1-.3-.1-.8-.5-1.2-.7-.5-.2-.9-.6-1.4-.8-.5-.3-1-.6-1.6-.9-.4-.3-.9-.5-1.4-.8-.3-.2-.8-.4-1-.7h-.1v-.4c-.7-.2-1.4-.5-2.1-.7-.2-.1-.3-.1-.5-.2-.1-.1-.2-.3-.3-.5-.1-.2-.1-.3-.3-.3-.2-.1-.4 0-.6 0v.1l-.3-2.6v-.2c-.3.8-.6 1.2-1 1.9-.2.3-.5.9-.8 1.1-.7.5-.8.3-1.2.3h-2.3c-.8.1-1.7.3-2.1-.5-.3-.7-.8-1.2-1.3-1.9-.1-.3-.2-.6-.2-.9-.1-.4-.3-.8-.4-1.2-.2-.8-.3-1.4-.3-2.3-.4-.2-1-1.2-1.1-1.4.5.4 1.4 1.2 1.9 1.1.7-.1 1.4-.3 2.3-.5.8-.2 1.4-.3 2.1-.2.3.1.7 0 1 .1.4.1.8 0 1.2.1.7.1 1.8-.4 2.7-.7-.1 1.1-.2 2.1-.2 2.5l.8-.1s1.3-2.7 1-3.6c-.1-.2-.5-.5-.8-.6-.1 0-.1-.1-.1-.1l-.1-1.3-.4-3.3-.4-1.5s-1.3-1.9-5-2c-3.4-.1-5.3 2.3-5.3 2.3l-.4 2.3.2.4-.4.2.3.7-.3.4V239.3s-.6-.1-.7 0c-.2.1-.2.5-.2.7 0 .6.6 2.5.6 2.5l.6 1 .6-.1.6 1.9.5 1.2v.1l.5 3.1c-.1.2-.1.3-.1.5 0-.2.1-.3.1-.5l-.7.8-9.5 5.1-.8.2-.3 1.1-6.5 14.9-.6 3.4.1 8.9 3.1 4.1.8-.1 2.4 4.5 3.1 2.3-1.4 19.1-1.1 18.2 2 .3-.1.8 1.8.2-.9 14.1-.5.1-.7 4.6-.1.3-2.4 2.8-5.4 2.7-1.2 1.3.3 1.4 19-1.2.6-1.7-.6-3.6H415.1l.7-4.9-.4-.3.7-9.6.9-3.8 2.3.6.1-1.6 3 .3.3 2.7-.1 2.8-.2 3.2s.8 1 .9 1.2c.1.2-.5 1.1-.5 1.4 0 .4.8 1 .8 1l.6 4 .3 3.5 1 .4h.1v2.3l-1.4 3.1-.1 2.3s1.1 1.1 1.6 1.3c.9.4 3 .6 4 .4.9-.2 2.6-1.1 3.3-1.8.6-.6 1.3-3.2 1.3-3.2l-.3-4.2.4-.2.1-3 .8-5.5-.5-1s.7-.8.7-1.1c0-.5-1.1-1.5-1.1-1.5l-.8-7.7v-.1l-4 .5 4-.5 1.1-.1-2.3-40.4c.3.2.7-.1 1-.1-.2.5-.1 1.4 0 2 .1.6.3 1.1.6 1.6.3.4.7.9.9 1.4.4.9.2 2.4-.4 3.2h.1l.7.7c.5-.5.8-1.3.8-2 .1-.7 0-1.3-.3-1.9-.3-.6-.7-1.1-1.1-1.6-.7-.9-.7-2.5-.7-3.6.4 0 .7 0 1-.3.2-.3.3-.6.4-1 0-.7-.3-1.3-.7-1.9-.4-.4-2.4-2.9-2.5-2.9 1.3-.8 2.3-.8 3.8-.9 2.2-.2 4.2-2 5.8-3.3 2.6-2.3 5.9-4.6 5-8.5zm-30-23.2c-.2 0-.4 0-.6-.1.2.1.4.1.6.1zm-1.2-.1c-.5-.1-1.1-.3-1.4-.7.4.4.9.6 1.4.7zm-10.3 37.4c.3 0 .7.1 1 .1.3 0 .7.1 1 .1.2 0 .6.1 1 .1-.4 0-.7-.1-1-.1-.3 0-.7 0-1-.1-.3 0-.6-.1-1-.1zm2.5 4.1h-.3.3zm-.7-.2c.1 0 .1 0 .2.1-.1 0-.2 0-.2-.1l-.9-.3.9.3zm-7-7.2l.6-.9c-.3.3-.5.6-.6.9zm3.8-1.1c-.2-.2-.5-.4-.8-.6v-.1c0-.1.2-.2.3-.3.1-.1.2-.1.2-.3v-.9-3.3-.8c0-.3 0-.4.2-.6.5-.4.2-.7-.2-.9.2-.2.6-.3.7-.6.1-.2-.4-.4-.6-.6.4-.4.6-.9.9-1.4.2-.2.4-.5.5-.7.1-.2.2-.5.3-.7 0 .8.2 1.6.2 2.4 0 .9.1 1.7.2 2.6.2 1.8.3 3.6.5 5.3.1.4.1.8.2 1.1 0 .3 0 .7.1.9v.1h-.1c-.3-.1-.7 0-1 0-.3 0-.8.1-1.1 0-.1 0-.3-.4-.5-.6zm2.2 9.8c.1 0 .2.1.3.1-.1 0-.2 0-.3-.1zm27.9-3c.2.1.7.5.7.8.1.5-.4.6-.7.8.1-.5 0-1.1 0-1.6zm-.7-1.1c.1.1 0 1 0 1.4 0 .4-.1.8-.1 1.3-.3 0-.6.1-1 .1-.1-.7-.1-1.4-.1-2.1V290v-.1s0 .1 0 0v.1c.1.2.9.6 1.2 1.1zm2.9-14.2c-1.4 1.5-2.7 3.1-3.9 4.7.3-.3.2-1.5.2-2 0-.7 0-1.5.1-2.2l.3-2.1c.1-.4.1-1.3.4-1.7.5-.1 2.5 1.3 3 1.8-.3.2-1 .5-1 .9-.1.5.5.5.9.6z"/></svg>