<svg id="Layer_1" xmlns="http://www.w3.org/2000/svg" viewBox="0 0 841.9 595.3"><style>.st0{fill:none}.st1{fill:#005eb8}</style><path class="st0" d="M420.9 255.4c0 .1-.1.1-.1.2 0-.1.1-.1.1-.2zM418.4 274.6c-1.2.3-2.4.6-3.4.8 1-.2 2.1-.5 3.4-.8zM419.1 274.1c.3-.2.6-.4 1-.5-.4.2-.7.4-1 .5zM421.3 254.8c-.1.1-.1.2-.2.3 0-.1.1-.2.2-.3zM426.1 270.6c-.1-.1-.1-.4 0-.7-.1.3-.1.6 0 .7zM414.4 256.2c.4.4.7.8 1 1.2-.2-.4-.6-.8-1-1.2-.8-.9-1.7-1.7-2.5-2.4.9.8 1.7 1.6 2.5 2.4zM425.4 271.3c0-.2.1-.5.1-.6h.5-.5c-.1.1-.1.4-.1.6z"/><path class="st0" d="M425.3 272.3l-1.4 1.2 1.4-1.2c0-.3 0-.6.1-.9v-.2.2c-.1.3-.1.6-.1.9zM426.6 269c-.2 0-.4.1-.5.3-.1.1-.1.4-.1.6 0-.3.1-.5.1-.6.1-.1.3-.3.5-.3zM406.5 276.6c-.6 0-1.2.1-1.6.1.4 0 1-.1 1.6-.1zM412 251.7h.6-.6zM407.3 272.2c.2 1.3.3 2.7.3 4.1 0-3.9-.1-7.6-.7-11.3-.1-.5-.1-1-.2-1.5s-.4-1-.4-1.5c.1.4 0 1.8-.2 2.1-.4-.8-.7-1.7-1.2-2.4s-1.5-1.4-1.8-2.3v.4c1.2 1.8 2.1 3.6 2.8 5.7.5 2 1 4.4 1.4 6.7zM411.9 253.8c.2-.5.4-.9.5-1.3-.1.4-.3.8-.5 1.3zM427.1 269.3c0-.1 0-.3.1-.5-.1.1-.1.3-.1.5zM427.3 268.3c0 .1-.1.1-.1.2 0-.1 0-.2.1-.2 0-.1.1-.1.2-.2-.1.1-.2.1-.2.2zM427.4 267l-.1-3.8h-2.1v-.8h-.9v.8l-2.2.1.1 4z"/><path class="st0" d="M427.3 259.7c0-.6.1-1.1.1-1.7 0-.6.3-1 .3-1.5l-.1.3v-.1c-.4 1-.7 2.2-.8 3.3-.2 1-.5 2.1-.4 3.2h.7c.1-1.3.2-2.4.2-3.5z"/><path class="st1" d="M435.4 273.9l10.9-10.6-.1-.4-11.6-.1-1.9 1.9-4.1 4.2 4.1-4.2c-.5-1.7-.8-2.7-1.2-4-.4-1.4-.8-2.8-1.4-4.1-.9-1.8-.7-1.8-2.1-2-1.4-.2-5.5-1-5.6-1-.9-.9-1.2-1.1-2.2-1.6 0-1.1.3-2.3.3-2.4.4-.5.8-1 1-1.5.7-1.2 1.1-2.5 1.4-3.8v.2c.2.2.3.6.6.8 0-.4-.1-1.3.2-1.5.1.1.1.2.2.3.2-1.3.7-2.4.9-3.7.2-1.2.2-2.4-.1-3.6-.3-1.1-1-2.1-1.6-3-.6-.9-1.5-1.7-2.4-2.3-.9-.5-2-1.1-2.8-.2l-.1.1c-.7-.5-1.5-.4-2.3 0-1.5.7-3.1 2.2-3.8 3.8-.7 1.6-.5 3.4-.4 5.1v.2c-.8.1-.3 2.2-.2 2.8.1.4.2.9.4 1.3.2.3.6.4.9.4-.1.1-.1.6-.1.8-.1.2-.2.5-.3.7-.3.5-.7 1-1.1 1.5-.8.9-1.8 1.7-2.2 2.9-.2.5-.2 1.3 0 1.8 0-.6.1-1.1.4-1.7.2-.5.6-.7.9-1-.5.6-.7 1.3-.8 2.1-.1.4-.1.8 0 1.2.1.2.1.8.4 1-.9.7-2 1.2-3 1.7l-1.2.6c-.4.2-3.5 1.5-3.8 1.6-.2.2-.4.7-.6 1-.2.4-.4.9-.6 1.3-.4.9-.8 1.8-1.1 2.8l-2.4 6.9c-.4 1.1-.8 2.2-1 3.4v.1c-.2.5 1.3 1.5 1.7 1.8.4.3.8.5 1.2.6.4.2.9.2 1.3.4h.1v.5c0 .7 0 1.5.1 2.2.1 1.3.2 2.7.7 3.9.2.5.5 1.2 1.7 1 0-.1.6-.1.8-.2.2-.1.5-.1.8-.2.5-.1.8-.2 1.3-.3.6-.1.9-.3 1.3-.4-.3.3-1.6 4.7-2 5.8-.8 2.3-1.7 10.6-2 11 .6.1.9.1 1.3.2 0 1.9-.1 7.2-.1 9.3.2 7.2 1.7 28.6 1.7 28.6l-.2 5.8.5 2.8-.8 5.3.8 2.2-1.4 2.3 1.8.8-5.9 4.6s-.9 1.7-.6 2.4c.4.8 4.1.1 4.9 0 2.9-.5 10.3-3.9 10.3-3.9l-.7-4.1.6-1-.5-2.3s.8-1.1.9-1.6c.2-.9-.7-3-.7-3l.1-12.9s.6-2.8.7-3.1c.2-.7-.5-2.8-.5-2.8l2.8-20.5 1.7 21.3.6 1.3-.8 1.2.3 10.4s-.5 5-.3 9.1c0 .4 1 1.5 1 1.5l-1 2 1.2.3-.7 4.3 11.7 3.6s3 .3 3.4-.3c.3-.5-1.3-2.8-1.3-2.8l-6.1-4.4 1.4-.9-.9-5.3 1.2-2.1-.8-5.5s1.1-18.5 1.3-20.8c.2-2.3 1.9-13 1.9-17.3 0-1.1-.3-3.9-.5-5.4.1 0 .2-.1.2-.1 1-.5.6-.2 1.6-.6-.3-.3-1.4-7.1-2.3-10.3-.2-.8-2.3-7.5-2.9-8.5l2.1-.1s1.3-1.3 1.5-1.4c0 .3-.1 2.2.2 2.9.4 1 3 1.6 3 1.6l1.2-.2s2-2.7 2.1-3.7c0-.6-.6-2.2-1-2.9-.5-.8-1.3-1.6-1.5-1.9zM426 270c0-.3.1-.5.1-.6 0 0-.1.3-.1.6v.7h-.6c-.1.1-.1.4-.1.6v.2c0 .3-.1.6-.1.9l-1.4 1.2 1.4-1.2c0-.3 0-.6.1-.9v-.2c0-.2.1-.5.1-.6h.6v-.7zm-5.9 3.6c-.4.2-.7.4-1 .5.3-.1.6-.3 1-.5zm-1.7 1c-1.2.3-2.4.6-3.4.8 1-.2 2.1-.5 3.4-.8zm2.4-19c0-.1.1-.1.1-.2 0 .1-.1.1-.1.2zm.3-.5c.1-.1.1-.2.2-.3-.1.1-.2.2-.2.3zm-6.7 1.1c.4.4.7.8 1 1.2-.2-.4-.6-.8-1-1.2-.8-.9-1.7-1.7-2.5-2.4.2-.5.4-.9.5-1.3-.1.5-.3.9-.5 1.3.9.8 1.7 1.6 2.5 2.4zm12.7 13.1c0-.1 0-.3.1-.5-.1.1-.1.3-.1.5zm.1-.8c0-.1 0-.2.1-.2 0-.1.1-.1.2-.2-.1 0-.1.1-.2.2-.1 0-.1.1-.1.2zm-.4-8.7c.2-1.1.4-2.3.8-3.3v.1l.1-.3c0 .5-.3 1-.3 1.5 0 .6-.1 1.1-.1 1.7-.1 1.1-.1 2.2-.2 3.3h-.7c-.1-.9.2-1.9.4-3zm-2.5 3.4l.1-.8.8.1v.8l2.2-.1.1 3.9-5.2.3-.1-4 2.1-.2zm-11.7-11.5c-.2 0-.4-.1-.6 0h.6zm-9.6 7.5c.3.9 1.3 1.6 1.8 2.3.5.7.8 1.6 1.2 2.4.2-.3.3-1.7.2-2.1.1.5.3 1 .4 1.5.1.5.1 1 .2 1.5.6 3.7.7 7.4.7 11.3 0-1.4-.1-2.7-.3-4.1-.4-2.3-.9-4.7-1.6-6.9-.7-2.1-1.6-3.9-2.8-5.7v-.2zm1.9 17.5c.4 0 1 0 1.6-.1-.6 0-1.2.1-1.6.1z"/></svg>