<svg id="Layer_1" xmlns="http://www.w3.org/2000/svg" viewBox="0 0 841.9 595.3"><style>.st0{fill:none}.st1{fill:#005eb8}</style><path class="st0" d="M429.2 269.5s5.6.2 5.6 0c0-.1-.1-3.6-.1-3.6l-2.2-.1-.1-.9h-.8v.8l-2.5.1v3.7zM412.5 275.9c.2-.1.4-.3.6-.3-.2 0-.4.2-.6.3zM424 282.3c-.1 0-.2.1-.4.1.1-.1.3-.1.4-.1zM409.2 270.2l.3.9s.5-5.2.3-6.6c-.2-1.8-2-6.3-2-6.3s1.3 4.3 1.4 6.1c.2 1.3 0 5.9 0 5.9z"/><path class="st0" d="M434.9 269.2c0 .6.1.4-.6.3.2 1 .1 2.4.1 3.5 0 1 .4 3.1 0 4-.3 0-.6-.3-1-.4-.1.5.3.8.3 1.2 0 .5-.3.6-.6.9-.4.4-1.5.7-2.3 1.3.6-.1 1.2-.5 1.9-.6.6-.1 1.3-.2 1.8-.5-.1-.3-.1-.4-.1-.7.5-.1.7.2 1.2.3-.2-.3-.6-.4-.6-.8.1 0 .4-.1.6-.1.1-1.1-.2-2.3-.3-3.3-.1-.9 0-.9-.1-2.1-.1-1 .1-2.5.1-3.6 0-.9.1-2.9.8-3.7.7-.9 1.5-1.7 2.5-2.3-.4-.3-2 1.3-2.4 1.3-.1-.5.7-2.1.9-2.5.3-.9.4-.8.6-1.3.1-.3 1.3-3.1 1.7-2.9l-.2-.1c-.8.4-1.9 2.8-2.3 3.6-.3.8-.7 1.5-.9 2.3-.2.8-.5 1.5-.7 2.2-.1.4-.3.6-.3 1v1.4c-.1.6-.1 1.1-.1 1.6zM428.6 270.5c0-.8-.5-1.4-1.2-1.6l.2-.5h.3s.8-4.7 1-6.3c.1-1.1.3-3.3.3-4.3 0-1.5-.3-6-.3-6s0-.8-.2-1.7c-.1-.7-.2-1.5-.4-1.9-.2-.5-.7-.9-.7-.9v.1c0 .3 0 .6.1.8.1 1.1.3 2.3.3 3.4 0 .3 0 .6.1.8.1.9.2 1.7.2 2.6v4.3c0 .7-.1 1.8-.2 2.5-.3 2.3-.8 5.3-1.1 6.3l.3.1-.2.5.2.1h-.3c-1 0-1.8.8-1.8 1.8s.8 1.8 1.8 1.8c.8-.1 1.6-.9 1.6-1.9zM433.8 330.3h-.6.6zM435.4 330.2c-.3 0-.7.1-1 .1.4 0 .7-.1 1-.1zM424 282.3c0 .1.1.2.1.2-.1-.1-.1-.2-.1-.2 0-.1 0-.1 0 0z"/><path class="st0" d="M423.3 276.4c-.1-2.4-.1-4.9.2-7.3.3-2.1.9-4 1.5-6 .6-1.9 1.1-3.9 1.7-5.8.3-.8.5-1.6.7-2.4-.5.4-1 .7-1.6.8-1.2.4-2.3.6-3.6.3-1.1-.2-2.4-.7-3.1-1.6-.2 1.5.1 3 .3 4.5.1.6.1 1.2.2 1.8.2 1.7.3 3.4.4 5.2.2 2.8.3 5.6.3 8.4 0 2.5-.1 5.1-.3 7.6 0 .2 0 .4-.1.7.1.1.3.1.4.1.6 0 .4.1.9 0 .4-.1 1.6-.2 2.4-.4v-.1c-.1-1.9-.2-3.9-.3-5.8z"/><path class="st1" d="M441.4 360.4c-1.5-1.4-2.3-2.3-3.6-4-1.4-1.8-1.2-5.9-1.3-8.1-.4-6.1.2-12.1-.7-18.2h.1c.6-.1 2.4-.9 2.4-.9l-.9-22.5-.8-16-.2-2.8 3.1-.9s2.5-1 3-1.8c1-1.6.4-6.1.3-7.6 0-.3-.3-4.2-.6-4.6-.2-.3-1.4-12-1.4-12s-.1-2.2-.3-2.9c-.1-.5-1.3-1.8-1.8-2-.5-.2-.3-.1-.1-.1-.8-.5-1.1-.5-1.9-.9-1.7-.9-3-1.6-4.8-2.4-.4-.2-.9-.3-1.2-.6l-.8-.8-.4-.4.1-.1c1.3-1.9 1.5-3.7 1.3-5.9-.2-2-.4-4-1.1-5.9-.7-1.8-1.9-3.5-3-5.1-1.1-1.6-2.5-2.9-4.4-3.4-2-.5-3.4.2-4.6 1.7-.5-.1-1.1-.3-1.5.2-.4.4-.6 1.1-.8 1.6-.5 1-1.1 2-1.5 3.2-.8 2.2-1.2 4.5-1.2 6.8 0 1 0 2.7.6 3.6-.3-.5-.3-1.5-.2-2 0-.4.1-.9.2-1.3 0 1.3.3 2.8 1.1 3.8.4.6.9 1.1 1.5 1.5.4.4 1.2 1.3 1.8 1.4v.1c.2-.1.4-.1.4-.1l-.1.2-.3.6s-.5 1.4-.6 2c-.1.6-.1 2.4-.1 2.4l.1 2.4s.7.6.9.8c.2.2.4.7.5 1 0 .1.1.4.1.6.1.7.1 1.8.1 1.8h-.3v.1s-.1 4-.3 5.3c-.2 1-.5 3-1 3.8-.2.4-1.3 1.4-1.3 1.4l.5.3.2-.3h.3c.1 0 .4.1.4.2.1.1 0 .4-.1.5-.1.1-.4.3-.5.3-.2 0-.7-.3-.7-.3l-.6-.4-.4.3s-.4.4-.5.3c-.2 0-.5-.4-.5-.5 0-.1.2-.4.3-.4.1 0 .5.1.5.1l.4-.3s-.5-1.4-.8-2.4c-.1-.7-.2-2-.2-2.7 0-.8.1-2.5.1-3.3 0-.5.1-1.8.2-2.3h-.2s0-1.8.4-2.5 1.3-1.2 1.3-1.2l.2-.3v-2.2s0-2.2.2-2.9c0-.1.1-.2.1-.3h-.1c-.5.2-1.8.9-2.3 1.1-.9.5-1.3.8-2.3 1.3-1.2.6-2.3 1-3.4 1.7-.5-.3-1.2.7-1.4 1.1-.4.8-.3 2-.5 2.8-.2.9-.3 1.7-.4 2.6h-.1l-1.2-2.7-7-3-.1.6-1-.2-.4.2 7.4 13.1h-.1c-.3 1.1-.6 2.2-1 3.3-.4 1.3-.9 2.5-1.1 3.8-.4 2.8 1.5 5.5 3.2 7.6.4.6 1 1.2 1.6 1.5.6.2 1.2.1 1.8 0h.2v.1l-1.1 20.3-1.2 20.9 5.4 1.8v.1c-.3 2.4-.2 4.8-.2 7.3 0 2.4.2 3.9.2 6.6 0 1.2.1 3.1.2 4.3 0 1.1 0 4.4-.2 5.5-.6 3.5-2.8 4.5-5.1 7.2l-1.7 1.9c-.7 1.2.3 2.2 1.1 2.1 1.5-.2 1.7-.2 2.8-.6 1.1-.4 1.9-.5 3-1.1.4-.2.8-.5 1.1-.8.3-.3.7-1 1.1-1.2.5-.3.9 0 1.5-.1.5-.1.9-.2 1.3-.5h.1c.1-.1.1-.3.2-.5.6-1.8.1-2.9-.2-4.7-.2-.8-.1-1.8 0-2.9.1-1 .5-3 .6-4 .4-2.1.7-3.8 1-6 .2-1.1.3-2.2.4-3.3.2-1 .2-2.1.3-3.1.2-1.9-.1-3.7-.1-5.5l2.5-.1-.3-3.3-1.2-14.2-.7-16.4s.2-8.1.3-8.6h.1c.4-.1.7-.1 1-.3.2-.2.4-.4.7-.6 1-.1 1.3-.3 2.3-.4 0 0 .4-.1.8-.1.1.1.1.2.2.3l-.9.2s1.2 15.8 1.3 21c.1 4-.1 14.1-.2 18.8 0 1.5-.1 2.4-.1 2.4s2.2-.4 3-.4c.3 0 .6 0 .9.1v.1c-.2.9-.1 1.9-.2 2.8 0 1-.1 1.9 0 2.9.2 2.2.6 4.4 1.1 6.5.3 1.1.6 2.1.8 3.2.2 1.1.5 2.2.8 3.2.6 2 1.1 5 .7 7.1-.4 1.8-.7 2.2-.9 3.9 0 .2.3 1.7.3 1.9.4.5 2 .9 2.6.6.5-.2.8-.3 1.2.1.3.3.7.6 1 .8.8.5 1.5.8 2.4 1.1 1 .3 1.4.3 2.4.6.5.2.9.2 1.5.3.3 0 .8.1 1.6-.4l.2-.2c1.2-1.4-1.1-2.8-2.6-4.2zM425 270.5c0-1 .8-1.8 1.8-1.8h.3l-.2-.1.2-.5-.3-.1c.3-.9.8-4 1.1-6.3.1-.7.2-1.8.2-2.5v-4.3c0-.9-.1-1.7-.2-2.6 0-.3 0-.6-.1-.8-.1-1.1-.2-2.3-.3-3.4 0-.3 0-.6-.1-.8v-.1s.5.4.7.9c.2.4.3 1.2.4 1.9.1.9.2 1.7.2 1.7s.3 4.5.3 6c0 1.1-.2 3.3-.3 4.3-.2 1.6-1 6.3-1 6.3h-.3l-.2.5c.7.2 1.2.9 1.2 1.6 0 1-.8 1.8-1.8 1.8-.8.1-1.6-.7-1.6-1.7zm9.9-4.1c0-.4.2-.7.3-1 .2-.7.5-1.5.7-2.2.2-.8.6-1.5.9-2.3.3-.8 1.4-3.2 2.3-3.6l.2.1c-.4-.2-1.6 2.6-1.7 2.9-.2.6-.3.4-.6 1.3-.2.5-1 2-.9 2.5.4 0 2-1.6 2.4-1.3-1 .6-1.7 1.4-2.5 2.3-.6.8-.8 2.8-.8 3.7 0 1-.2 2.5-.1 3.6s0 1.1.1 2.1c.1 1.1.4 2.3.3 3.3-.1 0-.4.1-.6.1 0 .4.4.5.6.8-.5-.1-.7-.4-1.2-.3 0 .3.1.4.1.7-.5.3-1.2.3-1.8.5-.6.2-1.3.5-1.9.6.8-.7 1.9-.9 2.3-1.3.3-.3.6-.4.6-.9 0-.4-.4-.7-.3-1.2.4.1.7.3 1 .4.4-.9 0-3 0-4 0-1.1.1-2.5-.1-3.5.7.1.6.2.6-.3v-1.5c.1-.6.1-1.1.1-1.5zm-3.2-.6v-.8h.8l.1.9 2.2.1s.1 3.5.1 3.6c0 .1-5.6 0-5.6 0V266l2.4-.2zm-18.5 9.8c-.2 0-.5.2-.6.3.1-.1.3-.3.6-.3zm-3.3-11.1c.1 1.4-.3 6.6-.3 6.6l-.3-.9s.2-4.6.1-5.8c-.2-1.8-1.4-6.1-1.4-6.1s1.7 4.4 1.9 6.2zm14.1 17.8c-.1-.1-.2 0-.4 0-.7.1-1.9.3-2.4.4-.5.1-.3 0-.9 0-.1 0-.2 0-.4-.1 0-.2 0-.5.1-.7.3-2.5.3-5.1.3-7.6 0-2.8-.1-5.6-.3-8.4-.1-1.7-.2-3.4-.4-5.2-.1-.6-.1-1.2-.2-1.8-.2-1.5-.4-3-.3-4.5.7.9 2 1.4 3.1 1.6 1.3.3 2.4.1 3.6-.3.6-.2 1.1-.5 1.6-.8-.2.8-.4 1.6-.7 2.4-.6 1.9-1.1 3.9-1.7 5.8-.6 2-1.3 3.9-1.5 6-.3 2.4-.3 4.9-.2 7.3.1 1.9.2 3.9.2 5.8v.1h.5v-.1c0 .1.1.2.1.2-.1 0-.1 0-.1-.1zm9.2 48h.6-.6zm1.2 0c.4 0 .7 0 1-.1-.3 0-.6.1-1 .1z"/><path class="st1" d="M417.8 260.7c-.2-.4-.3-1-1.1-1.1-.7-.1-.9.4-1.3 1-.4.7-.3 2.1-.3 2.1h-.2l-.1 1.8s-.2 2.3-.2 3c0 .9.1 2.4.3 3.2.1.5.7 2.1.7 2.1s.6-.6 1.1-1.2c.6-.7.8-2.8.9-3.7.2-1.3.3-5.1.3-5.1v-.1h-.2c.2.1.3-1.5.1-2z"/></svg>