<svg id="Layer_1" xmlns="http://www.w3.org/2000/svg" viewBox="0 0 841.9 595.3"><style>.st0{fill:none}.st1{fill:#005eb8}</style><path class="st0" d="M420.8 257.9h-.1zM427.1 253.7zM434.9 271c.3-.2.6-.3.9-.2-.3-.1-.6.1-.9.2zM419.4 257.2c.3.1.6.3.9.4-.3-.1-.6-.3-.9-.4zM416.5 256c.8.4 1.7.7 2.5 1.1-.8-.4-1.7-.8-2.5-1.1zM411.3 273.6h.3-.3zM426.5 275.9h-1.1 1.1zM417.2 275.5l1.2-.3c-.4.1-.8.1-1.2.3zM407.3 273.9c.4 0 .7 0 1.1-.1-.4 0-.8.1-1.1.1-.7.1-1.4.1-2.1.2-.2 0-.3.1-.5.1.2 0 .3-.1.5-.1.7-.1 1.4-.2 2.1-.2zM412.6 253.7l1.5.9c-.6-.3-1.1-.6-1.5-.9zM437 271h0zM438.3 271.4h.2-.2zM437.1 271h0zM438.6 272.1s.1 0 0 0c.1 0 .3 0 .4-.1-.1 0-.2.1-.4.1.1 0 0 0 0 0zM413.6 276.3c.3-.1.6-.1.9-.1-.3 0-.6.1-.9.1zM407.7 257.4l.1.1c0-.1 0-.1-.1-.1zM412.2 277.9c.1-.2.2-.5.4-.8-.1.3-.2.6-.4.8zM408.2 257.9c-.1-.2-.2-.3-.4-.4l.4.4zM410.3 261.8c.7 1.7 1.4 3.5 1.6 5.2.2 1 .4 2.2.4 3.2.2-.5.1-1.5.1-2.1-.1-.7-.1-1.5-.2-2.1-.3-1.4-.6-2.8-.7-4.3 0-.9.2-1.7.2-2.5-.7-.1-.7 1.3-.7 1.7-.5.1-1.1-1.6-1.4-2-.2-.3-.9-.7-1.4-1 .3.5.6 1.1.8 1.5.5.8.9 1.6 1.3 2.4zM410.9 273.6h-.2c-.4 0-.8.1-1.3.1.4-.1.8-.1 1.3-.1h.2zM411.8 273.5c-.1 0-.1 0-.2.1.1 0 .1-.1.2-.1zM431.6 273.8c-.1.3-.3.6-.4.9.2-.3.3-.6.4-.9.1-.2.2-.5.4-.7-.1.2-.2.5-.4.7zM428.2 275.7c-.4 0-.7.1-1 .1.3 0 .6 0 1-.1zM426.5 265.3l4.8-.1v-3.7h-2l.1-.6-.8-.1v.7l-2.1.1zM430.9 275.5v-.2.2c-1 .1-1.9.2-2.7.3.7-.1 1.6-.2 2.7-.3zM431.8 268.9c-.2-.8-.6-1.8-.7-2.7l-.2-.3c0 1.6.4 3 .4 4.5s-.5 2.9-.6 4.4c0-.9.6-2 .9-2.8.1-.4.2-1 .5-1.2.3-.2 1-.4 1.3-.4-.3-.2-.9 0-1.2-.3-.3-.2-.3-1-.4-1.2zM431.5 261.1c.2-.9.5-1.6.8-2.4.2-.7.2-1.7.4-2.4-.7 1.4-1.5 3.3-1.6 4.8l.1.1c.1-.1.2-.1.3-.1z"/><path class="st1" d="M439.8 276l-.3-2.1c-.1-.6-.3-1.2-.4-1.9-.1 0-.2.1-.4.1.1 0 .2 0 .4-.1.3-.1.6-.2.9-.2-.1-.9-.5-1.9-.7-2.8-.7-2.4-1.6-4.6-2.5-6.9-.6-1.5-1.1-3.3-2.1-4.6-.2-.2-1.1-1.5-1.1-1.4-.5-.5-1-.7-1.6-1-1-.5-2.1-.7-3.2-1.1-.5-.2-1-.4-1.5-.7-.4-.2-.9-.6-1.4-.4h-.1.1c-.6-.5-1.3-1.1-1.6-1.8-.4-1-.2-2-.2-3 .5-.6.9-1.2.9-1.2l.5-1.9s.7 0 .7-.2c.3-.7.3-2.7.3-2.7l.5-.5.1-2.4.1-2.2-.5-2.5s-1-1.6-1.4-2.1c-.4-.4-1.5-1-2.1-1.2-.8-.3-2.4-.6-3.2-.5-.6 0-1.7.5-2.2.8-1 .6-2.7 2.2-3.2 3.3-.2.5-.2 2.4-.2 2.4v3.9l.2.2.8.9c0 .3.1.7.2.9 0 .3 0 .5.1.8l.1.5v.1h-.2c.1.7-.5 1.5-.9 2-.5.7-1.1 1.3-1.4 2.2-.1.3-.3 1-.1 1.3-.1-.4.3-.9.5-1.2 0 .2-.1.6-.1.8v1.3c0 .5.2 1.2.5 1.7-.1.1-.2.1-.2.2-.2.2-.4.3-.6.5-.3.2-.6.4-.8.6l-.1.1 1.5.9c-.5-.3-1.1-.6-1.5-.9l.1-.1c.3-.2.6-.4.8-.6-.4-.3-.8.2-1.2.4-.5.2-1 .5-1.5.7-1.1.5-2.1 1.1-3.2 1.7-.4.2-1.3.6-1.5.9-.4.3-.6.9-.8 1.3l-.6 1.5c-.4 1.3-.7 2.6-1 3.9-.7 2.9-.9 3.5-1.4 6.7-.2 1.3-.6 3.3-.8 4.9h1.6l1.6.1.1-1c.2 0 .3-.1.5-.1.7-.1 1.4-.2 2.1-.2.4 0 .7 0 1.1-.1-.4 0-.7 0-1.1.1-.7.1-1.4.1-2.1.2-.2 0-.3.1-.5.1.1.9.1 1.8.3 2.7.2.9.4 2.1.7 3 .3 1 .4 1.5.7 2.4.2.8.6 1.7 1.4 2.6.1.1.4.2.7.2l-1.6 8.8-.8 8.2s1 .1 2.4.2v.3l-.1 12.6.1 18.7-.7 2.6-.2 2.4.4 1.2-.4.9.1 1.8.2 1.9v10l-.6 1.4.6 1.5.9.5-1.4 2.3-.5 1.8.7 2.7 3.2.2 2.3-1 2.6-2.3 1.3-1.6-.4-1.7.8-.2.6-.6-.1-6.1.6-1.3s-1.1-10.2-.5-10.8c.6-.6 1.2-1.4 1.2-1.4l-.9-1.1.4-2.7v-2l2.7-23-.1 6.1.3 9.7.5.9-.5.8-.5 11.5s.1 1.5.4 1.4c.3-.1 1.2 2.5 1.2 2.5s-.1 2.2-.2 2.5c-.1.3-.4 8.3-.4 8.3l.1 4.8 1 .5-.5 1.6v1.2l2 .8 2.7-.1 2 1.2 3.1.8 4.1.5 1.6.2.6-1-.2-1-1.9-1.1-4.4-3.5 1.1-.2.2-3.1-1.3-.8 1.2-.5-.9-.9.8-.9-1.7-22 1.7-14 .2-13.8v-.3c1.4-.2 2.3-.2 2.3-.2s-.8-9.6-1.5-12.8c-.3-1.5-1.8-6.1-1.8-6.1v-.1h.8c1 0 1.9-.1 2.9-.1h1.3c.4 0 .9 0 1.2-.2.1-.1.3-.1.4-.2.3-.6.5-1.2.7-1.9.1-1.3.2-2.7 0-4zm-1.3-4.6h-.2.2zm-1.2-.4H437 437.3zm-1.5-.2c-.3-.1-.6.1-.9.2.3-.1.6-.3.9-.2zm-8.7-17.1zm-6.3 4.2zm-1.4-.7c.3.1.6.3.9.4-.3-.1-.6-.3-.9-.4zm-2.2 18.3l1.2-.3c-.4.1-.8.1-1.2.3zm8.2.4h1.1-1.1zM419 257c-.8-.4-1.7-.7-2.5-1.1.8.4 1.7.8 2.5 1.1zm-7.7 16.6h.3c.1 0 .2 0 .2-.1-.1 0-.1 0-.2.1s-.2 0-.3 0zm15.9 2.2c.3 0 .6-.1 1-.1.7-.1 1.7-.2 2.7-.3v-.2.2c-1 .1-1.9.2-2.7.3-.4.1-.7.1-1 .1zm4-1.1c.1-.3.3-.6.4-.9.1-.2.2-.5.4-.7-.1.3-.2.5-.4.7-.1.3-.2.6-.4.9zm.9-3.9c-.3.2-.3.8-.5 1.2-.3.8-.8 1.9-.9 2.8 0-1.5.6-2.9.6-4.4 0-1.6-.4-3-.4-4.5l.2.3c0 .8.5 1.8.7 2.7.1.3.1 1 .3 1.3.3.3.9.1 1.2.3-.3 0-1 .1-1.2.3zm.6-14.6c-.2.8-.1 1.7-.4 2.4-.3.8-.6 1.6-.8 2.4h-.4l-.1-.1c.2-1.4 1-3.3 1.7-4.7zm-4.1 4.6h.8v.7h2v3.7l-4.8.1v-3.7l2.1-.1-.1-.7zm-14.1 15.4c-.3 0-.6.1-.9.1.3 0 .6-.1.9-.1zm-1.9.9c-.1.3-.3.5-.4.8.2-.2.3-.5.4-.8zm-4.4-19.2l-.4-.4-.1-.1h.1v.1c.2.1.3.2.4.4.5.4 1.2.7 1.4 1 .3.4.9 2.1 1.4 2 0-.4.1-1.8.7-1.7 0 .8-.2 1.7-.2 2.5 0 1.5.4 2.9.7 4.3.1.7.2 1.4.2 2.1 0 .6.2 1.6-.1 2.1.1-1-.2-2.2-.4-3.2-.3-1.8-.9-3.6-1.6-5.2-.4-.9-.8-1.7-1.2-2.5-.3-.3-.6-.9-.9-1.4zm2.5 15.7h0c-.4 0-.8.1-1.3.1.5 0 .9-.1 1.3-.1z"/></svg>