<svg xmlns="http://www.w3.org/2000/svg" width="34" height="34" viewBox="0 0 34 34">
  <g fill="none" fill-rule="evenodd">
    <path fill="#4A4A4A" d="M25.4964,21.0742 C25.4964,21.0742 24.8634,21.1572 24.2534,21.0592 L24.1954,21.2852 C24.1744,21.3682 24.1554,21.4862 24.1404,21.6352 C24.1264,21.7852 24.1194,21.9292 24.1194,22.0752 C24.1194,22.4432 24.2094,22.7042 24.3954,22.8742 C24.5724,23.0352 24.7924,23.1172 25.0464,23.1172 C25.0464,23.1172 25.3754,23.1182 25.4824,23.1172 C27.7364,23.1172 31.9984,21.5942 31.9984,15.8282 C31.9984,10.4282 26.8664,9.1432 25.8384,8.9412 L25.7214,8.9182 L25.6644,8.8142 C24.8714,7.3672 22.4374,4.0002 16.9754,4.0002 C9.8744,4.0002 7.8124,10.3712 7.4714,11.6482 L7.4304,11.7992 L7.2774,11.8302 C6.0384,12.0802 2.0004,13.2242 2.0004,17.4402 C2.0004,21.8002 5.6084,23.0602 7.5164,23.1172 L7.9964,23.1172 L7.9974,23.1172 C8.2524,23.1172 8.4714,23.0352 8.6484,22.8742 C8.8344,22.7042 8.9244,22.4432 8.9244,22.0752 C8.9244,21.9292 8.9184,21.7852 8.9034,21.6352 C8.8884,21.4862 8.8704,21.3682 8.8494,21.2852 L8.7914,21.0592 C8.1814,21.1572 7.5484,21.0742 7.5484,21.0742 C7.1884,21.0632 4.1014,20.8722 4.1014,17.4402 C4.1014,14.7652 6.7964,13.8532 8.3894,13.7362 L9.2214,13.6762 L9.3494,12.8732 C9.3944,12.5942 10.5304,6.0432 16.9754,6.0432 C22.3444,6.0432 23.9514,10.0312 24.0174,10.2012 L24.2484,10.7982 L24.8974,10.8662 C25.4094,10.9212 29.8984,11.5202 29.8984,15.8282 C29.8984,20.9262 25.9344,21.0732 25.4824,21.0732"/>
    <path fill="#0072C9" d="M13.2634 18.8L12.0374 18.8C11.8244 18.8 11.6504 18.974 11.6504 19.187L11.6504 22.413C11.6504 22.626 11.8244 22.8 12.0374 22.8L13.2634 22.8C13.4764 22.8 13.6504 22.626 13.6504 22.413L13.6504 19.187C13.6504 18.974 13.4764 18.8 13.2634 18.8M21.2634 18.8L20.0374 18.8C19.8244 18.8 19.6504 18.974 19.6504 19.187L19.6504 22.413C19.6504 22.626 19.8244 22.8 20.0374 22.8L21.2634 22.8C21.4764 22.8 21.6504 22.626 21.6504 22.413L21.6504 19.187C21.6504 18.974 21.4764 18.8 21.2634 18.8M13.2634 24.8L12.0374 24.8C11.8244 24.8 11.6504 24.974 11.6504 25.187L11.6504 28.413C11.6504 28.626 11.8244 28.8 12.0374 28.8L13.2634 28.8C13.4764 28.8 13.6504 28.626 13.6504 28.413L13.6504 25.187C13.6504 24.974 13.4764 24.8 13.2634 24.8M21.2634 24.8L20.0374 24.8C19.8244 24.8 19.6504 24.974 19.6504 25.187L19.6504 28.413C19.6504 28.626 19.8244 28.8 20.0374 28.8L21.2634 28.8C21.4764 28.8 21.6504 28.626 21.6504 28.413L21.6504 25.187C21.6504 24.974 21.4764 24.8 21.2634 24.8M17.2634 20.8L16.0374 20.8C15.8244 20.8 15.6504 20.974 15.6504 21.187L15.6504 24.413C15.6504 24.626 15.8244 24.8 16.0374 24.8L17.2634 24.8C17.4764 24.8 17.6504 24.626 17.6504 24.413L17.6504 21.187C17.6504 20.974 17.4764 20.8 17.2634 20.8M17.2634 26.8L16.0374 26.8C15.8244 26.8 15.6504 26.974 15.6504 27.187L15.6504 30.413C15.6504 30.626 15.8244 30.8 16.0374 30.8L17.2634 30.8C17.4764 30.8 17.6504 30.626 17.6504 30.413L17.6504 27.187C17.6504 26.974 17.4764 26.8 17.2634 26.8"/>
  </g>
</svg>
