<svg xmlns="http://www.w3.org/2000/svg" viewBox="0 0 75.479 77.982"><g fill="none" fill-rule="evenodd"><path fill-rule="nonzero" fill="#FFF" d="M2.76 74.098l69.1-65.37 3.62 3.424-69.1 65.37z"/><g stroke="#FFF"><path stroke-linecap="round" stroke-width="5" d="M55.666 63.359c0 6.855-5.03 12.123-11.82 12.123-4.233 0-9.171-2.859-11.36-11.041-3.521-10.925-14.48-11.205-15.955-28.198-1.245-14.332 10.009-23.361 19.992-22.64 11.589 0 20.097 9.739 20.097 21.621"/><path stroke-width="5" d="M11.735 56.364l-2.407-3.073C-1.627 39.298.835 19.073 14.828 8.118A32.178 32.178 0 0126.19 2.412h0"/><path stroke-linecap="round" stroke-width="3.25" d="M31.21 45.595l-.698-.635c-5.076-4.626-5.44-12.491-.815-17.567a12.435 12.435 0 0110.48-3.993h0"/></g></g></svg>