<?xml version="1.0" encoding="UTF-8"?>
<svg width="182px" height="182px" viewBox="0 0 182 182" version="1.1" xmlns="http://www.w3.org/2000/svg" xmlns:xlink="http://www.w3.org/1999/xlink">
    <!-- Generator: Sketch 63.1 (92452) - https://sketch.com -->
    <title>Group 3</title>
    <desc>Created with Sketch.</desc>
    <g id="Accessibility" stroke="none" stroke-width="1" fill="none" fill-rule="evenodd">
        <g id="accessibility" transform="translate(-905.000000, -829.000000)">
            <g id="Group-4" transform="translate(905.000000, 829.000000)">
                <g id="Group-3">
                    <circle id="Oval" fill="#FF0000" cx="91" cy="91" r="91"></circle>
                    <g id="ear" transform="translate(27.000000, 44.000000)">
                        <path d="M32,83.3696703 L101.100108,18 L104.719452,21.4239509 L35.6193448,86.7936212 L32,83.3696703 Z" id="Line-Copy" fill="#FFFFFF" fill-rule="nonzero"></path>
                        <g id="Group-6" stroke="#FFFFFF">
                            <path d="M84.9064329,72.6305387 C84.9064329,79.485702 79.8759244,84.7537265 73.0867144,84.7537265 C68.8532523,84.7537265 63.9148548,81.8947945 61.7263125,73.7123787 C58.204813,62.7881328 47.2467745,62.5081993 45.7709873,45.5148412 C44.5262959,31.1825009 55.7797892,22.1533319 65.7630788,22.8754244 C77.3517606,22.8754244 85.8600977,32.6135478 85.8600977,44.4958308" id="Path" stroke-width="5" stroke-linecap="round"></path>
                            <path d="M48.9157035,61.1752577 L45.7959043,58.8293615 C31.5920632,48.1489504 28.7357588,27.9762782 39.4161699,13.7724371 C41.9888921,10.3509829 45.2184511,7.47726541 48.9157035,5.31958763 L48.9157035,5.31958763 L48.9157035,5.31958763" id="Line-3" stroke-width="5" transform="translate(28.004244, 33.247423) rotate(-345.000000) translate(-28.004244, -33.247423) "></path>
                            <path d="M66.2567453,48.9299895 L65.3725044,48.6021361 C58.9329773,46.2145275 55.6482484,39.0587203 58.035857,32.6191932 C59.4091539,28.915327 62.4605348,26.0842529 66.2567453,24.9918452 L66.2567453,24.9918452 L66.2567453,24.9918452" id="Line-3-Copy" stroke-width="3.25" stroke-linecap="round" transform="translate(48.081488, 36.960917) rotate(22.000000) translate(-48.081488, -36.960917) "></path>
                        </g>
                    </g>
                </g>
            </g>
        </g>
    </g>
</svg>