<?xml version="1.0" encoding="UTF-8"?>
<svg width="182px" height="182px" viewBox="0 0 182 182" version="1.1" xmlns="http://www.w3.org/2000/svg" xmlns:xlink="http://www.w3.org/1999/xlink">
    <!-- Generator: Sketch 63.1 (92452) - https://sketch.com -->
    <title>Group 11</title>
    <desc>Created with Sketch.</desc>
    <g id="Accessibility" stroke="none" stroke-width="1" fill="none" fill-rule="evenodd">
        <g id="accessibility" transform="translate(-884.000000, -1403.000000)">
            <g id="Group-2" transform="translate(884.000000, 1403.000000)">
                <g id="Group-11">
                    <circle id="Oval-Copy-3" fill="#2556A6" cx="91" cy="91" r="91"></circle>
                    <g id="hand-icon" transform="translate(52.000000, 48.000000)">
                        <path d="M59.7234563,18.2906087 L59.71459,39.8989401 C59.6503682,40.7768046 59.2476721,41.5621944 58.6338238,42.123069 C58.0374069,42.6680165 57.2426064,43.0011403 56.3700699,43.0011403 C55.4452428,43.0011403 54.6076866,42.6269957 54.001239,42.0228115 C53.3924967,41.416341 53.0166201,40.5784524 53.0166201,39.6538908 L53.0166201,9.85859434 L53.0030662,9.85828495 L52.9840647,8.22208973 C52.9406187,7.37948016 52.5694943,6.62355306 51.9965625,6.07704926 C51.4188756,5.52600976 50.635551,5.18796621 49.7731959,5.18796621 C48.9070383,5.18796621 48.1206143,5.52900567 47.5422007,6.08434973 C46.9633587,6.64010506 46.5924413,7.41043313 46.5603067,8.2674829 L46.4321151,8.38277665 L46.4232413,36.5885037 C46.3590196,37.4663682 45.9563235,38.251758 45.3424752,38.8126326 C44.7460582,39.3575801 43.9512577,39.6907039 43.0787213,39.6907039 C42.1538942,39.6907039 41.3163379,39.3165594 40.7098904,38.7123751 C40.1011481,38.1059046 39.7252715,37.268016 39.7252715,36.3434545 L39.7252715,6.58634019 L39.7054952,6.58634019 L39.6648699,4.73395599 C39.6233191,3.8882115 39.2516743,3.12930415 38.6769749,2.5811143 C38.099288,2.0300748 37.3159634,1.69203125 36.4536082,1.69203125 C35.5652486,1.69203125 34.7607899,2.05082511 34.1785523,2.63153122 C33.5979298,3.21062654 33.238423,4.01053305 33.238423,4.89430894 L33.1407965,4.98661126 L33.1318927,36.5885037 C33.0676709,37.4663682 32.6649748,38.251758 32.0511265,38.8126326 C31.4547096,39.3575801 30.6599091,39.6907039 29.7873726,39.6907039 C28.8625455,39.6907039 28.0249893,39.3165594 27.4185418,38.7123751 C26.8097994,38.1059046 26.4339228,37.268016 26.4339228,36.3434545 L26.4339228,13.2035982 L26.3875783,13.2034991 L26.3453268,11.3771417 C26.3039979,10.5310319 25.9322926,9.77177702 25.3573872,9.22339073 C24.7797004,8.67235122 23.9963758,8.33430767 23.1340206,8.33430767 C22.2481763,8.33430767 21.4457555,8.69106765 20.863915,9.26888103 C20.2834581,9.8453203 19.9225925,10.6418726 19.9188649,11.5226445 L19.8494738,11.5887312 L19.8494738,58.063124 L9.89332148,44.4723493 C9.12447228,43.3813927 8.03201765,42.6516291 6.86326994,42.3628244 C5.76302162,42.0909463 4.59240835,42.2131352 3.59662708,42.8192609 C2.5876801,43.4562702 1.96816757,44.4742958 1.76599737,45.5962873 C1.55272754,46.7798788 1.79808902,48.0767693 2.52690526,49.2158604 C2.70183519,49.4798547 13.4162529,65.6355603 18.0043707,72.5839981 C22.3798258,79.2103707 29.5080489,84.3079688 42.7231777,84.3079688 C50.902919,84.3079688 56.3124111,81.9969517 59.8392136,78.7636819 C65.6002123,73.4821661 66.3079687,65.8958219 66.3079687,62.8269454 L66.3031918,18.0020049 C66.2576477,17.1628938 65.8871088,16.4102888 65.3161501,15.8656671 C64.7384633,15.3146276 63.9551386,14.9765841 63.0927835,14.9765841 C62.2094523,14.9765841 61.409069,15.3313177 60.8276344,15.9062458 C60.2473522,16.4800344 59.8851459,17.2732362 59.8777161,18.1510006 L59.7234563,18.2906087 Z" id="Path-2-Copy-2" stroke="#FFFFFF" stroke-width="3.3840625"></path>
                        <path d="M6.03296703,80.072967 L75.1330746,14.7032967 L78.7524193,18.1272476 L9.65231182,83.4969179 L6.03296703,80.072967 Z" id="Line-Copy" fill="#FFFFFF" fill-rule="nonzero"></path>
                    </g>
                </g>
            </g>
        </g>
    </g>
</svg>