<svg id="Layer_1" data-name="Layer 1" xmlns="http://www.w3.org/2000/svg" viewBox="0 0 100 100"><defs><style>.cls-1{fill:#353535;}</style></defs><title>FEMALE JUDGE</title><path class="cls-1" d="M41.29,57.46a12.58,12.58,0,0,0,8.61,3.36,12.72,12.72,0,0,0,6-1.52,16.61,16.61,0,0,0,2.43-1.73C66,60,70,58.69,70,58.69c-5.62-5-4.58-19.08-4.58-19.08h0A14.93,14.93,0,0,0,65.48,38a15.81,15.81,0,0,0-31.61,0c0,.56,0,1.11.08,1.65h0s1,14-4.59,19.08C29.34,58.69,33.49,60,41.29,57.46ZM38.75,41.2c.08-12.05,5.44-12.3,11-12.3s11.22.69,11,12.3c-.13,2.86.86,6.7-1.35,11.55-1.24,2.72-2.78,6.82-9.62,6.46-6.84.36-8.28-3.58-9.52-6.31C38,48.06,38.54,45,38.75,41.2Z"/><path class="cls-1" d="M71.16,67.93S64,65,59.27,62.43L54.33,80.11H78.45C78.26,75,77.12,70.21,71.16,67.93Z"/><path class="cls-1" d="M28.17,67.93c-5.94,2.28-7.09,7-7.28,12.18H45.46l-5-17.89C35.75,64.78,28.17,67.93,28.17,67.93Z"/></svg>