<svg xmlns="http://www.w3.org/2000/svg" viewBox="110 243.9 371 371"><path d="M245.8 465.4c13.9 12.9 32.3 20.1 51.3 20 12.5 0 24.7-3.1 35.7-9 5.1-3 10-6.4 14.5-10.3 45.7 14.5 69.5 6.7 69.5 6.7-33.5-29.8-27.3-113.6-27.3-113.6.3-3.2.4-6.4.4-9.6-1.3-52-44.5-93-96.5-91.7-50.1 1.3-90.5 41.6-91.7 91.7 0 3.3 0 6.6.5 9.8 0 0 6 83.3-27.3 113.6-.2-.3 24.5 7.5 70.9-7.6zm-15.1-96.8c.5-71.7 32.4-73.2 65.5-73.2s66.8 4.1 65.5 73.2c-.8 17 5.1 39.9-8 68.8-7.4 16.2-16.5 40.6-57.3 38.5-40.7 2.1-49.3-21.3-56.7-37.6-13.5-28.9-10.3-47.1-9-69.7zM423.6 527.7S381 510.3 352.8 495l-29.4 105.2H467c-1.1-30.4-7.9-58.9-43.4-72.5zM167.7 527.7c-35.4 13.6-42.2 41.7-43.3 72.5h146.3l-29.8-106.5c-28.1 15.2-73.2 34-73.2 34z" fill="#313131"/></svg>