<?xml version="1.0" encoding="UTF-8" standalone="no"?>
<svg
   xmlns:dc="http://purl.org/dc/elements/1.1/"
   xmlns:cc="http://creativecommons.org/ns#"
   xmlns:rdf="http://www.w3.org/1999/02/22-rdf-syntax-ns#"
   xmlns:svg="http://www.w3.org/2000/svg"
   xmlns="http://www.w3.org/2000/svg"
   xmlns:sodipodi="http://sodipodi.sourceforge.net/DTD/sodipodi-0.dtd"
   xmlns:inkscape="http://www.inkscape.org/namespaces/inkscape"
   viewBox="0 0 93.616484 60.649929"
   version="1.1"
   id="svg16"
   sodipodi:docname="pistol.svg"
   width="93.616486"
   height="60.649929"
   inkscape:version="0.92.2 5c3e80d, 2017-08-06">
  <metadata
     id="metadata20">
    <rdf:RDF>
      <cc:Work
         rdf:about="">
        <dc:format>image/svg+xml</dc:format>
        <dc:type
           rdf:resource="http://purl.org/dc/dcmitype/StillImage" />
        <dc:title>Handgun Icon</dc:title>
      </cc:Work>
    </rdf:RDF>
  </metadata>
  <sodipodi:namedview
     pagecolor="#ffffff"
     bordercolor="#666666"
     borderopacity="1"
     objecttolerance="10"
     gridtolerance="10"
     guidetolerance="10"
     inkscape:pageopacity="0"
     inkscape:pageshadow="2"
     inkscape:window-width="1092"
     inkscape:window-height="605"
     id="namedview18"
     showgrid="false"
     inkscape:zoom="1.2116226"
     inkscape:cx="73.486545"
     inkscape:cy="34.399929"
     inkscape:window-x="0"
     inkscape:window-y="0"
     inkscape:window-maximized="0"
     inkscape:current-layer="svg16" />
  <defs
     id="defs4">
    <style
       id="style2">.cls-1{fill:#353535;}</style>
  </defs>
  <title
     id="title6">Handgun Icon</title>
  <g
     id="Layer_8_copy"
     data-name="Layer 8 copy"
     transform="translate(-88.28,-39)">
    <g
       id="Layer_15"
       data-name="Layer 15">
      <path
         class="cls-1"
         d="m 177.71,44.31 a 1.75,1.75 0 0 0 -1.12,-0.75 1.77,1.77 0 0 0 -1.33,0.27 c -0.34,0.63 -0.34,2.42 -2.22,3.36 a 4.44,4.44 0 0 1 -1.36,0.35 l -1.29,-2.85 a 1.72,1.72 0 0 0 -1.57,-1 h -6.9 v -1.86 h -54.15 c 0,-1.56 -4.31,-2.83 -5.76,-2.83 a 2.73,2.73 0 0 0 -2.62,2.83 v 1.85 H 94 a 1.72,1.72 0 0 0 -1.72,1.71 h -4 V 51 h 4 A 1.72,1.72 0 0 0 94,52.73 h 77.33 a 1.7,1.7 0 0 0 1.2,-0.49 l 0.06,-0.07 0.09,-0.1 4.7,-5.45 a 1.76,1.76 0 0 0 0.33,-2.31 z"
         id="path8"
         inkscape:connector-curvature="0"
         style="fill:#353535" />
      <path
         class="cls-1"
         d="m 94.34,53.54 v 1.25 a 1.92,1.92 0 0 0 1.92,1.92 h 74 l 1.25,-3.17 z"
         id="path10"
         inkscape:connector-curvature="0"
         style="fill:#353535" />
      <path
         class="cls-1"
         d="M 181.75,86.11 169,64.8 c -1.26,-2.37 -0.13,-3.91 0.94,-7.27 h -65.5 l 0.71,2.2 a 4.19,4.19 0 0 0 4,2.92 H 131 c 1,0.63 1.74,1.36 1.74,2.22 0,4.71 4.38,8.53 9.78,8.53 a 64,64 0 0 0 8.34,-0.22 l 6.48,23.36 a 4.27,4.27 0 0 0 5.63,2.83 l 12.76,-4.87 c 4.06,-2.05 6.85,-6.19 6.02,-8.39 z m -35.13,-16 a 8.58,8.58 0 0 1 -3.36,1.58 h -0.12 v 0 a 8.1,8.1 0 0 1 -1.93,0.24 c -3.81,0 -6.9,-2.71 -6.9,-6.06 0,-3.35 3.09,-3.24 6.9,-3.24 1.19,0 2.32,0 3.3,0.08 -0.07,0.21 -0.14,0.43 -0.2,0.67 -1.38,5.31 -5.76,7.16 -5.06,7.46 a 4.06,4.06 0 0 0 2.88,-0.29 0.52,0.52 0 0 1 0.15,-0.07 12,12 0 0 0 4.65,-3.92 7,7 0 0 0 0.88,-2.43 c 0,0 0,0 0,-0.08 a 3.12,3.12 0 0 1 0.48,1.82 c 0.01,0.59 -0.29,3.28 -1.67,4.27 z"
         id="path12"
         inkscape:connector-curvature="0"
         style="fill:#353535" />
    </g>
  </g>
</svg>
