<svg xmlns="http://www.w3.org/2000/svg" viewBox="0 0 41 33"  style="fill: #313131">

  
  <path
    
     d="m 40.220618,10.401 c -2.141,-0.124 -3.081,-3.239 -2.344,-5.033 0.439,-1.065 2.016,-0.587 1.467,-2.021 -0.585,-1.529 -1.317,0.406 -1.842,0.5 -0.41,-1.667 -2.359,-1.167 -3.72,-1.236 0.013,-0.212 0.023,-0.425 0.033,-0.637 -1.149,-0.634 -4.257,0.334 -6.337,0.228 -5.664,-0.284 -11.327,-0.568 -16.989,-0.853 C 8.4146173,1.245 6.3416173,1.141 4.2706173,1.037 3.4636173,0.997 2.8226173,0 2.5946173,0 0.62861733,0.004 0.22161733,1.142 0.13061733,2.949 c -0.044,0.896 -0.301,4.597 0.056,5.1220002 0.81199999,1.188 3.44099997,0.044 3.84799997,1.037 0.362,0.8969998 5.386,0.758 6.3740007,0.854 1.59,0.1519998 4.258,0.1109998 4.407,2.3039998 0.706,2.237 -1.167,4.205 2.19,5.267 1.85,0.581 4.514,1.937 6.511,1.339 -0.171,0.052 3.613,-1.446 2.364,0.161 -0.452,0.592 0.915,1.995 -0.041,3.114 0.157,0.637 0.695,0.888 1.094,1.624 0.717,1.312 -0.742,2.201 -0.52,3.095 0.471,1.876 2.37,2.414 1.285,4.573 0.151,-0.024 0.301,-0.048 0.453,-0.072 -2.479,1.949 1.177,1.94 2.707,2.036 1.264,0.073 6.73,1.223 5.685,-0.617 1.027,0.013 2.058,0.02 3.087,0.024 0.75,-3.897 -1.07,-8.066 -1.917,-12.347 -0.415,-2.067 -1.688,-4.823 -0.845,-6.488 0.843,-1.654 2.525,-2.287 4.318,-2.024 1.057,-1.016 0.575,-1.757 -0.966,-1.55 z m -15.953,6.756 c -2.012,2.507 -9.531,0.311 -8.604,-3.444 0.033,-1.705 3.504,-2.744 4.729,-1.713 1.784,1.508 -0.105,4.361 -1.837,4.779 3.044,1.475 2.481,-3.866 3.796,-3.999 2.238,-0.226 3.954,2.081 1.916,4.377 z" />
</svg>
