<?xml version="1.0" encoding="UTF-8" standalone="no"?>
<svg
   xmlns:dc="http://purl.org/dc/elements/1.1/"
   xmlns:cc="http://creativecommons.org/ns#"
   xmlns:rdf="http://www.w3.org/1999/02/22-rdf-syntax-ns#"
   xmlns:svg="http://www.w3.org/2000/svg"
   xmlns="http://www.w3.org/2000/svg"
   height="66.550003"
   width="173.81039"
   id="svg18"
   version="1.1"
   viewBox="0 0 173.81039 66.550003">
  <metadata
     id="metadata22">
    <rdf:RDF>
      <cc:Work
         rdf:about="">
        <dc:format>image/svg+xml</dc:format>
        <dc:type
           rdf:resource="http://purl.org/dc/dcmitype/StillImage" />
        <dc:title>AR-15 Icon</dc:title>
      </cc:Work>
    </rdf:RDF>
  </metadata>
  <defs
     id="defs4">
    <style
       id="style2">.cls-1{fill:#353535;}</style>
  </defs>
  <title
     id="title6">AR-15 Icon</title>
  <g
     transform="matrix(-1,0,0,1,209.39028,-31.74)"
     data-name="Layer 8 copy"
     id="Layer_8_copy">
    <g
       data-name="Layer 15"
       id="Layer_15">
      <path
         style="fill:#353535"
         id="path8"
         d="m 128.49,68.21 13.55,3 a 30.82,30.82 0 0 1 -15.48,27.08 l -10.68,-11.8 c 0,0 12.72,-5.75 12.61,-18.28 z"
         class="cls-1" />
      <path
         style="fill:#353535"
         id="path10"
         d="M 170.12,49.23 125,49.6 l 0.07,9.42 c 0,0 2.77,0 2.8,3.67 v 5.38 l 14.75,3.25 13.79,-0.11 7.17,11.71 c -1.34,1.36 -1.72,3.19 1,2.69 l 11.08,-3.12 -10.09,-13.71 a 7.47,7.47 0 0 1 -1.89,-4.36 c 0,-4.54 6.53,-4.26 6.53,-4.26 l -0.05,-5.89 h 2.69 v 4.21 l 7.07,-0.06 v 4 l 13.73,-0.11 c 3.14,0 12.64,14.7 12.64,14.7 2.5,-2.54 4.13,-28.76 2.35,-28.75 l -3.6,0.67 -32.29,0.26 V 50 h -2.69 z m -15.84,17.71 a 3.44,3.44 0 0 1 -3.42,3.47 h -3.7 a 3.45,3.45 0 0 1 -0.06,-6.89 h 1.86 c 2.31,1 3.36,4.55 1.67,6.27 0,0 3.14,-3 1.07,-6.17 v 0 a 3.44,3.44 0 0 1 2.58,3.32 z"
         class="cls-1" />
      <path
         style="fill:#353535"
         id="path12"
         d="m 128.86,46.87 h -3.85 v 2.7 L 167.4,49.22 V 46.53 L 154,46.67 v 0 l 5,-0.05 v 0 h 6.39 l -2.06,-5 v -3 a 1.69,1.69 0 0 0 -1.7,-1.67 h -1.24 a 3.38,3.38 0 0 0 -1.24,-0.38 v -3.18 h -2.71 v -1.65 l -18.1,0.16 v 1.55 h -3.24 v -0.92 h -1.74 v 0.92 h -4.12 v 3.32 h 4.12 v 2.55 l -3.87,0.44 c -3.87,0.72 -3.35,2.22 -3.33,5.24 v 1.85 h 2.63 z m 2.24,-5.31 19.1,-0.15 c 1.65,0 2.33,0.25 2.54,2 a 1.84,1.84 0 0 0 -0.66,1.43 L 130.72,45 a 1.85,1.85 0 0 0 -1.87,-1.84 2,2 0 0 0 -0.84,0.21 c 0.35,-1.44 1.34,-1.79 3.09,-1.81 z m 7.22,-4.79 v 2 l -3.23,0.36 v -2.36 z m 18.1,-0.15 h 0.19 z m -2.48,10.05 -25,0.2 v 0 z"
         class="cls-1" />
      <path
         style="fill:#353535"
         id="path14"
         d="m 35.58,52.76 v 1.84 a 1.7,1.7 0 0 0 1.7,1.68 L 44,56.22 a 1.68,1.68 0 0 0 1.53,-1 l 30.24,-0.4 a 1.68,1.68 0 0 0 1.69,1.59 l 7.91,-0.07 v 1.85 a 1.67,1.67 0 0 0 1.69,1.67 l 32,-0.26 a 1.68,1.68 0 0 0 1.67,-1.69 V 57.4 l 4.37,0.64 -0.1,-11.14 -4.36,0.71 A 1.68,1.68 0 0 0 119,46 l -32,0.26 a 1.67,1.67 0 0 0 -1.67,1.69 v 1.85 0 -1.22 L 79.2,40.72 c -3.24,-3.19 -5.06,-2.48 -5,0 l 0.09,10.77 h 1.51 v 0.08 L 45.53,52 A 1.71,1.71 0 0 0 44,51 l -6.74,0.06 a 1.68,1.68 0 0 0 -1.68,1.7 z m 46.87,-5.51 a 1.07,1.07 0 0 0 -0.83,1.19 l -6.1,0.05 V 44.7 l 1.39,-0.26 v -2 h 2 z m -45,5 6,-0.06 v 1.43 l -6.05,0.06 z"
         class="cls-1" />
    </g>
  </g>
</svg>
