<svg xmlns="http://www.w3.org/2000/svg" viewBox="0 0 132 41" style="fill: #313131">
  
  
  <path
     d="m 104.58,9.909549 c 0.003,0.027 -0.36,-0.453001 -0.246,-0.861001 -1.12,-10e-4 -2.345,-0.314 -2.299,0.854001 0.002,-0.275001 0.003,-0.549001 0.003,-0.824001 -1.717,0.514 -1.28,-0.875 -1.276,-2.056 -2.063003,0.169 -3.258003,0.279 -3.705003,-2.175 -0.197,-1.072 -0.333,-0.547 -0.722,-1.622 0.875,-1.44 -0.355,-2.67399996 -1.672,-3.03699996 -2.017,-0.555 -5.052,0.276 -7.196,0.439 -4.375,0.335 -8.75,0.66799996 -13.125,1.00199996 -0.763,0.059 -1.812,-0.05 -2.541,0.224 -2.253,0.844 -2.516,3.766 -0.843,5.335 -0.393,0.609 -0.956,0.951 -1.687,0.767 0.004,-0.279 0.004,-0.56 0.004,-0.839 -1.047,0.195 -2.163,0.422 -2.98,0.644 0.085,-2.13 -1.73,-1.484 -3.232,-1.438 -3.301,0.099 -6.6,0.199 -9.899999,0.298 -3.126,0.094 -6.254,0.188 -9.376,0.284 -1.704,0.052 -2.396,0.882 -3.832,0.936 0.384,-1.633 -4.659001,-8.15299996 -6.179001,-7.57199996 -2.505,0.95799996 -1.278,6.84699996 -1.286,9.00499996 C 21.936997,9.238548 10.719,9.212548 0.012,9.174548 0.01,10.084549 0.007,10.993549 0,11.903549 c 6.577,0.022 13.117,0.043 20.053997,0.061 2.34,0.007 4.555,-0.136 6.567,0.02 0.687,0.055 4.226,-0.315 4.246,0.268 0.068,2.015 1.343,1.811 3.183,2.429 0,-0.338 -0.2,-2.417 0.096,-2.672 0.304,-0.261 3.678001,-0.195 4.062001,0.014 1.089,0.586 0.427,4.721 0.35,6.108 2.828,-1.524 0.146,-3.461 1.23,-5.243 -0.617,2.893 12.996,2.254 14.652,2.328 3.490999,0.154 6.982999,0.308 10.470999,0.464 1.353,0.061 0.414,-0.764 1.359,-0.995 0.812,-0.195 2.075,0.561 2.982,0.92 0.198,-0.754 -0.061,-0.798 0.954,-0.707 -0.061,1.271 0.873,0.911 1.319,1.948 0.276,0.641 0.029,1.976 0.04,2.667 0.007,0.633 -0.095,1.402 0.026,2.029 0.045,0.219 -0.532,-0.014 -0.167,0.775 0.103,0.22 0.762,0.448 0.757,0.445 0.071,2.234 -0.23,4.492 -0.675,6.674 -0.362,1.779 -0.852,3.529 -1.447,5.243 -0.613,1.756 -2.27,3.236 -0.305,4.11 0.948,0.42 2.647,0.542 3.995,1.003 0.873,0.303 1.8,0.89 2.682,0.862 0.326,0.11 0.646,0.221 0.972,0.331 0.763,0.26 1.195,-1.752 1.426,-2.325 0.856,-2.086 1.55,-4.241 2.042,-6.444 0.554,-2.475 0.903,-5.075 0.739,-7.62 1.254,0.116 2.632,-0.024 3.905,-0.022 1.746,0.005 6.239,-0.845 7.507,0.639 0.715,0.834 1.256,1.495 0.548,2.326 -1.131,1.322 0.427,0.415 1.067,0.9 0.705,0.53 2.597,4.146 2.33,4.934 -0.914,2.701 6.656003,1.177 7.733003,-0.041 1.06,-1.195 -0.956,-3.046 -1.833,-4.348 -1.505,-2.241 -4.098003,-4.89 -4.904003,-7.505 -0.888,-2.885 1.426,-4.54 4.053003,-4.386 0.003,-0.901 -0.168,-2.362 0.19,-2.938 -0.002,0.168 -0.003,0.336 -0.007,0.504 0.823,0.002 2.074,0.424 2.121,-0.494 0.083,0 0.165,0 0.25,0 -0.122,0.376 0.029,0.879 -0.004,1.281 1.514,-0.098 3.454,0.15 4.431,1.451 0.798,1.062 -0.086,2.89 1.635,2.901 1.023,0.011 2.398,-0.213 1.99,1.206 0.909,10e-4 2.13,0.423 1.818,-0.873 1.873,0.182 3.469,1.87 4.979,2.931 2.24,1.574 2.145,0.701 2.253,-1.786 2.456,0.992 2.947,1.501 4.409,3.734 0.719,1.101 1.77,2.399 2.068,3.706 1.771,1.138 1.947,-1.595 2.333,-2.918 1.272,-4.359 1.922,-8.923 2.132,-13.457 0.041,-0.904 0.147,-1.89 0.025,-2.796001 -0.272,-1.847 -1.748,-0.102 -2.053,-0.106 -8.667,-0.13 -17.333,-0.263 -26.002,-0.392 0.003,0.295 -0.001,0.58 -0.004,0.862001 z M 33.471997,5.067548 c 1.951,-0.257 0.121,-2.353 2.380001,-2.071 1.089,0.135 3.376,3.56 3.257,4.632 -1.454,-0.005 -2.913,-0.009 -4.365001,-0.013 -1.865,-0.005 -1.274,-0.765 -1.272,-2.548 z m 38.978,1.86 c -2.292,-0.508 -2.082,-3.649 -0.034,-4.252 1.235,-0.363 3.133,0.011 4.404,0.014 2.667,0.007 5.333,0.015 7.997,0.022 1.164,0.002 3.044,-0.374 4.146,0.123 0.894,0.406 3.136,4.152 0.959,4.145 -1.755,-0.004 -3.513,-0.01 -5.269,-0.015 -4.07,-0.013 -8.137,-0.024 -12.203,-0.037 z m 18.575,14.873001 c -0.333,4.526 -11.381,2.332 -7.695,-1.588 0.933,-0.993 2.524,-0.658 3.725,-0.638 2.406,0.038 1.188,2.958 1.036,3.954 1.504,-0.473 1.293,-2.694 0.993,-3.927 1.143,-0.089 2.021,1.095 1.941,2.199 -0.109,1.486 0.11,-1.587 0,0 z" />
</svg>
