<svg xmlns="http://www.w3.org/2000/svg" viewBox="0 0 959 593"><path d="M805.216 266.062l.202-.658 4.311-.062 3.072.97 2.101.323.97-2.101-1.455-2.102v-1.778l-2.425-2.102-2.101-5.496 1.293-5.335-.162-2.102-1.293-1.293s1.455-1.617 1.455-2.263c0-.647.485-2.102.485-2.102l1.94-1.293 1.94-1.617.485.97-1.455 1.617-1.293 3.718.323 1.132 1.778.323.485 5.496-2.101.97.323 3.557.485-.162 1.132-1.94 1.616 1.779-1.616 1.293-.324 3.395 2.587 3.395 3.88.485 1.616-.809 3.237 4.183 1.358.537.698.309.144 1.947-.767 3.097-1.587 4.183-.446 5.45 1.47 4.64 2.164-1.916 1.828-4.978-.461-3.39.418-4.586 2.92-3.78.77-3.217-.497-.556 2.007-4.024.227-4.864-.226-.714-2.264-7.355-.97.485-3.556-2.425-1.779-4.688-1.94-3.557-2.263-.97-2.101-3.556.499-2.102.51.504 1.092 2.244 3.233 2.91 4.85 2.264 4.042.646.161 1.455-.808.97.323 2.748h.809l2.101-2.425.809-4.85 2.748-4.04 3.071-6.467 1.132-5.497-.647-1.131-.161-9.377-1.617-3.395-1.131.809-2.749.323-.485-.485 1.132-.97 2.102-1.94.063-1.094.54-.085 1.175.533 4.041-1.132 5.82-1.94 2.587-.97 7.113-5.335 3.88-2.91 3.394-3.556-4.203-1.617-1.293 1.455-2.91 2.748-7.921 3.88-2.264-.161-1.616-.647-1.132.647-2.263 2.586-1.455 1.293-1.293.324-.324-1.294 1.94-1.778-.796-1.678 1.014.23 4.956-3.402 3.556-3.233 1.94-2.101.808.646 2.748-1.455 5.174-1.131 7.044-3.492.877-.227 2.91-.97 2.425-1.94 1.131-1.778 1.294.162 2.91-1.536.52-.374 2.066-1-.485-2.263.808-1.455 2.91-1.455.809 3.071-.485 1.779-2.425 1.455v.97l1.94-1.455 3.88-4.527 3.88-1.94 4.203-1.455-.324-2.425-.97-2.91-1.94-2.424-1.778-.809-2.102.162-.484.485.97 1.293 1.454-.808 2.102 1.617.808 2.748-1.778 1.778-2.263.97-3.557-.485-3.88-5.981-2.263-2.587h-1.778l-1.132.808-1.94-2.586.324-1.455 2.425-5.173-2.89-4.413-.566-.492.869-1.077 1.09-3.29.373-1.12 1.124-6.26.161-4.364 1.455-1.293-.97-3.234 3.072-3.556 1.616 1.455 1.294-.485 5.334-3.072.324-2.91 2.91-.485 1.616-2.586-.161-1.617-.324-3.071.809-1.294-.324-1.131-1.293-1.455 2.102-1.293 1.778 3.233 1.455-.324.323 1.294v1.616l1.94.162.485-2.748.485-.647-1.617-1.455.97-1.455 2.425-1.455.97-1.455 1.778-.161s.324 2.101.97 2.101h1.294l4.85-5.496 3.394-3.072 1.94-.646 2.102-4.689v-1.94l-2.263-3.718-1.94-2.101-2.748.161.485 1.132-.162.485h-.808l-2.91-2.263-.162-4.85-.808-1.94h-5.982l-9.053-29.907-1.94-.97-5.981-2.425-1.455-.162-1.778 1.779-4.042 2.91v.97l-.808.808-2.748-.647-1.294-2.263v-1.132l-1.293-.161h-1.293l-2.102 4.203-2.91 8.891-1.778 4.85.162 4.85.161 1.455-.808 2.748-.808.97v5.981l1.94 2.425-1.455 4.042-2.587 4.688-.808 5.496v2.587l-1.514-.41-1.42.118-.857.459-.897-.006-.647 1.617-.647-.485-.97-.97-1.454 1.94-.049 5.032-.92.302-26.248 6.748-.622.396-7.565 2.072-4.527 1.454-3.233-.161-5.496 1.293-3.082 1.246-2.415 1.826-2.101 2.425-2.749 3.718-2.91 4.526-1.454 2.91-.647.808-5.82 5.497.162 2.586.808 1.132 1.778.808h1.779v1.455l-1.132 2.102.323 1.455 1.455 2.101-.161 2.264-1.94 1.131h-2.102l-1.616 1.94-1.779 3.233-2.101 1.779-5.173.485-2.587 1.131-2.102 1.294-1.616-.162-1.94-1.293-6.305.161-3.233.485-4.042 1.294-4.364 1.454-2.91 1.779 1.94 6.143 1.778.162 1.293 3.071.162.97-1.132.97-2.101 2.748-.485 1.617-1.94 1.778-1.779 1.132-.97 1.616-1.293 1.132-1.428 1.125-1.006.52-5.487 5.63-1.293.485-4.203 3.009-1.02-.111-6.094 4.053-3.88 2.263-3.394 3.718-4.042 3.88-3.233.809-2.91.485-5.496 2.586-2.102.162-3.395-3.072-5.173.647-2.587-1.455-2.38-1.35-1.153-.326.139-.587.161-1.455 2.102-3.718 2-1.738-.222-5.052 1.597-1.597 1.09-.343.223-3.557 1.536-3.03 1.05.606.162.646.808.162 1.94-.97-.323-9.538-3.233-8.245-2.263-9.053-2.425-3.233-2.587-1.778-1.616 1.131-3.88 1.779-1.94 5.011-2.748 3.718-1.132.647-1.455-.647s-2.587-1.455-2.425-2.101c.162-.647.485-5.012.485-5.012l3.395-1.293.808-3.395.647-2.586 2.425-1.617-.324-10.023-1.616-2.263-1.293-.809-.809-2.101.809-.808 1.616.323.162-1.617-2.425-2.263-1.293-2.587h-2.587l-4.526-1.455-5.497-3.394h-2.748l-.647.646-.97-.485-3.071-2.263-2.91 1.778-2.91 2.264.323 3.556.97.323 2.102.485.485.809-2.587.808-2.586.323-1.455 1.779-.324 2.101.324 1.617.323 5.496-3.556 2.102-.647-.162v-4.203l1.293-2.425.647-2.425-.809-.808-1.94.808-.97 4.203-2.748 1.132-1.778 1.94-.162.97.647.808-.647 2.587-2.263.485v1.131l.809 2.425-1.132 6.143-1.617 4.042.647 4.688.485 1.132-.808 2.425-.324.808-.323 2.748 3.556 5.981 2.91 6.467 1.455 4.85-.808 4.688-.97 5.981-2.425 5.173-.323 2.749-3.259 3.085-1.025.794-2.83 1.617-2.1 1.94-1.132.323-1.455-.97-3.071-.89-.86.195-.273-.921-.808-2.587-1.293-3.718-1.617-1.778-1.455-2.587-.233-5.489-.3-1.079.372-2.97-1.617-4.526-.647-6.143-1.131-2.425.97-3.072.808-2.91 1.455-2.586-.647-3.395-.646-3.557.485-1.778 1.94-2.425.161-2.748-.808-1.293.647-2.587.485-3.233 2.748-5.658 2.91-6.79.161-2.263-.323-.97-.808.485-4.203 6.305-2.749 4.041-1.94 1.778-.808 2.264-1.455.808-1.131 1.94-1.455-.324-.162-1.778 1.293-2.425 2.102-4.688 1.778-1.616 1.101-2.292.568-.892 3.18-7.001.97-4.042 1.94-4.364.81-.162 1.13 1.617h.647l4.527-2.425 1.455 1.616.485.162 1.293-1.132 1.132-3.071 2.425-.809 6.951-.646 1.94-2.587 5.173-.161 5.82 1.293h1.778l3.233-1.455 2.264.162 2.101-.647 3.718.485.809.323 1.293-.323-1.293-.97-1.294-.647-3.233-3.071v-6.952l-1.455-.485-1.131 1.132-6.144 1.617-1.94.485-2.91-.809-.484-.323v-5.658l-1.455-.162-2.587 1.293-4.526 1.94-6.628.324-3.395 1.131-4.042 3.557-1.616.97h-1.132l-1.293.808-1.617-.485-1.617-1.293-1.454.97-3.88.161-2.749-2.748-1.454-3.071-1.455-1.132-3.234-.97h-2.263l-1.293-1.293-3.557 2.91-.97 1.131-.808-.485.323-2.586 2.425-3.233.485-2.425 2.263-.809 1.455-3.071 3.719-.97.323-.97-1.132-1.132-4.688.485-4.365 2.425-2.263 2.263-1.293 1.779-1.778.808-1.94 2.91-.162 1.293-4.365 2.102-2.425 1.94-5.981.97-.647.646v.97l-3.556 2.263-2.749.809-.716.58-1.017.422-.53 1.261-1.131-.162-.647-1.131-2.748-.809-1.132.162-1.778.97-.97-.647.646-1.94 1.94-3.071 1.132-1.132-1.94-1.455-2.102.809-2.91 1.94-7.436 3.233-2.91.646-2.91-.485-.981-.878-.435-.552 3.841-2.934 1.294-.162 4.526-5.011 1.778-.809 2.264-3.88 2.425-3.556 3.071-2.587 4.775-2.007 9.246-4.06 3.938-1.838.612-2.28-4.44.371-.713 1.085h-.647l-1.778-3.072-8.891.323-.97.809h-.97l-.485-1.294-.809-1.778-2.586.485-3.233 3.233-1.617.809h-3.071l-2.587-.97v-2.102l-1.293-.162-.485.485-2.587-1.293-.485-2.91-1.455.485-.485.97-2.425-.485-5.334-2.425-3.88-2.586h-2.91l-1.294-.97-2.263.646-1.131 1.132-.324 1.293h-4.85v-2.101l-6.304-.324-.324-1.455h-4.85l-1.616-1.616-1.455-6.143-.808-5.497-1.94-.808-2.263-.485-.647.162-.323 8.244-30.133-.035-1.097-.047-28.423-.564-18.591-.647-26.512-1.293-24.947-1.884-1.284-.482-30.674-2.807-29.26-3.557-29.261-4.041-32.332-5.335-18.43-3.395-32.723-6.933-1.123-.16-12.996-2.528-.721-.402-15.16-3.395-22.956-5.658-20.046-5.658-8.568-1.94-9.7-2.748-4.365-1.455-1.131.808-.324.808 2.425 4.85 1.132 2.587-1.778 3.556v2.264l.646 1.454-.808 1.779.485 3.233.97 1.293-.162 1.294-1.455.161-.646-1.94-1.132-2.425-1.778-1.455.323-2.101 2.263-.485-.323-1.778-.323-1.132-2.102 1.293-1.293 1.132v2.425l-2.263.161-3.395-.97-2.91-1.454-3.072-.647-4.526-2.102-3.233-1.94-2.749-2.586-2.425-2.91-2.101-.485-2.263 9.376 1.778 3.233v7.922l-.647 2.91 1.455 7.113 2.748 2.748-4.365.647-.161 3.718 2.586 1.131-1.616 4.042-2.748.323-.324 2.91 2.263 2.91-2.101 2.587-2.263 6.466-3.234 10.023-3.233 6.466-5.011 14.065-6.467 13.58-8.083 12.609-1.94 2.91-.808 8.568-1.293 5.981 2.708 3.528-.481.962-1.58 4.725-.162 7.436-5.173 11.801-3.072 2.587-.323 1.132-1.778.808-1.455 4.203-.809 3.233 2.749 4.203 1.616 4.204 1.132 3.556-.324 6.467-1.778 3.071-.646 5.82-.97 3.718 1.778 3.88 2.748 4.526 2.263 4.85 1.294 4.042-.324 3.233-.323.485v2.102l5.658 6.304-.485 2.425-.647 2.263-.646 1.94.161 8.245 2.102 3.718 1.94 2.587 2.748.485.97 2.748-1.131 3.557-2.102 1.616h-1.132l-.808 3.88.485 2.91 3.233 4.365 1.617 5.335 1.455 4.688 1.293 3.071 3.395 5.82 1.455 2.587.485 2.91 1.616.97v2.424l-.808 1.94-1.778 7.113-.485 1.94 2.425 2.748 4.203.485 4.526 1.779 3.88 2.101h2.91l2.91 3.072 2.587 4.85 1.131 2.263 3.88 2.102 4.85.808 1.455 2.101.647 3.234-1.455.646.323.97 3.233.809 2.748.161 2.91 4.688 3.88 4.204.808 2.263 2.587 4.203.323 3.233v9.376l.485 1.779 10.023 1.455 19.723 2.748 13.907.975 1.006.746-2.627 2.159-.323 1.455.485.97 18.914 10.67 12.124 7.597 14.712 8.568 16.812 10.023 12.286 2.425 25.128 2.705 1.605.802 15.46 1.99 1.294-10.023 16.651 2.586 12.456 1.618.962-.001 1.94.485 2.586 2.91 1.455 4.365 4.689 2.263 1.293 3.233 7.113 7.921 1.293 1.617 5.012 2.102 1.131 2.101 1.617.97.485 2.748 3.233 6.467v8.083l2.263 4.688 7.437 7.76 5.173 2.101 1.778 1.94v.647l3.88 2.263 1.94.647 1.778 1.131 2.587.97 2.425-2.425 4.364-6.143.97-3.718 2.264-3.233 3.556-1.455 4.527-1.778 3.071 2.263 7.437.647 6.79 1.131 2.586 2.102v1.131l2.586 3.072 5.982 5.335.162 1.455 1.778 1.94.808 4.203 5.335 12.286-.162 1.94 4.203 2.586 3.557 6.629 3.395 4.364 3.233 1.294 1.617 2.263-1.294 4.365.647.97 1.293.646-.323 3.395-.647.647.647 2.263 3.233 1.94 1.293 6.466 2.102 3.88 7.598 3.395 5.173 1.132 4.203 3.071 3.234.647 1.293-.485 5.496 1.132 5.658 3.88 3.072-1.94.97-1.455-1.778-2.749-.97-6.143-1.779-6.951-.808-2.425.808-4.527 1.132-3.88 1.293-4.526 1.455-5.496-2.263-1.94.97-1.94 4.042-.324 3.88-5.496 3.394-.647 5.82-3.556 1.778-1.455 6.305-3.395 5.658-2.425 5.335-3.233 2.748-2.102 5.658-5.334 1.294-.809 2.101-1.455 2.587-1.94.97-1.94 9.861-4.526 5.665-1.585.641-.128 4.687-1.52 8.083-.324 10.346 3.557 6.467 1.132 3.718-1.455 3.233 1.131 3.233.97.809-2.101-3.234-1.132-2.586.485-2.748-1.617s.161-1.293.808-1.455c.647-.161 3.071-.97 3.071-.97l1.779 1.455 1.778-.97 3.233.647 1.455 2.425.323 2.263 4.527.324 1.778 1.778-.808 1.616-1.293.809 1.616 1.616 8.407 3.557 3.556-1.293.97-2.425 2.587-.647 1.778-1.455 1.293.97.808 2.91-2.263.808.647.647 3.395-1.293 2.263-3.395.808-.485-2.101-.324.808-1.616-.162-1.455 2.102-.485 1.132-1.293.646.808s-.161 3.071.647 3.071 4.203.647 4.203.647l4.042 1.94.97 1.455h2.91l1.131.97 2.263-3.072v-1.455h-1.293l-3.395-2.748-5.82-.808-3.233-2.263 1.132-2.749 2.263.324.162-.647-1.779-.97v-.485h3.234l1.778-3.071-1.293-1.94-.324-2.749-1.455.162-1.94 2.102-.646 2.586-3.072-.646-.97-1.779 1.778-1.94 2.021-1.778.757-.515 1.102-.778 2.587-4.203 1.778.808 6.79-1.94 2.101.323 1.455.809h5.174l.254-1.256 1.039-.2h2.748l.647.162 1.293-2.748 1.455-4.365 2.263.647 3.072 5.981v.97l-2.748 1.94 2.748.324 5.542-2.573.678.114 3.48-.613 5.98-2.101 5.982-.485 4.365-.647 7.598 1.778 8.083 3.88 1.617 1.455 2.91 1.132 1.616 1.94.324 2.748 3.233-1.294h3.88l3.556-1.94 3.718-3.556 3.072.162.485-1.132-.808-.97.161-1.94 4.042-.808h2.586l2.91 1.455 4.203 1.455 2.425 3.718 2.748.97 1.132 3.395 3.395 1.616 1.617 2.587 1.94.647 5.173 1.293 1.293 3.071 3.071 3.719v9.538l-1.454 4.688.323 2.748 1.293 4.85 1.778 4.041.809-.485 1.455-4.526-2.587-.97-.323-.647 1.616-.646 4.527.97.162 1.616-3.234 5.497-2.101 2.424 3.556 3.719 2.587 3.071 2.91 5.335 2.91 3.88 2.101 5.011 1.778.324 1.617-2.102 1.778 1.132 2.587 4.041.647 3.557 3.071 4.365.808-1.294 3.88.324 3.557 2.263 3.395 5.173.808 3.395.323 2.91 1.132.97 1.293.485 2.425-.97 1.455-1.617 3.88-.162 3.071-1.454 2.749-3.234-.485-1.94-.324-2.425.647-1.94-.323-1.94 2.425-1.293.323-3.395-.647-1.778-.485-11.963-1.293-7.598-4.527-8.244-3.556-5.82-2.587-5.335-2.91-2.91-2.91-7.436.809-1.293 1.132-1.294-1.617-2.91-4.042-3.718-4.85-5.496-3.718-6.305-5.334-9.376-3.73-9.743-2.266-7.318-.019-.89-.775-6.298 2.263-10.023 1.455-4.204-.485-2.586 3.335-6.244-.51-1.352.57-.972 2.102-1.293 5.011-5.497-.97-3.233 2.91-.162 3.556-3.395 1.617-.808 2.263-3.395 2.749-2.748 2.101-3.557 2.425-.646 1.132-2.748 1.616-.809.485-6.304 2.587-6.144 5.421-5.458.28-.803 5.453-1.337 4.689-.485.485-2.425 1.94-6.466 3.394-4.688 6.467-5.335 5.173-2.425 2.748-.646 1.132.485h1.293l3.072-4.85 1.94-3.557-1.294.485-2.263 2.263-.647-1.616h-4.203l1.94-6.305-.808-1.293h-1.94v-.97l-.323-1.293 1.616 1.293 1.455.161 2.425.324 3.718-1.617 1.293-2.91.647-2.101 2.587-1.294.323-4.203-.808-.646 2.425-.162-.647-2.263-2.425-2.425-3.556-6.467-1.71-4.698-.92-.925-3.608-6.012-5.801 1.686-1.573-1.494 2.553-1.382-.491-2.524-1.774-1.785-.121-1.412-2.281-1.543-.09-1.615 2.695.094.222-1.384-1.23-.79.48-1.93-1.375-1.103.439-4.69-.868-1.2-3.19-.402-2.153-2.089-4.856-.942-2.949-.968zm-37.273 311.85l2.425-.647 1.293-.242 1.455-2.344 2.344-1.617 1.293.485 1.698.323.404 1.051-3.476 1.213-4.203 1.455-2.344 1.212-.89-.89zm13.498-5.012l1.213 1.051 2.748-2.101 5.335-4.204 3.718-3.88 2.506-6.628.97-1.697.161-3.395-.727.485-.97 2.83-1.455 4.606-3.233 5.254-4.365 4.204-3.395 1.94-2.506 1.535zm54.561-241.44l2.587-2.506 3.152-2.587 1.536-.646.161-2.021-.646-6.143-1.455-2.344-.647-1.86.728-.242 2.748 5.497.404 4.445-.162 3.395-3.395 1.536-2.829 2.425-1.131 1.212-1.051-.161zm63.975-157.609l2.172-.686.457-1.714 1.029.114 1.029 2.286-1.258.457-3.886.115.457-.572zm-9.373.8l2.286-2.629h1.6l1.83 1.486-2.401 1.03-2.172 1.028-1.143-.915zm11.679-67.173l1.536-1.536 1.374 1.051.566 2.425-1.698.89-1.778-2.83zm6.709-5.9l1.778 1.859s1.293.08 1.293-.243.243-2.02.243-2.02l.89-.809-.81-1.778-2.02.727-1.374 2.264zM820.32 264.289l1.131 2.506.162 1.778 1.132 1.86s.889-.89.889-1.213c0-.323-.728-3.071-.728-3.071l-.727-2.345-1.86.485zM581.619 82.06l1.83-2.058 2.171-.8 5.373-3.886 2.286-.572.457.457-5.144 5.144-3.315 1.944-2.057.914-1.6-1.143zm86.175 32.128l.646 2.506 3.234.162 1.293-1.213s-.081-1.455-.404-1.616c-.324-.162-1.617-1.86-1.617-1.86l-2.182.243-1.617.162-.323 1.131.97.485zM84.117 12.341l2.02-.162.485 1.374 1.536-1.616h2.344l.808 1.535-1.535 1.698.646.808-.727 2.02-1.374.405s-.89.08-.89-.242c0-.324 1.456-2.587 1.456-2.587l-1.698-.566-.323 1.455-.728.647-1.535-2.264-.485-2.505zM457.23 567.323l-.566-7.113-2.748-7.194-.566-7.032 1.536-8.245 3.314-6.87 3.476-5.416 3.152-3.557.647.243-4.77 6.628-4.364 6.547-2.02 6.628-.324 5.173.89 6.144 2.586 7.193.485 5.174.161 1.455-.889.242zM48.794 337.037l1.293 1.536-.162 1.293-3.233-.08-.566-1.213-.646-1.455 3.314-.081zm1.94 0l1.212-.647 3.557 2.102 3.071 1.212-.889.647-4.527-.243-1.616-1.616-.808-1.455zm20.692 19.803l1.778 2.344.809.97 1.536.566.565-1.455-.97-1.778-2.667-2.02-1.05.16v1.213zm-1.455 8.65l1.778 3.152 1.213 1.94-1.455.242-1.293-1.212s-.728-1.455-.728-1.86v-2.182l.485-.08z" fill="##313131"/></svg>